%TF.GenerationSoftware,KiCad,Pcbnew,7.0.9*%
%TF.CreationDate,2023-12-30T13:25:45-08:00*%
%TF.ProjectId,Interconnect Board,496e7465-7263-46f6-9e6e-65637420426f,v1.3*%
%TF.SameCoordinates,Original*%
%TF.FileFunction,Copper,L2,Bot*%
%TF.FilePolarity,Positive*%
%FSLAX46Y46*%
G04 Gerber Fmt 4.6, Leading zero omitted, Abs format (unit mm)*
G04 Created by KiCad (PCBNEW 7.0.9) date 2023-12-30 13:25:45*
%MOMM*%
%LPD*%
G01*
G04 APERTURE LIST*
%TA.AperFunction,ComponentPad*%
%ADD10C,4.000000*%
%TD*%
%TA.AperFunction,ComponentPad*%
%ADD11R,1.600000X1.600000*%
%TD*%
%TA.AperFunction,ComponentPad*%
%ADD12C,1.600000*%
%TD*%
%TA.AperFunction,ViaPad*%
%ADD13C,0.800000*%
%TD*%
%TA.AperFunction,Conductor*%
%ADD14C,0.250000*%
%TD*%
%TA.AperFunction,Conductor*%
%ADD15C,1.000000*%
%TD*%
%TA.AperFunction,Conductor*%
%ADD16C,1.500000*%
%TD*%
G04 APERTURE END LIST*
D10*
%TO.P,XPNDR_Serial_2,0,PAD*%
%TO.N,GND*%
X134622000Y-45069100D03*
X159622000Y-45069100D03*
D11*
%TO.P,XPNDR_Serial_2,1,1*%
X141582000Y-43649100D03*
D12*
%TO.P,XPNDR_Serial_2,2,2*%
%TO.N,/XPNDR_&_IDENT_12V*%
X144352000Y-43649100D03*
%TO.P,XPNDR_Serial_2,3,3*%
%TO.N,/XPNDR_Serial_2_Tx*%
X147122000Y-43649100D03*
%TO.P,XPNDR_Serial_2,4,4*%
%TO.N,/XPNDR_Serial_2_Rx*%
X149892000Y-43649100D03*
%TO.P,XPNDR_Serial_2,5,5*%
%TO.N,/Ident_SW_Input*%
X152662000Y-43649100D03*
%TO.P,XPNDR_Serial_2,6,6*%
%TO.N,unconnected-(XPNDR_Serial_2-Pad6)*%
X142967000Y-46489100D03*
%TO.P,XPNDR_Serial_2,7,7*%
%TO.N,unconnected-(XPNDR_Serial_2-Pad7)*%
X145737000Y-46489100D03*
%TO.P,XPNDR_Serial_2,8,8*%
%TO.N,unconnected-(XPNDR_Serial_2-Pad8)*%
X148507000Y-46489100D03*
%TO.P,XPNDR_Serial_2,9,9*%
%TO.N,unconnected-(XPNDR_Serial_2-Pad9)*%
X151277000Y-46489100D03*
%TD*%
D10*
%TO.P,VPX_Serial_3,0,PAD*%
%TO.N,GND*%
X134622000Y-62069100D03*
X159622000Y-62069100D03*
D11*
%TO.P,VPX_Serial_3,1,1*%
X141582000Y-60649100D03*
D12*
%TO.P,VPX_Serial_3,2,2*%
%TO.N,unconnected-(VPX_Serial_3-Pad2)*%
X144352000Y-60649100D03*
%TO.P,VPX_Serial_3,3,3*%
%TO.N,/VPX_Serial_3_Tx*%
X147122000Y-60649100D03*
%TO.P,VPX_Serial_3,4,4*%
%TO.N,/VPX_Serial_3_Rx*%
X149892000Y-60649100D03*
%TO.P,VPX_Serial_3,5,5*%
%TO.N,unconnected-(VPX_Serial_3-Pad5)*%
X152662000Y-60649100D03*
%TO.P,VPX_Serial_3,6,6*%
%TO.N,unconnected-(VPX_Serial_3-Pad6)*%
X142967000Y-63489100D03*
%TO.P,VPX_Serial_3,7,7*%
%TO.N,unconnected-(VPX_Serial_3-Pad7)*%
X145737000Y-63489100D03*
%TO.P,VPX_Serial_3,8,8*%
%TO.N,unconnected-(VPX_Serial_3-Pad8)*%
X148507000Y-63489100D03*
%TO.P,VPX_Serial_3,9,9*%
%TO.N,unconnected-(VPX_Serial_3-Pad9)*%
X151277000Y-63489100D03*
%TD*%
D10*
%TO.P,SkyView_3,0,PAD*%
%TO.N,GND*%
X174622000Y-96069100D03*
X199622000Y-96069100D03*
D11*
%TO.P,SkyView_3,1,1*%
%TO.N,/SV_Data_1A*%
X181582000Y-94649100D03*
D12*
%TO.P,SkyView_3,2,2*%
%TO.N,/SV_GND_1*%
X184352000Y-94649100D03*
%TO.P,SkyView_3,3,3*%
%TO.N,/SV_GND_2*%
X187122000Y-94649100D03*
%TO.P,SkyView_3,4,4*%
%TO.N,/SV_Data_2B*%
X189892000Y-94649100D03*
%TO.P,SkyView_3,5,5*%
%TO.N,/SV_EMS_Aux*%
X192662000Y-94649100D03*
%TO.P,SkyView_3,6,6*%
%TO.N,/SV_Data_1B*%
X182967000Y-97489100D03*
%TO.P,SkyView_3,7,7*%
%TO.N,/SV_Power_1*%
X185737000Y-97489100D03*
%TO.P,SkyView_3,8,8*%
%TO.N,/SV_Data_2A*%
X188507000Y-97489100D03*
%TO.P,SkyView_3,9,9*%
%TO.N,/SV_Power_2*%
X191277000Y-97489100D03*
%TD*%
D10*
%TO.P,SkyView_2,0,PAD*%
%TO.N,GND*%
X174622000Y-79069100D03*
X199622000Y-79069100D03*
D11*
%TO.P,SkyView_2,1,1*%
%TO.N,/SV_Data_1A*%
X181582000Y-77649100D03*
D12*
%TO.P,SkyView_2,2,2*%
%TO.N,/SV_GND_1*%
X184352000Y-77649100D03*
%TO.P,SkyView_2,3,3*%
%TO.N,/SV_GND_2*%
X187122000Y-77649100D03*
%TO.P,SkyView_2,4,4*%
%TO.N,/SV_Data_2B*%
X189892000Y-77649100D03*
%TO.P,SkyView_2,5,5*%
%TO.N,/SV_EMS_Aux*%
X192662000Y-77649100D03*
%TO.P,SkyView_2,6,6*%
%TO.N,/SV_Data_1B*%
X182967000Y-80489100D03*
%TO.P,SkyView_2,7,7*%
%TO.N,/SV_Power_1*%
X185737000Y-80489100D03*
%TO.P,SkyView_2,8,8*%
%TO.N,/SV_Data_2A*%
X188507000Y-80489100D03*
%TO.P,SkyView_2,9,9*%
%TO.N,/SV_Power_2*%
X191277000Y-80489100D03*
%TD*%
%TO.P,SkyView_1,9,9*%
%TO.N,/SV_Power_2*%
X191277000Y-63489100D03*
%TO.P,SkyView_1,8,8*%
%TO.N,/SV_Data_2A*%
X188507000Y-63489100D03*
%TO.P,SkyView_1,7,7*%
%TO.N,/SV_Power_1*%
X185737000Y-63489100D03*
%TO.P,SkyView_1,6,6*%
%TO.N,/SV_Data_1B*%
X182967000Y-63489100D03*
%TO.P,SkyView_1,5,5*%
%TO.N,/SV_EMS_Aux*%
X192662000Y-60649100D03*
%TO.P,SkyView_1,4,4*%
%TO.N,/SV_Data_2B*%
X189892000Y-60649100D03*
%TO.P,SkyView_1,3,3*%
%TO.N,/SV_GND_2*%
X187122000Y-60649100D03*
%TO.P,SkyView_1,2,2*%
%TO.N,/SV_GND_1*%
X184352000Y-60649100D03*
D11*
%TO.P,SkyView_1,1,1*%
%TO.N,/SV_Data_1A*%
X181582000Y-60649100D03*
D10*
%TO.P,SkyView_1,0,PAD*%
%TO.N,GND*%
X199622000Y-62069100D03*
X174622000Y-62069100D03*
%TD*%
%TO.P,Power_Input_1,0,PAD*%
%TO.N,GND*%
X154464100Y-129069100D03*
X179464100Y-129069100D03*
D11*
%TO.P,Power_Input_1,1,1*%
X161424100Y-127649100D03*
D12*
%TO.P,Power_Input_1,2,2*%
X164194100Y-127649100D03*
%TO.P,Power_Input_1,3,3*%
%TO.N,/ADSB_12V*%
X166964100Y-127649100D03*
%TO.P,Power_Input_1,4,4*%
%TO.N,/MFD_12V*%
X169734100Y-127649100D03*
%TO.P,Power_Input_1,5,5*%
%TO.N,/PFD_&_Dim_12V*%
X172504100Y-127649100D03*
%TO.P,Power_Input_1,6,6*%
%TO.N,GND*%
X162809100Y-130489100D03*
%TO.P,Power_Input_1,7,7*%
%TO.N,/ELT_12V*%
X165579100Y-130489100D03*
%TO.P,Power_Input_1,8,8*%
%TO.N,/SV-Net_AP_12V*%
X168349100Y-130489100D03*
%TO.P,Power_Input_1,9,9*%
%TO.N,/XPNDR_&_IDENT_12V*%
X171119100Y-130489100D03*
%TD*%
D10*
%TO.P,Ident_&_Dimmer_Input_1,0,PAD*%
%TO.N,GND*%
X134622000Y-113069100D03*
X159622000Y-113069100D03*
D11*
%TO.P,Ident_&_Dimmer_Input_1,1,1*%
X141582000Y-111649100D03*
D12*
%TO.P,Ident_&_Dimmer_Input_1,2,2*%
%TO.N,/Dimmer_Signal_Input*%
X144352000Y-111649100D03*
%TO.P,Ident_&_Dimmer_Input_1,3,3*%
%TO.N,unconnected-(Ident_&_Dimmer_Input_1-Pad3)*%
X147122000Y-111649100D03*
%TO.P,Ident_&_Dimmer_Input_1,4,4*%
%TO.N,/Dimmer_Output_Signal*%
X149892000Y-111649100D03*
%TO.P,Ident_&_Dimmer_Input_1,5,5*%
%TO.N,GND*%
X152662000Y-111649100D03*
%TO.P,Ident_&_Dimmer_Input_1,6,6*%
%TO.N,/PFD_&_Dim_12V*%
X142967000Y-114489100D03*
%TO.P,Ident_&_Dimmer_Input_1,7,7*%
%TO.N,unconnected-(Ident_&_Dimmer_Input_1-Pad7)*%
X145737000Y-114489100D03*
%TO.P,Ident_&_Dimmer_Input_1,8,8*%
%TO.N,/Ident_SW_Input*%
X148507000Y-114489100D03*
%TO.P,Ident_&_Dimmer_Input_1,9,9*%
%TO.N,/XPNDR_&_IDENT_12V*%
X151277000Y-114489100D03*
%TD*%
D10*
%TO.P,GPS_Serial_5,0,PAD*%
%TO.N,GND*%
X134622000Y-96069100D03*
X159622000Y-96069100D03*
D11*
%TO.P,GPS_Serial_5,1,1*%
%TO.N,/GPS_GND*%
X141582000Y-94649100D03*
D12*
%TO.P,GPS_Serial_5,2,2*%
%TO.N,/GPS_Power*%
X144352000Y-94649100D03*
%TO.P,GPS_Serial_5,3,3*%
%TO.N,/GPS_Serial_5_Tx*%
X147122000Y-94649100D03*
%TO.P,GPS_Serial_5,4,4*%
%TO.N,/GPS_Serial_5_Rx*%
X149892000Y-94649100D03*
%TO.P,GPS_Serial_5,5,5*%
%TO.N,unconnected-(GPS_Serial_5-Pad5)*%
X152662000Y-94649100D03*
%TO.P,GPS_Serial_5,6,6*%
%TO.N,unconnected-(GPS_Serial_5-Pad6)*%
X142967000Y-97489100D03*
%TO.P,GPS_Serial_5,7,7*%
%TO.N,unconnected-(GPS_Serial_5-Pad7)*%
X145737000Y-97489100D03*
%TO.P,GPS_Serial_5,8,8*%
%TO.N,unconnected-(GPS_Serial_5-Pad8)*%
X148507000Y-97489100D03*
%TO.P,GPS_Serial_5,9,9*%
%TO.N,unconnected-(GPS_Serial_5-Pad9)*%
X151277000Y-97489100D03*
%TD*%
D10*
%TO.P,ELT_Serial_4,0,PAD*%
%TO.N,GND*%
X134622000Y-79069100D03*
X159622000Y-79069100D03*
D11*
%TO.P,ELT_Serial_4,1,1*%
X141582000Y-77649100D03*
D12*
%TO.P,ELT_Serial_4,2,2*%
%TO.N,/ELT_12V*%
X144352000Y-77649100D03*
%TO.P,ELT_Serial_4,3,3*%
%TO.N,/ELT_Serial_4_Tx*%
X147122000Y-77649100D03*
%TO.P,ELT_Serial_4,4,4*%
%TO.N,/ELT_Serial_4_Rx*%
X149892000Y-77649100D03*
%TO.P,ELT_Serial_4,5,5*%
%TO.N,unconnected-(ELT_Serial_4-Pad5)*%
X152662000Y-77649100D03*
%TO.P,ELT_Serial_4,6,6*%
%TO.N,unconnected-(ELT_Serial_4-Pad6)*%
X142967000Y-80489100D03*
%TO.P,ELT_Serial_4,7,7*%
%TO.N,unconnected-(ELT_Serial_4-Pad7)*%
X145737000Y-80489100D03*
%TO.P,ELT_Serial_4,8,8*%
%TO.N,unconnected-(ELT_Serial_4-Pad8)*%
X148507000Y-80489100D03*
%TO.P,ELT_Serial_4,9,9*%
%TO.N,unconnected-(ELT_Serial_4-Pad9)*%
X151277000Y-80489100D03*
%TD*%
D10*
%TO.P,Dimmer_&_Audio_Output_1,0,PAD*%
%TO.N,GND*%
X174622000Y-113069100D03*
X199622000Y-113069100D03*
D11*
%TO.P,Dimmer_&_Audio_Output_1,1,1*%
%TO.N,/L_Audio_Out_1*%
X181582000Y-111649100D03*
D12*
%TO.P,Dimmer_&_Audio_Output_1,2,2*%
%TO.N,/R_Audio_Out_1*%
X184352000Y-111649100D03*
%TO.P,Dimmer_&_Audio_Output_1,3,3*%
%TO.N,/Dimmer_Output_Signal*%
X187122000Y-111649100D03*
%TO.P,Dimmer_&_Audio_Output_1,4,4*%
%TO.N,unconnected-(Dimmer_&_Audio_Output_1-Pad4)*%
X189892000Y-111649100D03*
%TO.P,Dimmer_&_Audio_Output_1,5,5*%
%TO.N,unconnected-(Dimmer_&_Audio_Output_1-Pad5)*%
X192662000Y-111649100D03*
%TO.P,Dimmer_&_Audio_Output_1,6,6*%
%TO.N,/Audio_Out_GND*%
X182967000Y-114489100D03*
%TO.P,Dimmer_&_Audio_Output_1,7,7*%
%TO.N,/Dimmer_Output_Signal*%
X185737000Y-114489100D03*
%TO.P,Dimmer_&_Audio_Output_1,8,8*%
X188507000Y-114489100D03*
%TO.P,Dimmer_&_Audio_Output_1,9,9*%
%TO.N,unconnected-(Dimmer_&_Audio_Output_1-Pad9)*%
X191277000Y-114489100D03*
%TD*%
D10*
%TO.P,AP_Roll_SV_Net_2,0,PAD*%
%TO.N,GND*%
X199546200Y-27865200D03*
X174546200Y-27865200D03*
D11*
%TO.P,AP_Roll_SV_Net_2,1,1*%
%TO.N,/SV_Data_1A*%
X192586200Y-29285200D03*
D12*
%TO.P,AP_Roll_SV_Net_2,2,2*%
%TO.N,GND*%
X189816200Y-29285200D03*
%TO.P,AP_Roll_SV_Net_2,3,3*%
%TO.N,/AP_Disengage (Unused)*%
X187046200Y-29285200D03*
%TO.P,AP_Roll_SV_Net_2,4,4*%
%TO.N,/SV_Data_2B*%
X184276200Y-29285200D03*
%TO.P,AP_Roll_SV_Net_2,5,5*%
%TO.N,unconnected-(AP_Roll_SV_Net_2-Pad5)*%
X181506200Y-29285200D03*
%TO.P,AP_Roll_SV_Net_2,6,6*%
%TO.N,/SV_Data_1B*%
X191201200Y-26445200D03*
%TO.P,AP_Roll_SV_Net_2,7,7*%
%TO.N,/SV-Net_AP_12V*%
X188431200Y-26445200D03*
%TO.P,AP_Roll_SV_Net_2,8,8*%
%TO.N,/SV_Data_2A*%
X185661200Y-26445200D03*
%TO.P,AP_Roll_SV_Net_2,9,9*%
%TO.N,unconnected-(AP_Roll_SV_Net_2-Pad9)*%
X182891200Y-26445200D03*
%TD*%
D10*
%TO.P,AP_Pitch_SV_Net_1,0,PAD*%
%TO.N,GND*%
X199546200Y-44865200D03*
X174546200Y-44865200D03*
D11*
%TO.P,AP_Pitch_SV_Net_1,1,1*%
%TO.N,/SV_Data_1A*%
X192586200Y-46285200D03*
D12*
%TO.P,AP_Pitch_SV_Net_1,2,2*%
%TO.N,GND*%
X189816200Y-46285200D03*
%TO.P,AP_Pitch_SV_Net_1,3,3*%
%TO.N,/AP_Disengage (Unused)*%
X187046200Y-46285200D03*
%TO.P,AP_Pitch_SV_Net_1,4,4*%
%TO.N,/SV_Data_2B*%
X184276200Y-46285200D03*
%TO.P,AP_Pitch_SV_Net_1,5,5*%
%TO.N,unconnected-(AP_Pitch_SV_Net_1-Pad5)*%
X181506200Y-46285200D03*
%TO.P,AP_Pitch_SV_Net_1,6,6*%
%TO.N,/SV_Data_1B*%
X191201200Y-43445200D03*
%TO.P,AP_Pitch_SV_Net_1,7,7*%
%TO.N,/SV-Net_AP_12V*%
X188431200Y-43445200D03*
%TO.P,AP_Pitch_SV_Net_1,8,8*%
%TO.N,/SV_Data_2A*%
X185661200Y-43445200D03*
%TO.P,AP_Pitch_SV_Net_1,9,9*%
%TO.N,unconnected-(AP_Pitch_SV_Net_1-Pad9)*%
X182891200Y-43445200D03*
%TD*%
D10*
%TO.P,ADSB_Serial_1,0,PAD*%
%TO.N,GND*%
X134622000Y-28069100D03*
X159622000Y-28069100D03*
D11*
%TO.P,ADSB_Serial_1,1,1*%
X141582000Y-26649100D03*
D12*
%TO.P,ADSB_Serial_1,2,2*%
%TO.N,/ADSB_12V*%
X144352000Y-26649100D03*
%TO.P,ADSB_Serial_1,3,3*%
%TO.N,/ADSB_Serial_1_Tx*%
X147122000Y-26649100D03*
%TO.P,ADSB_Serial_1,4,4*%
%TO.N,/ADSB_Serial_1_Rx*%
X149892000Y-26649100D03*
%TO.P,ADSB_Serial_1,5,5*%
%TO.N,unconnected-(ADSB_Serial_1-Pad5)*%
X152662000Y-26649100D03*
%TO.P,ADSB_Serial_1,6,6*%
%TO.N,unconnected-(ADSB_Serial_1-Pad6)*%
X142967000Y-29489100D03*
%TO.P,ADSB_Serial_1,7,7*%
%TO.N,unconnected-(ADSB_Serial_1-Pad7)*%
X145737000Y-29489100D03*
%TO.P,ADSB_Serial_1,8,8*%
%TO.N,unconnected-(ADSB_Serial_1-Pad8)*%
X148507000Y-29489100D03*
%TO.P,ADSB_Serial_1,9,9*%
%TO.N,unconnected-(ADSB_Serial_1-Pad9)*%
X151277000Y-29489100D03*
%TD*%
D10*
%TO.P,MFD_Main_2,0,PAD*%
%TO.N,GND*%
X218002000Y-98469100D03*
X218002000Y-34969100D03*
D11*
%TO.P,MFD_Main_2,1,1*%
%TO.N,/MFD_12V*%
X216582000Y-91649100D03*
D12*
%TO.P,MFD_Main_2,2,2*%
%TO.N,unconnected-(MFD_Main_2-Pad2)*%
X216582000Y-88879100D03*
%TO.P,MFD_Main_2,3,3*%
%TO.N,/ADSB_Serial_1_Rx*%
X216582000Y-86109100D03*
%TO.P,MFD_Main_2,4,4*%
%TO.N,/ADSB_Serial_1_Tx*%
X216582000Y-83339100D03*
%TO.P,MFD_Main_2,5,5*%
%TO.N,/XPNDR_Serial_2_Rx*%
X216582000Y-80569100D03*
%TO.P,MFD_Main_2,6,6*%
%TO.N,/XPNDR_Serial_2_Tx*%
X216582000Y-77799100D03*
%TO.P,MFD_Main_2,7,7*%
%TO.N,/VPX_Serial_3_Rx*%
X216582000Y-75029100D03*
%TO.P,MFD_Main_2,8,8*%
%TO.N,/VPX_Serial_3_Tx*%
X216582000Y-72259100D03*
%TO.P,MFD_Main_2,9,9*%
%TO.N,/ELT_Serial_4_Rx*%
X216582000Y-69489100D03*
%TO.P,MFD_Main_2,10,10*%
%TO.N,/ELT_Serial_4_Tx*%
X216582000Y-66719100D03*
%TO.P,MFD_Main_2,11,11*%
%TO.N,/GPS_Serial_5_Rx*%
X216582000Y-63949100D03*
%TO.P,MFD_Main_2,12,12*%
%TO.N,/GPS_Serial_5_Tx*%
X216582000Y-61179100D03*
%TO.P,MFD_Main_2,13,13*%
%TO.N,/L_Audio_Out_1*%
X216582000Y-58409100D03*
%TO.P,MFD_Main_2,14,14*%
%TO.N,unconnected-(MFD_Main_2-Pad14)*%
X216582000Y-55639100D03*
%TO.P,MFD_Main_2,15,15*%
%TO.N,/SV_Data_1A*%
X216582000Y-52869100D03*
%TO.P,MFD_Main_2,16,16*%
%TO.N,/SV_GND_1*%
X216582000Y-50099100D03*
%TO.P,MFD_Main_2,17,17*%
%TO.N,/SV_GND_2*%
X216582000Y-47329100D03*
%TO.P,MFD_Main_2,18,18*%
%TO.N,/SV_Data_2B*%
X216582000Y-44559100D03*
%TO.P,MFD_Main_2,19,19*%
%TO.N,/SV_EMS_Aux*%
X216582000Y-41789100D03*
%TO.P,MFD_Main_2,20,20*%
%TO.N,/MFD_12V*%
X219422000Y-90264100D03*
%TO.P,MFD_Main_2,21,21*%
%TO.N,GND*%
X219422000Y-87494100D03*
%TO.P,MFD_Main_2,22,22*%
X219422000Y-84724100D03*
%TO.P,MFD_Main_2,23,23*%
%TO.N,unconnected-(MFD_Main_2-Pad23)*%
X219422000Y-81954100D03*
%TO.P,MFD_Main_2,24,24*%
%TO.N,/GPS_GND*%
X219422000Y-79184100D03*
%TO.P,MFD_Main_2,25,25*%
%TO.N,/Dimmer_Signal_Input*%
X219422000Y-76414100D03*
%TO.P,MFD_Main_2,26,26*%
%TO.N,unconnected-(MFD_Main_2-Pad26)*%
X219422000Y-73644100D03*
%TO.P,MFD_Main_2,27,27*%
%TO.N,unconnected-(MFD_Main_2-Pad27)*%
X219422000Y-70874100D03*
%TO.P,MFD_Main_2,28,28*%
%TO.N,unconnected-(MFD_Main_2-Pad28)*%
X219422000Y-68104100D03*
%TO.P,MFD_Main_2,29,29*%
%TO.N,/GPS_Power*%
X219422000Y-65334100D03*
%TO.P,MFD_Main_2,30,30*%
%TO.N,/Audio_Out_GND*%
X219422000Y-62564100D03*
%TO.P,MFD_Main_2,31,31*%
%TO.N,/R_Audio_Out_1*%
X219422000Y-59794100D03*
%TO.P,MFD_Main_2,32,32*%
%TO.N,unconnected-(MFD_Main_2-Pad32)*%
X219422000Y-57024100D03*
%TO.P,MFD_Main_2,33,33*%
%TO.N,unconnected-(MFD_Main_2-Pad33)*%
X219422000Y-54254100D03*
%TO.P,MFD_Main_2,34,34*%
%TO.N,/SV_Data_1B*%
X219422000Y-51484100D03*
%TO.P,MFD_Main_2,35,35*%
%TO.N,/SV_Power_1*%
X219422000Y-48714100D03*
%TO.P,MFD_Main_2,36,36*%
%TO.N,/SV_Data_2A*%
X219422000Y-45944100D03*
%TO.P,MFD_Main_2,37,37*%
%TO.N,/SV_Power_2*%
X219422000Y-43174100D03*
%TD*%
D10*
%TO.P,PFD_Main_1,0,PAD*%
%TO.N,GND*%
X115162000Y-33673100D03*
X115162000Y-97173100D03*
D11*
%TO.P,PFD_Main_1,1,1*%
%TO.N,/PFD_&_Dim_12V*%
X116582000Y-40493100D03*
D12*
%TO.P,PFD_Main_1,2,2*%
%TO.N,unconnected-(PFD_Main_1-Pad2)*%
X116582000Y-43263100D03*
%TO.P,PFD_Main_1,3,3*%
%TO.N,/ADSB_Serial_1_Rx*%
X116582000Y-46033100D03*
%TO.P,PFD_Main_1,4,4*%
%TO.N,/ADSB_Serial_1_Tx*%
X116582000Y-48803100D03*
%TO.P,PFD_Main_1,5,5*%
%TO.N,/XPNDR_Serial_2_Rx*%
X116582000Y-51573100D03*
%TO.P,PFD_Main_1,6,6*%
%TO.N,/XPNDR_Serial_2_Tx*%
X116582000Y-54343100D03*
%TO.P,PFD_Main_1,7,7*%
%TO.N,/VPX_Serial_3_Rx*%
X116582000Y-57113100D03*
%TO.P,PFD_Main_1,8,8*%
%TO.N,/VPX_Serial_3_Tx*%
X116582000Y-59883100D03*
%TO.P,PFD_Main_1,9,9*%
%TO.N,/ELT_Serial_4_Rx*%
X116582000Y-62653100D03*
%TO.P,PFD_Main_1,10,10*%
%TO.N,/ELT_Serial_4_Tx*%
X116582000Y-65423100D03*
%TO.P,PFD_Main_1,11,11*%
%TO.N,/GPS_Serial_5_Rx*%
X116582000Y-68193100D03*
%TO.P,PFD_Main_1,12,12*%
%TO.N,/GPS_Serial_5_Tx*%
X116582000Y-70963100D03*
%TO.P,PFD_Main_1,13,13*%
%TO.N,/L_Audio_Out_1*%
X116582000Y-73733100D03*
%TO.P,PFD_Main_1,14,14*%
%TO.N,unconnected-(PFD_Main_1-Pad14)*%
X116582000Y-76503100D03*
%TO.P,PFD_Main_1,15,15*%
%TO.N,/SV_Data_1A*%
X116582000Y-79273100D03*
%TO.P,PFD_Main_1,16,16*%
%TO.N,/SV_GND_1*%
X116582000Y-82043100D03*
%TO.P,PFD_Main_1,17,17*%
%TO.N,/SV_GND_2*%
X116582000Y-84813100D03*
%TO.P,PFD_Main_1,18,18*%
%TO.N,/SV_Data_2B*%
X116582000Y-87583100D03*
%TO.P,PFD_Main_1,19,19*%
%TO.N,/SV_EMS_Aux*%
X116582000Y-90353100D03*
%TO.P,PFD_Main_1,20,20*%
%TO.N,/PFD_&_Dim_12V*%
X113742000Y-41878100D03*
%TO.P,PFD_Main_1,21,21*%
%TO.N,GND*%
X113742000Y-44648100D03*
%TO.P,PFD_Main_1,22,22*%
X113742000Y-47418100D03*
%TO.P,PFD_Main_1,23,23*%
%TO.N,unconnected-(PFD_Main_1-Pad23)*%
X113742000Y-50188100D03*
%TO.P,PFD_Main_1,24,24*%
%TO.N,/GPS_GND*%
X113742000Y-52958100D03*
%TO.P,PFD_Main_1,25,25*%
%TO.N,/Dimmer_Signal_Input*%
X113742000Y-55728100D03*
%TO.P,PFD_Main_1,26,26*%
%TO.N,/Dimmer_Output_Signal*%
X113742000Y-58498100D03*
%TO.P,PFD_Main_1,27,27*%
%TO.N,unconnected-(PFD_Main_1-Pad27)*%
X113742000Y-61268100D03*
%TO.P,PFD_Main_1,28,28*%
%TO.N,unconnected-(PFD_Main_1-Pad28)*%
X113742000Y-64038100D03*
%TO.P,PFD_Main_1,29,29*%
%TO.N,/GPS_Power*%
X113742000Y-66808100D03*
%TO.P,PFD_Main_1,30,30*%
%TO.N,/Audio_Out_GND*%
X113742000Y-69578100D03*
%TO.P,PFD_Main_1,31,31*%
%TO.N,/R_Audio_Out_1*%
X113742000Y-72348100D03*
%TO.P,PFD_Main_1,32,32*%
%TO.N,unconnected-(PFD_Main_1-Pad32)*%
X113742000Y-75118100D03*
%TO.P,PFD_Main_1,33,33*%
%TO.N,unconnected-(PFD_Main_1-Pad33)*%
X113742000Y-77888100D03*
%TO.P,PFD_Main_1,34,34*%
%TO.N,/SV_Data_1B*%
X113742000Y-80658100D03*
%TO.P,PFD_Main_1,35,35*%
%TO.N,/SV_Power_1*%
X113742000Y-83428100D03*
%TO.P,PFD_Main_1,36,36*%
%TO.N,/SV_Data_2A*%
X113742000Y-86198100D03*
%TO.P,PFD_Main_1,37,37*%
%TO.N,/SV_Power_2*%
X113742000Y-88968100D03*
%TD*%
D13*
%TO.N,/XPNDR_&_IDENT_12V*%
X165579100Y-114887800D03*
%TO.N,/Ident_SW_Input*%
X148476000Y-55275500D03*
%TO.N,/SV_Power_2*%
X191277000Y-66658600D03*
%TO.N,/SV_Data_2A*%
X180654500Y-66681500D03*
%TO.N,/SV_Data_1B*%
X195222500Y-26445200D03*
%TO.N,/GPS_Serial_5_Rx*%
X179647200Y-112157300D03*
%TO.N,/SV_EMS_Aux*%
X194094400Y-65317200D03*
%TO.N,/SV_Data_2B*%
X179528600Y-58979300D03*
%TO.N,/SV_GND_2*%
X186716300Y-65466300D03*
%TO.N,/SV_Data_1A*%
X196003700Y-29285200D03*
%TO.N,/ELT_Serial_4_Tx*%
X189327800Y-57200100D03*
X130598300Y-77285900D03*
%TO.N,/ELT_Serial_4_Rx*%
X161385300Y-64576600D03*
%TO.N,/VPX_Serial_3_Tx*%
X165073800Y-116766200D03*
%TO.N,/VPX_Serial_3_Rx*%
X213307100Y-55528500D03*
%TO.N,/Dimmer_Signal_Input*%
X214769200Y-53606200D03*
%TD*%
D14*
%TO.N,/SV_Data_1A*%
X192586200Y-46285200D02*
X192330146Y-46285200D01*
X192330146Y-46285200D02*
X191053746Y-45008800D01*
X188314200Y-46052200D02*
X188314200Y-52690000D01*
X191053746Y-45008800D02*
X189357600Y-45008800D01*
X189357600Y-45008800D02*
X188314200Y-46052200D01*
X188314200Y-52690000D02*
X181582000Y-59422200D01*
X181582000Y-59422200D02*
X181582000Y-60649100D01*
%TO.N,/SV_Data_2B*%
X179799700Y-96864100D02*
X179799700Y-58979300D01*
X182239200Y-99303600D02*
X179799700Y-96864100D01*
X189892000Y-97873500D02*
X188461900Y-99303600D01*
X188461900Y-99303600D02*
X182239200Y-99303600D01*
X189892000Y-94649100D02*
X189892000Y-97873500D01*
X179799700Y-50761700D02*
X184276200Y-46285200D01*
X179799700Y-58979300D02*
X179799700Y-50761700D01*
X179799700Y-58979300D02*
X179528600Y-58979300D01*
%TO.N,/Dimmer_Output_Signal*%
X185737000Y-114489100D02*
X187122000Y-113104100D01*
X188507000Y-114489100D02*
X187122000Y-113104100D01*
X187122000Y-113104100D02*
X187122000Y-111649100D01*
X139646500Y-101403600D02*
X149892000Y-111649100D01*
X139646500Y-95021300D02*
X139646500Y-101403600D01*
X117131400Y-72506200D02*
X139646500Y-95021300D01*
X115752800Y-72506200D02*
X117131400Y-72506200D01*
X114124600Y-70878000D02*
X115752800Y-72506200D01*
X113306900Y-70878000D02*
X114124600Y-70878000D01*
X112504600Y-70075700D02*
X113306900Y-70878000D01*
X112504600Y-59735500D02*
X112504600Y-70075700D01*
X113742000Y-58498100D02*
X112504600Y-59735500D01*
%TO.N,/XPNDR_&_IDENT_12V*%
X165900700Y-115209400D02*
X165579100Y-114887800D01*
X165900700Y-117108800D02*
X165900700Y-115209400D01*
X165719800Y-117289700D02*
X165900700Y-117108800D01*
X165719800Y-128147100D02*
X165719800Y-117289700D01*
X166829000Y-129256300D02*
X165719800Y-128147100D01*
X169886300Y-129256300D02*
X166829000Y-129256300D01*
X171119100Y-130489100D02*
X169886300Y-129256300D01*
X165579100Y-63761400D02*
X165579100Y-114887800D01*
X160277100Y-58459400D02*
X165579100Y-63761400D01*
X158714100Y-58459400D02*
X160277100Y-58459400D01*
X147122000Y-46867300D02*
X158714100Y-58459400D01*
X147122000Y-46075100D02*
X147122000Y-46867300D01*
X144696000Y-43649100D02*
X147122000Y-46075100D01*
X144352000Y-43649100D02*
X144696000Y-43649100D01*
%TO.N,/Ident_SW_Input*%
X148805300Y-114489100D02*
X148507000Y-114489100D01*
X151154200Y-112140200D02*
X148805300Y-114489100D01*
X151154200Y-111011100D02*
X151154200Y-112140200D01*
X150045200Y-109902100D02*
X151154200Y-111011100D01*
X150045200Y-96348600D02*
X150045200Y-109902100D01*
X151154200Y-95239600D02*
X150045200Y-96348600D01*
X151154200Y-93061800D02*
X151154200Y-95239600D01*
X140322900Y-82230500D02*
X151154200Y-93061800D01*
X140322900Y-75895400D02*
X140322900Y-82230500D01*
X144352000Y-71866300D02*
X140322900Y-75895400D01*
X144352000Y-62501800D02*
X144352000Y-71866300D01*
X145822100Y-61031700D02*
X144352000Y-62501800D01*
X145822100Y-57929400D02*
X145822100Y-61031700D01*
X148476000Y-55275500D02*
X145822100Y-57929400D01*
%TO.N,/ELT_12V*%
X165280900Y-130489100D02*
X165579100Y-130489100D01*
X162809000Y-128017200D02*
X165280900Y-130489100D01*
X162809000Y-124319700D02*
X162809000Y-128017200D01*
X156024400Y-117535100D02*
X162809000Y-124319700D01*
X156024400Y-91795700D02*
X156024400Y-117535100D01*
X147122000Y-82893300D02*
X156024400Y-91795700D01*
X147122000Y-80075100D02*
X147122000Y-82893300D01*
X144696000Y-77649100D02*
X147122000Y-80075100D01*
X144352000Y-77649100D02*
X144696000Y-77649100D01*
D15*
%TO.N,/SV-Net_AP_12V*%
X194188100Y-37688300D02*
X188431200Y-43445200D01*
X194188100Y-27120200D02*
X194188100Y-37688300D01*
X191892300Y-24824400D02*
X194188100Y-27120200D01*
X190052000Y-24824400D02*
X191892300Y-24824400D01*
X188431200Y-26445200D02*
X190052000Y-24824400D01*
X169958000Y-132098000D02*
X168349100Y-130489100D01*
X171783700Y-132098000D02*
X169958000Y-132098000D01*
X178268500Y-125613200D02*
X171783700Y-132098000D01*
X178268500Y-28802400D02*
X178268500Y-125613200D01*
X182270400Y-24800500D02*
X178268500Y-28802400D01*
X186786500Y-24800500D02*
X182270400Y-24800500D01*
X188431200Y-26445200D02*
X186786500Y-24800500D01*
D16*
%TO.N,GND*%
X221307700Y-95163400D02*
X218002000Y-98469100D01*
X221307700Y-89379800D02*
X221307700Y-95163400D01*
X219422000Y-87494100D02*
X221307700Y-89379800D01*
X219422000Y-84724100D02*
X219422000Y-87494100D01*
X141582000Y-26649100D02*
X139730100Y-26649100D01*
X138310100Y-28069100D02*
X139730100Y-26649100D01*
X134622000Y-28069100D02*
X138310100Y-28069100D01*
X174546200Y-45069100D02*
X159622000Y-45069100D01*
X174546200Y-61993300D02*
X174546200Y-45069100D01*
X174622000Y-62069100D02*
X174546200Y-61993300D01*
X174546200Y-45069100D02*
X174546200Y-44865200D01*
X113742000Y-47418100D02*
X113742000Y-44648100D01*
X115162000Y-33673100D02*
X129018000Y-33673100D01*
X129018000Y-33673100D02*
X134622000Y-28069100D01*
X134622000Y-79069100D02*
X134622000Y-62069100D01*
X134622000Y-43649100D02*
X139730100Y-43649100D01*
X129018000Y-38045100D02*
X134622000Y-43649100D01*
X129018000Y-33673100D02*
X129018000Y-38045100D01*
X134622000Y-43649100D02*
X134622000Y-45069100D01*
X141582000Y-43649100D02*
X140656100Y-43649100D01*
X140656100Y-43649100D02*
X139730100Y-43649100D01*
X140656100Y-57871300D02*
X141582000Y-58797200D01*
X140656100Y-43649100D02*
X140656100Y-57871300D01*
X141582000Y-60649100D02*
X141582000Y-58797200D01*
X155884100Y-127649100D02*
X154464100Y-129069100D01*
X174546200Y-28069100D02*
X159622000Y-28069100D01*
X174546200Y-27865200D02*
X174546200Y-28069100D01*
X174546200Y-28069100D02*
X174546200Y-44865200D01*
X199546200Y-44865200D02*
X199546200Y-27865200D01*
X196274300Y-48137100D02*
X199546200Y-44865200D01*
X191340100Y-48137100D02*
X196274300Y-48137100D01*
X189816200Y-46613200D02*
X191340100Y-48137100D01*
X189816200Y-46285200D02*
X189816200Y-46613200D01*
X199622000Y-79069100D02*
X199622000Y-62069100D01*
X141087200Y-112143900D02*
X141582000Y-111649100D01*
X141087200Y-115288700D02*
X141087200Y-112143900D01*
X142168700Y-116370200D02*
X141087200Y-115288700D01*
X152053800Y-116370200D02*
X142168700Y-116370200D01*
X152053800Y-123818800D02*
X152053800Y-116370200D01*
X155884100Y-127649100D02*
X152053800Y-123818800D01*
X153156800Y-112143900D02*
X152662000Y-111649100D01*
X153156800Y-115267200D02*
X153156800Y-112143900D01*
X152053800Y-116370200D02*
X153156800Y-115267200D01*
X174622000Y-62069100D02*
X174622000Y-79069100D01*
X155884100Y-127649100D02*
X161424100Y-127649100D01*
X161424100Y-127649100D02*
X161424100Y-129501000D01*
X156313000Y-65378100D02*
X159622000Y-62069100D01*
X156313000Y-75760100D02*
X156313000Y-65378100D01*
X143471000Y-75760100D02*
X156313000Y-75760100D01*
X141582000Y-77649100D02*
X143471000Y-75760100D01*
X156313000Y-75760100D02*
X159622000Y-79069100D01*
X174622000Y-79069100D02*
X174622000Y-96069100D01*
X174622000Y-96069100D02*
X174622000Y-113069100D01*
X199622000Y-98469100D02*
X218002000Y-98469100D01*
X199622000Y-113069100D02*
X199622000Y-98469100D01*
X199622000Y-98469100D02*
X199622000Y-96069100D01*
X161821000Y-129501000D02*
X162809100Y-130489100D01*
X161424100Y-129501000D02*
X161821000Y-129501000D01*
X165977000Y-133657000D02*
X162809100Y-130489100D01*
X174876200Y-133657000D02*
X165977000Y-133657000D01*
X179464100Y-129069100D02*
X174876200Y-133657000D01*
X111880500Y-36954600D02*
X115162000Y-33673100D01*
X111880500Y-42786600D02*
X111880500Y-36954600D01*
X113742000Y-44648100D02*
X111880500Y-42786600D01*
D14*
%TO.N,/ADSB_12V*%
X144352000Y-33552800D02*
X144352000Y-26649100D01*
X166964100Y-56164900D02*
X144352000Y-33552800D01*
X166964100Y-127649100D02*
X166964100Y-56164900D01*
%TO.N,/SV_Power_2*%
X191277000Y-97489100D02*
X191277000Y-80489100D01*
X191277000Y-80489100D02*
X191277000Y-66658600D01*
X190933000Y-63489100D02*
X191277000Y-63489100D01*
X188659100Y-61215200D02*
X190933000Y-63489100D01*
X188659100Y-60115000D02*
X188659100Y-61215200D01*
X190662100Y-58112000D02*
X188659100Y-60115000D01*
X194420700Y-58112000D02*
X190662100Y-58112000D01*
X211982400Y-40550300D02*
X194420700Y-58112000D01*
X217139500Y-40550300D02*
X211982400Y-40550300D01*
X219422000Y-42832800D02*
X217139500Y-40550300D01*
X219422000Y-43174100D02*
X219422000Y-42832800D01*
%TO.N,/SV_Data_2A*%
X188507000Y-80489100D02*
X188507000Y-97489100D01*
X185661200Y-43445200D02*
X185661200Y-26445200D01*
X210613500Y-45944100D02*
X219422000Y-45944100D01*
X191836500Y-64721100D02*
X210613500Y-45944100D01*
X189739000Y-64721100D02*
X191836500Y-64721100D01*
X188507000Y-63489100D02*
X189739000Y-64721100D01*
X185661200Y-49614900D02*
X185661200Y-43445200D01*
X180353100Y-54923000D02*
X185661200Y-49614900D01*
X180353100Y-66681500D02*
X180353100Y-54923000D01*
X180353100Y-96623700D02*
X180353100Y-66681500D01*
X182452200Y-98722800D02*
X180353100Y-96623700D01*
X187273300Y-98722800D02*
X182452200Y-98722800D01*
X188507000Y-97489100D02*
X187273300Y-98722800D01*
X180353100Y-66681500D02*
X180654500Y-66681500D01*
%TO.N,/SV_Power_1*%
X185737000Y-97489100D02*
X185737000Y-80489100D01*
X187068600Y-64621900D02*
X185737000Y-64621900D01*
X188273800Y-65827100D02*
X187068600Y-64621900D01*
X192390100Y-65827100D02*
X188273800Y-65827100D01*
X206575000Y-51642200D02*
X192390100Y-65827100D01*
X216837900Y-51642200D02*
X206575000Y-51642200D01*
X219422000Y-49058100D02*
X216837900Y-51642200D01*
X219422000Y-48714100D02*
X219422000Y-49058100D01*
X185737000Y-80489100D02*
X185737000Y-64621900D01*
X185737000Y-64621900D02*
X185737000Y-63489100D01*
%TO.N,/SV_Data_1B*%
X195136100Y-26531600D02*
X195222500Y-26445200D01*
X195136100Y-39510300D02*
X195136100Y-26531600D01*
X191201200Y-43445200D02*
X195136100Y-39510300D01*
X182967000Y-80489100D02*
X182967000Y-97489100D01*
X182967000Y-80489100D02*
X182967000Y-63489100D01*
X196268700Y-25399000D02*
X195222500Y-26445200D01*
X200563200Y-25399000D02*
X196268700Y-25399000D01*
X201997900Y-26833700D02*
X200563200Y-25399000D01*
X201997900Y-45910300D02*
X201997900Y-26833700D01*
X197434800Y-50473400D02*
X201997900Y-45910300D01*
X192773900Y-50473400D02*
X197434800Y-50473400D01*
X182967000Y-60280300D02*
X192773900Y-50473400D01*
X182967000Y-63489100D02*
X182967000Y-60280300D01*
%TO.N,/GPS_Serial_5_Rx*%
X214500800Y-66030300D02*
X216582000Y-63949100D01*
X214500800Y-76832000D02*
X214500800Y-66030300D01*
X195541500Y-95791300D02*
X214500800Y-76832000D01*
X195541500Y-100619200D02*
X195541500Y-95791300D01*
X185737000Y-110423700D02*
X195541500Y-100619200D01*
X185737000Y-112636500D02*
X185737000Y-110423700D01*
X184266900Y-114106600D02*
X185737000Y-112636500D01*
X184266900Y-114924300D02*
X184266900Y-114106600D01*
X183474900Y-115716300D02*
X184266900Y-114924300D01*
X182409700Y-115716300D02*
X183474900Y-115716300D01*
X179647200Y-112953800D02*
X182409700Y-115716300D01*
X179647200Y-112157300D02*
X179647200Y-112953800D01*
%TO.N,/GPS_GND*%
X141582000Y-94649100D02*
X142808900Y-94649100D01*
X142808900Y-94879300D02*
X142808900Y-94649100D01*
X143805600Y-95876000D02*
X142808900Y-94879300D01*
X144866300Y-95876000D02*
X143805600Y-95876000D01*
X145616600Y-95125700D02*
X144866300Y-95876000D01*
X145616600Y-94013500D02*
X145616600Y-95125700D01*
X131425300Y-79822200D02*
X145616600Y-94013500D01*
X131425300Y-70183800D02*
X131425300Y-79822200D01*
X116969600Y-55728100D02*
X131425300Y-70183800D01*
X116154300Y-55728100D02*
X116969600Y-55728100D01*
X113742000Y-53315800D02*
X116154300Y-55728100D01*
X113742000Y-52958100D02*
X113742000Y-53315800D01*
X222407900Y-76198200D02*
X219422000Y-79184100D01*
X222407900Y-42825600D02*
X222407900Y-76198200D01*
X203431800Y-23849500D02*
X222407900Y-42825600D01*
X121493400Y-23849500D02*
X203431800Y-23849500D01*
X110683700Y-34659200D02*
X121493400Y-23849500D01*
X110683700Y-49899800D02*
X110683700Y-34659200D01*
X113742000Y-52958100D02*
X110683700Y-49899800D01*
%TO.N,/SV_EMS_Aux*%
X194094400Y-76216700D02*
X194094400Y-65317200D01*
X192662000Y-77649100D02*
X194094400Y-76216700D01*
X211524200Y-41789100D02*
X216582000Y-41789100D01*
X192664200Y-60649100D02*
X211524200Y-41789100D01*
X192662000Y-60649100D02*
X192664200Y-60649100D01*
%TO.N,/SV_Data_2B*%
X184276200Y-29285200D02*
X184276200Y-46285200D01*
X189892000Y-77649100D02*
X189892000Y-94649100D01*
X191132500Y-61889600D02*
X189892000Y-60649100D01*
X193195200Y-61889600D02*
X191132500Y-61889600D01*
X210525700Y-44559100D02*
X193195200Y-61889600D01*
X216582000Y-44559100D02*
X210525700Y-44559100D01*
%TO.N,/SV_GND_2*%
X187122000Y-77649100D02*
X187122000Y-94649100D01*
X187122000Y-65872000D02*
X186716300Y-65466300D01*
X187122000Y-77649100D02*
X187122000Y-65872000D01*
X195564500Y-52206600D02*
X187122000Y-60649100D01*
X198344800Y-52206600D02*
X195564500Y-52206600D01*
X210564900Y-39986500D02*
X198344800Y-52206600D01*
X218004500Y-39986500D02*
X210564900Y-39986500D01*
X220696100Y-42678100D02*
X218004500Y-39986500D01*
X220696100Y-46449500D02*
X220696100Y-42678100D01*
X219816500Y-47329100D02*
X220696100Y-46449500D01*
X216582000Y-47329100D02*
X219816500Y-47329100D01*
%TO.N,/SV_GND_1*%
X184352000Y-77649100D02*
X184352000Y-94649100D01*
X184352000Y-60649100D02*
X184352000Y-62226600D01*
X184352000Y-62226600D02*
X184352000Y-77649100D01*
X186238800Y-62226600D02*
X184352000Y-62226600D01*
X187280100Y-63267900D02*
X186238800Y-62226600D01*
X187280100Y-64027800D02*
X187280100Y-63267900D01*
X188527500Y-65275200D02*
X187280100Y-64027800D01*
X192117500Y-65275200D02*
X188527500Y-65275200D01*
X207293600Y-50099100D02*
X192117500Y-65275200D01*
X216582000Y-50099100D02*
X207293600Y-50099100D01*
%TO.N,/SV_Data_1A*%
X192586200Y-46285200D02*
X192586200Y-45058300D01*
X196003700Y-41640800D02*
X196003700Y-29285200D01*
X192586200Y-45058300D02*
X196003700Y-41640800D01*
X181582000Y-77649100D02*
X181582000Y-94649100D01*
X181582000Y-77649100D02*
X181582000Y-76422200D01*
X181582000Y-76422200D02*
X181582000Y-60649100D01*
%TO.N,/GPS_Serial_5_Tx*%
X140256600Y-94637700D02*
X116582000Y-70963100D01*
X140256600Y-96532900D02*
X140256600Y-94637700D01*
X142458800Y-98735100D02*
X140256600Y-96532900D01*
X146260000Y-98735100D02*
X142458800Y-98735100D01*
X147122000Y-97873100D02*
X146260000Y-98735100D01*
X147122000Y-94649100D02*
X147122000Y-97873100D01*
%TO.N,/GPS_Power*%
X119281000Y-69578100D02*
X144352000Y-94649100D01*
X116168000Y-69578100D02*
X119281000Y-69578100D01*
X113742000Y-67152100D02*
X116168000Y-69578100D01*
X113742000Y-66808100D02*
X113742000Y-67152100D01*
%TO.N,/ELT_Serial_4_Tx*%
X118735500Y-65423100D02*
X130598300Y-77285900D01*
X116582000Y-65423100D02*
X118735500Y-65423100D01*
X195067900Y-51460000D02*
X189327800Y-57200100D01*
X198310700Y-51460000D02*
X195067900Y-51460000D01*
X210337600Y-39433100D02*
X198310700Y-51460000D01*
X218234800Y-39433100D02*
X210337600Y-39433100D01*
X221856000Y-43054300D02*
X218234800Y-39433100D01*
X221856000Y-75767900D02*
X221856000Y-43054300D01*
X219961400Y-77662500D02*
X221856000Y-75767900D01*
X218298100Y-77662500D02*
X219961400Y-77662500D01*
X216964600Y-76329000D02*
X218298100Y-77662500D01*
X216146900Y-76329000D02*
X216964600Y-76329000D01*
X215323300Y-75505400D02*
X216146900Y-76329000D01*
X215323300Y-67977800D02*
X215323300Y-75505400D01*
X216582000Y-66719100D02*
X215323300Y-67977800D01*
%TO.N,/ELT_Serial_4_Rx*%
X150289700Y-77649100D02*
X149892000Y-77649100D01*
X154196000Y-81555400D02*
X150289700Y-77649100D01*
X160622800Y-81555400D02*
X154196000Y-81555400D01*
X162093400Y-80084800D02*
X160622800Y-81555400D01*
X162093400Y-65284700D02*
X162093400Y-80084800D01*
X161385300Y-64576600D02*
X162093400Y-65284700D01*
%TO.N,/VPX_Serial_3_Tx*%
X162782900Y-114475300D02*
X165073800Y-116766200D01*
X162782900Y-61747900D02*
X162782900Y-114475300D01*
X160400400Y-59365400D02*
X162782900Y-61747900D01*
X148405700Y-59365400D02*
X160400400Y-59365400D01*
X147122000Y-60649100D02*
X148405700Y-59365400D01*
%TO.N,/VPX_Serial_3_Rx*%
X216582000Y-74730900D02*
X216582000Y-75029100D01*
X219211300Y-72101600D02*
X216582000Y-74730900D01*
X219930200Y-72101600D02*
X219211300Y-72101600D01*
X220684400Y-71347400D02*
X219930200Y-72101600D01*
X220684400Y-59313500D02*
X220684400Y-71347400D01*
X219780000Y-58409100D02*
X220684400Y-59313500D01*
X218906800Y-58409100D02*
X219780000Y-58409100D01*
X217521800Y-57024100D02*
X218906800Y-58409100D01*
X214802700Y-57024100D02*
X217521800Y-57024100D01*
X213307100Y-55528500D02*
X214802700Y-57024100D01*
%TO.N,/Audio_Out_GND*%
X182967000Y-110264100D02*
X182967000Y-114489100D01*
X194752600Y-98478500D02*
X182967000Y-110264100D01*
X194752600Y-91502300D02*
X194752600Y-98478500D01*
X206133000Y-80121900D02*
X194752600Y-91502300D01*
X206133000Y-72616600D02*
X206133000Y-80121900D01*
X216185500Y-62564100D02*
X206133000Y-72616600D01*
X219422000Y-62564100D02*
X216185500Y-62564100D01*
%TO.N,/L_Audio_Out_1*%
X181582000Y-111649100D02*
X181582000Y-110422200D01*
X193888900Y-98115300D02*
X181582000Y-110422200D01*
X193888900Y-88896800D02*
X193888900Y-98115300D01*
X203384400Y-79401300D02*
X193888900Y-88896800D01*
X203384400Y-71606700D02*
X203384400Y-79401300D01*
X216582000Y-58409100D02*
X203384400Y-71606700D01*
%TO.N,/AP_Disengage (Unused)*%
X187046200Y-46285200D02*
X187046200Y-29285200D01*
%TO.N,/Dimmer_Signal_Input*%
X131166900Y-98464000D02*
X144352000Y-111649100D01*
X131166900Y-92066600D02*
X131166900Y-98464000D01*
X116830300Y-77730000D02*
X131166900Y-92066600D01*
X116073900Y-77730000D02*
X116830300Y-77730000D01*
X115355100Y-77011200D02*
X116073900Y-77730000D01*
X115355100Y-74906300D02*
X115355100Y-77011200D01*
X114300200Y-73851400D02*
X115355100Y-74906300D01*
X113445100Y-73851400D02*
X114300200Y-73851400D01*
X111940600Y-72346900D02*
X113445100Y-73851400D01*
X111940600Y-57529500D02*
X111940600Y-72346900D01*
X113742000Y-55728100D02*
X111940600Y-57529500D01*
X215332000Y-54169000D02*
X214769200Y-53606200D01*
X216964600Y-54169000D02*
X215332000Y-54169000D01*
X218434700Y-55639100D02*
X216964600Y-54169000D01*
X219829100Y-55639100D02*
X218434700Y-55639100D01*
X221288000Y-57098000D02*
X219829100Y-55639100D01*
X221288000Y-74548100D02*
X221288000Y-57098000D01*
X219422000Y-76414100D02*
X221288000Y-74548100D01*
%TD*%
M02*
