%TF.GenerationSoftware,KiCad,Pcbnew,7.0.9*%
%TF.CreationDate,2023-12-30T13:25:45-08:00*%
%TF.ProjectId,Interconnect Board,496e7465-7263-46f6-9e6e-65637420426f,v1.3*%
%TF.SameCoordinates,Original*%
%TF.FileFunction,Copper,L1,Top*%
%TF.FilePolarity,Positive*%
%FSLAX46Y46*%
G04 Gerber Fmt 4.6, Leading zero omitted, Abs format (unit mm)*
G04 Created by KiCad (PCBNEW 7.0.9) date 2023-12-30 13:25:45*
%MOMM*%
%LPD*%
G01*
G04 APERTURE LIST*
%TA.AperFunction,ComponentPad*%
%ADD10C,4.000000*%
%TD*%
%TA.AperFunction,ComponentPad*%
%ADD11R,1.600000X1.600000*%
%TD*%
%TA.AperFunction,ComponentPad*%
%ADD12C,1.600000*%
%TD*%
%TA.AperFunction,ViaPad*%
%ADD13C,0.800000*%
%TD*%
%TA.AperFunction,Conductor*%
%ADD14C,0.250000*%
%TD*%
%TA.AperFunction,Conductor*%
%ADD15C,1.000000*%
%TD*%
%TA.AperFunction,Conductor*%
%ADD16C,1.500000*%
%TD*%
G04 APERTURE END LIST*
D10*
%TO.P,XPNDR_Serial_2,0,PAD*%
%TO.N,GND*%
X134622000Y-45069100D03*
X159622000Y-45069100D03*
D11*
%TO.P,XPNDR_Serial_2,1,1*%
X141582000Y-43649100D03*
D12*
%TO.P,XPNDR_Serial_2,2,2*%
%TO.N,/XPNDR_&_IDENT_12V*%
X144352000Y-43649100D03*
%TO.P,XPNDR_Serial_2,3,3*%
%TO.N,/XPNDR_Serial_2_Tx*%
X147122000Y-43649100D03*
%TO.P,XPNDR_Serial_2,4,4*%
%TO.N,/XPNDR_Serial_2_Rx*%
X149892000Y-43649100D03*
%TO.P,XPNDR_Serial_2,5,5*%
%TO.N,/Ident_SW_Input*%
X152662000Y-43649100D03*
%TO.P,XPNDR_Serial_2,6,6*%
%TO.N,unconnected-(XPNDR_Serial_2-Pad6)*%
X142967000Y-46489100D03*
%TO.P,XPNDR_Serial_2,7,7*%
%TO.N,unconnected-(XPNDR_Serial_2-Pad7)*%
X145737000Y-46489100D03*
%TO.P,XPNDR_Serial_2,8,8*%
%TO.N,unconnected-(XPNDR_Serial_2-Pad8)*%
X148507000Y-46489100D03*
%TO.P,XPNDR_Serial_2,9,9*%
%TO.N,unconnected-(XPNDR_Serial_2-Pad9)*%
X151277000Y-46489100D03*
%TD*%
D10*
%TO.P,VPX_Serial_3,0,PAD*%
%TO.N,GND*%
X134622000Y-62069100D03*
X159622000Y-62069100D03*
D11*
%TO.P,VPX_Serial_3,1,1*%
X141582000Y-60649100D03*
D12*
%TO.P,VPX_Serial_3,2,2*%
%TO.N,unconnected-(VPX_Serial_3-Pad2)*%
X144352000Y-60649100D03*
%TO.P,VPX_Serial_3,3,3*%
%TO.N,/VPX_Serial_3_Tx*%
X147122000Y-60649100D03*
%TO.P,VPX_Serial_3,4,4*%
%TO.N,/VPX_Serial_3_Rx*%
X149892000Y-60649100D03*
%TO.P,VPX_Serial_3,5,5*%
%TO.N,unconnected-(VPX_Serial_3-Pad5)*%
X152662000Y-60649100D03*
%TO.P,VPX_Serial_3,6,6*%
%TO.N,unconnected-(VPX_Serial_3-Pad6)*%
X142967000Y-63489100D03*
%TO.P,VPX_Serial_3,7,7*%
%TO.N,unconnected-(VPX_Serial_3-Pad7)*%
X145737000Y-63489100D03*
%TO.P,VPX_Serial_3,8,8*%
%TO.N,unconnected-(VPX_Serial_3-Pad8)*%
X148507000Y-63489100D03*
%TO.P,VPX_Serial_3,9,9*%
%TO.N,unconnected-(VPX_Serial_3-Pad9)*%
X151277000Y-63489100D03*
%TD*%
D10*
%TO.P,SkyView_3,0,PAD*%
%TO.N,GND*%
X174622000Y-96069100D03*
X199622000Y-96069100D03*
D11*
%TO.P,SkyView_3,1,1*%
%TO.N,/SV_Data_1A*%
X181582000Y-94649100D03*
D12*
%TO.P,SkyView_3,2,2*%
%TO.N,/SV_GND_1*%
X184352000Y-94649100D03*
%TO.P,SkyView_3,3,3*%
%TO.N,/SV_GND_2*%
X187122000Y-94649100D03*
%TO.P,SkyView_3,4,4*%
%TO.N,/SV_Data_2B*%
X189892000Y-94649100D03*
%TO.P,SkyView_3,5,5*%
%TO.N,/SV_EMS_Aux*%
X192662000Y-94649100D03*
%TO.P,SkyView_3,6,6*%
%TO.N,/SV_Data_1B*%
X182967000Y-97489100D03*
%TO.P,SkyView_3,7,7*%
%TO.N,/SV_Power_1*%
X185737000Y-97489100D03*
%TO.P,SkyView_3,8,8*%
%TO.N,/SV_Data_2A*%
X188507000Y-97489100D03*
%TO.P,SkyView_3,9,9*%
%TO.N,/SV_Power_2*%
X191277000Y-97489100D03*
%TD*%
D10*
%TO.P,SkyView_2,0,PAD*%
%TO.N,GND*%
X174622000Y-79069100D03*
X199622000Y-79069100D03*
D11*
%TO.P,SkyView_2,1,1*%
%TO.N,/SV_Data_1A*%
X181582000Y-77649100D03*
D12*
%TO.P,SkyView_2,2,2*%
%TO.N,/SV_GND_1*%
X184352000Y-77649100D03*
%TO.P,SkyView_2,3,3*%
%TO.N,/SV_GND_2*%
X187122000Y-77649100D03*
%TO.P,SkyView_2,4,4*%
%TO.N,/SV_Data_2B*%
X189892000Y-77649100D03*
%TO.P,SkyView_2,5,5*%
%TO.N,/SV_EMS_Aux*%
X192662000Y-77649100D03*
%TO.P,SkyView_2,6,6*%
%TO.N,/SV_Data_1B*%
X182967000Y-80489100D03*
%TO.P,SkyView_2,7,7*%
%TO.N,/SV_Power_1*%
X185737000Y-80489100D03*
%TO.P,SkyView_2,8,8*%
%TO.N,/SV_Data_2A*%
X188507000Y-80489100D03*
%TO.P,SkyView_2,9,9*%
%TO.N,/SV_Power_2*%
X191277000Y-80489100D03*
%TD*%
%TO.P,SkyView_1,9,9*%
%TO.N,/SV_Power_2*%
X191277000Y-63489100D03*
%TO.P,SkyView_1,8,8*%
%TO.N,/SV_Data_2A*%
X188507000Y-63489100D03*
%TO.P,SkyView_1,7,7*%
%TO.N,/SV_Power_1*%
X185737000Y-63489100D03*
%TO.P,SkyView_1,6,6*%
%TO.N,/SV_Data_1B*%
X182967000Y-63489100D03*
%TO.P,SkyView_1,5,5*%
%TO.N,/SV_EMS_Aux*%
X192662000Y-60649100D03*
%TO.P,SkyView_1,4,4*%
%TO.N,/SV_Data_2B*%
X189892000Y-60649100D03*
%TO.P,SkyView_1,3,3*%
%TO.N,/SV_GND_2*%
X187122000Y-60649100D03*
%TO.P,SkyView_1,2,2*%
%TO.N,/SV_GND_1*%
X184352000Y-60649100D03*
D11*
%TO.P,SkyView_1,1,1*%
%TO.N,/SV_Data_1A*%
X181582000Y-60649100D03*
D10*
%TO.P,SkyView_1,0,PAD*%
%TO.N,GND*%
X199622000Y-62069100D03*
X174622000Y-62069100D03*
%TD*%
%TO.P,Power_Input_1,0,PAD*%
%TO.N,GND*%
X154464100Y-129069100D03*
X179464100Y-129069100D03*
D11*
%TO.P,Power_Input_1,1,1*%
X161424100Y-127649100D03*
D12*
%TO.P,Power_Input_1,2,2*%
X164194100Y-127649100D03*
%TO.P,Power_Input_1,3,3*%
%TO.N,/ADSB_12V*%
X166964100Y-127649100D03*
%TO.P,Power_Input_1,4,4*%
%TO.N,/MFD_12V*%
X169734100Y-127649100D03*
%TO.P,Power_Input_1,5,5*%
%TO.N,/PFD_&_Dim_12V*%
X172504100Y-127649100D03*
%TO.P,Power_Input_1,6,6*%
%TO.N,GND*%
X162809100Y-130489100D03*
%TO.P,Power_Input_1,7,7*%
%TO.N,/ELT_12V*%
X165579100Y-130489100D03*
%TO.P,Power_Input_1,8,8*%
%TO.N,/SV-Net_AP_12V*%
X168349100Y-130489100D03*
%TO.P,Power_Input_1,9,9*%
%TO.N,/XPNDR_&_IDENT_12V*%
X171119100Y-130489100D03*
%TD*%
D10*
%TO.P,Ident_&_Dimmer_Input_1,0,PAD*%
%TO.N,GND*%
X134622000Y-113069100D03*
X159622000Y-113069100D03*
D11*
%TO.P,Ident_&_Dimmer_Input_1,1,1*%
X141582000Y-111649100D03*
D12*
%TO.P,Ident_&_Dimmer_Input_1,2,2*%
%TO.N,/Dimmer_Signal_Input*%
X144352000Y-111649100D03*
%TO.P,Ident_&_Dimmer_Input_1,3,3*%
%TO.N,unconnected-(Ident_&_Dimmer_Input_1-Pad3)*%
X147122000Y-111649100D03*
%TO.P,Ident_&_Dimmer_Input_1,4,4*%
%TO.N,/Dimmer_Output_Signal*%
X149892000Y-111649100D03*
%TO.P,Ident_&_Dimmer_Input_1,5,5*%
%TO.N,GND*%
X152662000Y-111649100D03*
%TO.P,Ident_&_Dimmer_Input_1,6,6*%
%TO.N,/PFD_&_Dim_12V*%
X142967000Y-114489100D03*
%TO.P,Ident_&_Dimmer_Input_1,7,7*%
%TO.N,unconnected-(Ident_&_Dimmer_Input_1-Pad7)*%
X145737000Y-114489100D03*
%TO.P,Ident_&_Dimmer_Input_1,8,8*%
%TO.N,/Ident_SW_Input*%
X148507000Y-114489100D03*
%TO.P,Ident_&_Dimmer_Input_1,9,9*%
%TO.N,/XPNDR_&_IDENT_12V*%
X151277000Y-114489100D03*
%TD*%
D10*
%TO.P,GPS_Serial_5,0,PAD*%
%TO.N,GND*%
X134622000Y-96069100D03*
X159622000Y-96069100D03*
D11*
%TO.P,GPS_Serial_5,1,1*%
%TO.N,/GPS_GND*%
X141582000Y-94649100D03*
D12*
%TO.P,GPS_Serial_5,2,2*%
%TO.N,/GPS_Power*%
X144352000Y-94649100D03*
%TO.P,GPS_Serial_5,3,3*%
%TO.N,/GPS_Serial_5_Tx*%
X147122000Y-94649100D03*
%TO.P,GPS_Serial_5,4,4*%
%TO.N,/GPS_Serial_5_Rx*%
X149892000Y-94649100D03*
%TO.P,GPS_Serial_5,5,5*%
%TO.N,unconnected-(GPS_Serial_5-Pad5)*%
X152662000Y-94649100D03*
%TO.P,GPS_Serial_5,6,6*%
%TO.N,unconnected-(GPS_Serial_5-Pad6)*%
X142967000Y-97489100D03*
%TO.P,GPS_Serial_5,7,7*%
%TO.N,unconnected-(GPS_Serial_5-Pad7)*%
X145737000Y-97489100D03*
%TO.P,GPS_Serial_5,8,8*%
%TO.N,unconnected-(GPS_Serial_5-Pad8)*%
X148507000Y-97489100D03*
%TO.P,GPS_Serial_5,9,9*%
%TO.N,unconnected-(GPS_Serial_5-Pad9)*%
X151277000Y-97489100D03*
%TD*%
D10*
%TO.P,ELT_Serial_4,0,PAD*%
%TO.N,GND*%
X134622000Y-79069100D03*
X159622000Y-79069100D03*
D11*
%TO.P,ELT_Serial_4,1,1*%
X141582000Y-77649100D03*
D12*
%TO.P,ELT_Serial_4,2,2*%
%TO.N,/ELT_12V*%
X144352000Y-77649100D03*
%TO.P,ELT_Serial_4,3,3*%
%TO.N,/ELT_Serial_4_Tx*%
X147122000Y-77649100D03*
%TO.P,ELT_Serial_4,4,4*%
%TO.N,/ELT_Serial_4_Rx*%
X149892000Y-77649100D03*
%TO.P,ELT_Serial_4,5,5*%
%TO.N,unconnected-(ELT_Serial_4-Pad5)*%
X152662000Y-77649100D03*
%TO.P,ELT_Serial_4,6,6*%
%TO.N,unconnected-(ELT_Serial_4-Pad6)*%
X142967000Y-80489100D03*
%TO.P,ELT_Serial_4,7,7*%
%TO.N,unconnected-(ELT_Serial_4-Pad7)*%
X145737000Y-80489100D03*
%TO.P,ELT_Serial_4,8,8*%
%TO.N,unconnected-(ELT_Serial_4-Pad8)*%
X148507000Y-80489100D03*
%TO.P,ELT_Serial_4,9,9*%
%TO.N,unconnected-(ELT_Serial_4-Pad9)*%
X151277000Y-80489100D03*
%TD*%
D10*
%TO.P,Dimmer_&_Audio_Output_1,0,PAD*%
%TO.N,GND*%
X174622000Y-113069100D03*
X199622000Y-113069100D03*
D11*
%TO.P,Dimmer_&_Audio_Output_1,1,1*%
%TO.N,/L_Audio_Out_1*%
X181582000Y-111649100D03*
D12*
%TO.P,Dimmer_&_Audio_Output_1,2,2*%
%TO.N,/R_Audio_Out_1*%
X184352000Y-111649100D03*
%TO.P,Dimmer_&_Audio_Output_1,3,3*%
%TO.N,/Dimmer_Output_Signal*%
X187122000Y-111649100D03*
%TO.P,Dimmer_&_Audio_Output_1,4,4*%
%TO.N,unconnected-(Dimmer_&_Audio_Output_1-Pad4)*%
X189892000Y-111649100D03*
%TO.P,Dimmer_&_Audio_Output_1,5,5*%
%TO.N,unconnected-(Dimmer_&_Audio_Output_1-Pad5)*%
X192662000Y-111649100D03*
%TO.P,Dimmer_&_Audio_Output_1,6,6*%
%TO.N,/Audio_Out_GND*%
X182967000Y-114489100D03*
%TO.P,Dimmer_&_Audio_Output_1,7,7*%
%TO.N,/Dimmer_Output_Signal*%
X185737000Y-114489100D03*
%TO.P,Dimmer_&_Audio_Output_1,8,8*%
X188507000Y-114489100D03*
%TO.P,Dimmer_&_Audio_Output_1,9,9*%
%TO.N,unconnected-(Dimmer_&_Audio_Output_1-Pad9)*%
X191277000Y-114489100D03*
%TD*%
D10*
%TO.P,AP_Roll_SV_Net_2,0,PAD*%
%TO.N,GND*%
X199546200Y-27865200D03*
X174546200Y-27865200D03*
D11*
%TO.P,AP_Roll_SV_Net_2,1,1*%
%TO.N,/SV_Data_1A*%
X192586200Y-29285200D03*
D12*
%TO.P,AP_Roll_SV_Net_2,2,2*%
%TO.N,GND*%
X189816200Y-29285200D03*
%TO.P,AP_Roll_SV_Net_2,3,3*%
%TO.N,/AP_Disengage (Unused)*%
X187046200Y-29285200D03*
%TO.P,AP_Roll_SV_Net_2,4,4*%
%TO.N,/SV_Data_2B*%
X184276200Y-29285200D03*
%TO.P,AP_Roll_SV_Net_2,5,5*%
%TO.N,unconnected-(AP_Roll_SV_Net_2-Pad5)*%
X181506200Y-29285200D03*
%TO.P,AP_Roll_SV_Net_2,6,6*%
%TO.N,/SV_Data_1B*%
X191201200Y-26445200D03*
%TO.P,AP_Roll_SV_Net_2,7,7*%
%TO.N,/SV-Net_AP_12V*%
X188431200Y-26445200D03*
%TO.P,AP_Roll_SV_Net_2,8,8*%
%TO.N,/SV_Data_2A*%
X185661200Y-26445200D03*
%TO.P,AP_Roll_SV_Net_2,9,9*%
%TO.N,unconnected-(AP_Roll_SV_Net_2-Pad9)*%
X182891200Y-26445200D03*
%TD*%
D10*
%TO.P,AP_Pitch_SV_Net_1,0,PAD*%
%TO.N,GND*%
X199546200Y-44865200D03*
X174546200Y-44865200D03*
D11*
%TO.P,AP_Pitch_SV_Net_1,1,1*%
%TO.N,/SV_Data_1A*%
X192586200Y-46285200D03*
D12*
%TO.P,AP_Pitch_SV_Net_1,2,2*%
%TO.N,GND*%
X189816200Y-46285200D03*
%TO.P,AP_Pitch_SV_Net_1,3,3*%
%TO.N,/AP_Disengage (Unused)*%
X187046200Y-46285200D03*
%TO.P,AP_Pitch_SV_Net_1,4,4*%
%TO.N,/SV_Data_2B*%
X184276200Y-46285200D03*
%TO.P,AP_Pitch_SV_Net_1,5,5*%
%TO.N,unconnected-(AP_Pitch_SV_Net_1-Pad5)*%
X181506200Y-46285200D03*
%TO.P,AP_Pitch_SV_Net_1,6,6*%
%TO.N,/SV_Data_1B*%
X191201200Y-43445200D03*
%TO.P,AP_Pitch_SV_Net_1,7,7*%
%TO.N,/SV-Net_AP_12V*%
X188431200Y-43445200D03*
%TO.P,AP_Pitch_SV_Net_1,8,8*%
%TO.N,/SV_Data_2A*%
X185661200Y-43445200D03*
%TO.P,AP_Pitch_SV_Net_1,9,9*%
%TO.N,unconnected-(AP_Pitch_SV_Net_1-Pad9)*%
X182891200Y-43445200D03*
%TD*%
D10*
%TO.P,ADSB_Serial_1,0,PAD*%
%TO.N,GND*%
X134622000Y-28069100D03*
X159622000Y-28069100D03*
D11*
%TO.P,ADSB_Serial_1,1,1*%
X141582000Y-26649100D03*
D12*
%TO.P,ADSB_Serial_1,2,2*%
%TO.N,/ADSB_12V*%
X144352000Y-26649100D03*
%TO.P,ADSB_Serial_1,3,3*%
%TO.N,/ADSB_Serial_1_Tx*%
X147122000Y-26649100D03*
%TO.P,ADSB_Serial_1,4,4*%
%TO.N,/ADSB_Serial_1_Rx*%
X149892000Y-26649100D03*
%TO.P,ADSB_Serial_1,5,5*%
%TO.N,unconnected-(ADSB_Serial_1-Pad5)*%
X152662000Y-26649100D03*
%TO.P,ADSB_Serial_1,6,6*%
%TO.N,unconnected-(ADSB_Serial_1-Pad6)*%
X142967000Y-29489100D03*
%TO.P,ADSB_Serial_1,7,7*%
%TO.N,unconnected-(ADSB_Serial_1-Pad7)*%
X145737000Y-29489100D03*
%TO.P,ADSB_Serial_1,8,8*%
%TO.N,unconnected-(ADSB_Serial_1-Pad8)*%
X148507000Y-29489100D03*
%TO.P,ADSB_Serial_1,9,9*%
%TO.N,unconnected-(ADSB_Serial_1-Pad9)*%
X151277000Y-29489100D03*
%TD*%
D10*
%TO.P,MFD_Main_2,0,PAD*%
%TO.N,GND*%
X218002000Y-98469100D03*
X218002000Y-34969100D03*
D11*
%TO.P,MFD_Main_2,1,1*%
%TO.N,/MFD_12V*%
X216582000Y-91649100D03*
D12*
%TO.P,MFD_Main_2,2,2*%
%TO.N,unconnected-(MFD_Main_2-Pad2)*%
X216582000Y-88879100D03*
%TO.P,MFD_Main_2,3,3*%
%TO.N,/ADSB_Serial_1_Rx*%
X216582000Y-86109100D03*
%TO.P,MFD_Main_2,4,4*%
%TO.N,/ADSB_Serial_1_Tx*%
X216582000Y-83339100D03*
%TO.P,MFD_Main_2,5,5*%
%TO.N,/XPNDR_Serial_2_Rx*%
X216582000Y-80569100D03*
%TO.P,MFD_Main_2,6,6*%
%TO.N,/XPNDR_Serial_2_Tx*%
X216582000Y-77799100D03*
%TO.P,MFD_Main_2,7,7*%
%TO.N,/VPX_Serial_3_Rx*%
X216582000Y-75029100D03*
%TO.P,MFD_Main_2,8,8*%
%TO.N,/VPX_Serial_3_Tx*%
X216582000Y-72259100D03*
%TO.P,MFD_Main_2,9,9*%
%TO.N,/ELT_Serial_4_Rx*%
X216582000Y-69489100D03*
%TO.P,MFD_Main_2,10,10*%
%TO.N,/ELT_Serial_4_Tx*%
X216582000Y-66719100D03*
%TO.P,MFD_Main_2,11,11*%
%TO.N,/GPS_Serial_5_Rx*%
X216582000Y-63949100D03*
%TO.P,MFD_Main_2,12,12*%
%TO.N,/GPS_Serial_5_Tx*%
X216582000Y-61179100D03*
%TO.P,MFD_Main_2,13,13*%
%TO.N,/L_Audio_Out_1*%
X216582000Y-58409100D03*
%TO.P,MFD_Main_2,14,14*%
%TO.N,unconnected-(MFD_Main_2-Pad14)*%
X216582000Y-55639100D03*
%TO.P,MFD_Main_2,15,15*%
%TO.N,/SV_Data_1A*%
X216582000Y-52869100D03*
%TO.P,MFD_Main_2,16,16*%
%TO.N,/SV_GND_1*%
X216582000Y-50099100D03*
%TO.P,MFD_Main_2,17,17*%
%TO.N,/SV_GND_2*%
X216582000Y-47329100D03*
%TO.P,MFD_Main_2,18,18*%
%TO.N,/SV_Data_2B*%
X216582000Y-44559100D03*
%TO.P,MFD_Main_2,19,19*%
%TO.N,/SV_EMS_Aux*%
X216582000Y-41789100D03*
%TO.P,MFD_Main_2,20,20*%
%TO.N,/MFD_12V*%
X219422000Y-90264100D03*
%TO.P,MFD_Main_2,21,21*%
%TO.N,GND*%
X219422000Y-87494100D03*
%TO.P,MFD_Main_2,22,22*%
X219422000Y-84724100D03*
%TO.P,MFD_Main_2,23,23*%
%TO.N,unconnected-(MFD_Main_2-Pad23)*%
X219422000Y-81954100D03*
%TO.P,MFD_Main_2,24,24*%
%TO.N,/GPS_GND*%
X219422000Y-79184100D03*
%TO.P,MFD_Main_2,25,25*%
%TO.N,/Dimmer_Signal_Input*%
X219422000Y-76414100D03*
%TO.P,MFD_Main_2,26,26*%
%TO.N,unconnected-(MFD_Main_2-Pad26)*%
X219422000Y-73644100D03*
%TO.P,MFD_Main_2,27,27*%
%TO.N,unconnected-(MFD_Main_2-Pad27)*%
X219422000Y-70874100D03*
%TO.P,MFD_Main_2,28,28*%
%TO.N,unconnected-(MFD_Main_2-Pad28)*%
X219422000Y-68104100D03*
%TO.P,MFD_Main_2,29,29*%
%TO.N,/GPS_Power*%
X219422000Y-65334100D03*
%TO.P,MFD_Main_2,30,30*%
%TO.N,/Audio_Out_GND*%
X219422000Y-62564100D03*
%TO.P,MFD_Main_2,31,31*%
%TO.N,/R_Audio_Out_1*%
X219422000Y-59794100D03*
%TO.P,MFD_Main_2,32,32*%
%TO.N,unconnected-(MFD_Main_2-Pad32)*%
X219422000Y-57024100D03*
%TO.P,MFD_Main_2,33,33*%
%TO.N,unconnected-(MFD_Main_2-Pad33)*%
X219422000Y-54254100D03*
%TO.P,MFD_Main_2,34,34*%
%TO.N,/SV_Data_1B*%
X219422000Y-51484100D03*
%TO.P,MFD_Main_2,35,35*%
%TO.N,/SV_Power_1*%
X219422000Y-48714100D03*
%TO.P,MFD_Main_2,36,36*%
%TO.N,/SV_Data_2A*%
X219422000Y-45944100D03*
%TO.P,MFD_Main_2,37,37*%
%TO.N,/SV_Power_2*%
X219422000Y-43174100D03*
%TD*%
D10*
%TO.P,PFD_Main_1,0,PAD*%
%TO.N,GND*%
X115162000Y-33673100D03*
X115162000Y-97173100D03*
D11*
%TO.P,PFD_Main_1,1,1*%
%TO.N,/PFD_&_Dim_12V*%
X116582000Y-40493100D03*
D12*
%TO.P,PFD_Main_1,2,2*%
%TO.N,unconnected-(PFD_Main_1-Pad2)*%
X116582000Y-43263100D03*
%TO.P,PFD_Main_1,3,3*%
%TO.N,/ADSB_Serial_1_Rx*%
X116582000Y-46033100D03*
%TO.P,PFD_Main_1,4,4*%
%TO.N,/ADSB_Serial_1_Tx*%
X116582000Y-48803100D03*
%TO.P,PFD_Main_1,5,5*%
%TO.N,/XPNDR_Serial_2_Rx*%
X116582000Y-51573100D03*
%TO.P,PFD_Main_1,6,6*%
%TO.N,/XPNDR_Serial_2_Tx*%
X116582000Y-54343100D03*
%TO.P,PFD_Main_1,7,7*%
%TO.N,/VPX_Serial_3_Rx*%
X116582000Y-57113100D03*
%TO.P,PFD_Main_1,8,8*%
%TO.N,/VPX_Serial_3_Tx*%
X116582000Y-59883100D03*
%TO.P,PFD_Main_1,9,9*%
%TO.N,/ELT_Serial_4_Rx*%
X116582000Y-62653100D03*
%TO.P,PFD_Main_1,10,10*%
%TO.N,/ELT_Serial_4_Tx*%
X116582000Y-65423100D03*
%TO.P,PFD_Main_1,11,11*%
%TO.N,/GPS_Serial_5_Rx*%
X116582000Y-68193100D03*
%TO.P,PFD_Main_1,12,12*%
%TO.N,/GPS_Serial_5_Tx*%
X116582000Y-70963100D03*
%TO.P,PFD_Main_1,13,13*%
%TO.N,/L_Audio_Out_1*%
X116582000Y-73733100D03*
%TO.P,PFD_Main_1,14,14*%
%TO.N,unconnected-(PFD_Main_1-Pad14)*%
X116582000Y-76503100D03*
%TO.P,PFD_Main_1,15,15*%
%TO.N,/SV_Data_1A*%
X116582000Y-79273100D03*
%TO.P,PFD_Main_1,16,16*%
%TO.N,/SV_GND_1*%
X116582000Y-82043100D03*
%TO.P,PFD_Main_1,17,17*%
%TO.N,/SV_GND_2*%
X116582000Y-84813100D03*
%TO.P,PFD_Main_1,18,18*%
%TO.N,/SV_Data_2B*%
X116582000Y-87583100D03*
%TO.P,PFD_Main_1,19,19*%
%TO.N,/SV_EMS_Aux*%
X116582000Y-90353100D03*
%TO.P,PFD_Main_1,20,20*%
%TO.N,/PFD_&_Dim_12V*%
X113742000Y-41878100D03*
%TO.P,PFD_Main_1,21,21*%
%TO.N,GND*%
X113742000Y-44648100D03*
%TO.P,PFD_Main_1,22,22*%
X113742000Y-47418100D03*
%TO.P,PFD_Main_1,23,23*%
%TO.N,unconnected-(PFD_Main_1-Pad23)*%
X113742000Y-50188100D03*
%TO.P,PFD_Main_1,24,24*%
%TO.N,/GPS_GND*%
X113742000Y-52958100D03*
%TO.P,PFD_Main_1,25,25*%
%TO.N,/Dimmer_Signal_Input*%
X113742000Y-55728100D03*
%TO.P,PFD_Main_1,26,26*%
%TO.N,/Dimmer_Output_Signal*%
X113742000Y-58498100D03*
%TO.P,PFD_Main_1,27,27*%
%TO.N,unconnected-(PFD_Main_1-Pad27)*%
X113742000Y-61268100D03*
%TO.P,PFD_Main_1,28,28*%
%TO.N,unconnected-(PFD_Main_1-Pad28)*%
X113742000Y-64038100D03*
%TO.P,PFD_Main_1,29,29*%
%TO.N,/GPS_Power*%
X113742000Y-66808100D03*
%TO.P,PFD_Main_1,30,30*%
%TO.N,/Audio_Out_GND*%
X113742000Y-69578100D03*
%TO.P,PFD_Main_1,31,31*%
%TO.N,/R_Audio_Out_1*%
X113742000Y-72348100D03*
%TO.P,PFD_Main_1,32,32*%
%TO.N,unconnected-(PFD_Main_1-Pad32)*%
X113742000Y-75118100D03*
%TO.P,PFD_Main_1,33,33*%
%TO.N,unconnected-(PFD_Main_1-Pad33)*%
X113742000Y-77888100D03*
%TO.P,PFD_Main_1,34,34*%
%TO.N,/SV_Data_1B*%
X113742000Y-80658100D03*
%TO.P,PFD_Main_1,35,35*%
%TO.N,/SV_Power_1*%
X113742000Y-83428100D03*
%TO.P,PFD_Main_1,36,36*%
%TO.N,/SV_Data_2A*%
X113742000Y-86198100D03*
%TO.P,PFD_Main_1,37,37*%
%TO.N,/SV_Power_2*%
X113742000Y-88968100D03*
%TD*%
D13*
%TO.N,/XPNDR_&_IDENT_12V*%
X165579100Y-114887800D03*
%TO.N,/Ident_SW_Input*%
X148476000Y-55275500D03*
%TO.N,/SV_Power_2*%
X191277000Y-66658600D03*
%TO.N,/SV_Data_2A*%
X180654500Y-66681500D03*
%TO.N,/SV_Data_1B*%
X195222500Y-26445200D03*
%TO.N,/GPS_Serial_5_Rx*%
X179647200Y-112157300D03*
%TO.N,/SV_EMS_Aux*%
X194094400Y-65317200D03*
%TO.N,/SV_Data_2B*%
X179528600Y-58979300D03*
%TO.N,/SV_GND_2*%
X186716300Y-65466300D03*
%TO.N,/SV_Data_1A*%
X196003700Y-29285200D03*
%TO.N,/ELT_Serial_4_Tx*%
X189327800Y-57200100D03*
X130598300Y-77285900D03*
%TO.N,/ELT_Serial_4_Rx*%
X161385300Y-64576600D03*
%TO.N,/VPX_Serial_3_Tx*%
X165073800Y-116766200D03*
%TO.N,/VPX_Serial_3_Rx*%
X213307100Y-55528500D03*
%TO.N,/Dimmer_Signal_Input*%
X214769200Y-53606200D03*
%TD*%
D14*
%TO.N,/SV_Data_2B*%
X188222200Y-58979300D02*
X189892000Y-60649100D01*
X179528600Y-58979300D02*
X188222200Y-58979300D01*
%TO.N,/Dimmer_Output_Signal*%
X184456000Y-115770100D02*
X185737000Y-114489100D01*
X180529400Y-115770100D02*
X184456000Y-115770100D01*
X177716500Y-112957200D02*
X180529400Y-115770100D01*
X177716500Y-112714700D02*
X177716500Y-112957200D01*
X175404000Y-110402200D02*
X177716500Y-112714700D01*
X151138900Y-110402200D02*
X175404000Y-110402200D01*
X149892000Y-111649100D02*
X151138900Y-110402200D01*
%TO.N,/XPNDR_&_IDENT_12V*%
X152351700Y-115563800D02*
X151277000Y-114489100D01*
X164903100Y-115563800D02*
X152351700Y-115563800D01*
X165579100Y-114887800D02*
X164903100Y-115563800D01*
D15*
%TO.N,/PFD_&_Dim_12V*%
X172736500Y-127881500D02*
X172504100Y-127649100D01*
X172736500Y-131200600D02*
X172736500Y-127881500D01*
X171826100Y-132111000D02*
X172736500Y-131200600D01*
X161473100Y-132111000D02*
X171826100Y-132111000D01*
X151839000Y-122476900D02*
X161473100Y-132111000D01*
X150954800Y-122476900D02*
X151839000Y-122476900D01*
X142967000Y-114489100D02*
X150954800Y-122476900D01*
X116582000Y-40493100D02*
X114980100Y-40493100D01*
X114980100Y-40640000D02*
X113742000Y-41878100D01*
X114980100Y-40493100D02*
X114980100Y-40640000D01*
X141581100Y-115875000D02*
X142967000Y-114489100D01*
X129866300Y-115875000D02*
X141581100Y-115875000D01*
X109866600Y-95875300D02*
X129866300Y-115875000D01*
X109866600Y-45753500D02*
X109866600Y-95875300D01*
X113742000Y-41878100D02*
X109866600Y-45753500D01*
D14*
%TO.N,/Ident_SW_Input*%
X152662000Y-51089500D02*
X148476000Y-55275500D01*
X152662000Y-43649100D02*
X152662000Y-51089500D01*
D16*
%TO.N,GND*%
X159622000Y-79069100D02*
X174622000Y-79069100D01*
X183622000Y-129069100D02*
X179464100Y-129069100D01*
X199622000Y-113069100D02*
X183622000Y-129069100D01*
X136042000Y-60649100D02*
X134622000Y-62069100D01*
X141582000Y-60649100D02*
X136042000Y-60649100D01*
X164194100Y-127649100D02*
X161424100Y-127649100D01*
X159622000Y-96069100D02*
X174622000Y-96069100D01*
X199622000Y-96069100D02*
X199622000Y-79069100D01*
X210898100Y-27865200D02*
X218002000Y-34969100D01*
X199546200Y-27865200D02*
X210898100Y-27865200D01*
X134622000Y-97173100D02*
X115162000Y-97173100D01*
X134622000Y-97173100D02*
X134622000Y-96069100D01*
X189816200Y-29285200D02*
X189816200Y-29634200D01*
X196274300Y-31137100D02*
X199546200Y-27865200D01*
X191319100Y-31137100D02*
X196274300Y-31137100D01*
X189816200Y-29634200D02*
X191319100Y-31137100D01*
X136042000Y-77649100D02*
X141582000Y-77649100D01*
X134622000Y-79069100D02*
X136042000Y-77649100D01*
X141582000Y-111649100D02*
X139730100Y-111649100D01*
X134622000Y-111649100D02*
X139730100Y-111649100D01*
X134622000Y-113069100D02*
X134622000Y-111649100D01*
X134622000Y-111649100D02*
X134622000Y-97173100D01*
X177836000Y-31155000D02*
X174546200Y-27865200D01*
X188295400Y-31155000D02*
X177836000Y-31155000D01*
X189816200Y-29634200D02*
X188295400Y-31155000D01*
X174622000Y-113069100D02*
X159622000Y-113069100D01*
X158202000Y-111649100D02*
X159622000Y-113069100D01*
X152662000Y-111649100D02*
X158202000Y-111649100D01*
D15*
%TO.N,/MFD_12V*%
X216582000Y-91649100D02*
X214980100Y-91649100D01*
X174906500Y-122476700D02*
X169734100Y-127649100D01*
X185560400Y-122476700D02*
X174906500Y-122476700D01*
X214980100Y-93057000D02*
X185560400Y-122476700D01*
X214980100Y-91649100D02*
X214980100Y-93057000D01*
X218183900Y-91502200D02*
X218183900Y-91649100D01*
X219422000Y-90264100D02*
X218183900Y-91502200D01*
X216582000Y-91649100D02*
X218183900Y-91649100D01*
D14*
%TO.N,/SV_Power_2*%
X191277000Y-63489100D02*
X191277000Y-66658600D01*
X113742000Y-89288700D02*
X113742000Y-88968100D01*
X116068300Y-91615000D02*
X113742000Y-89288700D01*
X174442500Y-91615000D02*
X116068300Y-91615000D01*
X178799200Y-95971700D02*
X174442500Y-91615000D01*
X189759600Y-95971700D02*
X178799200Y-95971700D01*
X191277000Y-97489100D02*
X189759600Y-95971700D01*
%TO.N,/SV_Data_2A*%
X186706600Y-66681500D02*
X180654500Y-66681500D01*
X188507000Y-64881100D02*
X186706600Y-66681500D01*
X188507000Y-63489100D02*
X188507000Y-64881100D01*
X182798000Y-86198100D02*
X188507000Y-80489100D01*
X113742000Y-86198100D02*
X182798000Y-86198100D01*
%TO.N,/SV_Power_1*%
X182798000Y-83428100D02*
X185737000Y-80489100D01*
X113742000Y-83428100D02*
X182798000Y-83428100D01*
%TO.N,/SV_Data_1B*%
X191201200Y-26445200D02*
X195222500Y-26445200D01*
X181731800Y-81724300D02*
X182967000Y-80489100D01*
X130036400Y-81724300D02*
X181731800Y-81724300D01*
X128970200Y-80658100D02*
X130036400Y-81724300D01*
X113742000Y-80658100D02*
X128970200Y-80658100D01*
X192866700Y-43445200D02*
X191201200Y-43445200D01*
X200905600Y-51484100D02*
X192866700Y-43445200D01*
X219422000Y-51484100D02*
X200905600Y-51484100D01*
%TO.N,/GPS_Serial_5_Rx*%
X148144500Y-92901600D02*
X149892000Y-94649100D01*
X115144500Y-92901600D02*
X148144500Y-92901600D01*
X111381900Y-89139000D02*
X115144500Y-92901600D01*
X111381900Y-72957300D02*
X111381900Y-89139000D01*
X113218000Y-71121200D02*
X111381900Y-72957300D01*
X113997900Y-71121200D02*
X113218000Y-71121200D01*
X116582000Y-68537100D02*
X113997900Y-71121200D01*
X116582000Y-68193100D02*
X116582000Y-68537100D01*
X150289700Y-94649100D02*
X149892000Y-94649100D01*
X156411900Y-100771300D02*
X150289700Y-94649100D01*
X168261200Y-100771300D02*
X156411900Y-100771300D01*
X179647200Y-112157300D02*
X168261200Y-100771300D01*
%TO.N,/SV_EMS_Aux*%
X194094400Y-62081500D02*
X194094400Y-65317200D01*
X192662000Y-60649100D02*
X194094400Y-62081500D01*
X192662000Y-86057100D02*
X188366000Y-90353100D01*
X192662000Y-77649100D02*
X192662000Y-86057100D01*
X116582000Y-90353100D02*
X188366000Y-90353100D01*
X188366000Y-90353100D02*
X192662000Y-94649100D01*
%TO.N,/SV_Data_2B*%
X183209000Y-87583100D02*
X116582000Y-87583100D01*
X189892000Y-80900100D02*
X183209000Y-87583100D01*
X189892000Y-77649100D02*
X189892000Y-80900100D01*
%TO.N,/SV_GND_2*%
X187122000Y-65060600D02*
X186716300Y-65466300D01*
X187122000Y-60649100D02*
X187122000Y-65060600D01*
X116582000Y-84813000D02*
X116582000Y-84813100D01*
X183151900Y-84813000D02*
X116582000Y-84813000D01*
X187122000Y-80842900D02*
X183151900Y-84813000D01*
X187122000Y-77649100D02*
X187122000Y-80842900D01*
%TO.N,/SV_GND_1*%
X181943200Y-75240300D02*
X184352000Y-77649100D01*
X126793000Y-75240300D02*
X181943200Y-75240300D01*
X124145200Y-77888100D02*
X126793000Y-75240300D01*
X115594700Y-77888100D02*
X124145200Y-77888100D01*
X114061000Y-79421800D02*
X115594700Y-77888100D01*
X113186100Y-79421800D02*
X114061000Y-79421800D01*
X112505700Y-80102200D02*
X113186100Y-79421800D01*
X112505700Y-81198900D02*
X112505700Y-80102200D01*
X113349900Y-82043100D02*
X112505700Y-81198900D01*
X116582000Y-82043100D02*
X113349900Y-82043100D01*
%TO.N,/SV_Data_1A*%
X192586200Y-29285200D02*
X196003700Y-29285200D01*
X215925900Y-52213000D02*
X216582000Y-52869100D01*
X199740900Y-52213000D02*
X215925900Y-52213000D01*
X193813100Y-46285200D02*
X199740900Y-52213000D01*
X192586200Y-46285200D02*
X193813100Y-46285200D01*
X181582000Y-77649100D02*
X180355100Y-77649100D01*
X178530400Y-75824400D02*
X180355100Y-77649100D01*
X129386600Y-75824400D02*
X178530400Y-75824400D01*
X125937900Y-79273100D02*
X129386600Y-75824400D01*
X116582000Y-79273100D02*
X125937900Y-79273100D01*
%TO.N,/GPS_Serial_5_Tx*%
X202048900Y-75712200D02*
X216582000Y-61179100D01*
X202048900Y-97074400D02*
X202048900Y-75712200D01*
X188348900Y-110774400D02*
X202048900Y-97074400D01*
X188348900Y-112157300D02*
X188348900Y-110774400D01*
X187522000Y-112984200D02*
X188348900Y-112157300D01*
X179304700Y-112984200D02*
X187522000Y-112984200D01*
X178820300Y-112499800D02*
X179304700Y-112984200D01*
X178820300Y-112218200D02*
X178820300Y-112499800D01*
X175744200Y-109142100D02*
X178820300Y-112218200D01*
X161154100Y-109142100D02*
X175744200Y-109142100D01*
X149892000Y-97880000D02*
X161154100Y-109142100D01*
X149892000Y-97105500D02*
X149892000Y-97880000D01*
X147435600Y-94649100D02*
X149892000Y-97105500D01*
X147122000Y-94649100D02*
X147435600Y-94649100D01*
%TO.N,/GPS_Power*%
X165601600Y-66808100D02*
X113742000Y-66808100D01*
X174270500Y-58139200D02*
X165601600Y-66808100D01*
X212898800Y-58139200D02*
X174270500Y-58139200D01*
X213856300Y-57181700D02*
X212898800Y-58139200D01*
X217207300Y-57181700D02*
X213856300Y-57181700D01*
X218434700Y-58409100D02*
X217207300Y-57181700D01*
X219779400Y-58409100D02*
X218434700Y-58409100D01*
X220657000Y-59286700D02*
X219779400Y-58409100D01*
X220657000Y-64099100D02*
X220657000Y-59286700D01*
X219422000Y-65334100D02*
X220657000Y-64099100D01*
%TO.N,/ELT_Serial_4_Tx*%
X174129400Y-57200100D02*
X189327800Y-57200100D01*
X165906400Y-65423100D02*
X174129400Y-57200100D01*
X116582000Y-65423100D02*
X165906400Y-65423100D01*
X131484200Y-76400000D02*
X130598300Y-77285900D01*
X145872900Y-76400000D02*
X131484200Y-76400000D01*
X147122000Y-77649100D02*
X145872900Y-76400000D01*
%TO.N,/ELT_Serial_4_Rx*%
X161245900Y-64716000D02*
X161385300Y-64576600D01*
X118644900Y-64716000D02*
X161245900Y-64716000D01*
X116582000Y-62653100D02*
X118644900Y-64716000D01*
X219793000Y-69489100D02*
X216582000Y-69489100D01*
X221252000Y-68030100D02*
X219793000Y-69489100D01*
X221252000Y-57077200D02*
X221252000Y-68030100D01*
X219813900Y-55639100D02*
X221252000Y-57077200D01*
X218434700Y-55639100D02*
X219813900Y-55639100D01*
X217180500Y-54384900D02*
X218434700Y-55639100D01*
X216044000Y-54384900D02*
X217180500Y-54384900D01*
X214073500Y-56355400D02*
X216044000Y-54384900D01*
X169606500Y-56355400D02*
X214073500Y-56355400D01*
X161385300Y-64576600D02*
X169606500Y-56355400D01*
%TO.N,/VPX_Serial_3_Tx*%
X145891700Y-59418800D02*
X147122000Y-60649100D01*
X117046300Y-59418800D02*
X145891700Y-59418800D01*
X116582000Y-59883100D02*
X117046300Y-59418800D01*
X208501200Y-80339900D02*
X216582000Y-72259100D01*
X208501200Y-92209400D02*
X208501200Y-80339900D01*
X191268200Y-109442400D02*
X208501200Y-92209400D01*
X191268200Y-112597700D02*
X191268200Y-109442400D01*
X189892000Y-113973900D02*
X191268200Y-112597700D01*
X189892000Y-114844200D02*
X189892000Y-113973900D01*
X187970000Y-116766200D02*
X189892000Y-114844200D01*
X165073800Y-116766200D02*
X187970000Y-116766200D01*
%TO.N,/VPX_Serial_3_Rx*%
X146356000Y-57113100D02*
X149892000Y-60649100D01*
X116582000Y-57113100D02*
X146356000Y-57113100D01*
X155012600Y-55528500D02*
X149892000Y-60649100D01*
X213307100Y-55528500D02*
X155012600Y-55528500D01*
%TO.N,/XPNDR_Serial_2_Tx*%
X145701900Y-45069200D02*
X147122000Y-43649100D01*
X140742400Y-45069200D02*
X145701900Y-45069200D01*
X131468500Y-54343100D02*
X140742400Y-45069200D01*
X116582000Y-54343100D02*
X131468500Y-54343100D01*
X148348900Y-44876000D02*
X147122000Y-43649100D01*
X150480200Y-44876000D02*
X148348900Y-44876000D01*
X151277000Y-44079200D02*
X150480200Y-44876000D01*
X151277000Y-43283900D02*
X151277000Y-44079200D01*
X152355200Y-42205700D02*
X151277000Y-43283900D01*
X201354000Y-42205700D02*
X152355200Y-42205700D01*
X207860900Y-48712600D02*
X201354000Y-42205700D01*
X217567900Y-48712600D02*
X207860900Y-48712600D01*
X219039500Y-50184200D02*
X217567900Y-48712600D01*
X219857200Y-50184200D02*
X219039500Y-50184200D01*
X221847100Y-52174100D02*
X219857200Y-50184200D01*
X221847100Y-73002800D02*
X221847100Y-52174100D01*
X219820800Y-75029100D02*
X221847100Y-73002800D01*
X218994200Y-75029100D02*
X219820800Y-75029100D01*
X216582000Y-77441300D02*
X218994200Y-75029100D01*
X216582000Y-77799100D02*
X216582000Y-77441300D01*
%TO.N,/XPNDR_Serial_2_Rx*%
X216582000Y-80211300D02*
X216582000Y-80569100D01*
X218994200Y-77799100D02*
X216582000Y-80211300D01*
X219779400Y-77799100D02*
X218994200Y-77799100D01*
X222438900Y-75139600D02*
X219779400Y-77799100D01*
X222438900Y-49995900D02*
X222438900Y-75139600D01*
X219857200Y-47414200D02*
X222438900Y-49995900D01*
X219039500Y-47414200D02*
X219857200Y-47414200D01*
X217569400Y-45944100D02*
X219039500Y-47414200D01*
X214710800Y-45944100D02*
X217569400Y-45944100D01*
X210377700Y-41611000D02*
X214710800Y-45944100D01*
X151930100Y-41611000D02*
X210377700Y-41611000D01*
X149892000Y-43649100D02*
X151930100Y-41611000D01*
X148655800Y-42412900D02*
X149892000Y-43649100D01*
X125742200Y-42412900D02*
X148655800Y-42412900D01*
X116582000Y-51573100D02*
X125742200Y-42412900D01*
%TO.N,/ADSB_Serial_1_Tx*%
X146823800Y-26649100D02*
X147122000Y-26649100D01*
X144266900Y-29206000D02*
X146823800Y-26649100D01*
X144266900Y-29924300D02*
X144266900Y-29206000D01*
X143475200Y-30716000D02*
X144266900Y-29924300D01*
X134669100Y-30716000D02*
X143475200Y-30716000D01*
X116582000Y-48803100D02*
X134669100Y-30716000D01*
X216582000Y-82981300D02*
X216582000Y-83339100D01*
X218994200Y-80569100D02*
X216582000Y-82981300D01*
X219816600Y-80569100D02*
X218994200Y-80569100D01*
X223027800Y-77357900D02*
X219816600Y-80569100D01*
X223027800Y-47814800D02*
X223027800Y-77357900D01*
X219857200Y-44644200D02*
X223027800Y-47814800D01*
X219039500Y-44644200D02*
X219857200Y-44644200D01*
X217569400Y-43174100D02*
X219039500Y-44644200D01*
X215356600Y-43174100D02*
X217569400Y-43174100D01*
X212205300Y-40022800D02*
X215356600Y-43174100D01*
X160010500Y-40022800D02*
X212205300Y-40022800D01*
X149773700Y-29786000D02*
X160010500Y-40022800D01*
X149773700Y-28974600D02*
X149773700Y-29786000D01*
X147448200Y-26649100D02*
X149773700Y-28974600D01*
X147122000Y-26649100D02*
X147448200Y-26649100D01*
%TO.N,/ADSB_Serial_1_Rx*%
X148631700Y-25388800D02*
X149892000Y-26649100D01*
X133807600Y-25388800D02*
X148631700Y-25388800D01*
X131581300Y-27615100D02*
X133807600Y-25388800D01*
X131581300Y-31033800D02*
X131581300Y-27615100D01*
X116582000Y-46033100D02*
X131581300Y-31033800D01*
X150289700Y-26649100D02*
X149892000Y-26649100D01*
X159460700Y-35820100D02*
X150289700Y-26649100D01*
X213818000Y-35820100D02*
X159460700Y-35820100D01*
X223623000Y-45625100D02*
X213818000Y-35820100D01*
X223623000Y-79495500D02*
X223623000Y-45625100D01*
X219779400Y-83339100D02*
X223623000Y-79495500D01*
X218994200Y-83339100D02*
X219779400Y-83339100D01*
X216582000Y-85751300D02*
X218994200Y-83339100D01*
X216582000Y-86109100D02*
X216582000Y-85751300D01*
%TO.N,/Audio_Out_GND*%
X180029000Y-114489100D02*
X182967000Y-114489100D01*
X178268400Y-112728500D02*
X180029000Y-114489100D01*
X178268400Y-112469400D02*
X178268400Y-112728500D01*
X175577600Y-109778600D02*
X178268400Y-112469400D01*
X153398700Y-109778600D02*
X175577600Y-109778600D01*
X137249500Y-93629400D02*
X153398700Y-109778600D01*
X115081200Y-93629400D02*
X137249500Y-93629400D01*
X110819400Y-89367600D02*
X115081200Y-93629400D01*
X110819400Y-72500700D02*
X110819400Y-89367600D01*
X113742000Y-69578100D02*
X110819400Y-72500700D01*
%TO.N,/L_Audio_Out_1*%
X181582000Y-111649100D02*
X180355100Y-111649100D01*
X116582000Y-74077100D02*
X116582000Y-73733100D01*
X114156000Y-76503100D02*
X116582000Y-74077100D01*
X113336300Y-76503100D02*
X114156000Y-76503100D01*
X111942900Y-77896500D02*
X113336300Y-76503100D01*
X111942900Y-88908900D02*
X111942900Y-77896500D01*
X115252500Y-92218500D02*
X111942900Y-88908900D01*
X152008500Y-92218500D02*
X115252500Y-92218500D01*
X159792600Y-100002600D02*
X152008500Y-92218500D01*
X168708600Y-100002600D02*
X159792600Y-100002600D01*
X180355100Y-111649100D02*
X168708600Y-100002600D01*
%TO.N,/R_Audio_Out_1*%
X193890500Y-102110600D02*
X184352000Y-111649100D01*
X193890500Y-72348100D02*
X193890500Y-102110600D01*
X113742000Y-72348100D02*
X193890500Y-72348100D01*
X206444500Y-59794100D02*
X219422000Y-59794100D01*
X193890500Y-72348100D02*
X206444500Y-59794100D01*
%TO.N,/Dimmer_Signal_Input*%
X154829700Y-53606200D02*
X214769200Y-53606200D01*
X152328800Y-56107100D02*
X154829700Y-53606200D01*
X147973000Y-56107100D02*
X152328800Y-56107100D01*
X147594000Y-55728100D02*
X147973000Y-56107100D01*
X113742000Y-55728100D02*
X147594000Y-55728100D01*
%TD*%
M02*
