%TF.GenerationSoftware,KiCad,Pcbnew,7.0.9*%
%TF.CreationDate,2023-12-27T22:33:40-08:00*%
%TF.ProjectId,Interconnect Board,496e7465-7263-46f6-9e6e-65637420426f,v1.1*%
%TF.SameCoordinates,Original*%
%TF.FileFunction,Legend,Top*%
%TF.FilePolarity,Positive*%
%FSLAX46Y46*%
G04 Gerber Fmt 4.6, Leading zero omitted, Abs format (unit mm)*
G04 Created by KiCad (PCBNEW 7.0.9) date 2023-12-27 22:33:40*
%MOMM*%
%LPD*%
G01*
G04 APERTURE LIST*
%ADD10C,0.300000*%
%ADD11C,0.150000*%
%ADD12C,0.120000*%
G04 APERTURE END LIST*
D10*
X208141177Y-115190549D02*
X208355463Y-115261977D01*
X208355463Y-115261977D02*
X208712605Y-115261977D01*
X208712605Y-115261977D02*
X208855463Y-115190549D01*
X208855463Y-115190549D02*
X208926891Y-115119120D01*
X208926891Y-115119120D02*
X208998320Y-114976263D01*
X208998320Y-114976263D02*
X208998320Y-114833406D01*
X208998320Y-114833406D02*
X208926891Y-114690549D01*
X208926891Y-114690549D02*
X208855463Y-114619120D01*
X208855463Y-114619120D02*
X208712605Y-114547691D01*
X208712605Y-114547691D02*
X208426891Y-114476263D01*
X208426891Y-114476263D02*
X208284034Y-114404834D01*
X208284034Y-114404834D02*
X208212605Y-114333406D01*
X208212605Y-114333406D02*
X208141177Y-114190549D01*
X208141177Y-114190549D02*
X208141177Y-114047691D01*
X208141177Y-114047691D02*
X208212605Y-113904834D01*
X208212605Y-113904834D02*
X208284034Y-113833406D01*
X208284034Y-113833406D02*
X208426891Y-113761977D01*
X208426891Y-113761977D02*
X208784034Y-113761977D01*
X208784034Y-113761977D02*
X208998320Y-113833406D01*
X210212605Y-115190549D02*
X210069748Y-115261977D01*
X210069748Y-115261977D02*
X209784034Y-115261977D01*
X209784034Y-115261977D02*
X209641176Y-115190549D01*
X209641176Y-115190549D02*
X209569748Y-115047691D01*
X209569748Y-115047691D02*
X209569748Y-114476263D01*
X209569748Y-114476263D02*
X209641176Y-114333406D01*
X209641176Y-114333406D02*
X209784034Y-114261977D01*
X209784034Y-114261977D02*
X210069748Y-114261977D01*
X210069748Y-114261977D02*
X210212605Y-114333406D01*
X210212605Y-114333406D02*
X210284034Y-114476263D01*
X210284034Y-114476263D02*
X210284034Y-114619120D01*
X210284034Y-114619120D02*
X209569748Y-114761977D01*
X210926890Y-115261977D02*
X210926890Y-114261977D01*
X210926890Y-114547691D02*
X210998319Y-114404834D01*
X210998319Y-114404834D02*
X211069748Y-114333406D01*
X211069748Y-114333406D02*
X211212605Y-114261977D01*
X211212605Y-114261977D02*
X211355462Y-114261977D01*
X211855461Y-115261977D02*
X211855461Y-114261977D01*
X211855461Y-113761977D02*
X211784033Y-113833406D01*
X211784033Y-113833406D02*
X211855461Y-113904834D01*
X211855461Y-113904834D02*
X211926890Y-113833406D01*
X211926890Y-113833406D02*
X211855461Y-113761977D01*
X211855461Y-113761977D02*
X211855461Y-113904834D01*
X213212605Y-115261977D02*
X213212605Y-114476263D01*
X213212605Y-114476263D02*
X213141176Y-114333406D01*
X213141176Y-114333406D02*
X212998319Y-114261977D01*
X212998319Y-114261977D02*
X212712605Y-114261977D01*
X212712605Y-114261977D02*
X212569747Y-114333406D01*
X213212605Y-115190549D02*
X213069747Y-115261977D01*
X213069747Y-115261977D02*
X212712605Y-115261977D01*
X212712605Y-115261977D02*
X212569747Y-115190549D01*
X212569747Y-115190549D02*
X212498319Y-115047691D01*
X212498319Y-115047691D02*
X212498319Y-114904834D01*
X212498319Y-114904834D02*
X212569747Y-114761977D01*
X212569747Y-114761977D02*
X212712605Y-114690549D01*
X212712605Y-114690549D02*
X213069747Y-114690549D01*
X213069747Y-114690549D02*
X213212605Y-114619120D01*
X214141176Y-115261977D02*
X213998319Y-115190549D01*
X213998319Y-115190549D02*
X213926890Y-115047691D01*
X213926890Y-115047691D02*
X213926890Y-113761977D01*
X215855461Y-115261977D02*
X215855461Y-113761977D01*
X215855461Y-113761977D02*
X216712604Y-115261977D01*
X216712604Y-115261977D02*
X216712604Y-113761977D01*
X217641176Y-115261977D02*
X217498319Y-115190549D01*
X217498319Y-115190549D02*
X217426890Y-115119120D01*
X217426890Y-115119120D02*
X217355462Y-114976263D01*
X217355462Y-114976263D02*
X217355462Y-114547691D01*
X217355462Y-114547691D02*
X217426890Y-114404834D01*
X217426890Y-114404834D02*
X217498319Y-114333406D01*
X217498319Y-114333406D02*
X217641176Y-114261977D01*
X217641176Y-114261977D02*
X217855462Y-114261977D01*
X217855462Y-114261977D02*
X217998319Y-114333406D01*
X217998319Y-114333406D02*
X218069748Y-114404834D01*
X218069748Y-114404834D02*
X218141176Y-114547691D01*
X218141176Y-114547691D02*
X218141176Y-114976263D01*
X218141176Y-114976263D02*
X218069748Y-115119120D01*
X218069748Y-115119120D02*
X217998319Y-115190549D01*
X217998319Y-115190549D02*
X217855462Y-115261977D01*
X217855462Y-115261977D02*
X217641176Y-115261977D01*
X218784033Y-115119120D02*
X218855462Y-115190549D01*
X218855462Y-115190549D02*
X218784033Y-115261977D01*
X218784033Y-115261977D02*
X218712605Y-115190549D01*
X218712605Y-115190549D02*
X218784033Y-115119120D01*
X218784033Y-115119120D02*
X218784033Y-115261977D01*
X114161177Y-16638549D02*
X114375463Y-16709977D01*
X114375463Y-16709977D02*
X114732605Y-16709977D01*
X114732605Y-16709977D02*
X114875463Y-16638549D01*
X114875463Y-16638549D02*
X114946891Y-16567120D01*
X114946891Y-16567120D02*
X115018320Y-16424263D01*
X115018320Y-16424263D02*
X115018320Y-16281406D01*
X115018320Y-16281406D02*
X114946891Y-16138549D01*
X114946891Y-16138549D02*
X114875463Y-16067120D01*
X114875463Y-16067120D02*
X114732605Y-15995691D01*
X114732605Y-15995691D02*
X114446891Y-15924263D01*
X114446891Y-15924263D02*
X114304034Y-15852834D01*
X114304034Y-15852834D02*
X114232605Y-15781406D01*
X114232605Y-15781406D02*
X114161177Y-15638549D01*
X114161177Y-15638549D02*
X114161177Y-15495691D01*
X114161177Y-15495691D02*
X114232605Y-15352834D01*
X114232605Y-15352834D02*
X114304034Y-15281406D01*
X114304034Y-15281406D02*
X114446891Y-15209977D01*
X114446891Y-15209977D02*
X114804034Y-15209977D01*
X114804034Y-15209977D02*
X115018320Y-15281406D01*
X115661176Y-16709977D02*
X115661176Y-15209977D01*
X115804034Y-16138549D02*
X116232605Y-16709977D01*
X116232605Y-15709977D02*
X115661176Y-16281406D01*
X116732605Y-15709977D02*
X117089748Y-16709977D01*
X117446891Y-15709977D02*
X117089748Y-16709977D01*
X117089748Y-16709977D02*
X116946891Y-17067120D01*
X116946891Y-17067120D02*
X116875462Y-17138549D01*
X116875462Y-17138549D02*
X116732605Y-17209977D01*
X117804034Y-15209977D02*
X118304034Y-16709977D01*
X118304034Y-16709977D02*
X118804034Y-15209977D01*
X119304033Y-16709977D02*
X119304033Y-15709977D01*
X119304033Y-15209977D02*
X119232605Y-15281406D01*
X119232605Y-15281406D02*
X119304033Y-15352834D01*
X119304033Y-15352834D02*
X119375462Y-15281406D01*
X119375462Y-15281406D02*
X119304033Y-15209977D01*
X119304033Y-15209977D02*
X119304033Y-15352834D01*
X120589748Y-16638549D02*
X120446891Y-16709977D01*
X120446891Y-16709977D02*
X120161177Y-16709977D01*
X120161177Y-16709977D02*
X120018319Y-16638549D01*
X120018319Y-16638549D02*
X119946891Y-16495691D01*
X119946891Y-16495691D02*
X119946891Y-15924263D01*
X119946891Y-15924263D02*
X120018319Y-15781406D01*
X120018319Y-15781406D02*
X120161177Y-15709977D01*
X120161177Y-15709977D02*
X120446891Y-15709977D01*
X120446891Y-15709977D02*
X120589748Y-15781406D01*
X120589748Y-15781406D02*
X120661177Y-15924263D01*
X120661177Y-15924263D02*
X120661177Y-16067120D01*
X120661177Y-16067120D02*
X119946891Y-16209977D01*
X121161176Y-15709977D02*
X121446891Y-16709977D01*
X121446891Y-16709977D02*
X121732605Y-15995691D01*
X121732605Y-15995691D02*
X122018319Y-16709977D01*
X122018319Y-16709977D02*
X122304033Y-15709977D01*
X124018319Y-16709977D02*
X124018319Y-15209977D01*
X124732605Y-15709977D02*
X124732605Y-16709977D01*
X124732605Y-15852834D02*
X124804034Y-15781406D01*
X124804034Y-15781406D02*
X124946891Y-15709977D01*
X124946891Y-15709977D02*
X125161177Y-15709977D01*
X125161177Y-15709977D02*
X125304034Y-15781406D01*
X125304034Y-15781406D02*
X125375463Y-15924263D01*
X125375463Y-15924263D02*
X125375463Y-16709977D01*
X125875463Y-15709977D02*
X126446891Y-15709977D01*
X126089748Y-15209977D02*
X126089748Y-16495691D01*
X126089748Y-16495691D02*
X126161177Y-16638549D01*
X126161177Y-16638549D02*
X126304034Y-16709977D01*
X126304034Y-16709977D02*
X126446891Y-16709977D01*
X127518320Y-16638549D02*
X127375463Y-16709977D01*
X127375463Y-16709977D02*
X127089749Y-16709977D01*
X127089749Y-16709977D02*
X126946891Y-16638549D01*
X126946891Y-16638549D02*
X126875463Y-16495691D01*
X126875463Y-16495691D02*
X126875463Y-15924263D01*
X126875463Y-15924263D02*
X126946891Y-15781406D01*
X126946891Y-15781406D02*
X127089749Y-15709977D01*
X127089749Y-15709977D02*
X127375463Y-15709977D01*
X127375463Y-15709977D02*
X127518320Y-15781406D01*
X127518320Y-15781406D02*
X127589749Y-15924263D01*
X127589749Y-15924263D02*
X127589749Y-16067120D01*
X127589749Y-16067120D02*
X126875463Y-16209977D01*
X128232605Y-16709977D02*
X128232605Y-15709977D01*
X128232605Y-15995691D02*
X128304034Y-15852834D01*
X128304034Y-15852834D02*
X128375463Y-15781406D01*
X128375463Y-15781406D02*
X128518320Y-15709977D01*
X128518320Y-15709977D02*
X128661177Y-15709977D01*
X128946891Y-15709977D02*
X129518319Y-15709977D01*
X129161176Y-16709977D02*
X129161176Y-15424263D01*
X129161176Y-15424263D02*
X129232605Y-15281406D01*
X129232605Y-15281406D02*
X129375462Y-15209977D01*
X129375462Y-15209977D02*
X129518319Y-15209977D01*
X130661177Y-16709977D02*
X130661177Y-15924263D01*
X130661177Y-15924263D02*
X130589748Y-15781406D01*
X130589748Y-15781406D02*
X130446891Y-15709977D01*
X130446891Y-15709977D02*
X130161177Y-15709977D01*
X130161177Y-15709977D02*
X130018319Y-15781406D01*
X130661177Y-16638549D02*
X130518319Y-16709977D01*
X130518319Y-16709977D02*
X130161177Y-16709977D01*
X130161177Y-16709977D02*
X130018319Y-16638549D01*
X130018319Y-16638549D02*
X129946891Y-16495691D01*
X129946891Y-16495691D02*
X129946891Y-16352834D01*
X129946891Y-16352834D02*
X130018319Y-16209977D01*
X130018319Y-16209977D02*
X130161177Y-16138549D01*
X130161177Y-16138549D02*
X130518319Y-16138549D01*
X130518319Y-16138549D02*
X130661177Y-16067120D01*
X132018320Y-16638549D02*
X131875462Y-16709977D01*
X131875462Y-16709977D02*
X131589748Y-16709977D01*
X131589748Y-16709977D02*
X131446891Y-16638549D01*
X131446891Y-16638549D02*
X131375462Y-16567120D01*
X131375462Y-16567120D02*
X131304034Y-16424263D01*
X131304034Y-16424263D02*
X131304034Y-15995691D01*
X131304034Y-15995691D02*
X131375462Y-15852834D01*
X131375462Y-15852834D02*
X131446891Y-15781406D01*
X131446891Y-15781406D02*
X131589748Y-15709977D01*
X131589748Y-15709977D02*
X131875462Y-15709977D01*
X131875462Y-15709977D02*
X132018320Y-15781406D01*
X133232605Y-16638549D02*
X133089748Y-16709977D01*
X133089748Y-16709977D02*
X132804034Y-16709977D01*
X132804034Y-16709977D02*
X132661176Y-16638549D01*
X132661176Y-16638549D02*
X132589748Y-16495691D01*
X132589748Y-16495691D02*
X132589748Y-15924263D01*
X132589748Y-15924263D02*
X132661176Y-15781406D01*
X132661176Y-15781406D02*
X132804034Y-15709977D01*
X132804034Y-15709977D02*
X133089748Y-15709977D01*
X133089748Y-15709977D02*
X133232605Y-15781406D01*
X133232605Y-15781406D02*
X133304034Y-15924263D01*
X133304034Y-15924263D02*
X133304034Y-16067120D01*
X133304034Y-16067120D02*
X132589748Y-16209977D01*
X135589747Y-15924263D02*
X135804033Y-15995691D01*
X135804033Y-15995691D02*
X135875462Y-16067120D01*
X135875462Y-16067120D02*
X135946890Y-16209977D01*
X135946890Y-16209977D02*
X135946890Y-16424263D01*
X135946890Y-16424263D02*
X135875462Y-16567120D01*
X135875462Y-16567120D02*
X135804033Y-16638549D01*
X135804033Y-16638549D02*
X135661176Y-16709977D01*
X135661176Y-16709977D02*
X135089747Y-16709977D01*
X135089747Y-16709977D02*
X135089747Y-15209977D01*
X135089747Y-15209977D02*
X135589747Y-15209977D01*
X135589747Y-15209977D02*
X135732605Y-15281406D01*
X135732605Y-15281406D02*
X135804033Y-15352834D01*
X135804033Y-15352834D02*
X135875462Y-15495691D01*
X135875462Y-15495691D02*
X135875462Y-15638549D01*
X135875462Y-15638549D02*
X135804033Y-15781406D01*
X135804033Y-15781406D02*
X135732605Y-15852834D01*
X135732605Y-15852834D02*
X135589747Y-15924263D01*
X135589747Y-15924263D02*
X135089747Y-15924263D01*
X136804033Y-16709977D02*
X136661176Y-16638549D01*
X136661176Y-16638549D02*
X136589747Y-16567120D01*
X136589747Y-16567120D02*
X136518319Y-16424263D01*
X136518319Y-16424263D02*
X136518319Y-15995691D01*
X136518319Y-15995691D02*
X136589747Y-15852834D01*
X136589747Y-15852834D02*
X136661176Y-15781406D01*
X136661176Y-15781406D02*
X136804033Y-15709977D01*
X136804033Y-15709977D02*
X137018319Y-15709977D01*
X137018319Y-15709977D02*
X137161176Y-15781406D01*
X137161176Y-15781406D02*
X137232605Y-15852834D01*
X137232605Y-15852834D02*
X137304033Y-15995691D01*
X137304033Y-15995691D02*
X137304033Y-16424263D01*
X137304033Y-16424263D02*
X137232605Y-16567120D01*
X137232605Y-16567120D02*
X137161176Y-16638549D01*
X137161176Y-16638549D02*
X137018319Y-16709977D01*
X137018319Y-16709977D02*
X136804033Y-16709977D01*
X138589748Y-16709977D02*
X138589748Y-15924263D01*
X138589748Y-15924263D02*
X138518319Y-15781406D01*
X138518319Y-15781406D02*
X138375462Y-15709977D01*
X138375462Y-15709977D02*
X138089748Y-15709977D01*
X138089748Y-15709977D02*
X137946890Y-15781406D01*
X138589748Y-16638549D02*
X138446890Y-16709977D01*
X138446890Y-16709977D02*
X138089748Y-16709977D01*
X138089748Y-16709977D02*
X137946890Y-16638549D01*
X137946890Y-16638549D02*
X137875462Y-16495691D01*
X137875462Y-16495691D02*
X137875462Y-16352834D01*
X137875462Y-16352834D02*
X137946890Y-16209977D01*
X137946890Y-16209977D02*
X138089748Y-16138549D01*
X138089748Y-16138549D02*
X138446890Y-16138549D01*
X138446890Y-16138549D02*
X138589748Y-16067120D01*
X139304033Y-16709977D02*
X139304033Y-15709977D01*
X139304033Y-15995691D02*
X139375462Y-15852834D01*
X139375462Y-15852834D02*
X139446891Y-15781406D01*
X139446891Y-15781406D02*
X139589748Y-15709977D01*
X139589748Y-15709977D02*
X139732605Y-15709977D01*
X140875462Y-16709977D02*
X140875462Y-15209977D01*
X140875462Y-16638549D02*
X140732604Y-16709977D01*
X140732604Y-16709977D02*
X140446890Y-16709977D01*
X140446890Y-16709977D02*
X140304033Y-16638549D01*
X140304033Y-16638549D02*
X140232604Y-16567120D01*
X140232604Y-16567120D02*
X140161176Y-16424263D01*
X140161176Y-16424263D02*
X140161176Y-15995691D01*
X140161176Y-15995691D02*
X140232604Y-15852834D01*
X140232604Y-15852834D02*
X140304033Y-15781406D01*
X140304033Y-15781406D02*
X140446890Y-15709977D01*
X140446890Y-15709977D02*
X140732604Y-15709977D01*
X140732604Y-15709977D02*
X140875462Y-15781406D01*
X142589747Y-15709977D02*
X142946890Y-16709977D01*
X142946890Y-16709977D02*
X143304033Y-15709977D01*
X144661176Y-16709977D02*
X143804033Y-16709977D01*
X144232604Y-16709977D02*
X144232604Y-15209977D01*
X144232604Y-15209977D02*
X144089747Y-15424263D01*
X144089747Y-15424263D02*
X143946890Y-15567120D01*
X143946890Y-15567120D02*
X143804033Y-15638549D01*
X145304032Y-16567120D02*
X145375461Y-16638549D01*
X145375461Y-16638549D02*
X145304032Y-16709977D01*
X145304032Y-16709977D02*
X145232604Y-16638549D01*
X145232604Y-16638549D02*
X145304032Y-16567120D01*
X145304032Y-16567120D02*
X145304032Y-16709977D01*
X146804033Y-16709977D02*
X145946890Y-16709977D01*
X146375461Y-16709977D02*
X146375461Y-15209977D01*
X146375461Y-15209977D02*
X146232604Y-15424263D01*
X146232604Y-15424263D02*
X146089747Y-15567120D01*
X146089747Y-15567120D02*
X145946890Y-15638549D01*
D11*
X183526481Y-62762000D02*
X183669338Y-62809619D01*
X183669338Y-62809619D02*
X183907433Y-62809619D01*
X183907433Y-62809619D02*
X184002671Y-62762000D01*
X184002671Y-62762000D02*
X184050290Y-62714380D01*
X184050290Y-62714380D02*
X184097909Y-62619142D01*
X184097909Y-62619142D02*
X184097909Y-62523904D01*
X184097909Y-62523904D02*
X184050290Y-62428666D01*
X184050290Y-62428666D02*
X184002671Y-62381047D01*
X184002671Y-62381047D02*
X183907433Y-62333428D01*
X183907433Y-62333428D02*
X183716957Y-62285809D01*
X183716957Y-62285809D02*
X183621719Y-62238190D01*
X183621719Y-62238190D02*
X183574100Y-62190571D01*
X183574100Y-62190571D02*
X183526481Y-62095333D01*
X183526481Y-62095333D02*
X183526481Y-62000095D01*
X183526481Y-62000095D02*
X183574100Y-61904857D01*
X183574100Y-61904857D02*
X183621719Y-61857238D01*
X183621719Y-61857238D02*
X183716957Y-61809619D01*
X183716957Y-61809619D02*
X183955052Y-61809619D01*
X183955052Y-61809619D02*
X184097909Y-61857238D01*
X184526481Y-62809619D02*
X184526481Y-61809619D01*
X184621719Y-62428666D02*
X184907433Y-62809619D01*
X184907433Y-62142952D02*
X184526481Y-62523904D01*
X185240767Y-62142952D02*
X185478862Y-62809619D01*
X185716957Y-62142952D02*
X185478862Y-62809619D01*
X185478862Y-62809619D02*
X185383624Y-63047714D01*
X185383624Y-63047714D02*
X185336005Y-63095333D01*
X185336005Y-63095333D02*
X185240767Y-63142952D01*
X185955053Y-61809619D02*
X186288386Y-62809619D01*
X186288386Y-62809619D02*
X186621719Y-61809619D01*
X186955053Y-62809619D02*
X186955053Y-62142952D01*
X186955053Y-61809619D02*
X186907434Y-61857238D01*
X186907434Y-61857238D02*
X186955053Y-61904857D01*
X186955053Y-61904857D02*
X187002672Y-61857238D01*
X187002672Y-61857238D02*
X186955053Y-61809619D01*
X186955053Y-61809619D02*
X186955053Y-61904857D01*
X187812195Y-62762000D02*
X187716957Y-62809619D01*
X187716957Y-62809619D02*
X187526481Y-62809619D01*
X187526481Y-62809619D02*
X187431243Y-62762000D01*
X187431243Y-62762000D02*
X187383624Y-62666761D01*
X187383624Y-62666761D02*
X187383624Y-62285809D01*
X187383624Y-62285809D02*
X187431243Y-62190571D01*
X187431243Y-62190571D02*
X187526481Y-62142952D01*
X187526481Y-62142952D02*
X187716957Y-62142952D01*
X187716957Y-62142952D02*
X187812195Y-62190571D01*
X187812195Y-62190571D02*
X187859814Y-62285809D01*
X187859814Y-62285809D02*
X187859814Y-62381047D01*
X187859814Y-62381047D02*
X187383624Y-62476285D01*
X188193148Y-62142952D02*
X188383624Y-62809619D01*
X188383624Y-62809619D02*
X188574100Y-62333428D01*
X188574100Y-62333428D02*
X188764576Y-62809619D01*
X188764576Y-62809619D02*
X188955052Y-62142952D01*
X189097910Y-62904857D02*
X189859814Y-62904857D01*
X190621719Y-62809619D02*
X190050291Y-62809619D01*
X190336005Y-62809619D02*
X190336005Y-61809619D01*
X190336005Y-61809619D02*
X190240767Y-61952476D01*
X190240767Y-61952476D02*
X190145529Y-62047714D01*
X190145529Y-62047714D02*
X190050291Y-62095333D01*
X120934919Y-122665671D02*
X119934919Y-122665671D01*
X120934919Y-121760910D02*
X119934919Y-121760910D01*
X120887300Y-121760910D02*
X120934919Y-121856148D01*
X120934919Y-121856148D02*
X120934919Y-122046624D01*
X120934919Y-122046624D02*
X120887300Y-122141862D01*
X120887300Y-122141862D02*
X120839680Y-122189481D01*
X120839680Y-122189481D02*
X120744442Y-122237100D01*
X120744442Y-122237100D02*
X120458728Y-122237100D01*
X120458728Y-122237100D02*
X120363490Y-122189481D01*
X120363490Y-122189481D02*
X120315871Y-122141862D01*
X120315871Y-122141862D02*
X120268252Y-122046624D01*
X120268252Y-122046624D02*
X120268252Y-121856148D01*
X120268252Y-121856148D02*
X120315871Y-121760910D01*
X120887300Y-120903767D02*
X120934919Y-120999005D01*
X120934919Y-120999005D02*
X120934919Y-121189481D01*
X120934919Y-121189481D02*
X120887300Y-121284719D01*
X120887300Y-121284719D02*
X120792061Y-121332338D01*
X120792061Y-121332338D02*
X120411109Y-121332338D01*
X120411109Y-121332338D02*
X120315871Y-121284719D01*
X120315871Y-121284719D02*
X120268252Y-121189481D01*
X120268252Y-121189481D02*
X120268252Y-120999005D01*
X120268252Y-120999005D02*
X120315871Y-120903767D01*
X120315871Y-120903767D02*
X120411109Y-120856148D01*
X120411109Y-120856148D02*
X120506347Y-120856148D01*
X120506347Y-120856148D02*
X120601585Y-121332338D01*
X120268252Y-120427576D02*
X120934919Y-120427576D01*
X120363490Y-120427576D02*
X120315871Y-120379957D01*
X120315871Y-120379957D02*
X120268252Y-120284719D01*
X120268252Y-120284719D02*
X120268252Y-120141862D01*
X120268252Y-120141862D02*
X120315871Y-120046624D01*
X120315871Y-120046624D02*
X120411109Y-119999005D01*
X120411109Y-119999005D02*
X120934919Y-119999005D01*
X120268252Y-119665671D02*
X120268252Y-119284719D01*
X119934919Y-119522814D02*
X120792061Y-119522814D01*
X120792061Y-119522814D02*
X120887300Y-119475195D01*
X120887300Y-119475195D02*
X120934919Y-119379957D01*
X120934919Y-119379957D02*
X120934919Y-119284719D01*
X121030157Y-119189481D02*
X121030157Y-118427576D01*
X120934919Y-117379956D02*
X120934919Y-117427576D01*
X120934919Y-117427576D02*
X120887300Y-117522814D01*
X120887300Y-117522814D02*
X120744442Y-117665671D01*
X120744442Y-117665671D02*
X120458728Y-117903766D01*
X120458728Y-117903766D02*
X120315871Y-117999004D01*
X120315871Y-117999004D02*
X120173014Y-118046623D01*
X120173014Y-118046623D02*
X120077776Y-118046623D01*
X120077776Y-118046623D02*
X119982538Y-117999004D01*
X119982538Y-117999004D02*
X119934919Y-117903766D01*
X119934919Y-117903766D02*
X119934919Y-117856147D01*
X119934919Y-117856147D02*
X119982538Y-117760909D01*
X119982538Y-117760909D02*
X120077776Y-117713290D01*
X120077776Y-117713290D02*
X120125395Y-117713290D01*
X120125395Y-117713290D02*
X120220633Y-117760909D01*
X120220633Y-117760909D02*
X120268252Y-117808528D01*
X120268252Y-117808528D02*
X120458728Y-118094242D01*
X120458728Y-118094242D02*
X120506347Y-118141861D01*
X120506347Y-118141861D02*
X120601585Y-118189480D01*
X120601585Y-118189480D02*
X120744442Y-118189480D01*
X120744442Y-118189480D02*
X120839680Y-118141861D01*
X120839680Y-118141861D02*
X120887300Y-118094242D01*
X120887300Y-118094242D02*
X120934919Y-117999004D01*
X120934919Y-117999004D02*
X120934919Y-117856147D01*
X120934919Y-117856147D02*
X120887300Y-117760909D01*
X120887300Y-117760909D02*
X120839680Y-117713290D01*
X120839680Y-117713290D02*
X120649204Y-117570433D01*
X120649204Y-117570433D02*
X120506347Y-117522814D01*
X120506347Y-117522814D02*
X120411109Y-117522814D01*
X121030157Y-117189481D02*
X121030157Y-116427576D01*
X120934919Y-116189480D02*
X119934919Y-116189480D01*
X119934919Y-116189480D02*
X119934919Y-115951385D01*
X119934919Y-115951385D02*
X119982538Y-115808528D01*
X119982538Y-115808528D02*
X120077776Y-115713290D01*
X120077776Y-115713290D02*
X120173014Y-115665671D01*
X120173014Y-115665671D02*
X120363490Y-115618052D01*
X120363490Y-115618052D02*
X120506347Y-115618052D01*
X120506347Y-115618052D02*
X120696823Y-115665671D01*
X120696823Y-115665671D02*
X120792061Y-115713290D01*
X120792061Y-115713290D02*
X120887300Y-115808528D01*
X120887300Y-115808528D02*
X120934919Y-115951385D01*
X120934919Y-115951385D02*
X120934919Y-116189480D01*
X120934919Y-115189480D02*
X120268252Y-115189480D01*
X119934919Y-115189480D02*
X119982538Y-115237099D01*
X119982538Y-115237099D02*
X120030157Y-115189480D01*
X120030157Y-115189480D02*
X119982538Y-115141861D01*
X119982538Y-115141861D02*
X119934919Y-115189480D01*
X119934919Y-115189480D02*
X120030157Y-115189480D01*
X120934919Y-114713290D02*
X120268252Y-114713290D01*
X120363490Y-114713290D02*
X120315871Y-114665671D01*
X120315871Y-114665671D02*
X120268252Y-114570433D01*
X120268252Y-114570433D02*
X120268252Y-114427576D01*
X120268252Y-114427576D02*
X120315871Y-114332338D01*
X120315871Y-114332338D02*
X120411109Y-114284719D01*
X120411109Y-114284719D02*
X120934919Y-114284719D01*
X120411109Y-114284719D02*
X120315871Y-114237100D01*
X120315871Y-114237100D02*
X120268252Y-114141862D01*
X120268252Y-114141862D02*
X120268252Y-113999005D01*
X120268252Y-113999005D02*
X120315871Y-113903766D01*
X120315871Y-113903766D02*
X120411109Y-113856147D01*
X120411109Y-113856147D02*
X120934919Y-113856147D01*
X120934919Y-113379957D02*
X120268252Y-113379957D01*
X120363490Y-113379957D02*
X120315871Y-113332338D01*
X120315871Y-113332338D02*
X120268252Y-113237100D01*
X120268252Y-113237100D02*
X120268252Y-113094243D01*
X120268252Y-113094243D02*
X120315871Y-112999005D01*
X120315871Y-112999005D02*
X120411109Y-112951386D01*
X120411109Y-112951386D02*
X120934919Y-112951386D01*
X120411109Y-112951386D02*
X120315871Y-112903767D01*
X120315871Y-112903767D02*
X120268252Y-112808529D01*
X120268252Y-112808529D02*
X120268252Y-112665672D01*
X120268252Y-112665672D02*
X120315871Y-112570433D01*
X120315871Y-112570433D02*
X120411109Y-112522814D01*
X120411109Y-112522814D02*
X120934919Y-112522814D01*
X120887300Y-111665672D02*
X120934919Y-111760910D01*
X120934919Y-111760910D02*
X120934919Y-111951386D01*
X120934919Y-111951386D02*
X120887300Y-112046624D01*
X120887300Y-112046624D02*
X120792061Y-112094243D01*
X120792061Y-112094243D02*
X120411109Y-112094243D01*
X120411109Y-112094243D02*
X120315871Y-112046624D01*
X120315871Y-112046624D02*
X120268252Y-111951386D01*
X120268252Y-111951386D02*
X120268252Y-111760910D01*
X120268252Y-111760910D02*
X120315871Y-111665672D01*
X120315871Y-111665672D02*
X120411109Y-111618053D01*
X120411109Y-111618053D02*
X120506347Y-111618053D01*
X120506347Y-111618053D02*
X120601585Y-112094243D01*
X120934919Y-111189481D02*
X120268252Y-111189481D01*
X120458728Y-111189481D02*
X120363490Y-111141862D01*
X120363490Y-111141862D02*
X120315871Y-111094243D01*
X120315871Y-111094243D02*
X120268252Y-110999005D01*
X120268252Y-110999005D02*
X120268252Y-110903767D01*
X121030157Y-110808529D02*
X121030157Y-110046624D01*
X120934919Y-109808528D02*
X119934919Y-109808528D01*
X120268252Y-109332338D02*
X120934919Y-109332338D01*
X120363490Y-109332338D02*
X120315871Y-109284719D01*
X120315871Y-109284719D02*
X120268252Y-109189481D01*
X120268252Y-109189481D02*
X120268252Y-109046624D01*
X120268252Y-109046624D02*
X120315871Y-108951386D01*
X120315871Y-108951386D02*
X120411109Y-108903767D01*
X120411109Y-108903767D02*
X120934919Y-108903767D01*
X120268252Y-108427576D02*
X121268252Y-108427576D01*
X120315871Y-108427576D02*
X120268252Y-108332338D01*
X120268252Y-108332338D02*
X120268252Y-108141862D01*
X120268252Y-108141862D02*
X120315871Y-108046624D01*
X120315871Y-108046624D02*
X120363490Y-107999005D01*
X120363490Y-107999005D02*
X120458728Y-107951386D01*
X120458728Y-107951386D02*
X120744442Y-107951386D01*
X120744442Y-107951386D02*
X120839680Y-107999005D01*
X120839680Y-107999005D02*
X120887300Y-108046624D01*
X120887300Y-108046624D02*
X120934919Y-108141862D01*
X120934919Y-108141862D02*
X120934919Y-108332338D01*
X120934919Y-108332338D02*
X120887300Y-108427576D01*
X120268252Y-107094243D02*
X120934919Y-107094243D01*
X120268252Y-107522814D02*
X120792061Y-107522814D01*
X120792061Y-107522814D02*
X120887300Y-107475195D01*
X120887300Y-107475195D02*
X120934919Y-107379957D01*
X120934919Y-107379957D02*
X120934919Y-107237100D01*
X120934919Y-107237100D02*
X120887300Y-107141862D01*
X120887300Y-107141862D02*
X120839680Y-107094243D01*
X120268252Y-106760909D02*
X120268252Y-106379957D01*
X119934919Y-106618052D02*
X120792061Y-106618052D01*
X120792061Y-106618052D02*
X120887300Y-106570433D01*
X120887300Y-106570433D02*
X120934919Y-106475195D01*
X120934919Y-106475195D02*
X120934919Y-106379957D01*
X121030157Y-106284719D02*
X121030157Y-105522814D01*
X120934919Y-104760909D02*
X120934919Y-105332337D01*
X120934919Y-105046623D02*
X119934919Y-105046623D01*
X119934919Y-105046623D02*
X120077776Y-105141861D01*
X120077776Y-105141861D02*
X120173014Y-105237099D01*
X120173014Y-105237099D02*
X120220633Y-105332337D01*
X140303051Y-24405138D02*
X140207813Y-24357519D01*
X140207813Y-24357519D02*
X140064956Y-24357519D01*
X140064956Y-24357519D02*
X139922099Y-24405138D01*
X139922099Y-24405138D02*
X139826861Y-24500376D01*
X139826861Y-24500376D02*
X139779242Y-24595614D01*
X139779242Y-24595614D02*
X139731623Y-24786090D01*
X139731623Y-24786090D02*
X139731623Y-24928947D01*
X139731623Y-24928947D02*
X139779242Y-25119423D01*
X139779242Y-25119423D02*
X139826861Y-25214661D01*
X139826861Y-25214661D02*
X139922099Y-25309900D01*
X139922099Y-25309900D02*
X140064956Y-25357519D01*
X140064956Y-25357519D02*
X140160194Y-25357519D01*
X140160194Y-25357519D02*
X140303051Y-25309900D01*
X140303051Y-25309900D02*
X140350670Y-25262280D01*
X140350670Y-25262280D02*
X140350670Y-24928947D01*
X140350670Y-24928947D02*
X140160194Y-24928947D01*
X140779242Y-25357519D02*
X140779242Y-24357519D01*
X140779242Y-24357519D02*
X141160194Y-24357519D01*
X141160194Y-24357519D02*
X141255432Y-24405138D01*
X141255432Y-24405138D02*
X141303051Y-24452757D01*
X141303051Y-24452757D02*
X141350670Y-24547995D01*
X141350670Y-24547995D02*
X141350670Y-24690852D01*
X141350670Y-24690852D02*
X141303051Y-24786090D01*
X141303051Y-24786090D02*
X141255432Y-24833709D01*
X141255432Y-24833709D02*
X141160194Y-24881328D01*
X141160194Y-24881328D02*
X140779242Y-24881328D01*
X141731623Y-25309900D02*
X141874480Y-25357519D01*
X141874480Y-25357519D02*
X142112575Y-25357519D01*
X142112575Y-25357519D02*
X142207813Y-25309900D01*
X142207813Y-25309900D02*
X142255432Y-25262280D01*
X142255432Y-25262280D02*
X142303051Y-25167042D01*
X142303051Y-25167042D02*
X142303051Y-25071804D01*
X142303051Y-25071804D02*
X142255432Y-24976566D01*
X142255432Y-24976566D02*
X142207813Y-24928947D01*
X142207813Y-24928947D02*
X142112575Y-24881328D01*
X142112575Y-24881328D02*
X141922099Y-24833709D01*
X141922099Y-24833709D02*
X141826861Y-24786090D01*
X141826861Y-24786090D02*
X141779242Y-24738471D01*
X141779242Y-24738471D02*
X141731623Y-24643233D01*
X141731623Y-24643233D02*
X141731623Y-24547995D01*
X141731623Y-24547995D02*
X141779242Y-24452757D01*
X141779242Y-24452757D02*
X141826861Y-24405138D01*
X141826861Y-24405138D02*
X141922099Y-24357519D01*
X141922099Y-24357519D02*
X142160194Y-24357519D01*
X142160194Y-24357519D02*
X142303051Y-24405138D01*
X142493528Y-25452757D02*
X143255432Y-25452757D01*
X143445909Y-25309900D02*
X143588766Y-25357519D01*
X143588766Y-25357519D02*
X143826861Y-25357519D01*
X143826861Y-25357519D02*
X143922099Y-25309900D01*
X143922099Y-25309900D02*
X143969718Y-25262280D01*
X143969718Y-25262280D02*
X144017337Y-25167042D01*
X144017337Y-25167042D02*
X144017337Y-25071804D01*
X144017337Y-25071804D02*
X143969718Y-24976566D01*
X143969718Y-24976566D02*
X143922099Y-24928947D01*
X143922099Y-24928947D02*
X143826861Y-24881328D01*
X143826861Y-24881328D02*
X143636385Y-24833709D01*
X143636385Y-24833709D02*
X143541147Y-24786090D01*
X143541147Y-24786090D02*
X143493528Y-24738471D01*
X143493528Y-24738471D02*
X143445909Y-24643233D01*
X143445909Y-24643233D02*
X143445909Y-24547995D01*
X143445909Y-24547995D02*
X143493528Y-24452757D01*
X143493528Y-24452757D02*
X143541147Y-24405138D01*
X143541147Y-24405138D02*
X143636385Y-24357519D01*
X143636385Y-24357519D02*
X143874480Y-24357519D01*
X143874480Y-24357519D02*
X144017337Y-24405138D01*
X144826861Y-25309900D02*
X144731623Y-25357519D01*
X144731623Y-25357519D02*
X144541147Y-25357519D01*
X144541147Y-25357519D02*
X144445909Y-25309900D01*
X144445909Y-25309900D02*
X144398290Y-25214661D01*
X144398290Y-25214661D02*
X144398290Y-24833709D01*
X144398290Y-24833709D02*
X144445909Y-24738471D01*
X144445909Y-24738471D02*
X144541147Y-24690852D01*
X144541147Y-24690852D02*
X144731623Y-24690852D01*
X144731623Y-24690852D02*
X144826861Y-24738471D01*
X144826861Y-24738471D02*
X144874480Y-24833709D01*
X144874480Y-24833709D02*
X144874480Y-24928947D01*
X144874480Y-24928947D02*
X144398290Y-25024185D01*
X145303052Y-25357519D02*
X145303052Y-24690852D01*
X145303052Y-24881328D02*
X145350671Y-24786090D01*
X145350671Y-24786090D02*
X145398290Y-24738471D01*
X145398290Y-24738471D02*
X145493528Y-24690852D01*
X145493528Y-24690852D02*
X145588766Y-24690852D01*
X145922100Y-25357519D02*
X145922100Y-24690852D01*
X145922100Y-24357519D02*
X145874481Y-24405138D01*
X145874481Y-24405138D02*
X145922100Y-24452757D01*
X145922100Y-24452757D02*
X145969719Y-24405138D01*
X145969719Y-24405138D02*
X145922100Y-24357519D01*
X145922100Y-24357519D02*
X145922100Y-24452757D01*
X146826861Y-25357519D02*
X146826861Y-24833709D01*
X146826861Y-24833709D02*
X146779242Y-24738471D01*
X146779242Y-24738471D02*
X146684004Y-24690852D01*
X146684004Y-24690852D02*
X146493528Y-24690852D01*
X146493528Y-24690852D02*
X146398290Y-24738471D01*
X146826861Y-25309900D02*
X146731623Y-25357519D01*
X146731623Y-25357519D02*
X146493528Y-25357519D01*
X146493528Y-25357519D02*
X146398290Y-25309900D01*
X146398290Y-25309900D02*
X146350671Y-25214661D01*
X146350671Y-25214661D02*
X146350671Y-25119423D01*
X146350671Y-25119423D02*
X146398290Y-25024185D01*
X146398290Y-25024185D02*
X146493528Y-24976566D01*
X146493528Y-24976566D02*
X146731623Y-24976566D01*
X146731623Y-24976566D02*
X146826861Y-24928947D01*
X147445909Y-25357519D02*
X147350671Y-25309900D01*
X147350671Y-25309900D02*
X147303052Y-25214661D01*
X147303052Y-25214661D02*
X147303052Y-24357519D01*
X147588767Y-25452757D02*
X148350671Y-25452757D01*
X149064957Y-24357519D02*
X148588767Y-24357519D01*
X148588767Y-24357519D02*
X148541148Y-24833709D01*
X148541148Y-24833709D02*
X148588767Y-24786090D01*
X148588767Y-24786090D02*
X148684005Y-24738471D01*
X148684005Y-24738471D02*
X148922100Y-24738471D01*
X148922100Y-24738471D02*
X149017338Y-24786090D01*
X149017338Y-24786090D02*
X149064957Y-24833709D01*
X149064957Y-24833709D02*
X149112576Y-24928947D01*
X149112576Y-24928947D02*
X149112576Y-25167042D01*
X149112576Y-25167042D02*
X149064957Y-25262280D01*
X149064957Y-25262280D02*
X149017338Y-25309900D01*
X149017338Y-25309900D02*
X148922100Y-25357519D01*
X148922100Y-25357519D02*
X148684005Y-25357519D01*
X148684005Y-25357519D02*
X148588767Y-25309900D01*
X148588767Y-25309900D02*
X148541148Y-25262280D01*
X138660195Y-80157519D02*
X139326861Y-81157519D01*
X139326861Y-80157519D02*
X138660195Y-81157519D01*
X139707814Y-81157519D02*
X139707814Y-80157519D01*
X139707814Y-80157519D02*
X140088766Y-80157519D01*
X140088766Y-80157519D02*
X140184004Y-80205138D01*
X140184004Y-80205138D02*
X140231623Y-80252757D01*
X140231623Y-80252757D02*
X140279242Y-80347995D01*
X140279242Y-80347995D02*
X140279242Y-80490852D01*
X140279242Y-80490852D02*
X140231623Y-80586090D01*
X140231623Y-80586090D02*
X140184004Y-80633709D01*
X140184004Y-80633709D02*
X140088766Y-80681328D01*
X140088766Y-80681328D02*
X139707814Y-80681328D01*
X140707814Y-81157519D02*
X140707814Y-80157519D01*
X140707814Y-80157519D02*
X141279242Y-81157519D01*
X141279242Y-81157519D02*
X141279242Y-80157519D01*
X141755433Y-81157519D02*
X141755433Y-80157519D01*
X141755433Y-80157519D02*
X141993528Y-80157519D01*
X141993528Y-80157519D02*
X142136385Y-80205138D01*
X142136385Y-80205138D02*
X142231623Y-80300376D01*
X142231623Y-80300376D02*
X142279242Y-80395614D01*
X142279242Y-80395614D02*
X142326861Y-80586090D01*
X142326861Y-80586090D02*
X142326861Y-80728947D01*
X142326861Y-80728947D02*
X142279242Y-80919423D01*
X142279242Y-80919423D02*
X142231623Y-81014661D01*
X142231623Y-81014661D02*
X142136385Y-81109900D01*
X142136385Y-81109900D02*
X141993528Y-81157519D01*
X141993528Y-81157519D02*
X141755433Y-81157519D01*
X143326861Y-81157519D02*
X142993528Y-80681328D01*
X142755433Y-81157519D02*
X142755433Y-80157519D01*
X142755433Y-80157519D02*
X143136385Y-80157519D01*
X143136385Y-80157519D02*
X143231623Y-80205138D01*
X143231623Y-80205138D02*
X143279242Y-80252757D01*
X143279242Y-80252757D02*
X143326861Y-80347995D01*
X143326861Y-80347995D02*
X143326861Y-80490852D01*
X143326861Y-80490852D02*
X143279242Y-80586090D01*
X143279242Y-80586090D02*
X143231623Y-80633709D01*
X143231623Y-80633709D02*
X143136385Y-80681328D01*
X143136385Y-80681328D02*
X142755433Y-80681328D01*
X143517338Y-81252757D02*
X144279242Y-81252757D01*
X144469719Y-81109900D02*
X144612576Y-81157519D01*
X144612576Y-81157519D02*
X144850671Y-81157519D01*
X144850671Y-81157519D02*
X144945909Y-81109900D01*
X144945909Y-81109900D02*
X144993528Y-81062280D01*
X144993528Y-81062280D02*
X145041147Y-80967042D01*
X145041147Y-80967042D02*
X145041147Y-80871804D01*
X145041147Y-80871804D02*
X144993528Y-80776566D01*
X144993528Y-80776566D02*
X144945909Y-80728947D01*
X144945909Y-80728947D02*
X144850671Y-80681328D01*
X144850671Y-80681328D02*
X144660195Y-80633709D01*
X144660195Y-80633709D02*
X144564957Y-80586090D01*
X144564957Y-80586090D02*
X144517338Y-80538471D01*
X144517338Y-80538471D02*
X144469719Y-80443233D01*
X144469719Y-80443233D02*
X144469719Y-80347995D01*
X144469719Y-80347995D02*
X144517338Y-80252757D01*
X144517338Y-80252757D02*
X144564957Y-80205138D01*
X144564957Y-80205138D02*
X144660195Y-80157519D01*
X144660195Y-80157519D02*
X144898290Y-80157519D01*
X144898290Y-80157519D02*
X145041147Y-80205138D01*
X145850671Y-81109900D02*
X145755433Y-81157519D01*
X145755433Y-81157519D02*
X145564957Y-81157519D01*
X145564957Y-81157519D02*
X145469719Y-81109900D01*
X145469719Y-81109900D02*
X145422100Y-81014661D01*
X145422100Y-81014661D02*
X145422100Y-80633709D01*
X145422100Y-80633709D02*
X145469719Y-80538471D01*
X145469719Y-80538471D02*
X145564957Y-80490852D01*
X145564957Y-80490852D02*
X145755433Y-80490852D01*
X145755433Y-80490852D02*
X145850671Y-80538471D01*
X145850671Y-80538471D02*
X145898290Y-80633709D01*
X145898290Y-80633709D02*
X145898290Y-80728947D01*
X145898290Y-80728947D02*
X145422100Y-80824185D01*
X146326862Y-81157519D02*
X146326862Y-80490852D01*
X146326862Y-80681328D02*
X146374481Y-80586090D01*
X146374481Y-80586090D02*
X146422100Y-80538471D01*
X146422100Y-80538471D02*
X146517338Y-80490852D01*
X146517338Y-80490852D02*
X146612576Y-80490852D01*
X146945910Y-81157519D02*
X146945910Y-80490852D01*
X146945910Y-80157519D02*
X146898291Y-80205138D01*
X146898291Y-80205138D02*
X146945910Y-80252757D01*
X146945910Y-80252757D02*
X146993529Y-80205138D01*
X146993529Y-80205138D02*
X146945910Y-80157519D01*
X146945910Y-80157519D02*
X146945910Y-80252757D01*
X147850671Y-81157519D02*
X147850671Y-80633709D01*
X147850671Y-80633709D02*
X147803052Y-80538471D01*
X147803052Y-80538471D02*
X147707814Y-80490852D01*
X147707814Y-80490852D02*
X147517338Y-80490852D01*
X147517338Y-80490852D02*
X147422100Y-80538471D01*
X147850671Y-81109900D02*
X147755433Y-81157519D01*
X147755433Y-81157519D02*
X147517338Y-81157519D01*
X147517338Y-81157519D02*
X147422100Y-81109900D01*
X147422100Y-81109900D02*
X147374481Y-81014661D01*
X147374481Y-81014661D02*
X147374481Y-80919423D01*
X147374481Y-80919423D02*
X147422100Y-80824185D01*
X147422100Y-80824185D02*
X147517338Y-80776566D01*
X147517338Y-80776566D02*
X147755433Y-80776566D01*
X147755433Y-80776566D02*
X147850671Y-80728947D01*
X148469719Y-81157519D02*
X148374481Y-81109900D01*
X148374481Y-81109900D02*
X148326862Y-81014661D01*
X148326862Y-81014661D02*
X148326862Y-80157519D01*
X148612577Y-81252757D02*
X149374481Y-81252757D01*
X149564958Y-80252757D02*
X149612577Y-80205138D01*
X149612577Y-80205138D02*
X149707815Y-80157519D01*
X149707815Y-80157519D02*
X149945910Y-80157519D01*
X149945910Y-80157519D02*
X150041148Y-80205138D01*
X150041148Y-80205138D02*
X150088767Y-80252757D01*
X150088767Y-80252757D02*
X150136386Y-80347995D01*
X150136386Y-80347995D02*
X150136386Y-80443233D01*
X150136386Y-80443233D02*
X150088767Y-80586090D01*
X150088767Y-80586090D02*
X149517339Y-81157519D01*
X149517339Y-81157519D02*
X150136386Y-81157519D01*
X139707814Y-61557519D02*
X140041147Y-62557519D01*
X140041147Y-62557519D02*
X140374480Y-61557519D01*
X140707814Y-62557519D02*
X140707814Y-61557519D01*
X140707814Y-61557519D02*
X141088766Y-61557519D01*
X141088766Y-61557519D02*
X141184004Y-61605138D01*
X141184004Y-61605138D02*
X141231623Y-61652757D01*
X141231623Y-61652757D02*
X141279242Y-61747995D01*
X141279242Y-61747995D02*
X141279242Y-61890852D01*
X141279242Y-61890852D02*
X141231623Y-61986090D01*
X141231623Y-61986090D02*
X141184004Y-62033709D01*
X141184004Y-62033709D02*
X141088766Y-62081328D01*
X141088766Y-62081328D02*
X140707814Y-62081328D01*
X141612576Y-61557519D02*
X142279242Y-62557519D01*
X142279242Y-61557519D02*
X141612576Y-62557519D01*
X142422100Y-62652757D02*
X143184004Y-62652757D01*
X143374481Y-62509900D02*
X143517338Y-62557519D01*
X143517338Y-62557519D02*
X143755433Y-62557519D01*
X143755433Y-62557519D02*
X143850671Y-62509900D01*
X143850671Y-62509900D02*
X143898290Y-62462280D01*
X143898290Y-62462280D02*
X143945909Y-62367042D01*
X143945909Y-62367042D02*
X143945909Y-62271804D01*
X143945909Y-62271804D02*
X143898290Y-62176566D01*
X143898290Y-62176566D02*
X143850671Y-62128947D01*
X143850671Y-62128947D02*
X143755433Y-62081328D01*
X143755433Y-62081328D02*
X143564957Y-62033709D01*
X143564957Y-62033709D02*
X143469719Y-61986090D01*
X143469719Y-61986090D02*
X143422100Y-61938471D01*
X143422100Y-61938471D02*
X143374481Y-61843233D01*
X143374481Y-61843233D02*
X143374481Y-61747995D01*
X143374481Y-61747995D02*
X143422100Y-61652757D01*
X143422100Y-61652757D02*
X143469719Y-61605138D01*
X143469719Y-61605138D02*
X143564957Y-61557519D01*
X143564957Y-61557519D02*
X143803052Y-61557519D01*
X143803052Y-61557519D02*
X143945909Y-61605138D01*
X144755433Y-62509900D02*
X144660195Y-62557519D01*
X144660195Y-62557519D02*
X144469719Y-62557519D01*
X144469719Y-62557519D02*
X144374481Y-62509900D01*
X144374481Y-62509900D02*
X144326862Y-62414661D01*
X144326862Y-62414661D02*
X144326862Y-62033709D01*
X144326862Y-62033709D02*
X144374481Y-61938471D01*
X144374481Y-61938471D02*
X144469719Y-61890852D01*
X144469719Y-61890852D02*
X144660195Y-61890852D01*
X144660195Y-61890852D02*
X144755433Y-61938471D01*
X144755433Y-61938471D02*
X144803052Y-62033709D01*
X144803052Y-62033709D02*
X144803052Y-62128947D01*
X144803052Y-62128947D02*
X144326862Y-62224185D01*
X145231624Y-62557519D02*
X145231624Y-61890852D01*
X145231624Y-62081328D02*
X145279243Y-61986090D01*
X145279243Y-61986090D02*
X145326862Y-61938471D01*
X145326862Y-61938471D02*
X145422100Y-61890852D01*
X145422100Y-61890852D02*
X145517338Y-61890852D01*
X145850672Y-62557519D02*
X145850672Y-61890852D01*
X145850672Y-61557519D02*
X145803053Y-61605138D01*
X145803053Y-61605138D02*
X145850672Y-61652757D01*
X145850672Y-61652757D02*
X145898291Y-61605138D01*
X145898291Y-61605138D02*
X145850672Y-61557519D01*
X145850672Y-61557519D02*
X145850672Y-61652757D01*
X146755433Y-62557519D02*
X146755433Y-62033709D01*
X146755433Y-62033709D02*
X146707814Y-61938471D01*
X146707814Y-61938471D02*
X146612576Y-61890852D01*
X146612576Y-61890852D02*
X146422100Y-61890852D01*
X146422100Y-61890852D02*
X146326862Y-61938471D01*
X146755433Y-62509900D02*
X146660195Y-62557519D01*
X146660195Y-62557519D02*
X146422100Y-62557519D01*
X146422100Y-62557519D02*
X146326862Y-62509900D01*
X146326862Y-62509900D02*
X146279243Y-62414661D01*
X146279243Y-62414661D02*
X146279243Y-62319423D01*
X146279243Y-62319423D02*
X146326862Y-62224185D01*
X146326862Y-62224185D02*
X146422100Y-62176566D01*
X146422100Y-62176566D02*
X146660195Y-62176566D01*
X146660195Y-62176566D02*
X146755433Y-62128947D01*
X147374481Y-62557519D02*
X147279243Y-62509900D01*
X147279243Y-62509900D02*
X147231624Y-62414661D01*
X147231624Y-62414661D02*
X147231624Y-61557519D01*
X147517339Y-62652757D02*
X148279243Y-62652757D01*
X148422101Y-61557519D02*
X149041148Y-61557519D01*
X149041148Y-61557519D02*
X148707815Y-61938471D01*
X148707815Y-61938471D02*
X148850672Y-61938471D01*
X148850672Y-61938471D02*
X148945910Y-61986090D01*
X148945910Y-61986090D02*
X148993529Y-62033709D01*
X148993529Y-62033709D02*
X149041148Y-62128947D01*
X149041148Y-62128947D02*
X149041148Y-62367042D01*
X149041148Y-62367042D02*
X148993529Y-62462280D01*
X148993529Y-62462280D02*
X148945910Y-62509900D01*
X148945910Y-62509900D02*
X148850672Y-62557519D01*
X148850672Y-62557519D02*
X148564958Y-62557519D01*
X148564958Y-62557519D02*
X148469720Y-62509900D01*
X148469720Y-62509900D02*
X148422101Y-62462280D01*
X180736956Y-58168604D02*
X181213146Y-58168604D01*
X180641718Y-58454319D02*
X180975051Y-57454319D01*
X180975051Y-57454319D02*
X181308384Y-58454319D01*
X181641718Y-58454319D02*
X181641718Y-57454319D01*
X181641718Y-57454319D02*
X182022670Y-57454319D01*
X182022670Y-57454319D02*
X182117908Y-57501938D01*
X182117908Y-57501938D02*
X182165527Y-57549557D01*
X182165527Y-57549557D02*
X182213146Y-57644795D01*
X182213146Y-57644795D02*
X182213146Y-57787652D01*
X182213146Y-57787652D02*
X182165527Y-57882890D01*
X182165527Y-57882890D02*
X182117908Y-57930509D01*
X182117908Y-57930509D02*
X182022670Y-57978128D01*
X182022670Y-57978128D02*
X181641718Y-57978128D01*
X182403623Y-58549557D02*
X183165527Y-58549557D01*
X183975051Y-58454319D02*
X183641718Y-57978128D01*
X183403623Y-58454319D02*
X183403623Y-57454319D01*
X183403623Y-57454319D02*
X183784575Y-57454319D01*
X183784575Y-57454319D02*
X183879813Y-57501938D01*
X183879813Y-57501938D02*
X183927432Y-57549557D01*
X183927432Y-57549557D02*
X183975051Y-57644795D01*
X183975051Y-57644795D02*
X183975051Y-57787652D01*
X183975051Y-57787652D02*
X183927432Y-57882890D01*
X183927432Y-57882890D02*
X183879813Y-57930509D01*
X183879813Y-57930509D02*
X183784575Y-57978128D01*
X183784575Y-57978128D02*
X183403623Y-57978128D01*
X184546480Y-58454319D02*
X184451242Y-58406700D01*
X184451242Y-58406700D02*
X184403623Y-58359080D01*
X184403623Y-58359080D02*
X184356004Y-58263842D01*
X184356004Y-58263842D02*
X184356004Y-57978128D01*
X184356004Y-57978128D02*
X184403623Y-57882890D01*
X184403623Y-57882890D02*
X184451242Y-57835271D01*
X184451242Y-57835271D02*
X184546480Y-57787652D01*
X184546480Y-57787652D02*
X184689337Y-57787652D01*
X184689337Y-57787652D02*
X184784575Y-57835271D01*
X184784575Y-57835271D02*
X184832194Y-57882890D01*
X184832194Y-57882890D02*
X184879813Y-57978128D01*
X184879813Y-57978128D02*
X184879813Y-58263842D01*
X184879813Y-58263842D02*
X184832194Y-58359080D01*
X184832194Y-58359080D02*
X184784575Y-58406700D01*
X184784575Y-58406700D02*
X184689337Y-58454319D01*
X184689337Y-58454319D02*
X184546480Y-58454319D01*
X185451242Y-58454319D02*
X185356004Y-58406700D01*
X185356004Y-58406700D02*
X185308385Y-58311461D01*
X185308385Y-58311461D02*
X185308385Y-57454319D01*
X185975052Y-58454319D02*
X185879814Y-58406700D01*
X185879814Y-58406700D02*
X185832195Y-58311461D01*
X185832195Y-58311461D02*
X185832195Y-57454319D01*
X186117910Y-58549557D02*
X186879814Y-58549557D01*
X187070291Y-58406700D02*
X187213148Y-58454319D01*
X187213148Y-58454319D02*
X187451243Y-58454319D01*
X187451243Y-58454319D02*
X187546481Y-58406700D01*
X187546481Y-58406700D02*
X187594100Y-58359080D01*
X187594100Y-58359080D02*
X187641719Y-58263842D01*
X187641719Y-58263842D02*
X187641719Y-58168604D01*
X187641719Y-58168604D02*
X187594100Y-58073366D01*
X187594100Y-58073366D02*
X187546481Y-58025747D01*
X187546481Y-58025747D02*
X187451243Y-57978128D01*
X187451243Y-57978128D02*
X187260767Y-57930509D01*
X187260767Y-57930509D02*
X187165529Y-57882890D01*
X187165529Y-57882890D02*
X187117910Y-57835271D01*
X187117910Y-57835271D02*
X187070291Y-57740033D01*
X187070291Y-57740033D02*
X187070291Y-57644795D01*
X187070291Y-57644795D02*
X187117910Y-57549557D01*
X187117910Y-57549557D02*
X187165529Y-57501938D01*
X187165529Y-57501938D02*
X187260767Y-57454319D01*
X187260767Y-57454319D02*
X187498862Y-57454319D01*
X187498862Y-57454319D02*
X187641719Y-57501938D01*
X187927434Y-57454319D02*
X188260767Y-58454319D01*
X188260767Y-58454319D02*
X188594100Y-57454319D01*
X188689339Y-58549557D02*
X189451243Y-58549557D01*
X189689339Y-58454319D02*
X189689339Y-57454319D01*
X189689339Y-57454319D02*
X190260767Y-58454319D01*
X190260767Y-58454319D02*
X190260767Y-57454319D01*
X191117910Y-58406700D02*
X191022672Y-58454319D01*
X191022672Y-58454319D02*
X190832196Y-58454319D01*
X190832196Y-58454319D02*
X190736958Y-58406700D01*
X190736958Y-58406700D02*
X190689339Y-58311461D01*
X190689339Y-58311461D02*
X190689339Y-57930509D01*
X190689339Y-57930509D02*
X190736958Y-57835271D01*
X190736958Y-57835271D02*
X190832196Y-57787652D01*
X190832196Y-57787652D02*
X191022672Y-57787652D01*
X191022672Y-57787652D02*
X191117910Y-57835271D01*
X191117910Y-57835271D02*
X191165529Y-57930509D01*
X191165529Y-57930509D02*
X191165529Y-58025747D01*
X191165529Y-58025747D02*
X190689339Y-58120985D01*
X191451244Y-57787652D02*
X191832196Y-57787652D01*
X191594101Y-57454319D02*
X191594101Y-58311461D01*
X191594101Y-58311461D02*
X191641720Y-58406700D01*
X191641720Y-58406700D02*
X191736958Y-58454319D01*
X191736958Y-58454319D02*
X191832196Y-58454319D01*
X191927435Y-58549557D02*
X192689339Y-58549557D01*
X192879816Y-57549557D02*
X192927435Y-57501938D01*
X192927435Y-57501938D02*
X193022673Y-57454319D01*
X193022673Y-57454319D02*
X193260768Y-57454319D01*
X193260768Y-57454319D02*
X193356006Y-57501938D01*
X193356006Y-57501938D02*
X193403625Y-57549557D01*
X193403625Y-57549557D02*
X193451244Y-57644795D01*
X193451244Y-57644795D02*
X193451244Y-57740033D01*
X193451244Y-57740033D02*
X193403625Y-57882890D01*
X193403625Y-57882890D02*
X192832197Y-58454319D01*
X192832197Y-58454319D02*
X193451244Y-58454319D01*
X134755433Y-118357619D02*
X134755433Y-117357619D01*
X134755433Y-117357619D02*
X134993528Y-117357619D01*
X134993528Y-117357619D02*
X135136385Y-117405238D01*
X135136385Y-117405238D02*
X135231623Y-117500476D01*
X135231623Y-117500476D02*
X135279242Y-117595714D01*
X135279242Y-117595714D02*
X135326861Y-117786190D01*
X135326861Y-117786190D02*
X135326861Y-117929047D01*
X135326861Y-117929047D02*
X135279242Y-118119523D01*
X135279242Y-118119523D02*
X135231623Y-118214761D01*
X135231623Y-118214761D02*
X135136385Y-118310000D01*
X135136385Y-118310000D02*
X134993528Y-118357619D01*
X134993528Y-118357619D02*
X134755433Y-118357619D01*
X135755433Y-118357619D02*
X135755433Y-117690952D01*
X135755433Y-117357619D02*
X135707814Y-117405238D01*
X135707814Y-117405238D02*
X135755433Y-117452857D01*
X135755433Y-117452857D02*
X135803052Y-117405238D01*
X135803052Y-117405238D02*
X135755433Y-117357619D01*
X135755433Y-117357619D02*
X135755433Y-117452857D01*
X136231623Y-118357619D02*
X136231623Y-117690952D01*
X136231623Y-117786190D02*
X136279242Y-117738571D01*
X136279242Y-117738571D02*
X136374480Y-117690952D01*
X136374480Y-117690952D02*
X136517337Y-117690952D01*
X136517337Y-117690952D02*
X136612575Y-117738571D01*
X136612575Y-117738571D02*
X136660194Y-117833809D01*
X136660194Y-117833809D02*
X136660194Y-118357619D01*
X136660194Y-117833809D02*
X136707813Y-117738571D01*
X136707813Y-117738571D02*
X136803051Y-117690952D01*
X136803051Y-117690952D02*
X136945908Y-117690952D01*
X136945908Y-117690952D02*
X137041147Y-117738571D01*
X137041147Y-117738571D02*
X137088766Y-117833809D01*
X137088766Y-117833809D02*
X137088766Y-118357619D01*
X137564956Y-118357619D02*
X137564956Y-117690952D01*
X137564956Y-117786190D02*
X137612575Y-117738571D01*
X137612575Y-117738571D02*
X137707813Y-117690952D01*
X137707813Y-117690952D02*
X137850670Y-117690952D01*
X137850670Y-117690952D02*
X137945908Y-117738571D01*
X137945908Y-117738571D02*
X137993527Y-117833809D01*
X137993527Y-117833809D02*
X137993527Y-118357619D01*
X137993527Y-117833809D02*
X138041146Y-117738571D01*
X138041146Y-117738571D02*
X138136384Y-117690952D01*
X138136384Y-117690952D02*
X138279241Y-117690952D01*
X138279241Y-117690952D02*
X138374480Y-117738571D01*
X138374480Y-117738571D02*
X138422099Y-117833809D01*
X138422099Y-117833809D02*
X138422099Y-118357619D01*
X139279241Y-118310000D02*
X139184003Y-118357619D01*
X139184003Y-118357619D02*
X138993527Y-118357619D01*
X138993527Y-118357619D02*
X138898289Y-118310000D01*
X138898289Y-118310000D02*
X138850670Y-118214761D01*
X138850670Y-118214761D02*
X138850670Y-117833809D01*
X138850670Y-117833809D02*
X138898289Y-117738571D01*
X138898289Y-117738571D02*
X138993527Y-117690952D01*
X138993527Y-117690952D02*
X139184003Y-117690952D01*
X139184003Y-117690952D02*
X139279241Y-117738571D01*
X139279241Y-117738571D02*
X139326860Y-117833809D01*
X139326860Y-117833809D02*
X139326860Y-117929047D01*
X139326860Y-117929047D02*
X138850670Y-118024285D01*
X139755432Y-118357619D02*
X139755432Y-117690952D01*
X139755432Y-117881428D02*
X139803051Y-117786190D01*
X139803051Y-117786190D02*
X139850670Y-117738571D01*
X139850670Y-117738571D02*
X139945908Y-117690952D01*
X139945908Y-117690952D02*
X140041146Y-117690952D01*
X140136385Y-118452857D02*
X140898289Y-118452857D01*
X141945909Y-118357619D02*
X141898290Y-118357619D01*
X141898290Y-118357619D02*
X141803051Y-118310000D01*
X141803051Y-118310000D02*
X141660194Y-118167142D01*
X141660194Y-118167142D02*
X141422099Y-117881428D01*
X141422099Y-117881428D02*
X141326861Y-117738571D01*
X141326861Y-117738571D02*
X141279242Y-117595714D01*
X141279242Y-117595714D02*
X141279242Y-117500476D01*
X141279242Y-117500476D02*
X141326861Y-117405238D01*
X141326861Y-117405238D02*
X141422099Y-117357619D01*
X141422099Y-117357619D02*
X141469718Y-117357619D01*
X141469718Y-117357619D02*
X141564956Y-117405238D01*
X141564956Y-117405238D02*
X141612575Y-117500476D01*
X141612575Y-117500476D02*
X141612575Y-117548095D01*
X141612575Y-117548095D02*
X141564956Y-117643333D01*
X141564956Y-117643333D02*
X141517337Y-117690952D01*
X141517337Y-117690952D02*
X141231623Y-117881428D01*
X141231623Y-117881428D02*
X141184004Y-117929047D01*
X141184004Y-117929047D02*
X141136385Y-118024285D01*
X141136385Y-118024285D02*
X141136385Y-118167142D01*
X141136385Y-118167142D02*
X141184004Y-118262380D01*
X141184004Y-118262380D02*
X141231623Y-118310000D01*
X141231623Y-118310000D02*
X141326861Y-118357619D01*
X141326861Y-118357619D02*
X141469718Y-118357619D01*
X141469718Y-118357619D02*
X141564956Y-118310000D01*
X141564956Y-118310000D02*
X141612575Y-118262380D01*
X141612575Y-118262380D02*
X141755432Y-118071904D01*
X141755432Y-118071904D02*
X141803051Y-117929047D01*
X141803051Y-117929047D02*
X141803051Y-117833809D01*
X142136385Y-118452857D02*
X142898289Y-118452857D01*
X143088766Y-118071904D02*
X143564956Y-118071904D01*
X142993528Y-118357619D02*
X143326861Y-117357619D01*
X143326861Y-117357619D02*
X143660194Y-118357619D01*
X144422099Y-117690952D02*
X144422099Y-118357619D01*
X143993528Y-117690952D02*
X143993528Y-118214761D01*
X143993528Y-118214761D02*
X144041147Y-118310000D01*
X144041147Y-118310000D02*
X144136385Y-118357619D01*
X144136385Y-118357619D02*
X144279242Y-118357619D01*
X144279242Y-118357619D02*
X144374480Y-118310000D01*
X144374480Y-118310000D02*
X144422099Y-118262380D01*
X145326861Y-118357619D02*
X145326861Y-117357619D01*
X145326861Y-118310000D02*
X145231623Y-118357619D01*
X145231623Y-118357619D02*
X145041147Y-118357619D01*
X145041147Y-118357619D02*
X144945909Y-118310000D01*
X144945909Y-118310000D02*
X144898290Y-118262380D01*
X144898290Y-118262380D02*
X144850671Y-118167142D01*
X144850671Y-118167142D02*
X144850671Y-117881428D01*
X144850671Y-117881428D02*
X144898290Y-117786190D01*
X144898290Y-117786190D02*
X144945909Y-117738571D01*
X144945909Y-117738571D02*
X145041147Y-117690952D01*
X145041147Y-117690952D02*
X145231623Y-117690952D01*
X145231623Y-117690952D02*
X145326861Y-117738571D01*
X145803052Y-118357619D02*
X145803052Y-117690952D01*
X145803052Y-117357619D02*
X145755433Y-117405238D01*
X145755433Y-117405238D02*
X145803052Y-117452857D01*
X145803052Y-117452857D02*
X145850671Y-117405238D01*
X145850671Y-117405238D02*
X145803052Y-117357619D01*
X145803052Y-117357619D02*
X145803052Y-117452857D01*
X146422099Y-118357619D02*
X146326861Y-118310000D01*
X146326861Y-118310000D02*
X146279242Y-118262380D01*
X146279242Y-118262380D02*
X146231623Y-118167142D01*
X146231623Y-118167142D02*
X146231623Y-117881428D01*
X146231623Y-117881428D02*
X146279242Y-117786190D01*
X146279242Y-117786190D02*
X146326861Y-117738571D01*
X146326861Y-117738571D02*
X146422099Y-117690952D01*
X146422099Y-117690952D02*
X146564956Y-117690952D01*
X146564956Y-117690952D02*
X146660194Y-117738571D01*
X146660194Y-117738571D02*
X146707813Y-117786190D01*
X146707813Y-117786190D02*
X146755432Y-117881428D01*
X146755432Y-117881428D02*
X146755432Y-118167142D01*
X146755432Y-118167142D02*
X146707813Y-118262380D01*
X146707813Y-118262380D02*
X146660194Y-118310000D01*
X146660194Y-118310000D02*
X146564956Y-118357619D01*
X146564956Y-118357619D02*
X146422099Y-118357619D01*
X146945909Y-118452857D02*
X147707813Y-118452857D01*
X148136385Y-117357619D02*
X148326861Y-117357619D01*
X148326861Y-117357619D02*
X148422099Y-117405238D01*
X148422099Y-117405238D02*
X148517337Y-117500476D01*
X148517337Y-117500476D02*
X148564956Y-117690952D01*
X148564956Y-117690952D02*
X148564956Y-118024285D01*
X148564956Y-118024285D02*
X148517337Y-118214761D01*
X148517337Y-118214761D02*
X148422099Y-118310000D01*
X148422099Y-118310000D02*
X148326861Y-118357619D01*
X148326861Y-118357619D02*
X148136385Y-118357619D01*
X148136385Y-118357619D02*
X148041147Y-118310000D01*
X148041147Y-118310000D02*
X147945909Y-118214761D01*
X147945909Y-118214761D02*
X147898290Y-118024285D01*
X147898290Y-118024285D02*
X147898290Y-117690952D01*
X147898290Y-117690952D02*
X147945909Y-117500476D01*
X147945909Y-117500476D02*
X148041147Y-117405238D01*
X148041147Y-117405238D02*
X148136385Y-117357619D01*
X149422099Y-117690952D02*
X149422099Y-118357619D01*
X148993528Y-117690952D02*
X148993528Y-118214761D01*
X148993528Y-118214761D02*
X149041147Y-118310000D01*
X149041147Y-118310000D02*
X149136385Y-118357619D01*
X149136385Y-118357619D02*
X149279242Y-118357619D01*
X149279242Y-118357619D02*
X149374480Y-118310000D01*
X149374480Y-118310000D02*
X149422099Y-118262380D01*
X149755433Y-117690952D02*
X150136385Y-117690952D01*
X149898290Y-117357619D02*
X149898290Y-118214761D01*
X149898290Y-118214761D02*
X149945909Y-118310000D01*
X149945909Y-118310000D02*
X150041147Y-118357619D01*
X150041147Y-118357619D02*
X150136385Y-118357619D01*
X150469719Y-117690952D02*
X150469719Y-118690952D01*
X150469719Y-117738571D02*
X150564957Y-117690952D01*
X150564957Y-117690952D02*
X150755433Y-117690952D01*
X150755433Y-117690952D02*
X150850671Y-117738571D01*
X150850671Y-117738571D02*
X150898290Y-117786190D01*
X150898290Y-117786190D02*
X150945909Y-117881428D01*
X150945909Y-117881428D02*
X150945909Y-118167142D01*
X150945909Y-118167142D02*
X150898290Y-118262380D01*
X150898290Y-118262380D02*
X150850671Y-118310000D01*
X150850671Y-118310000D02*
X150755433Y-118357619D01*
X150755433Y-118357619D02*
X150564957Y-118357619D01*
X150564957Y-118357619D02*
X150469719Y-118310000D01*
X151803052Y-117690952D02*
X151803052Y-118357619D01*
X151374481Y-117690952D02*
X151374481Y-118214761D01*
X151374481Y-118214761D02*
X151422100Y-118310000D01*
X151422100Y-118310000D02*
X151517338Y-118357619D01*
X151517338Y-118357619D02*
X151660195Y-118357619D01*
X151660195Y-118357619D02*
X151755433Y-118310000D01*
X151755433Y-118310000D02*
X151803052Y-118262380D01*
X152136386Y-117690952D02*
X152517338Y-117690952D01*
X152279243Y-117357619D02*
X152279243Y-118214761D01*
X152279243Y-118214761D02*
X152326862Y-118310000D01*
X152326862Y-118310000D02*
X152422100Y-118357619D01*
X152422100Y-118357619D02*
X152517338Y-118357619D01*
X152612577Y-118452857D02*
X153374481Y-118452857D01*
X154136386Y-118357619D02*
X153564958Y-118357619D01*
X153850672Y-118357619D02*
X153850672Y-117357619D01*
X153850672Y-117357619D02*
X153755434Y-117500476D01*
X153755434Y-117500476D02*
X153660196Y-117595714D01*
X153660196Y-117595714D02*
X153564958Y-117643333D01*
X140017337Y-43433709D02*
X140350670Y-43433709D01*
X140493527Y-43957519D02*
X140017337Y-43957519D01*
X140017337Y-43957519D02*
X140017337Y-42957519D01*
X140017337Y-42957519D02*
X140493527Y-42957519D01*
X141398289Y-43957519D02*
X140922099Y-43957519D01*
X140922099Y-43957519D02*
X140922099Y-42957519D01*
X141588766Y-42957519D02*
X142160194Y-42957519D01*
X141874480Y-43957519D02*
X141874480Y-42957519D01*
X142255433Y-44052757D02*
X143017337Y-44052757D01*
X143207814Y-43909900D02*
X143350671Y-43957519D01*
X143350671Y-43957519D02*
X143588766Y-43957519D01*
X143588766Y-43957519D02*
X143684004Y-43909900D01*
X143684004Y-43909900D02*
X143731623Y-43862280D01*
X143731623Y-43862280D02*
X143779242Y-43767042D01*
X143779242Y-43767042D02*
X143779242Y-43671804D01*
X143779242Y-43671804D02*
X143731623Y-43576566D01*
X143731623Y-43576566D02*
X143684004Y-43528947D01*
X143684004Y-43528947D02*
X143588766Y-43481328D01*
X143588766Y-43481328D02*
X143398290Y-43433709D01*
X143398290Y-43433709D02*
X143303052Y-43386090D01*
X143303052Y-43386090D02*
X143255433Y-43338471D01*
X143255433Y-43338471D02*
X143207814Y-43243233D01*
X143207814Y-43243233D02*
X143207814Y-43147995D01*
X143207814Y-43147995D02*
X143255433Y-43052757D01*
X143255433Y-43052757D02*
X143303052Y-43005138D01*
X143303052Y-43005138D02*
X143398290Y-42957519D01*
X143398290Y-42957519D02*
X143636385Y-42957519D01*
X143636385Y-42957519D02*
X143779242Y-43005138D01*
X144588766Y-43909900D02*
X144493528Y-43957519D01*
X144493528Y-43957519D02*
X144303052Y-43957519D01*
X144303052Y-43957519D02*
X144207814Y-43909900D01*
X144207814Y-43909900D02*
X144160195Y-43814661D01*
X144160195Y-43814661D02*
X144160195Y-43433709D01*
X144160195Y-43433709D02*
X144207814Y-43338471D01*
X144207814Y-43338471D02*
X144303052Y-43290852D01*
X144303052Y-43290852D02*
X144493528Y-43290852D01*
X144493528Y-43290852D02*
X144588766Y-43338471D01*
X144588766Y-43338471D02*
X144636385Y-43433709D01*
X144636385Y-43433709D02*
X144636385Y-43528947D01*
X144636385Y-43528947D02*
X144160195Y-43624185D01*
X145064957Y-43957519D02*
X145064957Y-43290852D01*
X145064957Y-43481328D02*
X145112576Y-43386090D01*
X145112576Y-43386090D02*
X145160195Y-43338471D01*
X145160195Y-43338471D02*
X145255433Y-43290852D01*
X145255433Y-43290852D02*
X145350671Y-43290852D01*
X145684005Y-43957519D02*
X145684005Y-43290852D01*
X145684005Y-42957519D02*
X145636386Y-43005138D01*
X145636386Y-43005138D02*
X145684005Y-43052757D01*
X145684005Y-43052757D02*
X145731624Y-43005138D01*
X145731624Y-43005138D02*
X145684005Y-42957519D01*
X145684005Y-42957519D02*
X145684005Y-43052757D01*
X146588766Y-43957519D02*
X146588766Y-43433709D01*
X146588766Y-43433709D02*
X146541147Y-43338471D01*
X146541147Y-43338471D02*
X146445909Y-43290852D01*
X146445909Y-43290852D02*
X146255433Y-43290852D01*
X146255433Y-43290852D02*
X146160195Y-43338471D01*
X146588766Y-43909900D02*
X146493528Y-43957519D01*
X146493528Y-43957519D02*
X146255433Y-43957519D01*
X146255433Y-43957519D02*
X146160195Y-43909900D01*
X146160195Y-43909900D02*
X146112576Y-43814661D01*
X146112576Y-43814661D02*
X146112576Y-43719423D01*
X146112576Y-43719423D02*
X146160195Y-43624185D01*
X146160195Y-43624185D02*
X146255433Y-43576566D01*
X146255433Y-43576566D02*
X146493528Y-43576566D01*
X146493528Y-43576566D02*
X146588766Y-43528947D01*
X147207814Y-43957519D02*
X147112576Y-43909900D01*
X147112576Y-43909900D02*
X147064957Y-43814661D01*
X147064957Y-43814661D02*
X147064957Y-42957519D01*
X147350672Y-44052757D02*
X148112576Y-44052757D01*
X148779243Y-43290852D02*
X148779243Y-43957519D01*
X148541148Y-42909900D02*
X148303053Y-43624185D01*
X148303053Y-43624185D02*
X148922100Y-43624185D01*
X211146819Y-60933385D02*
X210146819Y-60933385D01*
X210146819Y-60933385D02*
X210861104Y-60600052D01*
X210861104Y-60600052D02*
X210146819Y-60266719D01*
X210146819Y-60266719D02*
X211146819Y-60266719D01*
X210623009Y-59457195D02*
X210623009Y-59790528D01*
X211146819Y-59790528D02*
X210146819Y-59790528D01*
X210146819Y-59790528D02*
X210146819Y-59314338D01*
X211146819Y-58933385D02*
X210146819Y-58933385D01*
X210146819Y-58933385D02*
X210146819Y-58695290D01*
X210146819Y-58695290D02*
X210194438Y-58552433D01*
X210194438Y-58552433D02*
X210289676Y-58457195D01*
X210289676Y-58457195D02*
X210384914Y-58409576D01*
X210384914Y-58409576D02*
X210575390Y-58361957D01*
X210575390Y-58361957D02*
X210718247Y-58361957D01*
X210718247Y-58361957D02*
X210908723Y-58409576D01*
X210908723Y-58409576D02*
X211003961Y-58457195D01*
X211003961Y-58457195D02*
X211099200Y-58552433D01*
X211099200Y-58552433D02*
X211146819Y-58695290D01*
X211146819Y-58695290D02*
X211146819Y-58933385D01*
X211242057Y-58171481D02*
X211242057Y-57409576D01*
X211146819Y-57171480D02*
X210146819Y-57171480D01*
X210146819Y-57171480D02*
X210861104Y-56838147D01*
X210861104Y-56838147D02*
X210146819Y-56504814D01*
X210146819Y-56504814D02*
X211146819Y-56504814D01*
X211146819Y-55600052D02*
X210623009Y-55600052D01*
X210623009Y-55600052D02*
X210527771Y-55647671D01*
X210527771Y-55647671D02*
X210480152Y-55742909D01*
X210480152Y-55742909D02*
X210480152Y-55933385D01*
X210480152Y-55933385D02*
X210527771Y-56028623D01*
X211099200Y-55600052D02*
X211146819Y-55695290D01*
X211146819Y-55695290D02*
X211146819Y-55933385D01*
X211146819Y-55933385D02*
X211099200Y-56028623D01*
X211099200Y-56028623D02*
X211003961Y-56076242D01*
X211003961Y-56076242D02*
X210908723Y-56076242D01*
X210908723Y-56076242D02*
X210813485Y-56028623D01*
X210813485Y-56028623D02*
X210765866Y-55933385D01*
X210765866Y-55933385D02*
X210765866Y-55695290D01*
X210765866Y-55695290D02*
X210718247Y-55600052D01*
X211146819Y-55123861D02*
X210480152Y-55123861D01*
X210146819Y-55123861D02*
X210194438Y-55171480D01*
X210194438Y-55171480D02*
X210242057Y-55123861D01*
X210242057Y-55123861D02*
X210194438Y-55076242D01*
X210194438Y-55076242D02*
X210146819Y-55123861D01*
X210146819Y-55123861D02*
X210242057Y-55123861D01*
X210480152Y-54647671D02*
X211146819Y-54647671D01*
X210575390Y-54647671D02*
X210527771Y-54600052D01*
X210527771Y-54600052D02*
X210480152Y-54504814D01*
X210480152Y-54504814D02*
X210480152Y-54361957D01*
X210480152Y-54361957D02*
X210527771Y-54266719D01*
X210527771Y-54266719D02*
X210623009Y-54219100D01*
X210623009Y-54219100D02*
X211146819Y-54219100D01*
X211242057Y-53981005D02*
X211242057Y-53219100D01*
X210242057Y-53028623D02*
X210194438Y-52981004D01*
X210194438Y-52981004D02*
X210146819Y-52885766D01*
X210146819Y-52885766D02*
X210146819Y-52647671D01*
X210146819Y-52647671D02*
X210194438Y-52552433D01*
X210194438Y-52552433D02*
X210242057Y-52504814D01*
X210242057Y-52504814D02*
X210337295Y-52457195D01*
X210337295Y-52457195D02*
X210432533Y-52457195D01*
X210432533Y-52457195D02*
X210575390Y-52504814D01*
X210575390Y-52504814D02*
X211146819Y-53076242D01*
X211146819Y-53076242D02*
X211146819Y-52457195D01*
X183526481Y-81278000D02*
X183669338Y-81325619D01*
X183669338Y-81325619D02*
X183907433Y-81325619D01*
X183907433Y-81325619D02*
X184002671Y-81278000D01*
X184002671Y-81278000D02*
X184050290Y-81230380D01*
X184050290Y-81230380D02*
X184097909Y-81135142D01*
X184097909Y-81135142D02*
X184097909Y-81039904D01*
X184097909Y-81039904D02*
X184050290Y-80944666D01*
X184050290Y-80944666D02*
X184002671Y-80897047D01*
X184002671Y-80897047D02*
X183907433Y-80849428D01*
X183907433Y-80849428D02*
X183716957Y-80801809D01*
X183716957Y-80801809D02*
X183621719Y-80754190D01*
X183621719Y-80754190D02*
X183574100Y-80706571D01*
X183574100Y-80706571D02*
X183526481Y-80611333D01*
X183526481Y-80611333D02*
X183526481Y-80516095D01*
X183526481Y-80516095D02*
X183574100Y-80420857D01*
X183574100Y-80420857D02*
X183621719Y-80373238D01*
X183621719Y-80373238D02*
X183716957Y-80325619D01*
X183716957Y-80325619D02*
X183955052Y-80325619D01*
X183955052Y-80325619D02*
X184097909Y-80373238D01*
X184526481Y-81325619D02*
X184526481Y-80325619D01*
X184621719Y-80944666D02*
X184907433Y-81325619D01*
X184907433Y-80658952D02*
X184526481Y-81039904D01*
X185240767Y-80658952D02*
X185478862Y-81325619D01*
X185716957Y-80658952D02*
X185478862Y-81325619D01*
X185478862Y-81325619D02*
X185383624Y-81563714D01*
X185383624Y-81563714D02*
X185336005Y-81611333D01*
X185336005Y-81611333D02*
X185240767Y-81658952D01*
X185955053Y-80325619D02*
X186288386Y-81325619D01*
X186288386Y-81325619D02*
X186621719Y-80325619D01*
X186955053Y-81325619D02*
X186955053Y-80658952D01*
X186955053Y-80325619D02*
X186907434Y-80373238D01*
X186907434Y-80373238D02*
X186955053Y-80420857D01*
X186955053Y-80420857D02*
X187002672Y-80373238D01*
X187002672Y-80373238D02*
X186955053Y-80325619D01*
X186955053Y-80325619D02*
X186955053Y-80420857D01*
X187812195Y-81278000D02*
X187716957Y-81325619D01*
X187716957Y-81325619D02*
X187526481Y-81325619D01*
X187526481Y-81325619D02*
X187431243Y-81278000D01*
X187431243Y-81278000D02*
X187383624Y-81182761D01*
X187383624Y-81182761D02*
X187383624Y-80801809D01*
X187383624Y-80801809D02*
X187431243Y-80706571D01*
X187431243Y-80706571D02*
X187526481Y-80658952D01*
X187526481Y-80658952D02*
X187716957Y-80658952D01*
X187716957Y-80658952D02*
X187812195Y-80706571D01*
X187812195Y-80706571D02*
X187859814Y-80801809D01*
X187859814Y-80801809D02*
X187859814Y-80897047D01*
X187859814Y-80897047D02*
X187383624Y-80992285D01*
X188193148Y-80658952D02*
X188383624Y-81325619D01*
X188383624Y-81325619D02*
X188574100Y-80849428D01*
X188574100Y-80849428D02*
X188764576Y-81325619D01*
X188764576Y-81325619D02*
X188955052Y-80658952D01*
X189097910Y-81420857D02*
X189859814Y-81420857D01*
X190050291Y-80420857D02*
X190097910Y-80373238D01*
X190097910Y-80373238D02*
X190193148Y-80325619D01*
X190193148Y-80325619D02*
X190431243Y-80325619D01*
X190431243Y-80325619D02*
X190526481Y-80373238D01*
X190526481Y-80373238D02*
X190574100Y-80420857D01*
X190574100Y-80420857D02*
X190621719Y-80516095D01*
X190621719Y-80516095D02*
X190621719Y-80611333D01*
X190621719Y-80611333D02*
X190574100Y-80754190D01*
X190574100Y-80754190D02*
X190002672Y-81325619D01*
X190002672Y-81325619D02*
X190621719Y-81325619D01*
X106226919Y-60861956D02*
X105226919Y-60861956D01*
X105226919Y-60861956D02*
X105226919Y-60481004D01*
X105226919Y-60481004D02*
X105274538Y-60385766D01*
X105274538Y-60385766D02*
X105322157Y-60338147D01*
X105322157Y-60338147D02*
X105417395Y-60290528D01*
X105417395Y-60290528D02*
X105560252Y-60290528D01*
X105560252Y-60290528D02*
X105655490Y-60338147D01*
X105655490Y-60338147D02*
X105703109Y-60385766D01*
X105703109Y-60385766D02*
X105750728Y-60481004D01*
X105750728Y-60481004D02*
X105750728Y-60861956D01*
X105703109Y-59528623D02*
X105703109Y-59861956D01*
X106226919Y-59861956D02*
X105226919Y-59861956D01*
X105226919Y-59861956D02*
X105226919Y-59385766D01*
X106226919Y-59004813D02*
X105226919Y-59004813D01*
X105226919Y-59004813D02*
X105226919Y-58766718D01*
X105226919Y-58766718D02*
X105274538Y-58623861D01*
X105274538Y-58623861D02*
X105369776Y-58528623D01*
X105369776Y-58528623D02*
X105465014Y-58481004D01*
X105465014Y-58481004D02*
X105655490Y-58433385D01*
X105655490Y-58433385D02*
X105798347Y-58433385D01*
X105798347Y-58433385D02*
X105988823Y-58481004D01*
X105988823Y-58481004D02*
X106084061Y-58528623D01*
X106084061Y-58528623D02*
X106179300Y-58623861D01*
X106179300Y-58623861D02*
X106226919Y-58766718D01*
X106226919Y-58766718D02*
X106226919Y-59004813D01*
X106322157Y-58242909D02*
X106322157Y-57481004D01*
X106226919Y-57242908D02*
X105226919Y-57242908D01*
X105226919Y-57242908D02*
X105941204Y-56909575D01*
X105941204Y-56909575D02*
X105226919Y-56576242D01*
X105226919Y-56576242D02*
X106226919Y-56576242D01*
X106226919Y-55671480D02*
X105703109Y-55671480D01*
X105703109Y-55671480D02*
X105607871Y-55719099D01*
X105607871Y-55719099D02*
X105560252Y-55814337D01*
X105560252Y-55814337D02*
X105560252Y-56004813D01*
X105560252Y-56004813D02*
X105607871Y-56100051D01*
X106179300Y-55671480D02*
X106226919Y-55766718D01*
X106226919Y-55766718D02*
X106226919Y-56004813D01*
X106226919Y-56004813D02*
X106179300Y-56100051D01*
X106179300Y-56100051D02*
X106084061Y-56147670D01*
X106084061Y-56147670D02*
X105988823Y-56147670D01*
X105988823Y-56147670D02*
X105893585Y-56100051D01*
X105893585Y-56100051D02*
X105845966Y-56004813D01*
X105845966Y-56004813D02*
X105845966Y-55766718D01*
X105845966Y-55766718D02*
X105798347Y-55671480D01*
X106226919Y-55195289D02*
X105560252Y-55195289D01*
X105226919Y-55195289D02*
X105274538Y-55242908D01*
X105274538Y-55242908D02*
X105322157Y-55195289D01*
X105322157Y-55195289D02*
X105274538Y-55147670D01*
X105274538Y-55147670D02*
X105226919Y-55195289D01*
X105226919Y-55195289D02*
X105322157Y-55195289D01*
X105560252Y-54719099D02*
X106226919Y-54719099D01*
X105655490Y-54719099D02*
X105607871Y-54671480D01*
X105607871Y-54671480D02*
X105560252Y-54576242D01*
X105560252Y-54576242D02*
X105560252Y-54433385D01*
X105560252Y-54433385D02*
X105607871Y-54338147D01*
X105607871Y-54338147D02*
X105703109Y-54290528D01*
X105703109Y-54290528D02*
X106226919Y-54290528D01*
X106322157Y-54052433D02*
X106322157Y-53290528D01*
X106226919Y-52528623D02*
X106226919Y-53100051D01*
X106226919Y-52814337D02*
X105226919Y-52814337D01*
X105226919Y-52814337D02*
X105369776Y-52909575D01*
X105369776Y-52909575D02*
X105465014Y-53004813D01*
X105465014Y-53004813D02*
X105512633Y-53100051D01*
X139303052Y-99471904D02*
X139779242Y-99471904D01*
X139207814Y-99757619D02*
X139541147Y-98757619D01*
X139541147Y-98757619D02*
X139874480Y-99757619D01*
X140207814Y-99757619D02*
X140207814Y-98757619D01*
X140207814Y-98757619D02*
X140445909Y-98757619D01*
X140445909Y-98757619D02*
X140588766Y-98805238D01*
X140588766Y-98805238D02*
X140684004Y-98900476D01*
X140684004Y-98900476D02*
X140731623Y-98995714D01*
X140731623Y-98995714D02*
X140779242Y-99186190D01*
X140779242Y-99186190D02*
X140779242Y-99329047D01*
X140779242Y-99329047D02*
X140731623Y-99519523D01*
X140731623Y-99519523D02*
X140684004Y-99614761D01*
X140684004Y-99614761D02*
X140588766Y-99710000D01*
X140588766Y-99710000D02*
X140445909Y-99757619D01*
X140445909Y-99757619D02*
X140207814Y-99757619D01*
X141160195Y-99710000D02*
X141303052Y-99757619D01*
X141303052Y-99757619D02*
X141541147Y-99757619D01*
X141541147Y-99757619D02*
X141636385Y-99710000D01*
X141636385Y-99710000D02*
X141684004Y-99662380D01*
X141684004Y-99662380D02*
X141731623Y-99567142D01*
X141731623Y-99567142D02*
X141731623Y-99471904D01*
X141731623Y-99471904D02*
X141684004Y-99376666D01*
X141684004Y-99376666D02*
X141636385Y-99329047D01*
X141636385Y-99329047D02*
X141541147Y-99281428D01*
X141541147Y-99281428D02*
X141350671Y-99233809D01*
X141350671Y-99233809D02*
X141255433Y-99186190D01*
X141255433Y-99186190D02*
X141207814Y-99138571D01*
X141207814Y-99138571D02*
X141160195Y-99043333D01*
X141160195Y-99043333D02*
X141160195Y-98948095D01*
X141160195Y-98948095D02*
X141207814Y-98852857D01*
X141207814Y-98852857D02*
X141255433Y-98805238D01*
X141255433Y-98805238D02*
X141350671Y-98757619D01*
X141350671Y-98757619D02*
X141588766Y-98757619D01*
X141588766Y-98757619D02*
X141731623Y-98805238D01*
X142493528Y-99233809D02*
X142636385Y-99281428D01*
X142636385Y-99281428D02*
X142684004Y-99329047D01*
X142684004Y-99329047D02*
X142731623Y-99424285D01*
X142731623Y-99424285D02*
X142731623Y-99567142D01*
X142731623Y-99567142D02*
X142684004Y-99662380D01*
X142684004Y-99662380D02*
X142636385Y-99710000D01*
X142636385Y-99710000D02*
X142541147Y-99757619D01*
X142541147Y-99757619D02*
X142160195Y-99757619D01*
X142160195Y-99757619D02*
X142160195Y-98757619D01*
X142160195Y-98757619D02*
X142493528Y-98757619D01*
X142493528Y-98757619D02*
X142588766Y-98805238D01*
X142588766Y-98805238D02*
X142636385Y-98852857D01*
X142636385Y-98852857D02*
X142684004Y-98948095D01*
X142684004Y-98948095D02*
X142684004Y-99043333D01*
X142684004Y-99043333D02*
X142636385Y-99138571D01*
X142636385Y-99138571D02*
X142588766Y-99186190D01*
X142588766Y-99186190D02*
X142493528Y-99233809D01*
X142493528Y-99233809D02*
X142160195Y-99233809D01*
X142922100Y-99852857D02*
X143684004Y-99852857D01*
X143874481Y-99710000D02*
X144017338Y-99757619D01*
X144017338Y-99757619D02*
X144255433Y-99757619D01*
X144255433Y-99757619D02*
X144350671Y-99710000D01*
X144350671Y-99710000D02*
X144398290Y-99662380D01*
X144398290Y-99662380D02*
X144445909Y-99567142D01*
X144445909Y-99567142D02*
X144445909Y-99471904D01*
X144445909Y-99471904D02*
X144398290Y-99376666D01*
X144398290Y-99376666D02*
X144350671Y-99329047D01*
X144350671Y-99329047D02*
X144255433Y-99281428D01*
X144255433Y-99281428D02*
X144064957Y-99233809D01*
X144064957Y-99233809D02*
X143969719Y-99186190D01*
X143969719Y-99186190D02*
X143922100Y-99138571D01*
X143922100Y-99138571D02*
X143874481Y-99043333D01*
X143874481Y-99043333D02*
X143874481Y-98948095D01*
X143874481Y-98948095D02*
X143922100Y-98852857D01*
X143922100Y-98852857D02*
X143969719Y-98805238D01*
X143969719Y-98805238D02*
X144064957Y-98757619D01*
X144064957Y-98757619D02*
X144303052Y-98757619D01*
X144303052Y-98757619D02*
X144445909Y-98805238D01*
X145255433Y-99710000D02*
X145160195Y-99757619D01*
X145160195Y-99757619D02*
X144969719Y-99757619D01*
X144969719Y-99757619D02*
X144874481Y-99710000D01*
X144874481Y-99710000D02*
X144826862Y-99614761D01*
X144826862Y-99614761D02*
X144826862Y-99233809D01*
X144826862Y-99233809D02*
X144874481Y-99138571D01*
X144874481Y-99138571D02*
X144969719Y-99090952D01*
X144969719Y-99090952D02*
X145160195Y-99090952D01*
X145160195Y-99090952D02*
X145255433Y-99138571D01*
X145255433Y-99138571D02*
X145303052Y-99233809D01*
X145303052Y-99233809D02*
X145303052Y-99329047D01*
X145303052Y-99329047D02*
X144826862Y-99424285D01*
X145731624Y-99757619D02*
X145731624Y-99090952D01*
X145731624Y-99281428D02*
X145779243Y-99186190D01*
X145779243Y-99186190D02*
X145826862Y-99138571D01*
X145826862Y-99138571D02*
X145922100Y-99090952D01*
X145922100Y-99090952D02*
X146017338Y-99090952D01*
X146350672Y-99757619D02*
X146350672Y-99090952D01*
X146350672Y-98757619D02*
X146303053Y-98805238D01*
X146303053Y-98805238D02*
X146350672Y-98852857D01*
X146350672Y-98852857D02*
X146398291Y-98805238D01*
X146398291Y-98805238D02*
X146350672Y-98757619D01*
X146350672Y-98757619D02*
X146350672Y-98852857D01*
X147255433Y-99757619D02*
X147255433Y-99233809D01*
X147255433Y-99233809D02*
X147207814Y-99138571D01*
X147207814Y-99138571D02*
X147112576Y-99090952D01*
X147112576Y-99090952D02*
X146922100Y-99090952D01*
X146922100Y-99090952D02*
X146826862Y-99138571D01*
X147255433Y-99710000D02*
X147160195Y-99757619D01*
X147160195Y-99757619D02*
X146922100Y-99757619D01*
X146922100Y-99757619D02*
X146826862Y-99710000D01*
X146826862Y-99710000D02*
X146779243Y-99614761D01*
X146779243Y-99614761D02*
X146779243Y-99519523D01*
X146779243Y-99519523D02*
X146826862Y-99424285D01*
X146826862Y-99424285D02*
X146922100Y-99376666D01*
X146922100Y-99376666D02*
X147160195Y-99376666D01*
X147160195Y-99376666D02*
X147255433Y-99329047D01*
X147874481Y-99757619D02*
X147779243Y-99710000D01*
X147779243Y-99710000D02*
X147731624Y-99614761D01*
X147731624Y-99614761D02*
X147731624Y-98757619D01*
X148017339Y-99852857D02*
X148779243Y-99852857D01*
X149541148Y-99757619D02*
X148969720Y-99757619D01*
X149255434Y-99757619D02*
X149255434Y-98757619D01*
X149255434Y-98757619D02*
X149160196Y-98900476D01*
X149160196Y-98900476D02*
X149064958Y-98995714D01*
X149064958Y-98995714D02*
X148969720Y-99043333D01*
X183526481Y-99794000D02*
X183669338Y-99841619D01*
X183669338Y-99841619D02*
X183907433Y-99841619D01*
X183907433Y-99841619D02*
X184002671Y-99794000D01*
X184002671Y-99794000D02*
X184050290Y-99746380D01*
X184050290Y-99746380D02*
X184097909Y-99651142D01*
X184097909Y-99651142D02*
X184097909Y-99555904D01*
X184097909Y-99555904D02*
X184050290Y-99460666D01*
X184050290Y-99460666D02*
X184002671Y-99413047D01*
X184002671Y-99413047D02*
X183907433Y-99365428D01*
X183907433Y-99365428D02*
X183716957Y-99317809D01*
X183716957Y-99317809D02*
X183621719Y-99270190D01*
X183621719Y-99270190D02*
X183574100Y-99222571D01*
X183574100Y-99222571D02*
X183526481Y-99127333D01*
X183526481Y-99127333D02*
X183526481Y-99032095D01*
X183526481Y-99032095D02*
X183574100Y-98936857D01*
X183574100Y-98936857D02*
X183621719Y-98889238D01*
X183621719Y-98889238D02*
X183716957Y-98841619D01*
X183716957Y-98841619D02*
X183955052Y-98841619D01*
X183955052Y-98841619D02*
X184097909Y-98889238D01*
X184526481Y-99841619D02*
X184526481Y-98841619D01*
X184621719Y-99460666D02*
X184907433Y-99841619D01*
X184907433Y-99174952D02*
X184526481Y-99555904D01*
X185240767Y-99174952D02*
X185478862Y-99841619D01*
X185716957Y-99174952D02*
X185478862Y-99841619D01*
X185478862Y-99841619D02*
X185383624Y-100079714D01*
X185383624Y-100079714D02*
X185336005Y-100127333D01*
X185336005Y-100127333D02*
X185240767Y-100174952D01*
X185955053Y-98841619D02*
X186288386Y-99841619D01*
X186288386Y-99841619D02*
X186621719Y-98841619D01*
X186955053Y-99841619D02*
X186955053Y-99174952D01*
X186955053Y-98841619D02*
X186907434Y-98889238D01*
X186907434Y-98889238D02*
X186955053Y-98936857D01*
X186955053Y-98936857D02*
X187002672Y-98889238D01*
X187002672Y-98889238D02*
X186955053Y-98841619D01*
X186955053Y-98841619D02*
X186955053Y-98936857D01*
X187812195Y-99794000D02*
X187716957Y-99841619D01*
X187716957Y-99841619D02*
X187526481Y-99841619D01*
X187526481Y-99841619D02*
X187431243Y-99794000D01*
X187431243Y-99794000D02*
X187383624Y-99698761D01*
X187383624Y-99698761D02*
X187383624Y-99317809D01*
X187383624Y-99317809D02*
X187431243Y-99222571D01*
X187431243Y-99222571D02*
X187526481Y-99174952D01*
X187526481Y-99174952D02*
X187716957Y-99174952D01*
X187716957Y-99174952D02*
X187812195Y-99222571D01*
X187812195Y-99222571D02*
X187859814Y-99317809D01*
X187859814Y-99317809D02*
X187859814Y-99413047D01*
X187859814Y-99413047D02*
X187383624Y-99508285D01*
X188193148Y-99174952D02*
X188383624Y-99841619D01*
X188383624Y-99841619D02*
X188574100Y-99365428D01*
X188574100Y-99365428D02*
X188764576Y-99841619D01*
X188764576Y-99841619D02*
X188955052Y-99174952D01*
X189097910Y-99936857D02*
X189859814Y-99936857D01*
X190002672Y-98841619D02*
X190621719Y-98841619D01*
X190621719Y-98841619D02*
X190288386Y-99222571D01*
X190288386Y-99222571D02*
X190431243Y-99222571D01*
X190431243Y-99222571D02*
X190526481Y-99270190D01*
X190526481Y-99270190D02*
X190574100Y-99317809D01*
X190574100Y-99317809D02*
X190621719Y-99413047D01*
X190621719Y-99413047D02*
X190621719Y-99651142D01*
X190621719Y-99651142D02*
X190574100Y-99746380D01*
X190574100Y-99746380D02*
X190526481Y-99794000D01*
X190526481Y-99794000D02*
X190431243Y-99841619D01*
X190431243Y-99841619D02*
X190145529Y-99841619D01*
X190145529Y-99841619D02*
X190050291Y-99794000D01*
X190050291Y-99794000D02*
X190002672Y-99746380D01*
X180308385Y-39652604D02*
X180784575Y-39652604D01*
X180213147Y-39938319D02*
X180546480Y-38938319D01*
X180546480Y-38938319D02*
X180879813Y-39938319D01*
X181213147Y-39938319D02*
X181213147Y-38938319D01*
X181213147Y-38938319D02*
X181594099Y-38938319D01*
X181594099Y-38938319D02*
X181689337Y-38985938D01*
X181689337Y-38985938D02*
X181736956Y-39033557D01*
X181736956Y-39033557D02*
X181784575Y-39128795D01*
X181784575Y-39128795D02*
X181784575Y-39271652D01*
X181784575Y-39271652D02*
X181736956Y-39366890D01*
X181736956Y-39366890D02*
X181689337Y-39414509D01*
X181689337Y-39414509D02*
X181594099Y-39462128D01*
X181594099Y-39462128D02*
X181213147Y-39462128D01*
X181975052Y-40033557D02*
X182736956Y-40033557D01*
X182975052Y-39938319D02*
X182975052Y-38938319D01*
X182975052Y-38938319D02*
X183356004Y-38938319D01*
X183356004Y-38938319D02*
X183451242Y-38985938D01*
X183451242Y-38985938D02*
X183498861Y-39033557D01*
X183498861Y-39033557D02*
X183546480Y-39128795D01*
X183546480Y-39128795D02*
X183546480Y-39271652D01*
X183546480Y-39271652D02*
X183498861Y-39366890D01*
X183498861Y-39366890D02*
X183451242Y-39414509D01*
X183451242Y-39414509D02*
X183356004Y-39462128D01*
X183356004Y-39462128D02*
X182975052Y-39462128D01*
X183975052Y-39938319D02*
X183975052Y-39271652D01*
X183975052Y-38938319D02*
X183927433Y-38985938D01*
X183927433Y-38985938D02*
X183975052Y-39033557D01*
X183975052Y-39033557D02*
X184022671Y-38985938D01*
X184022671Y-38985938D02*
X183975052Y-38938319D01*
X183975052Y-38938319D02*
X183975052Y-39033557D01*
X184308385Y-39271652D02*
X184689337Y-39271652D01*
X184451242Y-38938319D02*
X184451242Y-39795461D01*
X184451242Y-39795461D02*
X184498861Y-39890700D01*
X184498861Y-39890700D02*
X184594099Y-39938319D01*
X184594099Y-39938319D02*
X184689337Y-39938319D01*
X185451242Y-39890700D02*
X185356004Y-39938319D01*
X185356004Y-39938319D02*
X185165528Y-39938319D01*
X185165528Y-39938319D02*
X185070290Y-39890700D01*
X185070290Y-39890700D02*
X185022671Y-39843080D01*
X185022671Y-39843080D02*
X184975052Y-39747842D01*
X184975052Y-39747842D02*
X184975052Y-39462128D01*
X184975052Y-39462128D02*
X185022671Y-39366890D01*
X185022671Y-39366890D02*
X185070290Y-39319271D01*
X185070290Y-39319271D02*
X185165528Y-39271652D01*
X185165528Y-39271652D02*
X185356004Y-39271652D01*
X185356004Y-39271652D02*
X185451242Y-39319271D01*
X185879814Y-39938319D02*
X185879814Y-38938319D01*
X186308385Y-39938319D02*
X186308385Y-39414509D01*
X186308385Y-39414509D02*
X186260766Y-39319271D01*
X186260766Y-39319271D02*
X186165528Y-39271652D01*
X186165528Y-39271652D02*
X186022671Y-39271652D01*
X186022671Y-39271652D02*
X185927433Y-39319271D01*
X185927433Y-39319271D02*
X185879814Y-39366890D01*
X186546481Y-40033557D02*
X187308385Y-40033557D01*
X187498862Y-39890700D02*
X187641719Y-39938319D01*
X187641719Y-39938319D02*
X187879814Y-39938319D01*
X187879814Y-39938319D02*
X187975052Y-39890700D01*
X187975052Y-39890700D02*
X188022671Y-39843080D01*
X188022671Y-39843080D02*
X188070290Y-39747842D01*
X188070290Y-39747842D02*
X188070290Y-39652604D01*
X188070290Y-39652604D02*
X188022671Y-39557366D01*
X188022671Y-39557366D02*
X187975052Y-39509747D01*
X187975052Y-39509747D02*
X187879814Y-39462128D01*
X187879814Y-39462128D02*
X187689338Y-39414509D01*
X187689338Y-39414509D02*
X187594100Y-39366890D01*
X187594100Y-39366890D02*
X187546481Y-39319271D01*
X187546481Y-39319271D02*
X187498862Y-39224033D01*
X187498862Y-39224033D02*
X187498862Y-39128795D01*
X187498862Y-39128795D02*
X187546481Y-39033557D01*
X187546481Y-39033557D02*
X187594100Y-38985938D01*
X187594100Y-38985938D02*
X187689338Y-38938319D01*
X187689338Y-38938319D02*
X187927433Y-38938319D01*
X187927433Y-38938319D02*
X188070290Y-38985938D01*
X188356005Y-38938319D02*
X188689338Y-39938319D01*
X188689338Y-39938319D02*
X189022671Y-38938319D01*
X189117910Y-40033557D02*
X189879814Y-40033557D01*
X190117910Y-39938319D02*
X190117910Y-38938319D01*
X190117910Y-38938319D02*
X190689338Y-39938319D01*
X190689338Y-39938319D02*
X190689338Y-38938319D01*
X191546481Y-39890700D02*
X191451243Y-39938319D01*
X191451243Y-39938319D02*
X191260767Y-39938319D01*
X191260767Y-39938319D02*
X191165529Y-39890700D01*
X191165529Y-39890700D02*
X191117910Y-39795461D01*
X191117910Y-39795461D02*
X191117910Y-39414509D01*
X191117910Y-39414509D02*
X191165529Y-39319271D01*
X191165529Y-39319271D02*
X191260767Y-39271652D01*
X191260767Y-39271652D02*
X191451243Y-39271652D01*
X191451243Y-39271652D02*
X191546481Y-39319271D01*
X191546481Y-39319271D02*
X191594100Y-39414509D01*
X191594100Y-39414509D02*
X191594100Y-39509747D01*
X191594100Y-39509747D02*
X191117910Y-39604985D01*
X191879815Y-39271652D02*
X192260767Y-39271652D01*
X192022672Y-38938319D02*
X192022672Y-39795461D01*
X192022672Y-39795461D02*
X192070291Y-39890700D01*
X192070291Y-39890700D02*
X192165529Y-39938319D01*
X192165529Y-39938319D02*
X192260767Y-39938319D01*
X192356006Y-40033557D02*
X193117910Y-40033557D01*
X193879815Y-39938319D02*
X193308387Y-39938319D01*
X193594101Y-39938319D02*
X193594101Y-38938319D01*
X193594101Y-38938319D02*
X193498863Y-39081176D01*
X193498863Y-39081176D02*
X193403625Y-39176414D01*
X193403625Y-39176414D02*
X193308387Y-39224033D01*
X181978861Y-118357619D02*
X181978861Y-117357619D01*
X181978861Y-117357619D02*
X182359813Y-117357619D01*
X182359813Y-117357619D02*
X182455051Y-117405238D01*
X182455051Y-117405238D02*
X182502670Y-117452857D01*
X182502670Y-117452857D02*
X182550289Y-117548095D01*
X182550289Y-117548095D02*
X182550289Y-117690952D01*
X182550289Y-117690952D02*
X182502670Y-117786190D01*
X182502670Y-117786190D02*
X182455051Y-117833809D01*
X182455051Y-117833809D02*
X182359813Y-117881428D01*
X182359813Y-117881428D02*
X181978861Y-117881428D01*
X183121718Y-118357619D02*
X183026480Y-118310000D01*
X183026480Y-118310000D02*
X182978861Y-118262380D01*
X182978861Y-118262380D02*
X182931242Y-118167142D01*
X182931242Y-118167142D02*
X182931242Y-117881428D01*
X182931242Y-117881428D02*
X182978861Y-117786190D01*
X182978861Y-117786190D02*
X183026480Y-117738571D01*
X183026480Y-117738571D02*
X183121718Y-117690952D01*
X183121718Y-117690952D02*
X183264575Y-117690952D01*
X183264575Y-117690952D02*
X183359813Y-117738571D01*
X183359813Y-117738571D02*
X183407432Y-117786190D01*
X183407432Y-117786190D02*
X183455051Y-117881428D01*
X183455051Y-117881428D02*
X183455051Y-118167142D01*
X183455051Y-118167142D02*
X183407432Y-118262380D01*
X183407432Y-118262380D02*
X183359813Y-118310000D01*
X183359813Y-118310000D02*
X183264575Y-118357619D01*
X183264575Y-118357619D02*
X183121718Y-118357619D01*
X183788385Y-117690952D02*
X183978861Y-118357619D01*
X183978861Y-118357619D02*
X184169337Y-117881428D01*
X184169337Y-117881428D02*
X184359813Y-118357619D01*
X184359813Y-118357619D02*
X184550289Y-117690952D01*
X185312194Y-118310000D02*
X185216956Y-118357619D01*
X185216956Y-118357619D02*
X185026480Y-118357619D01*
X185026480Y-118357619D02*
X184931242Y-118310000D01*
X184931242Y-118310000D02*
X184883623Y-118214761D01*
X184883623Y-118214761D02*
X184883623Y-117833809D01*
X184883623Y-117833809D02*
X184931242Y-117738571D01*
X184931242Y-117738571D02*
X185026480Y-117690952D01*
X185026480Y-117690952D02*
X185216956Y-117690952D01*
X185216956Y-117690952D02*
X185312194Y-117738571D01*
X185312194Y-117738571D02*
X185359813Y-117833809D01*
X185359813Y-117833809D02*
X185359813Y-117929047D01*
X185359813Y-117929047D02*
X184883623Y-118024285D01*
X185788385Y-118357619D02*
X185788385Y-117690952D01*
X185788385Y-117881428D02*
X185836004Y-117786190D01*
X185836004Y-117786190D02*
X185883623Y-117738571D01*
X185883623Y-117738571D02*
X185978861Y-117690952D01*
X185978861Y-117690952D02*
X186074099Y-117690952D01*
X186169338Y-118452857D02*
X186931242Y-118452857D01*
X187169338Y-118357619D02*
X187169338Y-117357619D01*
X187645528Y-117690952D02*
X187645528Y-118357619D01*
X187645528Y-117786190D02*
X187693147Y-117738571D01*
X187693147Y-117738571D02*
X187788385Y-117690952D01*
X187788385Y-117690952D02*
X187931242Y-117690952D01*
X187931242Y-117690952D02*
X188026480Y-117738571D01*
X188026480Y-117738571D02*
X188074099Y-117833809D01*
X188074099Y-117833809D02*
X188074099Y-118357619D01*
X188550290Y-117690952D02*
X188550290Y-118690952D01*
X188550290Y-117738571D02*
X188645528Y-117690952D01*
X188645528Y-117690952D02*
X188836004Y-117690952D01*
X188836004Y-117690952D02*
X188931242Y-117738571D01*
X188931242Y-117738571D02*
X188978861Y-117786190D01*
X188978861Y-117786190D02*
X189026480Y-117881428D01*
X189026480Y-117881428D02*
X189026480Y-118167142D01*
X189026480Y-118167142D02*
X188978861Y-118262380D01*
X188978861Y-118262380D02*
X188931242Y-118310000D01*
X188931242Y-118310000D02*
X188836004Y-118357619D01*
X188836004Y-118357619D02*
X188645528Y-118357619D01*
X188645528Y-118357619D02*
X188550290Y-118310000D01*
X189883623Y-117690952D02*
X189883623Y-118357619D01*
X189455052Y-117690952D02*
X189455052Y-118214761D01*
X189455052Y-118214761D02*
X189502671Y-118310000D01*
X189502671Y-118310000D02*
X189597909Y-118357619D01*
X189597909Y-118357619D02*
X189740766Y-118357619D01*
X189740766Y-118357619D02*
X189836004Y-118310000D01*
X189836004Y-118310000D02*
X189883623Y-118262380D01*
X190216957Y-117690952D02*
X190597909Y-117690952D01*
X190359814Y-117357619D02*
X190359814Y-118214761D01*
X190359814Y-118214761D02*
X190407433Y-118310000D01*
X190407433Y-118310000D02*
X190502671Y-118357619D01*
X190502671Y-118357619D02*
X190597909Y-118357619D01*
X190693148Y-118452857D02*
X191455052Y-118452857D01*
X192216957Y-118357619D02*
X191645529Y-118357619D01*
X191931243Y-118357619D02*
X191931243Y-117357619D01*
X191931243Y-117357619D02*
X191836005Y-117500476D01*
X191836005Y-117500476D02*
X191740767Y-117595714D01*
X191740767Y-117595714D02*
X191645529Y-117643333D01*
D12*
%TO.C,SkyView_1*%
X171589100Y-74914800D02*
X171589100Y-64414800D01*
X172649100Y-63354800D02*
X201499100Y-63354800D01*
X179207630Y-67403056D02*
X180106898Y-72503056D01*
X180842411Y-65454800D02*
X193305789Y-65454800D01*
X181284100Y-62460462D02*
X181784100Y-62460462D01*
X181534100Y-62893475D02*
X181284100Y-62460462D01*
X181741679Y-73874800D02*
X192406521Y-73874800D01*
X181784100Y-62460462D02*
X181534100Y-62893475D01*
X194940570Y-67403056D02*
X194041302Y-72503056D01*
X201499100Y-75974800D02*
X172649100Y-75974800D01*
X202559100Y-64414800D02*
X202559100Y-74914800D01*
X172649100Y-63354800D02*
G75*
G03*
X171589100Y-64414800I1J-1060001D01*
G01*
X171589100Y-74914800D02*
G75*
G03*
X172649100Y-75974800I1060001J1D01*
G01*
X180842411Y-65454800D02*
G75*
G03*
X179207630Y-67403056I-1J-1659999D01*
G01*
X180106899Y-72503056D02*
G75*
G03*
X181741679Y-73874800I1634781J288256D01*
G01*
X194940581Y-67403058D02*
G75*
G03*
X193305789Y-65454800I-1634781J288258D01*
G01*
X192406521Y-73874801D02*
G75*
G03*
X194041302Y-72503056I-1J1660001D01*
G01*
X202559100Y-64414800D02*
G75*
G03*
X201499100Y-63354800I-1060000J0D01*
G01*
X201499100Y-75974800D02*
G75*
G03*
X202559100Y-74914800I0J1060000D01*
G01*
%TO.C,Ident_&_Dimmer_Input_1*%
X107920100Y-98252100D02*
X118420100Y-98252100D01*
X119480100Y-99312100D02*
X119480100Y-128162100D01*
X115231844Y-105870630D02*
X110531844Y-106699367D01*
X117180100Y-107505411D02*
X117180100Y-119968789D01*
X109160100Y-108334148D02*
X109160100Y-119140052D01*
X120374438Y-119027100D02*
X120374438Y-119527100D01*
X119941425Y-119277100D02*
X120374438Y-119027100D01*
X120374438Y-119527100D02*
X119941425Y-119277100D01*
X115231844Y-121603570D02*
X110531844Y-120774833D01*
X106860100Y-128162100D02*
X106860100Y-99312100D01*
X118420100Y-129222100D02*
X107920100Y-129222100D01*
X119480100Y-99312100D02*
G75*
G03*
X118420100Y-98252100I-1060001J-1D01*
G01*
X107920100Y-98252100D02*
G75*
G03*
X106860100Y-99312100I1J-1060001D01*
G01*
X117180100Y-107505411D02*
G75*
G03*
X115231844Y-105870630I-1659999J1D01*
G01*
X110531844Y-106699366D02*
G75*
G03*
X109160100Y-108334148I288257J-1634782D01*
G01*
X115231844Y-121603571D02*
G75*
G03*
X117180100Y-119968789I288256J1634781D01*
G01*
X109160101Y-119140052D02*
G75*
G03*
X110531844Y-120774832I1659998J-1D01*
G01*
X118420100Y-129222100D02*
G75*
G03*
X119480100Y-128162100I0J1060000D01*
G01*
X106860100Y-128162100D02*
G75*
G03*
X107920100Y-129222100I1060000J0D01*
G01*
%TO.C,GPS_Serial_5*%
X128937100Y-37462700D02*
X128937100Y-26962700D01*
X129997100Y-25902700D02*
X158847100Y-25902700D01*
X136555630Y-30150956D02*
X137384367Y-34850956D01*
X138190411Y-28202700D02*
X150653789Y-28202700D01*
X139019148Y-36222700D02*
X149825052Y-36222700D01*
X149712100Y-25008362D02*
X150212100Y-25008362D01*
X149962100Y-25441375D02*
X149712100Y-25008362D01*
X150212100Y-25008362D02*
X149962100Y-25441375D01*
X152288570Y-30150956D02*
X151459833Y-34850956D01*
X158847100Y-38522700D02*
X129997100Y-38522700D01*
X159907100Y-26962700D02*
X159907100Y-37462700D01*
X129997100Y-25902700D02*
G75*
G03*
X128937100Y-26962700I1J-1060001D01*
G01*
X128937100Y-37462700D02*
G75*
G03*
X129997100Y-38522700I1060001J1D01*
G01*
X138190411Y-28202700D02*
G75*
G03*
X136555630Y-30150956I-1J-1659999D01*
G01*
X137384366Y-34850956D02*
G75*
G03*
X139019148Y-36222700I1634782J288257D01*
G01*
X152288571Y-30150956D02*
G75*
G03*
X150653789Y-28202700I-1634781J288256D01*
G01*
X149825052Y-36222699D02*
G75*
G03*
X151459832Y-34850956I1J1659998D01*
G01*
X159907100Y-26962700D02*
G75*
G03*
X158847100Y-25902700I-1060000J0D01*
G01*
X158847100Y-38522700D02*
G75*
G03*
X159907100Y-37462700I0J1060000D01*
G01*
%TO.C,XPNDR_Serial_2*%
X128937100Y-93262700D02*
X128937100Y-82762700D01*
X129997100Y-81702700D02*
X158847100Y-81702700D01*
X136555630Y-85950956D02*
X137384367Y-90650956D01*
X138190411Y-84002700D02*
X150653789Y-84002700D01*
X139019148Y-92022700D02*
X149825052Y-92022700D01*
X149712100Y-80808362D02*
X150212100Y-80808362D01*
X149962100Y-81241375D02*
X149712100Y-80808362D01*
X150212100Y-80808362D02*
X149962100Y-81241375D01*
X152288570Y-85950956D02*
X151459833Y-90650956D01*
X158847100Y-94322700D02*
X129997100Y-94322700D01*
X159907100Y-82762700D02*
X159907100Y-93262700D01*
X129997100Y-81702700D02*
G75*
G03*
X128937100Y-82762700I1J-1060001D01*
G01*
X128937100Y-93262700D02*
G75*
G03*
X129997100Y-94322700I1060001J1D01*
G01*
X138190411Y-84002700D02*
G75*
G03*
X136555630Y-85950956I-1J-1659999D01*
G01*
X137384366Y-90650956D02*
G75*
G03*
X139019148Y-92022700I1634782J288257D01*
G01*
X152288571Y-85950956D02*
G75*
G03*
X150653789Y-84002700I-1634781J288256D01*
G01*
X149825052Y-92022699D02*
G75*
G03*
X151459832Y-90650956I1J1659998D01*
G01*
X159907100Y-82762700D02*
G75*
G03*
X158847100Y-81702700I-1060000J0D01*
G01*
X158847100Y-94322700D02*
G75*
G03*
X159907100Y-93262700I0J1060000D01*
G01*
%TO.C,VPX_Serial_3*%
X128937100Y-74662700D02*
X128937100Y-64162700D01*
X129997100Y-63102700D02*
X158847100Y-63102700D01*
X136555630Y-67350956D02*
X137384367Y-72050956D01*
X138190411Y-65402700D02*
X150653789Y-65402700D01*
X139019148Y-73422700D02*
X149825052Y-73422700D01*
X149712100Y-62208362D02*
X150212100Y-62208362D01*
X149962100Y-62641375D02*
X149712100Y-62208362D01*
X150212100Y-62208362D02*
X149962100Y-62641375D01*
X152288570Y-67350956D02*
X151459833Y-72050956D01*
X158847100Y-75722700D02*
X129997100Y-75722700D01*
X159907100Y-64162700D02*
X159907100Y-74662700D01*
X129997100Y-63102700D02*
G75*
G03*
X128937100Y-64162700I1J-1060001D01*
G01*
X128937100Y-74662700D02*
G75*
G03*
X129997100Y-75722700I1060001J1D01*
G01*
X138190411Y-65402700D02*
G75*
G03*
X136555630Y-67350956I-1J-1659999D01*
G01*
X137384366Y-72050956D02*
G75*
G03*
X139019148Y-73422700I1634782J288257D01*
G01*
X152288571Y-67350956D02*
G75*
G03*
X150653789Y-65402700I-1634781J288256D01*
G01*
X149825052Y-73422699D02*
G75*
G03*
X151459832Y-72050956I1J1659998D01*
G01*
X159907100Y-64162700D02*
G75*
G03*
X158847100Y-63102700I-1060000J0D01*
G01*
X158847100Y-75722700D02*
G75*
G03*
X159907100Y-74662700I0J1060000D01*
G01*
%TO.C,AP_Roll_SV_Net_2*%
X202579100Y-45439500D02*
X202579100Y-55939500D01*
X201519100Y-56999500D02*
X172669100Y-56999500D01*
X194960570Y-52951244D02*
X194061302Y-47851244D01*
X193325789Y-54899500D02*
X180862411Y-54899500D01*
X192884100Y-57893838D02*
X192384100Y-57893838D01*
X192634100Y-57460825D02*
X192884100Y-57893838D01*
X192426521Y-46479500D02*
X181761679Y-46479500D01*
X192384100Y-57893838D02*
X192634100Y-57460825D01*
X179227630Y-52951244D02*
X180126898Y-47851244D01*
X172669100Y-44379500D02*
X201519100Y-44379500D01*
X171609100Y-55939500D02*
X171609100Y-45439500D01*
X201519100Y-56999500D02*
G75*
G03*
X202579100Y-55939500I-1J1060001D01*
G01*
X202579100Y-45439500D02*
G75*
G03*
X201519100Y-44379500I-1060001J-1D01*
G01*
X193325789Y-54899500D02*
G75*
G03*
X194960570Y-52951244I1J1659999D01*
G01*
X194061301Y-47851244D02*
G75*
G03*
X192426521Y-46479500I-1634781J-288256D01*
G01*
X179227619Y-52951242D02*
G75*
G03*
X180862411Y-54899500I1634781J-288258D01*
G01*
X181761679Y-46479499D02*
G75*
G03*
X180126898Y-47851244I1J-1660001D01*
G01*
X171609100Y-55939500D02*
G75*
G03*
X172669100Y-56999500I1060000J0D01*
G01*
X172669100Y-44379500D02*
G75*
G03*
X171609100Y-45439500I0J-1060000D01*
G01*
%TO.C,Dimmer_&_Audio_Output_1*%
X128937100Y-130462800D02*
X128937100Y-119962800D01*
X129997100Y-118902800D02*
X158847100Y-118902800D01*
X136555630Y-123151056D02*
X137384367Y-127851056D01*
X138190411Y-121202800D02*
X150653789Y-121202800D01*
X139019148Y-129222800D02*
X149825052Y-129222800D01*
X149712100Y-118008462D02*
X150212100Y-118008462D01*
X149962100Y-118441475D02*
X149712100Y-118008462D01*
X150212100Y-118008462D02*
X149962100Y-118441475D01*
X152288570Y-123151056D02*
X151459833Y-127851056D01*
X158847100Y-131522800D02*
X129997100Y-131522800D01*
X159907100Y-119962800D02*
X159907100Y-130462800D01*
X129997100Y-118902800D02*
G75*
G03*
X128937100Y-119962800I1J-1060001D01*
G01*
X128937100Y-130462800D02*
G75*
G03*
X129997100Y-131522800I1060001J1D01*
G01*
X138190411Y-121202800D02*
G75*
G03*
X136555630Y-123151056I-1J-1659999D01*
G01*
X137384366Y-127851056D02*
G75*
G03*
X139019148Y-129222800I1634782J288257D01*
G01*
X152288571Y-123151056D02*
G75*
G03*
X150653789Y-121202800I-1634781J288256D01*
G01*
X149825052Y-129222799D02*
G75*
G03*
X151459832Y-127851056I1J1659998D01*
G01*
X159907100Y-119962800D02*
G75*
G03*
X158847100Y-118902800I-1060000J0D01*
G01*
X158847100Y-131522800D02*
G75*
G03*
X159907100Y-130462800I0J1060000D01*
G01*
%TO.C,ELT_Serial_4*%
X128937100Y-56062700D02*
X128937100Y-45562700D01*
X129997100Y-44502700D02*
X158847100Y-44502700D01*
X136555630Y-48750956D02*
X137384367Y-53450956D01*
X138190411Y-46802700D02*
X150653789Y-46802700D01*
X139019148Y-54822700D02*
X149825052Y-54822700D01*
X149712100Y-43608362D02*
X150212100Y-43608362D01*
X149962100Y-44041375D02*
X149712100Y-43608362D01*
X150212100Y-43608362D02*
X149962100Y-44041375D01*
X152288570Y-48750956D02*
X151459833Y-53450956D01*
X158847100Y-57122700D02*
X129997100Y-57122700D01*
X159907100Y-45562700D02*
X159907100Y-56062700D01*
X129997100Y-44502700D02*
G75*
G03*
X128937100Y-45562700I1J-1060001D01*
G01*
X128937100Y-56062700D02*
G75*
G03*
X129997100Y-57122700I1060001J1D01*
G01*
X138190411Y-46802700D02*
G75*
G03*
X136555630Y-48750956I-1J-1659999D01*
G01*
X137384366Y-53450956D02*
G75*
G03*
X139019148Y-54822700I1634782J288257D01*
G01*
X152288571Y-48750956D02*
G75*
G03*
X150653789Y-46802700I-1634781J288256D01*
G01*
X149825052Y-54822699D02*
G75*
G03*
X151459832Y-53450956I1J1659998D01*
G01*
X159907100Y-45562700D02*
G75*
G03*
X158847100Y-44502700I-1060000J0D01*
G01*
X158847100Y-57122700D02*
G75*
G03*
X159907100Y-56062700I0J1060000D01*
G01*
%TO.C,MFD_Main_2*%
X223252000Y-91479100D02*
X212752000Y-91479100D01*
X211692000Y-90419100D02*
X211692000Y-23019100D01*
X215740256Y-83835570D02*
X220840256Y-82936302D01*
X213792000Y-82200789D02*
X213792000Y-31237411D01*
X210797662Y-81899100D02*
X210797662Y-81399100D01*
X211230675Y-81649100D02*
X210797662Y-81899100D01*
X210797662Y-81399100D02*
X211230675Y-81649100D01*
X222212000Y-81301521D02*
X222212000Y-32136679D01*
X215740256Y-29602630D02*
X220840256Y-30501898D01*
X224312000Y-23019100D02*
X224312000Y-90419100D01*
X212752000Y-21959100D02*
X223252000Y-21959100D01*
X211692000Y-90419100D02*
G75*
G03*
X212752000Y-91479100I1060001J1D01*
G01*
X223252000Y-91479100D02*
G75*
G03*
X224312000Y-90419100I-1J1060001D01*
G01*
X213792000Y-82200789D02*
G75*
G03*
X215740256Y-83835570I1659999J-1D01*
G01*
X220840256Y-82936301D02*
G75*
G03*
X222212000Y-81301521I-288256J1634781D01*
G01*
X215740258Y-29602619D02*
G75*
G03*
X213792000Y-31237411I-288258J-1634781D01*
G01*
X222212020Y-32136679D02*
G75*
G03*
X220840256Y-30501899I-1660020J-21D01*
G01*
X212752000Y-21959100D02*
G75*
G03*
X211692000Y-23019100I0J-1060000D01*
G01*
X224312000Y-23019100D02*
G75*
G03*
X223252000Y-21959100I-1060000J0D01*
G01*
%TO.C,SkyView_2*%
X171589100Y-93430800D02*
X171589100Y-82930800D01*
X172649100Y-81870800D02*
X201499100Y-81870800D01*
X179207630Y-85919056D02*
X180106898Y-91019056D01*
X180842411Y-83970800D02*
X193305789Y-83970800D01*
X181284100Y-80976462D02*
X181784100Y-80976462D01*
X181534100Y-81409475D02*
X181284100Y-80976462D01*
X181741679Y-92390800D02*
X192406521Y-92390800D01*
X181784100Y-80976462D02*
X181534100Y-81409475D01*
X194940570Y-85919056D02*
X194041302Y-91019056D01*
X201499100Y-94490800D02*
X172649100Y-94490800D01*
X202559100Y-82930800D02*
X202559100Y-93430800D01*
X172649100Y-81870800D02*
G75*
G03*
X171589100Y-82930800I1J-1060001D01*
G01*
X171589100Y-93430800D02*
G75*
G03*
X172649100Y-94490800I1060001J1D01*
G01*
X180842411Y-83970800D02*
G75*
G03*
X179207630Y-85919056I-1J-1659999D01*
G01*
X180106899Y-91019056D02*
G75*
G03*
X181741679Y-92390800I1634781J288256D01*
G01*
X194940581Y-85919058D02*
G75*
G03*
X193305789Y-83970800I-1634781J288258D01*
G01*
X192406521Y-92390801D02*
G75*
G03*
X194041302Y-91019056I-1J1660001D01*
G01*
X202559100Y-82930800D02*
G75*
G03*
X201499100Y-81870800I-1060000J0D01*
G01*
X201499100Y-94490800D02*
G75*
G03*
X202559100Y-93430800I0J1060000D01*
G01*
%TO.C,PFD_Main_1*%
X118332100Y-91479100D02*
X107832100Y-91479100D01*
X106772100Y-90419100D02*
X106772100Y-23019100D01*
X110820356Y-83835570D02*
X115920356Y-82936302D01*
X108872100Y-82200789D02*
X108872100Y-31237411D01*
X105877762Y-81899100D02*
X105877762Y-81399100D01*
X106310775Y-81649100D02*
X105877762Y-81899100D01*
X105877762Y-81399100D02*
X106310775Y-81649100D01*
X117292100Y-81301521D02*
X117292100Y-32136679D01*
X110820356Y-29602630D02*
X115920356Y-30501898D01*
X119392100Y-23019100D02*
X119392100Y-90419100D01*
X107832100Y-21959100D02*
X118332100Y-21959100D01*
X106772100Y-90419100D02*
G75*
G03*
X107832100Y-91479100I1060001J1D01*
G01*
X118332100Y-91479100D02*
G75*
G03*
X119392100Y-90419100I-1J1060001D01*
G01*
X108872100Y-82200789D02*
G75*
G03*
X110820356Y-83835570I1659999J-1D01*
G01*
X115920356Y-82936301D02*
G75*
G03*
X117292100Y-81301521I-288256J1634781D01*
G01*
X110820358Y-29602619D02*
G75*
G03*
X108872100Y-31237411I-288258J-1634781D01*
G01*
X117292120Y-32136679D02*
G75*
G03*
X115920356Y-30501899I-1660020J-21D01*
G01*
X107832100Y-21959100D02*
G75*
G03*
X106772100Y-23019100I0J-1060000D01*
G01*
X119392100Y-23019100D02*
G75*
G03*
X118332100Y-21959100I-1060000J0D01*
G01*
%TO.C,ADSB_Serial_1*%
X128937100Y-111862800D02*
X128937100Y-101362800D01*
X129997100Y-100302800D02*
X158847100Y-100302800D01*
X136555630Y-104551056D02*
X137384367Y-109251056D01*
X138190411Y-102602800D02*
X150653789Y-102602800D01*
X139019148Y-110622800D02*
X149825052Y-110622800D01*
X149712100Y-99408462D02*
X150212100Y-99408462D01*
X149962100Y-99841475D02*
X149712100Y-99408462D01*
X150212100Y-99408462D02*
X149962100Y-99841475D01*
X152288570Y-104551056D02*
X151459833Y-109251056D01*
X158847100Y-112922800D02*
X129997100Y-112922800D01*
X159907100Y-101362800D02*
X159907100Y-111862800D01*
X129997100Y-100302800D02*
G75*
G03*
X128937100Y-101362800I1J-1060001D01*
G01*
X128937100Y-111862800D02*
G75*
G03*
X129997100Y-112922800I1060001J1D01*
G01*
X138190411Y-102602800D02*
G75*
G03*
X136555630Y-104551056I-1J-1659999D01*
G01*
X137384366Y-109251056D02*
G75*
G03*
X139019148Y-110622800I1634782J288257D01*
G01*
X152288571Y-104551056D02*
G75*
G03*
X150653789Y-102602800I-1634781J288256D01*
G01*
X149825052Y-110622799D02*
G75*
G03*
X151459832Y-109251056I1J1659998D01*
G01*
X159907100Y-101362800D02*
G75*
G03*
X158847100Y-100302800I-1060000J0D01*
G01*
X158847100Y-112922800D02*
G75*
G03*
X159907100Y-111862800I0J1060000D01*
G01*
%TO.C,SkyView_3*%
X171589100Y-111946800D02*
X171589100Y-101446800D01*
X172649100Y-100386800D02*
X201499100Y-100386800D01*
X179207630Y-104435056D02*
X180106898Y-109535056D01*
X180842411Y-102486800D02*
X193305789Y-102486800D01*
X181284100Y-99492462D02*
X181784100Y-99492462D01*
X181534100Y-99925475D02*
X181284100Y-99492462D01*
X181741679Y-110906800D02*
X192406521Y-110906800D01*
X181784100Y-99492462D02*
X181534100Y-99925475D01*
X194940570Y-104435056D02*
X194041302Y-109535056D01*
X201499100Y-113006800D02*
X172649100Y-113006800D01*
X202559100Y-101446800D02*
X202559100Y-111946800D01*
X172649100Y-100386800D02*
G75*
G03*
X171589100Y-101446800I1J-1060001D01*
G01*
X171589100Y-111946800D02*
G75*
G03*
X172649100Y-113006800I1060001J1D01*
G01*
X180842411Y-102486800D02*
G75*
G03*
X179207630Y-104435056I-1J-1659999D01*
G01*
X180106899Y-109535056D02*
G75*
G03*
X181741679Y-110906800I1634781J288256D01*
G01*
X194940581Y-104435058D02*
G75*
G03*
X193305789Y-102486800I-1634781J288258D01*
G01*
X192406521Y-110906801D02*
G75*
G03*
X194041302Y-109535056I-1J1660001D01*
G01*
X202559100Y-101446800D02*
G75*
G03*
X201499100Y-100386800I-1060000J0D01*
G01*
X201499100Y-113006800D02*
G75*
G03*
X202559100Y-111946800I0J1060000D01*
G01*
%TO.C,AP_Pitch_SV_Net_1*%
X202579100Y-26923500D02*
X202579100Y-37423500D01*
X201519100Y-38483500D02*
X172669100Y-38483500D01*
X194960570Y-34435244D02*
X194061302Y-29335244D01*
X193325789Y-36383500D02*
X180862411Y-36383500D01*
X192884100Y-39377838D02*
X192384100Y-39377838D01*
X192634100Y-38944825D02*
X192884100Y-39377838D01*
X192426521Y-27963500D02*
X181761679Y-27963500D01*
X192384100Y-39377838D02*
X192634100Y-38944825D01*
X179227630Y-34435244D02*
X180126898Y-29335244D01*
X172669100Y-25863500D02*
X201519100Y-25863500D01*
X171609100Y-37423500D02*
X171609100Y-26923500D01*
X201519100Y-38483500D02*
G75*
G03*
X202579100Y-37423500I-1J1060001D01*
G01*
X202579100Y-26923500D02*
G75*
G03*
X201519100Y-25863500I-1060001J-1D01*
G01*
X193325789Y-36383500D02*
G75*
G03*
X194960570Y-34435244I1J1659999D01*
G01*
X194061301Y-29335244D02*
G75*
G03*
X192426521Y-27963500I-1634781J-288256D01*
G01*
X179227619Y-34435242D02*
G75*
G03*
X180862411Y-36383500I1634781J-288258D01*
G01*
X181761679Y-27963499D02*
G75*
G03*
X180126898Y-29335244I1J-1660001D01*
G01*
X171609100Y-37423500D02*
G75*
G03*
X172669100Y-38483500I1060000J0D01*
G01*
X172669100Y-25863500D02*
G75*
G03*
X171609100Y-26923500I0J-1060000D01*
G01*
%TO.C,Power_Input_1*%
X201499100Y-131522800D02*
G75*
G03*
X202559100Y-130462800I0J1060000D01*
G01*
X202559100Y-119962800D02*
G75*
G03*
X201499100Y-118902800I-1060000J0D01*
G01*
X192406521Y-129422801D02*
G75*
G03*
X194041302Y-128051056I-1J1660001D01*
G01*
X194940581Y-122951058D02*
G75*
G03*
X193305789Y-121002800I-1634781J288258D01*
G01*
X180106899Y-128051056D02*
G75*
G03*
X181741679Y-129422800I1634781J288256D01*
G01*
X180842411Y-121002800D02*
G75*
G03*
X179207630Y-122951056I-1J-1659999D01*
G01*
X171589100Y-130462800D02*
G75*
G03*
X172649100Y-131522800I1060001J1D01*
G01*
X172649100Y-118902800D02*
G75*
G03*
X171589100Y-119962800I1J-1060001D01*
G01*
X202559100Y-119962800D02*
X202559100Y-130462800D01*
X201499100Y-131522800D02*
X172649100Y-131522800D01*
X194940570Y-122951056D02*
X194041302Y-128051056D01*
X181784100Y-118008462D02*
X181534100Y-118441475D01*
X181741679Y-129422800D02*
X192406521Y-129422800D01*
X181534100Y-118441475D02*
X181284100Y-118008462D01*
X181284100Y-118008462D02*
X181784100Y-118008462D01*
X180842411Y-121002800D02*
X193305789Y-121002800D01*
X179207630Y-122951056D02*
X180106898Y-128051056D01*
X172649100Y-118902800D02*
X201499100Y-118902800D01*
X171589100Y-130462800D02*
X171589100Y-119962800D01*
%TD*%
M02*
