%TF.GenerationSoftware,KiCad,Pcbnew,7.0.9*%
%TF.CreationDate,2023-12-27T22:33:40-08:00*%
%TF.ProjectId,Interconnect Board,496e7465-7263-46f6-9e6e-65637420426f,v1.1*%
%TF.SameCoordinates,Original*%
%TF.FileFunction,Copper,L2,Bot*%
%TF.FilePolarity,Positive*%
%FSLAX46Y46*%
G04 Gerber Fmt 4.6, Leading zero omitted, Abs format (unit mm)*
G04 Created by KiCad (PCBNEW 7.0.9) date 2023-12-27 22:33:40*
%MOMM*%
%LPD*%
G01*
G04 APERTURE LIST*
%TA.AperFunction,ComponentPad*%
%ADD10C,4.000000*%
%TD*%
%TA.AperFunction,ComponentPad*%
%ADD11R,1.600000X1.600000*%
%TD*%
%TA.AperFunction,ComponentPad*%
%ADD12C,1.600000*%
%TD*%
%TA.AperFunction,ViaPad*%
%ADD13C,0.800000*%
%TD*%
%TA.AperFunction,Conductor*%
%ADD14C,0.250000*%
%TD*%
%TA.AperFunction,Conductor*%
%ADD15C,1.000000*%
%TD*%
%TA.AperFunction,Conductor*%
%ADD16C,1.500000*%
%TD*%
G04 APERTURE END LIST*
D10*
%TO.P,SkyView_1,0,PAD*%
%TO.N,GND*%
X174574100Y-69664800D03*
X199574100Y-69664800D03*
D11*
%TO.P,SkyView_1,1,1*%
%TO.N,/SV_Data_1A*%
X181534100Y-68244800D03*
D12*
%TO.P,SkyView_1,2,2*%
%TO.N,/SV_GND_1*%
X184304100Y-68244800D03*
%TO.P,SkyView_1,3,3*%
%TO.N,/SV_GND_2*%
X187074100Y-68244800D03*
%TO.P,SkyView_1,4,4*%
%TO.N,/SV_Data_2B*%
X189844100Y-68244800D03*
%TO.P,SkyView_1,5,5*%
%TO.N,/SV_EMS_Aux*%
X192614100Y-68244800D03*
%TO.P,SkyView_1,6,6*%
%TO.N,/SV_Data_1B*%
X182919100Y-71084800D03*
%TO.P,SkyView_1,7,7*%
%TO.N,/SV_Power_1*%
X185689100Y-71084800D03*
%TO.P,SkyView_1,8,8*%
%TO.N,/SV_Data_2A*%
X188459100Y-71084800D03*
%TO.P,SkyView_1,9,9*%
%TO.N,/SV_Power_2*%
X191229100Y-71084800D03*
%TD*%
D10*
%TO.P,Ident_&_Dimmer_Input_1,0,PAD*%
%TO.N,GND*%
X113170100Y-101237100D03*
X113170100Y-126237100D03*
D11*
%TO.P,Ident_&_Dimmer_Input_1,1,1*%
X114590100Y-119277100D03*
D12*
%TO.P,Ident_&_Dimmer_Input_1,2,2*%
%TO.N,/dimmer_output_signal*%
X114590100Y-116507100D03*
%TO.P,Ident_&_Dimmer_Input_1,3,3*%
%TO.N,unconnected-(Ident_&_Dimmer_Input_1-Pad3)*%
X114590100Y-113737100D03*
%TO.P,Ident_&_Dimmer_Input_1,4,4*%
%TO.N,/Dimmer_Signal_Input*%
X114590100Y-110967100D03*
%TO.P,Ident_&_Dimmer_Input_1,5,5*%
%TO.N,GND*%
X114590100Y-108197100D03*
%TO.P,Ident_&_Dimmer_Input_1,6,6*%
%TO.N,/XPNDR_&_IDENT_12V*%
X111750100Y-117892100D03*
%TO.P,Ident_&_Dimmer_Input_1,7,7*%
%TO.N,/Ident_SW_Input*%
X111750100Y-115122100D03*
%TO.P,Ident_&_Dimmer_Input_1,8,8*%
%TO.N,unconnected-(Ident_&_Dimmer_Input_1-Pad8)*%
X111750100Y-112352100D03*
%TO.P,Ident_&_Dimmer_Input_1,9,9*%
%TO.N,/PFD_&_Dim_12V*%
X111750100Y-109582100D03*
%TD*%
D10*
%TO.P,GPS_Serial_5,0,PAD*%
%TO.N,GND*%
X131922100Y-32212700D03*
X156922100Y-32212700D03*
D11*
%TO.P,GPS_Serial_5,1,1*%
%TO.N,/GPS_GND*%
X149962100Y-30792700D03*
D12*
%TO.P,GPS_Serial_5,2,2*%
%TO.N,/GPS_Power*%
X147192100Y-30792700D03*
%TO.P,GPS_Serial_5,3,3*%
%TO.N,unconnected-(GPS_Serial_5-Pad3)*%
X144422100Y-30792700D03*
%TO.P,GPS_Serial_5,4,4*%
%TO.N,unconnected-(GPS_Serial_5-Pad4)*%
X141652100Y-30792700D03*
%TO.P,GPS_Serial_5,5,5*%
%TO.N,unconnected-(GPS_Serial_5-Pad5)*%
X138882100Y-30792700D03*
%TO.P,GPS_Serial_5,6,6*%
%TO.N,/GPS_Serial_5_Rx*%
X148577100Y-33632700D03*
%TO.P,GPS_Serial_5,7,7*%
%TO.N,/GPS_Serial_5_Tx*%
X145807100Y-33632700D03*
%TO.P,GPS_Serial_5,8,8*%
%TO.N,unconnected-(GPS_Serial_5-Pad8)*%
X143037100Y-33632700D03*
%TO.P,GPS_Serial_5,9,9*%
%TO.N,unconnected-(GPS_Serial_5-Pad9)*%
X140267100Y-33632700D03*
%TD*%
D10*
%TO.P,XPNDR_Serial_2,0,PAD*%
%TO.N,GND*%
X131922100Y-88012700D03*
X156922100Y-88012700D03*
D11*
%TO.P,XPNDR_Serial_2,1,1*%
X149962100Y-86592700D03*
D12*
%TO.P,XPNDR_Serial_2,2,2*%
%TO.N,/XPNDR_&_IDENT_12V*%
X147192100Y-86592700D03*
%TO.P,XPNDR_Serial_2,3,3*%
%TO.N,/Ident_SW_Input*%
X144422100Y-86592700D03*
%TO.P,XPNDR_Serial_2,4,4*%
%TO.N,unconnected-(XPNDR_Serial_2-Pad4)*%
X141652100Y-86592700D03*
%TO.P,XPNDR_Serial_2,5,5*%
%TO.N,unconnected-(XPNDR_Serial_2-Pad5)*%
X138882100Y-86592700D03*
%TO.P,XPNDR_Serial_2,6,6*%
%TO.N,/XPNDR_Serial_2_Rx*%
X148577100Y-89432700D03*
%TO.P,XPNDR_Serial_2,7,7*%
%TO.N,/XPNDR_Serial_2_Tx*%
X145807100Y-89432700D03*
%TO.P,XPNDR_Serial_2,8,8*%
%TO.N,unconnected-(XPNDR_Serial_2-Pad8)*%
X143037100Y-89432700D03*
%TO.P,XPNDR_Serial_2,9,9*%
%TO.N,unconnected-(XPNDR_Serial_2-Pad9)*%
X140267100Y-89432700D03*
%TD*%
D10*
%TO.P,VPX_Serial_3,0,PAD*%
%TO.N,GND*%
X131922100Y-69412700D03*
X156922100Y-69412700D03*
D11*
%TO.P,VPX_Serial_3,1,1*%
X149962100Y-67992700D03*
D12*
%TO.P,VPX_Serial_3,2,2*%
%TO.N,unconnected-(VPX_Serial_3-Pad2)*%
X147192100Y-67992700D03*
%TO.P,VPX_Serial_3,3,3*%
%TO.N,unconnected-(VPX_Serial_3-Pad3)*%
X144422100Y-67992700D03*
%TO.P,VPX_Serial_3,4,4*%
%TO.N,unconnected-(VPX_Serial_3-Pad4)*%
X141652100Y-67992700D03*
%TO.P,VPX_Serial_3,5,5*%
%TO.N,unconnected-(VPX_Serial_3-Pad5)*%
X138882100Y-67992700D03*
%TO.P,VPX_Serial_3,6,6*%
%TO.N,/VPX_Serial_3_Rx*%
X148577100Y-70832700D03*
%TO.P,VPX_Serial_3,7,7*%
%TO.N,/VPX_Serial_3_Tx*%
X145807100Y-70832700D03*
%TO.P,VPX_Serial_3,8,8*%
%TO.N,unconnected-(VPX_Serial_3-Pad8)*%
X143037100Y-70832700D03*
%TO.P,VPX_Serial_3,9,9*%
%TO.N,unconnected-(VPX_Serial_3-Pad9)*%
X140267100Y-70832700D03*
%TD*%
D10*
%TO.P,AP_Roll_SV_Net_2,0,PAD*%
%TO.N,GND*%
X199594100Y-50689500D03*
X174594100Y-50689500D03*
D11*
%TO.P,AP_Roll_SV_Net_2,1,1*%
%TO.N,/SV_Data_1A*%
X192634100Y-52109500D03*
D12*
%TO.P,AP_Roll_SV_Net_2,2,2*%
%TO.N,GND*%
X189864100Y-52109500D03*
%TO.P,AP_Roll_SV_Net_2,3,3*%
%TO.N,unconnected-(AP_Roll_SV_Net_2-Pad3)*%
X187094100Y-52109500D03*
%TO.P,AP_Roll_SV_Net_2,4,4*%
%TO.N,/SV_Data_2B*%
X184324100Y-52109500D03*
%TO.P,AP_Roll_SV_Net_2,5,5*%
%TO.N,unconnected-(AP_Roll_SV_Net_2-Pad5)*%
X181554100Y-52109500D03*
%TO.P,AP_Roll_SV_Net_2,6,6*%
%TO.N,/SV_Data_1B*%
X191249100Y-49269500D03*
%TO.P,AP_Roll_SV_Net_2,7,7*%
%TO.N,/SV-Net_AP_12V*%
X188479100Y-49269500D03*
%TO.P,AP_Roll_SV_Net_2,8,8*%
%TO.N,/SV_Data_2A*%
X185709100Y-49269500D03*
%TO.P,AP_Roll_SV_Net_2,9,9*%
%TO.N,unconnected-(AP_Roll_SV_Net_2-Pad9)*%
X182939100Y-49269500D03*
%TD*%
D10*
%TO.P,Dimmer_&_Audio_Output_1,0,PAD*%
%TO.N,GND*%
X131922100Y-125212800D03*
X156922100Y-125212800D03*
D11*
%TO.P,Dimmer_&_Audio_Output_1,1,1*%
%TO.N,unconnected-(Dimmer_&_Audio_Output_1-Pad1)*%
X149962100Y-123792800D03*
D12*
%TO.P,Dimmer_&_Audio_Output_1,2,2*%
%TO.N,unconnected-(Dimmer_&_Audio_Output_1-Pad2)*%
X147192100Y-123792800D03*
%TO.P,Dimmer_&_Audio_Output_1,3,3*%
%TO.N,/dimmer_output_signal*%
X144422100Y-123792800D03*
%TO.P,Dimmer_&_Audio_Output_1,4,4*%
%TO.N,/R_Audio_Out_1*%
X141652100Y-123792800D03*
%TO.P,Dimmer_&_Audio_Output_1,5,5*%
%TO.N,/L_Audio_Out_1*%
X138882100Y-123792800D03*
%TO.P,Dimmer_&_Audio_Output_1,6,6*%
%TO.N,unconnected-(Dimmer_&_Audio_Output_1-Pad6)*%
X148577100Y-126632800D03*
%TO.P,Dimmer_&_Audio_Output_1,7,7*%
%TO.N,/dimmer_output_signal*%
X145807100Y-126632800D03*
%TO.P,Dimmer_&_Audio_Output_1,8,8*%
X143037100Y-126632800D03*
%TO.P,Dimmer_&_Audio_Output_1,9,9*%
%TO.N,/Audio_Out_GND*%
X140267100Y-126632800D03*
%TD*%
D10*
%TO.P,ELT_Serial_4,0,PAD*%
%TO.N,GND*%
X131922100Y-50812700D03*
X156922100Y-50812700D03*
D11*
%TO.P,ELT_Serial_4,1,1*%
X149962100Y-49392700D03*
D12*
%TO.P,ELT_Serial_4,2,2*%
%TO.N,/ELT_12V*%
X147192100Y-49392700D03*
%TO.P,ELT_Serial_4,3,3*%
%TO.N,unconnected-(ELT_Serial_4-Pad3)*%
X144422100Y-49392700D03*
%TO.P,ELT_Serial_4,4,4*%
%TO.N,unconnected-(ELT_Serial_4-Pad4)*%
X141652100Y-49392700D03*
%TO.P,ELT_Serial_4,5,5*%
%TO.N,unconnected-(ELT_Serial_4-Pad5)*%
X138882100Y-49392700D03*
%TO.P,ELT_Serial_4,6,6*%
%TO.N,/ELT_Serial_4_Rx*%
X148577100Y-52232700D03*
%TO.P,ELT_Serial_4,7,7*%
%TO.N,/ELT_Serial_4_Tx*%
X145807100Y-52232700D03*
%TO.P,ELT_Serial_4,8,8*%
%TO.N,unconnected-(ELT_Serial_4-Pad8)*%
X143037100Y-52232700D03*
%TO.P,ELT_Serial_4,9,9*%
%TO.N,unconnected-(ELT_Serial_4-Pad9)*%
X140267100Y-52232700D03*
%TD*%
D10*
%TO.P,MFD_Main_2,0,PAD*%
%TO.N,GND*%
X218002000Y-88469100D03*
X218002000Y-24969100D03*
D11*
%TO.P,MFD_Main_2,1,1*%
%TO.N,/MFD_12V*%
X216582000Y-81649100D03*
D12*
%TO.P,MFD_Main_2,2,2*%
%TO.N,unconnected-(MFD_Main_2-Pad2)*%
X216582000Y-78879100D03*
%TO.P,MFD_Main_2,3,3*%
%TO.N,/ADSB_Serial_1_Rx*%
X216582000Y-76109100D03*
%TO.P,MFD_Main_2,4,4*%
%TO.N,/ADSB_Serial_1_Tx*%
X216582000Y-73339100D03*
%TO.P,MFD_Main_2,5,5*%
%TO.N,/XPNDR_Serial_2_Rx*%
X216582000Y-70569100D03*
%TO.P,MFD_Main_2,6,6*%
%TO.N,/XPNDR_Serial_2_Tx*%
X216582000Y-67799100D03*
%TO.P,MFD_Main_2,7,7*%
%TO.N,/VPX_Serial_3_Rx*%
X216582000Y-65029100D03*
%TO.P,MFD_Main_2,8,8*%
%TO.N,/VPX_Serial_3_Tx*%
X216582000Y-62259100D03*
%TO.P,MFD_Main_2,9,9*%
%TO.N,/ELT_Serial_4_Rx*%
X216582000Y-59489100D03*
%TO.P,MFD_Main_2,10,10*%
%TO.N,/ELT_Serial_4_Tx*%
X216582000Y-56719100D03*
%TO.P,MFD_Main_2,11,11*%
%TO.N,/GPS_Serial_5_Rx*%
X216582000Y-53949100D03*
%TO.P,MFD_Main_2,12,12*%
%TO.N,/GPS_Serial_5_Tx*%
X216582000Y-51179100D03*
%TO.P,MFD_Main_2,13,13*%
%TO.N,/L_Audio_Out_1*%
X216582000Y-48409100D03*
%TO.P,MFD_Main_2,14,14*%
%TO.N,unconnected-(MFD_Main_2-Pad14)*%
X216582000Y-45639100D03*
%TO.P,MFD_Main_2,15,15*%
%TO.N,/SV_Data_1A*%
X216582000Y-42869100D03*
%TO.P,MFD_Main_2,16,16*%
%TO.N,/SV_GND_1*%
X216582000Y-40099100D03*
%TO.P,MFD_Main_2,17,17*%
%TO.N,/SV_GND_2*%
X216582000Y-37329100D03*
%TO.P,MFD_Main_2,18,18*%
%TO.N,/SV_Data_2B*%
X216582000Y-34559100D03*
%TO.P,MFD_Main_2,19,19*%
%TO.N,/SV_EMS_Aux*%
X216582000Y-31789100D03*
%TO.P,MFD_Main_2,20,20*%
%TO.N,/MFD_12V*%
X219422000Y-80264100D03*
%TO.P,MFD_Main_2,21,21*%
%TO.N,GND*%
X219422000Y-77494100D03*
%TO.P,MFD_Main_2,22,22*%
X219422000Y-74724100D03*
%TO.P,MFD_Main_2,23,23*%
%TO.N,unconnected-(MFD_Main_2-Pad23)*%
X219422000Y-71954100D03*
%TO.P,MFD_Main_2,24,24*%
%TO.N,/GPS_GND*%
X219422000Y-69184100D03*
%TO.P,MFD_Main_2,25,25*%
%TO.N,/Dimmer_Signal_Input*%
X219422000Y-66414100D03*
%TO.P,MFD_Main_2,26,26*%
%TO.N,unconnected-(MFD_Main_2-Pad26)*%
X219422000Y-63644100D03*
%TO.P,MFD_Main_2,27,27*%
%TO.N,unconnected-(MFD_Main_2-Pad27)*%
X219422000Y-60874100D03*
%TO.P,MFD_Main_2,28,28*%
%TO.N,unconnected-(MFD_Main_2-Pad28)*%
X219422000Y-58104100D03*
%TO.P,MFD_Main_2,29,29*%
%TO.N,/GPS_Power*%
X219422000Y-55334100D03*
%TO.P,MFD_Main_2,30,30*%
%TO.N,/Audio_Out_GND*%
X219422000Y-52564100D03*
%TO.P,MFD_Main_2,31,31*%
%TO.N,/R_Audio_Out_1*%
X219422000Y-49794100D03*
%TO.P,MFD_Main_2,32,32*%
%TO.N,unconnected-(MFD_Main_2-Pad32)*%
X219422000Y-47024100D03*
%TO.P,MFD_Main_2,33,33*%
%TO.N,unconnected-(MFD_Main_2-Pad33)*%
X219422000Y-44254100D03*
%TO.P,MFD_Main_2,34,34*%
%TO.N,/SV_Data_1B*%
X219422000Y-41484100D03*
%TO.P,MFD_Main_2,35,35*%
%TO.N,/SV_Power_1*%
X219422000Y-38714100D03*
%TO.P,MFD_Main_2,36,36*%
%TO.N,/SV_Data_2A*%
X219422000Y-35944100D03*
%TO.P,MFD_Main_2,37,37*%
%TO.N,/SV_Power_2*%
X219422000Y-33174100D03*
%TD*%
D10*
%TO.P,SkyView_2,0,PAD*%
%TO.N,GND*%
X174574100Y-88180800D03*
X199574100Y-88180800D03*
D11*
%TO.P,SkyView_2,1,1*%
%TO.N,/SV_Data_1A*%
X181534100Y-86760800D03*
D12*
%TO.P,SkyView_2,2,2*%
%TO.N,/SV_GND_1*%
X184304100Y-86760800D03*
%TO.P,SkyView_2,3,3*%
%TO.N,/SV_GND_2*%
X187074100Y-86760800D03*
%TO.P,SkyView_2,4,4*%
%TO.N,/SV_Data_2B*%
X189844100Y-86760800D03*
%TO.P,SkyView_2,5,5*%
%TO.N,/SV_EMS_Aux*%
X192614100Y-86760800D03*
%TO.P,SkyView_2,6,6*%
%TO.N,/SV_Data_1B*%
X182919100Y-89600800D03*
%TO.P,SkyView_2,7,7*%
%TO.N,/SV_Power_1*%
X185689100Y-89600800D03*
%TO.P,SkyView_2,8,8*%
%TO.N,/SV_Data_2A*%
X188459100Y-89600800D03*
%TO.P,SkyView_2,9,9*%
%TO.N,/SV_Power_2*%
X191229100Y-89600800D03*
%TD*%
D10*
%TO.P,PFD_Main_1,0,PAD*%
%TO.N,GND*%
X113082100Y-88469100D03*
X113082100Y-24969100D03*
D11*
%TO.P,PFD_Main_1,1,1*%
%TO.N,/PFD_&_Dim_12V*%
X111662100Y-81649100D03*
D12*
%TO.P,PFD_Main_1,2,2*%
%TO.N,unconnected-(PFD_Main_1-Pad2)*%
X111662100Y-78879100D03*
%TO.P,PFD_Main_1,3,3*%
%TO.N,/ADSB_Serial_1_Rx*%
X111662100Y-76109100D03*
%TO.P,PFD_Main_1,4,4*%
%TO.N,/ADSB_Serial_1_Tx*%
X111662100Y-73339100D03*
%TO.P,PFD_Main_1,5,5*%
%TO.N,/XPNDR_Serial_2_Rx*%
X111662100Y-70569100D03*
%TO.P,PFD_Main_1,6,6*%
%TO.N,/XPNDR_Serial_2_Tx*%
X111662100Y-67799100D03*
%TO.P,PFD_Main_1,7,7*%
%TO.N,/VPX_Serial_3_Rx*%
X111662100Y-65029100D03*
%TO.P,PFD_Main_1,8,8*%
%TO.N,/VPX_Serial_3_Tx*%
X111662100Y-62259100D03*
%TO.P,PFD_Main_1,9,9*%
%TO.N,/ELT_Serial_4_Rx*%
X111662100Y-59489100D03*
%TO.P,PFD_Main_1,10,10*%
%TO.N,/ELT_Serial_4_Tx*%
X111662100Y-56719100D03*
%TO.P,PFD_Main_1,11,11*%
%TO.N,/GPS_Serial_5_Rx*%
X111662100Y-53949100D03*
%TO.P,PFD_Main_1,12,12*%
%TO.N,/GPS_Serial_5_Tx*%
X111662100Y-51179100D03*
%TO.P,PFD_Main_1,13,13*%
%TO.N,/L_Audio_Out_1*%
X111662100Y-48409100D03*
%TO.P,PFD_Main_1,14,14*%
%TO.N,unconnected-(PFD_Main_1-Pad14)*%
X111662100Y-45639100D03*
%TO.P,PFD_Main_1,15,15*%
%TO.N,/SV_Data_1A*%
X111662100Y-42869100D03*
%TO.P,PFD_Main_1,16,16*%
%TO.N,/SV_GND_1*%
X111662100Y-40099100D03*
%TO.P,PFD_Main_1,17,17*%
%TO.N,/SV_GND_2*%
X111662100Y-37329100D03*
%TO.P,PFD_Main_1,18,18*%
%TO.N,/SV_Data_2B*%
X111662100Y-34559100D03*
%TO.P,PFD_Main_1,19,19*%
%TO.N,/SV_EMS_Aux*%
X111662100Y-31789100D03*
%TO.P,PFD_Main_1,20,20*%
%TO.N,/PFD_&_Dim_12V*%
X114502100Y-80264100D03*
%TO.P,PFD_Main_1,21,21*%
%TO.N,GND*%
X114502100Y-77494100D03*
%TO.P,PFD_Main_1,22,22*%
X114502100Y-74724100D03*
%TO.P,PFD_Main_1,23,23*%
%TO.N,unconnected-(PFD_Main_1-Pad23)*%
X114502100Y-71954100D03*
%TO.P,PFD_Main_1,24,24*%
%TO.N,/GPS_GND*%
X114502100Y-69184100D03*
%TO.P,PFD_Main_1,25,25*%
%TO.N,/Dimmer_Signal_Input*%
X114502100Y-66414100D03*
%TO.P,PFD_Main_1,26,26*%
%TO.N,/dimmer_output_signal*%
X114502100Y-63644100D03*
%TO.P,PFD_Main_1,27,27*%
%TO.N,unconnected-(PFD_Main_1-Pad27)*%
X114502100Y-60874100D03*
%TO.P,PFD_Main_1,28,28*%
%TO.N,unconnected-(PFD_Main_1-Pad28)*%
X114502100Y-58104100D03*
%TO.P,PFD_Main_1,29,29*%
%TO.N,/GPS_Power*%
X114502100Y-55334100D03*
%TO.P,PFD_Main_1,30,30*%
%TO.N,/Audio_Out_GND*%
X114502100Y-52564100D03*
%TO.P,PFD_Main_1,31,31*%
%TO.N,/R_Audio_Out_1*%
X114502100Y-49794100D03*
%TO.P,PFD_Main_1,32,32*%
%TO.N,unconnected-(PFD_Main_1-Pad32)*%
X114502100Y-47024100D03*
%TO.P,PFD_Main_1,33,33*%
%TO.N,unconnected-(PFD_Main_1-Pad33)*%
X114502100Y-44254100D03*
%TO.P,PFD_Main_1,34,34*%
%TO.N,/SV_Data_1B*%
X114502100Y-41484100D03*
%TO.P,PFD_Main_1,35,35*%
%TO.N,/SV_Power_1*%
X114502100Y-38714100D03*
%TO.P,PFD_Main_1,36,36*%
%TO.N,/SV_Data_2A*%
X114502100Y-35944100D03*
%TO.P,PFD_Main_1,37,37*%
%TO.N,/SV_Power_2*%
X114502100Y-33174100D03*
%TD*%
D10*
%TO.P,ADSB_Serial_1,0,PAD*%
%TO.N,GND*%
X131922100Y-106612800D03*
X156922100Y-106612800D03*
D11*
%TO.P,ADSB_Serial_1,1,1*%
X149962100Y-105192800D03*
D12*
%TO.P,ADSB_Serial_1,2,2*%
%TO.N,/ADSB_12V*%
X147192100Y-105192800D03*
%TO.P,ADSB_Serial_1,3,3*%
%TO.N,unconnected-(ADSB_Serial_1-Pad3)*%
X144422100Y-105192800D03*
%TO.P,ADSB_Serial_1,4,4*%
%TO.N,unconnected-(ADSB_Serial_1-Pad4)*%
X141652100Y-105192800D03*
%TO.P,ADSB_Serial_1,5,5*%
%TO.N,unconnected-(ADSB_Serial_1-Pad5)*%
X138882100Y-105192800D03*
%TO.P,ADSB_Serial_1,6,6*%
%TO.N,/ADSB_Serial_1_Rx*%
X148577100Y-108032800D03*
%TO.P,ADSB_Serial_1,7,7*%
%TO.N,/ADSB_Serial_1_Tx*%
X145807100Y-108032800D03*
%TO.P,ADSB_Serial_1,8,8*%
%TO.N,unconnected-(ADSB_Serial_1-Pad8)*%
X143037100Y-108032800D03*
%TO.P,ADSB_Serial_1,9,9*%
%TO.N,unconnected-(ADSB_Serial_1-Pad9)*%
X140267100Y-108032800D03*
%TD*%
D10*
%TO.P,SkyView_3,0,PAD*%
%TO.N,GND*%
X174574100Y-106696800D03*
X199574100Y-106696800D03*
D11*
%TO.P,SkyView_3,1,1*%
%TO.N,/SV_Data_1A*%
X181534100Y-105276800D03*
D12*
%TO.P,SkyView_3,2,2*%
%TO.N,/SV_GND_1*%
X184304100Y-105276800D03*
%TO.P,SkyView_3,3,3*%
%TO.N,/SV_GND_2*%
X187074100Y-105276800D03*
%TO.P,SkyView_3,4,4*%
%TO.N,/SV_Data_2B*%
X189844100Y-105276800D03*
%TO.P,SkyView_3,5,5*%
%TO.N,/SV_EMS_Aux*%
X192614100Y-105276800D03*
%TO.P,SkyView_3,6,6*%
%TO.N,/SV_Data_1B*%
X182919100Y-108116800D03*
%TO.P,SkyView_3,7,7*%
%TO.N,/SV_Power_1*%
X185689100Y-108116800D03*
%TO.P,SkyView_3,8,8*%
%TO.N,/SV_Data_2A*%
X188459100Y-108116800D03*
%TO.P,SkyView_3,9,9*%
%TO.N,/SV_Power_2*%
X191229100Y-108116800D03*
%TD*%
D10*
%TO.P,AP_Pitch_SV_Net_1,0,PAD*%
%TO.N,GND*%
X199594100Y-32173500D03*
X174594100Y-32173500D03*
D11*
%TO.P,AP_Pitch_SV_Net_1,1,1*%
%TO.N,/SV_Data_1A*%
X192634100Y-33593500D03*
D12*
%TO.P,AP_Pitch_SV_Net_1,2,2*%
%TO.N,GND*%
X189864100Y-33593500D03*
%TO.P,AP_Pitch_SV_Net_1,3,3*%
%TO.N,unconnected-(AP_Pitch_SV_Net_1-Pad3)*%
X187094100Y-33593500D03*
%TO.P,AP_Pitch_SV_Net_1,4,4*%
%TO.N,/SV_Data_2B*%
X184324100Y-33593500D03*
%TO.P,AP_Pitch_SV_Net_1,5,5*%
%TO.N,unconnected-(AP_Pitch_SV_Net_1-Pad5)*%
X181554100Y-33593500D03*
%TO.P,AP_Pitch_SV_Net_1,6,6*%
%TO.N,/SV_Data_1B*%
X191249100Y-30753500D03*
%TO.P,AP_Pitch_SV_Net_1,7,7*%
%TO.N,/SV-Net_AP_12V*%
X188479100Y-30753500D03*
%TO.P,AP_Pitch_SV_Net_1,8,8*%
%TO.N,/SV_Data_2A*%
X185709100Y-30753500D03*
%TO.P,AP_Pitch_SV_Net_1,9,9*%
%TO.N,unconnected-(AP_Pitch_SV_Net_1-Pad9)*%
X182939100Y-30753500D03*
%TD*%
%TO.P,Power_Input_1,9,9*%
%TO.N,GND*%
X191229100Y-126632800D03*
%TO.P,Power_Input_1,8,8*%
X188459100Y-126632800D03*
%TO.P,Power_Input_1,7,7*%
%TO.N,/ELT_12V*%
X185689100Y-126632800D03*
%TO.P,Power_Input_1,6,6*%
%TO.N,/XPNDR_&_IDENT_12V*%
X182919100Y-126632800D03*
%TO.P,Power_Input_1,5,5*%
%TO.N,/ADSB_12V*%
X192614100Y-123792800D03*
%TO.P,Power_Input_1,4,4*%
%TO.N,/SV-Net_AP_12V*%
X189844100Y-123792800D03*
%TO.P,Power_Input_1,3,3*%
%TO.N,/MFD_12V*%
X187074100Y-123792800D03*
%TO.P,Power_Input_1,2,2*%
%TO.N,/PFD_&_Dim_12V*%
X184304100Y-123792800D03*
D11*
%TO.P,Power_Input_1,1,1*%
%TO.N,GND*%
X181534100Y-123792800D03*
D10*
%TO.P,Power_Input_1,0,PAD*%
X199574100Y-125212800D03*
X174574100Y-125212800D03*
%TD*%
D13*
%TO.N,/SV_Data_2A*%
X175801900Y-42964400D03*
%TO.N,/SV_Power_1*%
X206037800Y-62150400D03*
%TO.N,/SV_GND_2*%
X203391400Y-62163600D03*
%TO.N,/SV_Data_1A*%
X177977800Y-62242700D03*
X179694300Y-47767400D03*
%TO.N,/GPS_Power*%
X148235300Y-48267200D03*
%TO.N,/XPNDR_Serial_2_Rx*%
X143199500Y-81004200D03*
%TD*%
D14*
%TO.N,/XPNDR_&_IDENT_12V*%
X147192100Y-96827000D02*
X147192100Y-86592700D01*
X145612500Y-98406600D02*
X147192100Y-96827000D01*
X145612500Y-105717000D02*
X145612500Y-98406600D01*
X144673200Y-106656300D02*
X145612500Y-105717000D01*
X144673200Y-115678100D02*
X144673200Y-106656300D01*
X148374300Y-119379200D02*
X144673200Y-115678100D01*
X148374300Y-124929900D02*
X148374300Y-119379200D01*
X146997500Y-126306700D02*
X148374300Y-124929900D01*
X146997500Y-127036100D02*
X146997500Y-126306700D01*
X144268200Y-129765400D02*
X146997500Y-127036100D01*
X127555600Y-129765400D02*
X144268200Y-129765400D01*
X115682300Y-117892100D02*
X127555600Y-129765400D01*
X111750100Y-117892100D02*
X115682300Y-117892100D01*
D15*
%TO.N,/PFD_&_Dim_12V*%
X111662100Y-81649100D02*
X111662100Y-83151000D01*
X110376700Y-84436400D02*
X111662100Y-83151000D01*
X110376700Y-108208700D02*
X110376700Y-84436400D01*
X111750100Y-109582100D02*
X110376700Y-108208700D01*
D14*
%TO.N,/ELT_12V*%
X147419200Y-49392700D02*
X147192100Y-49392700D01*
X159249000Y-61222500D02*
X147419200Y-49392700D01*
X159249000Y-87997200D02*
X159249000Y-61222500D01*
X177202300Y-105950500D02*
X159249000Y-87997200D01*
X177202300Y-124749300D02*
X177202300Y-105950500D01*
X181776000Y-129323000D02*
X177202300Y-124749300D01*
X192310200Y-129323000D02*
X181776000Y-129323000D01*
X195263300Y-126369900D02*
X192310200Y-129323000D01*
X195263300Y-122670100D02*
X195263300Y-126369900D01*
X193697500Y-121104300D02*
X195263300Y-122670100D01*
X190901700Y-121104300D02*
X193697500Y-121104300D01*
X188459100Y-123546900D02*
X190901700Y-121104300D01*
X188459100Y-124108200D02*
X188459100Y-123546900D01*
X185934500Y-126632800D02*
X188459100Y-124108200D01*
X185689100Y-126632800D02*
X185934500Y-126632800D01*
D15*
%TO.N,/SV-Net_AP_12V*%
X188479100Y-49269500D02*
X186974000Y-47764400D01*
X191394300Y-122242600D02*
X189844100Y-123792800D01*
X193222300Y-122242600D02*
X191394300Y-122242600D01*
X194119100Y-123139400D02*
X193222300Y-122242600D01*
X194119100Y-125915000D02*
X194119100Y-123139400D01*
X191865300Y-128168800D02*
X194119100Y-125915000D01*
X182262700Y-128168800D02*
X191865300Y-128168800D01*
X180009100Y-125915200D02*
X182262700Y-128168800D01*
X180009100Y-50033700D02*
X180009100Y-125915200D01*
X182278400Y-47764400D02*
X180009100Y-50033700D01*
X186974000Y-47764400D02*
X182278400Y-47764400D01*
X194162200Y-40576200D02*
X186974000Y-47764400D01*
X194162200Y-31516600D02*
X194162200Y-40576200D01*
X191836300Y-29190700D02*
X194162200Y-31516600D01*
X190041900Y-29190700D02*
X191836300Y-29190700D01*
X188479100Y-30753500D02*
X190041900Y-29190700D01*
D16*
%TO.N,GND*%
X199574100Y-125212800D02*
X199574100Y-106696800D01*
X120325700Y-32212700D02*
X131922100Y-32212700D01*
X113082100Y-24969100D02*
X120325700Y-32212700D01*
X219422000Y-74724100D02*
X219422000Y-77494100D01*
X188100700Y-35356900D02*
X177777500Y-35356900D01*
X189864100Y-33593500D02*
X188100700Y-35356900D01*
X177777500Y-35356900D02*
X174594100Y-32173500D01*
X199594100Y-32173500D02*
X199594100Y-50689500D01*
X196385700Y-66476400D02*
X199574100Y-69664800D01*
X196385700Y-53897900D02*
X196385700Y-66476400D01*
X191467400Y-53897900D02*
X196385700Y-53897900D01*
X189864100Y-52294600D02*
X191467400Y-53897900D01*
X189864100Y-52109500D02*
X189864100Y-52294600D01*
X196385700Y-53897900D02*
X199594100Y-50689500D01*
X174574100Y-125212800D02*
X174574100Y-106696800D01*
X113170100Y-106777100D02*
X113170100Y-101237100D01*
X114590100Y-108197100D02*
X113170100Y-106777100D01*
X114590100Y-124817100D02*
X113170100Y-126237100D01*
X114590100Y-119277100D02*
X114590100Y-124817100D01*
X131922100Y-125212800D02*
X131922100Y-106612800D01*
X199574100Y-88180800D02*
X199574100Y-69664800D01*
X206798500Y-24969100D02*
X218002000Y-24969100D01*
X199594100Y-32173500D02*
X206798500Y-24969100D01*
X114502100Y-77494100D02*
X114502100Y-74724100D01*
X135121100Y-54011700D02*
X131922100Y-50812700D01*
X135121100Y-66213700D02*
X135121100Y-54011700D01*
X148183100Y-66213700D02*
X135121100Y-66213700D01*
X149962100Y-67992700D02*
X148183100Y-66213700D01*
X135121100Y-66213700D02*
X131922100Y-69412700D01*
X217801800Y-88469100D02*
X218002000Y-88469100D01*
X199574100Y-106696800D02*
X217801800Y-88469100D01*
X221176000Y-79248100D02*
X219422000Y-77494100D01*
X221176000Y-85295100D02*
X221176000Y-79248100D01*
X218002000Y-88469100D02*
X221176000Y-85295100D01*
X131922100Y-69412700D02*
X131922100Y-88012700D01*
X131922100Y-88012700D02*
X131922100Y-106612800D01*
X156922100Y-106612800D02*
X155502100Y-105192800D01*
X155502100Y-105192800D02*
X149962100Y-105192800D01*
X149962100Y-86592700D02*
X151714000Y-86592700D01*
X154554000Y-89432700D02*
X151714000Y-86592700D01*
X155502100Y-89432700D02*
X154554000Y-89432700D01*
X155502100Y-105192800D02*
X155502100Y-89432700D01*
X155502100Y-89432700D02*
X156922100Y-88012700D01*
X153134000Y-69412700D02*
X151714000Y-67992700D01*
X156922100Y-69412700D02*
X153134000Y-69412700D01*
X149962100Y-67992700D02*
X151714000Y-67992700D01*
X149962100Y-49392700D02*
X151714000Y-49392700D01*
X156922100Y-49392700D02*
X151714000Y-49392700D01*
X156922100Y-32212700D02*
X156922100Y-49392700D01*
X156922100Y-49392700D02*
X156922100Y-50812700D01*
X174574100Y-88180800D02*
X174574100Y-69664800D01*
X174594100Y-69644800D02*
X174594100Y-50689500D01*
X174574100Y-69664800D02*
X174594100Y-69644800D01*
X177777500Y-47506100D02*
X174594100Y-50689500D01*
X177777500Y-35356900D02*
X177777500Y-47506100D01*
D15*
%TO.N,/MFD_12V*%
X216582000Y-85799700D02*
X216582000Y-81649100D01*
X187074100Y-115307600D02*
X216582000Y-85799700D01*
X187074100Y-123792800D02*
X187074100Y-115307600D01*
D14*
%TO.N,/SV_Power_2*%
X191229100Y-71084800D02*
X191229100Y-89600800D01*
X191229100Y-107295900D02*
X192109600Y-106415400D01*
X191229100Y-108116800D02*
X191229100Y-107295900D01*
X191229100Y-105534900D02*
X191229100Y-89600800D01*
X192109600Y-106415400D02*
X191229100Y-105534900D01*
X193173700Y-106415400D02*
X192109600Y-106415400D01*
X202564700Y-97024400D02*
X193173700Y-106415400D01*
X202564700Y-49718200D02*
X202564700Y-97024400D01*
X216338800Y-35944100D02*
X202564700Y-49718200D01*
X216868100Y-35944100D02*
X216338800Y-35944100D01*
X219422000Y-33390200D02*
X216868100Y-35944100D01*
X219422000Y-33174100D02*
X219422000Y-33390200D01*
%TO.N,/SV_Data_2A*%
X188459100Y-108116800D02*
X188459100Y-89600800D01*
X188459100Y-89600800D02*
X188459100Y-71084800D01*
X184548400Y-29592800D02*
X185709100Y-30753500D01*
X173851800Y-29592800D02*
X184548400Y-29592800D01*
X172242900Y-31201700D02*
X173851800Y-29592800D01*
X172242900Y-39405400D02*
X172242900Y-31201700D01*
X175801900Y-42964400D02*
X172242900Y-39405400D01*
%TO.N,/SV_Power_1*%
X185689100Y-71084800D02*
X185689100Y-89600800D01*
X185689100Y-108116800D02*
X185689100Y-89600800D01*
X206037800Y-51785100D02*
X206037800Y-62150400D01*
X216338800Y-41484100D02*
X206037800Y-51785100D01*
X216868100Y-41484100D02*
X216338800Y-41484100D01*
X219422000Y-38930200D02*
X216868100Y-41484100D01*
X219422000Y-38714100D02*
X219422000Y-38930200D01*
%TO.N,/SV_Data_1B*%
X182919100Y-108116800D02*
X182919100Y-89600800D01*
X182919100Y-89600800D02*
X182919100Y-71084800D01*
X190085100Y-50433500D02*
X191249100Y-49269500D01*
X184381400Y-50433500D02*
X190085100Y-50433500D01*
X182919100Y-51895800D02*
X184381400Y-50433500D01*
X182919100Y-71084800D02*
X182919100Y-51895800D01*
X195288900Y-45229700D02*
X191249100Y-49269500D01*
X195288900Y-31049900D02*
X195288900Y-45229700D01*
X192263300Y-28024300D02*
X195288900Y-31049900D01*
X189597900Y-28024300D02*
X192263300Y-28024300D01*
X187297900Y-30324300D02*
X189597900Y-28024300D01*
X187297900Y-31246400D02*
X187297900Y-30324300D01*
X187938500Y-31887000D02*
X187297900Y-31246400D01*
X190115600Y-31887000D02*
X187938500Y-31887000D01*
X191249100Y-30753500D02*
X190115600Y-31887000D01*
%TO.N,/GPS_Serial_5_Rx*%
X136788600Y-45421200D02*
X148577100Y-33632700D01*
X113350000Y-45421200D02*
X136788600Y-45421200D01*
X112405700Y-44476900D02*
X113350000Y-45421200D01*
X111218400Y-44476900D02*
X112405700Y-44476900D01*
X110504400Y-45190900D02*
X111218400Y-44476900D01*
X110504400Y-52791400D02*
X110504400Y-45190900D01*
X111662100Y-53949100D02*
X110504400Y-52791400D01*
%TO.N,/GPS_GND*%
X159267300Y-22614400D02*
X151089000Y-30792700D01*
X219005100Y-22614400D02*
X159267300Y-22614400D01*
X220579600Y-24188900D02*
X219005100Y-22614400D01*
X220579600Y-68026500D02*
X220579600Y-24188900D01*
X219422000Y-69184100D02*
X220579600Y-68026500D01*
X149962100Y-30792700D02*
X151089000Y-30792700D01*
X147708300Y-29665800D02*
X148835200Y-30792700D01*
X138342100Y-29665800D02*
X147708300Y-29665800D01*
X130906100Y-37101800D02*
X138342100Y-29665800D01*
X113602000Y-37101800D02*
X130906100Y-37101800D01*
X112088000Y-38615800D02*
X113602000Y-37101800D01*
X111511300Y-38615800D02*
X112088000Y-38615800D01*
X109336400Y-40790700D02*
X111511300Y-38615800D01*
X109336400Y-64331600D02*
X109336400Y-40790700D01*
X111418900Y-66414100D02*
X109336400Y-64331600D01*
X111948200Y-66414100D02*
X111418900Y-66414100D01*
X114502100Y-68968000D02*
X111948200Y-66414100D01*
X114502100Y-69184100D02*
X114502100Y-68968000D01*
X149962100Y-30792700D02*
X148835200Y-30792700D01*
%TO.N,/SV_EMS_Aux*%
X196387200Y-101503700D02*
X196387200Y-90533900D01*
X192614100Y-105276800D02*
X196387200Y-101503700D01*
X200525200Y-90533900D02*
X196387200Y-90533900D01*
X201934400Y-89124700D02*
X200525200Y-90533900D01*
X201934400Y-46436700D02*
X201934400Y-89124700D01*
X216582000Y-31789100D02*
X201934400Y-46436700D01*
X196387200Y-90533900D02*
X192614100Y-86760800D01*
X192614100Y-68244800D02*
X192614100Y-86760800D01*
%TO.N,/SV_Data_2B*%
X189844100Y-68244800D02*
X189844100Y-86760800D01*
X189844100Y-86760800D02*
X189844100Y-105276800D01*
X189844100Y-57629500D02*
X189844100Y-68244800D01*
X184324100Y-52109500D02*
X189844100Y-57629500D01*
%TO.N,/SV_GND_2*%
X187074100Y-86760800D02*
X187074100Y-68244800D01*
X187074100Y-86760800D02*
X187074100Y-105276800D01*
X203391400Y-50519700D02*
X203391400Y-62163600D01*
X216582000Y-37329100D02*
X203391400Y-50519700D01*
%TO.N,/SV_GND_1*%
X184304100Y-68244800D02*
X184304100Y-86760800D01*
X184304100Y-86760800D02*
X184304100Y-105276800D01*
%TO.N,/SV_Data_1A*%
X181534100Y-105276800D02*
X181534100Y-86760800D01*
X181534100Y-86760800D02*
X181534100Y-68244800D01*
X192634100Y-33593500D02*
X192634100Y-34720400D01*
X177977800Y-49483900D02*
X177977800Y-62242700D01*
X179694300Y-47767400D02*
X177977800Y-49483900D01*
X179694300Y-47660200D02*
X179694300Y-47767400D01*
X192634100Y-34720400D02*
X179694300Y-47660200D01*
%TO.N,/GPS_Serial_5_Tx*%
X136818400Y-42621400D02*
X145807100Y-33632700D01*
X113320200Y-42621400D02*
X136818400Y-42621400D01*
X112385700Y-41686900D02*
X113320200Y-42621400D01*
X111250300Y-41686900D02*
X112385700Y-41686900D01*
X109929900Y-43007300D02*
X111250300Y-41686900D01*
X109929900Y-53869300D02*
X109929900Y-43007300D01*
X111163400Y-55102800D02*
X109929900Y-53869300D01*
X112107300Y-55102800D02*
X111163400Y-55102800D01*
X112791100Y-54419000D02*
X112107300Y-55102800D01*
X112791100Y-52308100D02*
X112791100Y-54419000D01*
X111662100Y-51179100D02*
X112791100Y-52308100D01*
%TO.N,/GPS_Power*%
X149705700Y-46796800D02*
X148235300Y-48267200D01*
X149705700Y-33104600D02*
X149705700Y-46796800D01*
X147393800Y-30792700D02*
X149705700Y-33104600D01*
X147192100Y-30792700D02*
X147393800Y-30792700D01*
%TO.N,/XPNDR_Serial_2_Rx*%
X148577100Y-86381800D02*
X143199500Y-81004200D01*
X148577100Y-89432700D02*
X148577100Y-86381800D01*
%TO.N,/ADSB_Serial_1_Rx*%
X151135500Y-110591200D02*
X148577100Y-108032800D01*
X151135500Y-125672300D02*
X151135500Y-110591200D01*
X146482400Y-130325400D02*
X151135500Y-125672300D01*
X113900000Y-130325400D02*
X146482400Y-130325400D01*
X109233200Y-125658600D02*
X113900000Y-130325400D01*
X109233200Y-78538000D02*
X109233200Y-125658600D01*
X111662100Y-76109100D02*
X109233200Y-78538000D01*
%TO.N,/Audio_Out_GND*%
X138240500Y-128659400D02*
X140267100Y-126632800D01*
X130489000Y-128659400D02*
X138240500Y-128659400D01*
X117329600Y-115500000D02*
X130489000Y-128659400D01*
X117329600Y-55391600D02*
X117329600Y-115500000D01*
X114502100Y-52564100D02*
X117329600Y-55391600D01*
%TO.N,/L_Audio_Out_1*%
X114749000Y-48409100D02*
X111662100Y-48409100D01*
X129447300Y-63107400D02*
X114749000Y-48409100D01*
X129447300Y-126038500D02*
X129447300Y-63107400D01*
X130953500Y-127544700D02*
X129447300Y-126038500D01*
X135130200Y-127544700D02*
X130953500Y-127544700D01*
X138882100Y-123792800D02*
X135130200Y-127544700D01*
%TO.N,/R_Audio_Out_1*%
X141201400Y-123792800D02*
X141652100Y-123792800D01*
X136892200Y-128102000D02*
X141201400Y-123792800D01*
X130721300Y-128102000D02*
X136892200Y-128102000D01*
X126931200Y-124311900D02*
X130721300Y-128102000D01*
X126931200Y-62223200D02*
X126931200Y-124311900D01*
X114502100Y-49794100D02*
X126931200Y-62223200D01*
%TO.N,/dimmer_output_signal*%
X144422100Y-125940300D02*
X144422100Y-123792800D01*
X143729600Y-125940300D02*
X144422100Y-125940300D01*
X143037100Y-126632800D02*
X143729600Y-125940300D01*
X145114600Y-125940300D02*
X145807100Y-126632800D01*
X144422100Y-125940300D02*
X145114600Y-125940300D01*
X115625900Y-115471300D02*
X116518500Y-115471300D01*
X114590100Y-116507100D02*
X115625900Y-115471300D01*
X116518500Y-65660500D02*
X116518500Y-115471300D01*
X114502100Y-63644100D02*
X116518500Y-65660500D01*
X140457700Y-129212200D02*
X143037100Y-126632800D01*
X130259400Y-129212200D02*
X140457700Y-129212200D01*
X116518500Y-115471300D02*
X130259400Y-129212200D01*
%TO.N,/Dimmer_Signal_Input*%
X115966800Y-109590400D02*
X114590100Y-110967100D01*
X115966800Y-67878800D02*
X115966800Y-109590400D01*
X114502100Y-66414100D02*
X115966800Y-67878800D01*
%TD*%
M02*
