%TF.GenerationSoftware,KiCad,Pcbnew,7.0.9*%
%TF.CreationDate,2024-02-19T16:35:41-08:00*%
%TF.ProjectId,Interconnect Board,496e7465-7263-46f6-9e6e-65637420426f,v1.5*%
%TF.SameCoordinates,Original*%
%TF.FileFunction,Soldermask,Top*%
%TF.FilePolarity,Negative*%
%FSLAX46Y46*%
G04 Gerber Fmt 4.6, Leading zero omitted, Abs format (unit mm)*
G04 Created by KiCad (PCBNEW 7.0.9) date 2024-02-19 16:35:41*
%MOMM*%
%LPD*%
G01*
G04 APERTURE LIST*
%ADD10C,1.600000*%
%ADD11O,1.600000X1.600000*%
%ADD12C,4.000000*%
%ADD13R,1.600000X1.600000*%
%ADD14C,3.200000*%
G04 APERTURE END LIST*
D10*
%TO.C,R1*%
X132220100Y-118509100D03*
D11*
X142380100Y-118509100D03*
%TD*%
D12*
%TO.C,Power_Input_1*%
X154464100Y-118069100D03*
X179464100Y-118069100D03*
D13*
X161424100Y-116649100D03*
D10*
X164194100Y-116649100D03*
X166964100Y-116649100D03*
X169734100Y-116649100D03*
X172504100Y-116649100D03*
X162809100Y-119489100D03*
X165579100Y-119489100D03*
X168349100Y-119489100D03*
X171119100Y-119489100D03*
%TD*%
D12*
%TO.C,AP_Roll_SV_Net_2*%
X199892100Y-28085100D03*
X174892100Y-28085100D03*
D13*
X192932100Y-29505100D03*
D10*
X190162100Y-29505100D03*
X187392100Y-29505100D03*
X184622100Y-29505100D03*
X181852100Y-29505100D03*
X191547100Y-26665100D03*
X188777100Y-26665100D03*
X186007100Y-26665100D03*
X183237100Y-26665100D03*
%TD*%
D14*
%TO.C,MountingHole_3*%
X217018100Y-121637100D03*
%TD*%
D12*
%TO.C,SkyView_2*%
X174622000Y-73069100D03*
X199622000Y-73069100D03*
D13*
X181582000Y-71649100D03*
D10*
X184352000Y-71649100D03*
X187122000Y-71649100D03*
X189892000Y-71649100D03*
X192662000Y-71649100D03*
X182967000Y-74489100D03*
X185737000Y-74489100D03*
X188507000Y-74489100D03*
X191277000Y-74489100D03*
%TD*%
D14*
%TO.C,MountingHole_1*%
X117018100Y-16637100D03*
%TD*%
%TO.C,MountingHole_4*%
X217018100Y-16637100D03*
%TD*%
D12*
%TO.C,MFD_Main_2*%
X212438100Y-98457100D03*
X212438100Y-34957100D03*
D13*
X211018100Y-91637100D03*
D10*
X211018100Y-88867100D03*
X211018100Y-86097100D03*
X211018100Y-83327100D03*
X211018100Y-80557100D03*
X211018100Y-77787100D03*
X211018100Y-75017100D03*
X211018100Y-72247100D03*
X211018100Y-69477100D03*
X211018100Y-66707100D03*
X211018100Y-63937100D03*
X211018100Y-61167100D03*
X211018100Y-58397100D03*
X211018100Y-55627100D03*
X211018100Y-52857100D03*
X211018100Y-50087100D03*
X211018100Y-47317100D03*
X211018100Y-44547100D03*
X211018100Y-41777100D03*
X213858100Y-90252100D03*
X213858100Y-87482100D03*
X213858100Y-84712100D03*
X213858100Y-81942100D03*
X213858100Y-79172100D03*
X213858100Y-76402100D03*
X213858100Y-73632100D03*
X213858100Y-70862100D03*
X213858100Y-68092100D03*
X213858100Y-65322100D03*
X213858100Y-62552100D03*
X213858100Y-59782100D03*
X213858100Y-57012100D03*
X213858100Y-54242100D03*
X213858100Y-51472100D03*
X213858100Y-48702100D03*
X213858100Y-45932100D03*
X213858100Y-43162100D03*
%TD*%
D12*
%TO.C,PFD_Main_1*%
X121438100Y-98457100D03*
X121438100Y-34957100D03*
D13*
X120018100Y-91637100D03*
D10*
X120018100Y-88867100D03*
X120018100Y-86097100D03*
X120018100Y-83327100D03*
X120018100Y-80557100D03*
X120018100Y-77787100D03*
X120018100Y-75017100D03*
X120018100Y-72247100D03*
X120018100Y-69477100D03*
X120018100Y-66707100D03*
X120018100Y-63937100D03*
X120018100Y-61167100D03*
X120018100Y-58397100D03*
X120018100Y-55627100D03*
X120018100Y-52857100D03*
X120018100Y-50087100D03*
X120018100Y-47317100D03*
X120018100Y-44547100D03*
X120018100Y-41777100D03*
X122858100Y-90252100D03*
X122858100Y-87482100D03*
X122858100Y-84712100D03*
X122858100Y-81942100D03*
X122858100Y-79172100D03*
X122858100Y-76402100D03*
X122858100Y-73632100D03*
X122858100Y-70862100D03*
X122858100Y-68092100D03*
X122858100Y-65322100D03*
X122858100Y-62552100D03*
X122858100Y-59782100D03*
X122858100Y-57012100D03*
X122858100Y-54242100D03*
X122858100Y-51472100D03*
X122858100Y-48702100D03*
X122858100Y-45932100D03*
X122858100Y-43162100D03*
%TD*%
D12*
%TO.C,SkyView_3*%
X174622000Y-88069100D03*
X199622000Y-88069100D03*
D13*
X181582000Y-86649100D03*
D10*
X184352000Y-86649100D03*
X187122000Y-86649100D03*
X189892000Y-86649100D03*
X192662000Y-86649100D03*
X182967000Y-89489100D03*
X185737000Y-89489100D03*
X188507000Y-89489100D03*
X191277000Y-89489100D03*
%TD*%
D12*
%TO.C,ADSB_Serial_1*%
X134622000Y-88069100D03*
X159622000Y-88069100D03*
D13*
X141582000Y-86649100D03*
D10*
X144352000Y-86649100D03*
X147122000Y-86649100D03*
X149892000Y-86649100D03*
X152662000Y-86649100D03*
X142967000Y-89489100D03*
X145737000Y-89489100D03*
X148507000Y-89489100D03*
X151277000Y-89489100D03*
%TD*%
D14*
%TO.C,MountingHole_2*%
X117018100Y-121637100D03*
%TD*%
D12*
%TO.C,XPNDR_Serial_2*%
X134361100Y-73069100D03*
X159361100Y-73069100D03*
D13*
X141321100Y-71649100D03*
D10*
X144091100Y-71649100D03*
X146861100Y-71649100D03*
X149631100Y-71649100D03*
X152401100Y-71649100D03*
X142706100Y-74489100D03*
X145476100Y-74489100D03*
X148246100Y-74489100D03*
X151016100Y-74489100D03*
%TD*%
D12*
%TO.C,AP_Pitch_SV_Net_1*%
X199892100Y-43085200D03*
X174892100Y-43085200D03*
D13*
X192932100Y-44505200D03*
D10*
X190162100Y-44505200D03*
X187392100Y-44505200D03*
X184622100Y-44505200D03*
X181852100Y-44505200D03*
X191547100Y-41665200D03*
X188777100Y-41665200D03*
X186007100Y-41665200D03*
X183237100Y-41665200D03*
%TD*%
D12*
%TO.C,Dimmer_&_Audio_Output_1*%
X174622000Y-103069100D03*
X199622000Y-103069100D03*
D13*
X181582000Y-101649100D03*
D10*
X184352000Y-101649100D03*
X187122000Y-101649100D03*
X189892000Y-101649100D03*
X192662000Y-101649100D03*
X182967000Y-104489100D03*
X185737000Y-104489100D03*
X188507000Y-104489100D03*
X191277000Y-104489100D03*
%TD*%
D12*
%TO.C,ELT_Serial_4*%
X134906100Y-43069100D03*
X159906100Y-43069100D03*
D13*
X141866100Y-41649100D03*
D10*
X144636100Y-41649100D03*
X147406100Y-41649100D03*
X150176100Y-41649100D03*
X152946100Y-41649100D03*
X143251100Y-44489100D03*
X146021100Y-44489100D03*
X148791100Y-44489100D03*
X151561100Y-44489100D03*
%TD*%
D12*
%TO.C,GPS_Serial_5*%
X134622000Y-28069100D03*
X159622000Y-28069100D03*
D13*
X141582000Y-26649100D03*
D10*
X144352000Y-26649100D03*
X147122000Y-26649100D03*
X149892000Y-26649100D03*
X152662000Y-26649100D03*
X142967000Y-29489100D03*
X145737000Y-29489100D03*
X148507000Y-29489100D03*
X151277000Y-29489100D03*
%TD*%
D12*
%TO.C,Ident_&_Dimmer_Input_1*%
X134622000Y-103069100D03*
X159622000Y-103069100D03*
D13*
X141582000Y-101649100D03*
D10*
X144352000Y-101649100D03*
X147122000Y-101649100D03*
X149892000Y-101649100D03*
X152662000Y-101649100D03*
X142967000Y-104489100D03*
X145737000Y-104489100D03*
X148507000Y-104489100D03*
X151277000Y-104489100D03*
%TD*%
D12*
%TO.C,SkyView_1*%
X174622000Y-58069100D03*
X199622000Y-58069100D03*
D13*
X181582000Y-56649100D03*
D10*
X184352000Y-56649100D03*
X187122000Y-56649100D03*
X189892000Y-56649100D03*
X192662000Y-56649100D03*
X182967000Y-59489100D03*
X185737000Y-59489100D03*
X188507000Y-59489100D03*
X191277000Y-59489100D03*
%TD*%
D12*
%TO.C,VPX_Serial_3*%
X134622000Y-58069100D03*
X159622000Y-58069100D03*
D13*
X141582000Y-56649100D03*
D10*
X144352000Y-56649100D03*
X147122000Y-56649100D03*
X149892000Y-56649100D03*
X152662000Y-56649100D03*
X142967000Y-59489100D03*
X145737000Y-59489100D03*
X148507000Y-59489100D03*
X151277000Y-59489100D03*
%TD*%
M02*
