%TF.GenerationSoftware,KiCad,Pcbnew,7.0.9*%
%TF.CreationDate,2024-02-19T16:35:41-08:00*%
%TF.ProjectId,Interconnect Board,496e7465-7263-46f6-9e6e-65637420426f,v1.5*%
%TF.SameCoordinates,Original*%
%TF.FileFunction,Copper,L1,Top*%
%TF.FilePolarity,Positive*%
%FSLAX46Y46*%
G04 Gerber Fmt 4.6, Leading zero omitted, Abs format (unit mm)*
G04 Created by KiCad (PCBNEW 7.0.9) date 2024-02-19 16:35:41*
%MOMM*%
%LPD*%
G01*
G04 APERTURE LIST*
%TA.AperFunction,ComponentPad*%
%ADD10C,1.600000*%
%TD*%
%TA.AperFunction,ComponentPad*%
%ADD11O,1.600000X1.600000*%
%TD*%
%TA.AperFunction,ComponentPad*%
%ADD12C,4.000000*%
%TD*%
%TA.AperFunction,ComponentPad*%
%ADD13R,1.600000X1.600000*%
%TD*%
%TA.AperFunction,ViaPad*%
%ADD14C,0.800000*%
%TD*%
%TA.AperFunction,Conductor*%
%ADD15C,2.000000*%
%TD*%
%TA.AperFunction,Conductor*%
%ADD16C,0.250000*%
%TD*%
%TA.AperFunction,Conductor*%
%ADD17C,1.500000*%
%TD*%
G04 APERTURE END LIST*
D10*
%TO.P,R1,1*%
%TO.N,/GPS_Serial_Input_to_XPNDR_from_R*%
X132220100Y-118509100D03*
D11*
%TO.P,R1,2*%
%TO.N,/GPS_Serial_Input_to_XPNDR_to_R*%
X142380100Y-118509100D03*
%TD*%
D12*
%TO.P,Power_Input_1,0,PAD*%
%TO.N,unconnected-(Power_Input_1-PAD-Pad0)*%
X154464100Y-118069100D03*
X179464100Y-118069100D03*
D13*
%TO.P,Power_Input_1,1,1*%
%TO.N,GND*%
X161424100Y-116649100D03*
D10*
%TO.P,Power_Input_1,2,2*%
X164194100Y-116649100D03*
%TO.P,Power_Input_1,3,3*%
%TO.N,/ELT_12V*%
X166964100Y-116649100D03*
%TO.P,Power_Input_1,4,4*%
%TO.N,/MFD_12V*%
X169734100Y-116649100D03*
%TO.P,Power_Input_1,5,5*%
%TO.N,/PFD_&_Dim_12V*%
X172504100Y-116649100D03*
%TO.P,Power_Input_1,6,6*%
%TO.N,GND*%
X162809100Y-119489100D03*
%TO.P,Power_Input_1,7,7*%
X165579100Y-119489100D03*
%TO.P,Power_Input_1,8,8*%
%TO.N,/SV-Net_AP_12V*%
X168349100Y-119489100D03*
%TO.P,Power_Input_1,9,9*%
%TO.N,/ADSB_XPNDR_IDENT_12V*%
X171119100Y-119489100D03*
%TD*%
D12*
%TO.P,AP_Roll_SV_Net_2,0,PAD*%
%TO.N,unconnected-(AP_Roll_SV_Net_2-PAD-Pad0)*%
X199892100Y-28085100D03*
X174892100Y-28085100D03*
D13*
%TO.P,AP_Roll_SV_Net_2,1,1*%
%TO.N,/SV_Data_1A*%
X192932100Y-29505100D03*
D10*
%TO.P,AP_Roll_SV_Net_2,2,2*%
%TO.N,GND*%
X190162100Y-29505100D03*
%TO.P,AP_Roll_SV_Net_2,3,3*%
%TO.N,/AP_Disengage (Unused)*%
X187392100Y-29505100D03*
%TO.P,AP_Roll_SV_Net_2,4,4*%
%TO.N,/SV_Data_2B*%
X184622100Y-29505100D03*
%TO.P,AP_Roll_SV_Net_2,5,5*%
%TO.N,unconnected-(AP_Roll_SV_Net_2-Pad5)*%
X181852100Y-29505100D03*
%TO.P,AP_Roll_SV_Net_2,6,6*%
%TO.N,/SV_Data_1B*%
X191547100Y-26665100D03*
%TO.P,AP_Roll_SV_Net_2,7,7*%
%TO.N,/SV-Net_AP_12V*%
X188777100Y-26665100D03*
%TO.P,AP_Roll_SV_Net_2,8,8*%
%TO.N,/SV_Data_2A*%
X186007100Y-26665100D03*
%TO.P,AP_Roll_SV_Net_2,9,9*%
%TO.N,unconnected-(AP_Roll_SV_Net_2-Pad9)*%
X183237100Y-26665100D03*
%TD*%
D12*
%TO.P,SkyView_2,0,PAD*%
%TO.N,unconnected-(SkyView_2-PAD-Pad0)*%
X174622000Y-73069100D03*
X199622000Y-73069100D03*
D13*
%TO.P,SkyView_2,1,1*%
%TO.N,/SV_Data_1A*%
X181582000Y-71649100D03*
D10*
%TO.P,SkyView_2,2,2*%
%TO.N,/SV_GND_1*%
X184352000Y-71649100D03*
%TO.P,SkyView_2,3,3*%
%TO.N,/SV_GND_2*%
X187122000Y-71649100D03*
%TO.P,SkyView_2,4,4*%
%TO.N,/SV_Data_2B*%
X189892000Y-71649100D03*
%TO.P,SkyView_2,5,5*%
%TO.N,/SV_EMS_Aux*%
X192662000Y-71649100D03*
%TO.P,SkyView_2,6,6*%
%TO.N,/SV_Data_1B*%
X182967000Y-74489100D03*
%TO.P,SkyView_2,7,7*%
%TO.N,/SV_Power_1*%
X185737000Y-74489100D03*
%TO.P,SkyView_2,8,8*%
%TO.N,/SV_Data_2A*%
X188507000Y-74489100D03*
%TO.P,SkyView_2,9,9*%
%TO.N,/SV_Power_2*%
X191277000Y-74489100D03*
%TD*%
D12*
%TO.P,MFD_Main_2,0,PAD*%
%TO.N,unconnected-(MFD_Main_2-PAD-Pad0)*%
X212438100Y-98457100D03*
X212438100Y-34957100D03*
D13*
%TO.P,MFD_Main_2,1,1*%
%TO.N,/MFD_12V*%
X211018100Y-91637100D03*
D10*
%TO.P,MFD_Main_2,2,2*%
%TO.N,unconnected-(MFD_Main_2-Pad2)*%
X211018100Y-88867100D03*
%TO.P,MFD_Main_2,3,3*%
%TO.N,/ADSB_Serial_1_Rx*%
X211018100Y-86097100D03*
%TO.P,MFD_Main_2,4,4*%
%TO.N,/ADSB_Serial_1_Tx*%
X211018100Y-83327100D03*
%TO.P,MFD_Main_2,5,5*%
%TO.N,/XPNDR_Serial_2_Rx*%
X211018100Y-80557100D03*
%TO.P,MFD_Main_2,6,6*%
%TO.N,/XPNDR_Serial_2_Tx*%
X211018100Y-77787100D03*
%TO.P,MFD_Main_2,7,7*%
%TO.N,/VPX_Serial_3_Rx*%
X211018100Y-75017100D03*
%TO.P,MFD_Main_2,8,8*%
%TO.N,/VPX_Serial_3_Tx*%
X211018100Y-72247100D03*
%TO.P,MFD_Main_2,9,9*%
%TO.N,/ELT_Serial_4_Rx*%
X211018100Y-69477100D03*
%TO.P,MFD_Main_2,10,10*%
%TO.N,/ELT_Serial_4_Tx*%
X211018100Y-66707100D03*
%TO.P,MFD_Main_2,11,11*%
%TO.N,/GPS_Serial_5_Rx*%
X211018100Y-63937100D03*
%TO.P,MFD_Main_2,12,12*%
%TO.N,/GPS_Serial_5_Tx*%
X211018100Y-61167100D03*
%TO.P,MFD_Main_2,13,13*%
%TO.N,/L_Audio_Out_1*%
X211018100Y-58397100D03*
%TO.P,MFD_Main_2,14,14*%
%TO.N,unconnected-(MFD_Main_2-Pad14)*%
X211018100Y-55627100D03*
%TO.P,MFD_Main_2,15,15*%
%TO.N,/SV_Data_1A*%
X211018100Y-52857100D03*
%TO.P,MFD_Main_2,16,16*%
%TO.N,/SV_GND_1*%
X211018100Y-50087100D03*
%TO.P,MFD_Main_2,17,17*%
%TO.N,/SV_GND_2*%
X211018100Y-47317100D03*
%TO.P,MFD_Main_2,18,18*%
%TO.N,/SV_Data_2B*%
X211018100Y-44547100D03*
%TO.P,MFD_Main_2,19,19*%
%TO.N,/SV_EMS_Aux*%
X211018100Y-41777100D03*
%TO.P,MFD_Main_2,20,20*%
%TO.N,/MFD_12V*%
X213858100Y-90252100D03*
%TO.P,MFD_Main_2,21,21*%
%TO.N,GND*%
X213858100Y-87482100D03*
%TO.P,MFD_Main_2,22,22*%
X213858100Y-84712100D03*
%TO.P,MFD_Main_2,23,23*%
%TO.N,unconnected-(MFD_Main_2-Pad23)*%
X213858100Y-81942100D03*
%TO.P,MFD_Main_2,24,24*%
%TO.N,/GPS_GND*%
X213858100Y-79172100D03*
%TO.P,MFD_Main_2,25,25*%
%TO.N,/Dimmer_Signal_Input*%
X213858100Y-76402100D03*
%TO.P,MFD_Main_2,26,26*%
%TO.N,unconnected-(MFD_Main_2-Pad26)*%
X213858100Y-73632100D03*
%TO.P,MFD_Main_2,27,27*%
%TO.N,unconnected-(MFD_Main_2-Pad27)*%
X213858100Y-70862100D03*
%TO.P,MFD_Main_2,28,28*%
%TO.N,unconnected-(MFD_Main_2-Pad28)*%
X213858100Y-68092100D03*
%TO.P,MFD_Main_2,29,29*%
%TO.N,/GPS_Power*%
X213858100Y-65322100D03*
%TO.P,MFD_Main_2,30,30*%
%TO.N,/Audio_Out_GND*%
X213858100Y-62552100D03*
%TO.P,MFD_Main_2,31,31*%
%TO.N,/R_Audio_Out_1*%
X213858100Y-59782100D03*
%TO.P,MFD_Main_2,32,32*%
%TO.N,unconnected-(MFD_Main_2-Pad32)*%
X213858100Y-57012100D03*
%TO.P,MFD_Main_2,33,33*%
%TO.N,unconnected-(MFD_Main_2-Pad33)*%
X213858100Y-54242100D03*
%TO.P,MFD_Main_2,34,34*%
%TO.N,/SV_Data_1B*%
X213858100Y-51472100D03*
%TO.P,MFD_Main_2,35,35*%
%TO.N,/SV_Power_1*%
X213858100Y-48702100D03*
%TO.P,MFD_Main_2,36,36*%
%TO.N,/SV_Data_2A*%
X213858100Y-45932100D03*
%TO.P,MFD_Main_2,37,37*%
%TO.N,/SV_Power_2*%
X213858100Y-43162100D03*
%TD*%
D12*
%TO.P,PFD_Main_1,0,PAD*%
%TO.N,unconnected-(PFD_Main_1-PAD-Pad0)*%
X121438100Y-98457100D03*
X121438100Y-34957100D03*
D13*
%TO.P,PFD_Main_1,1,1*%
%TO.N,/PFD_&_Dim_12V*%
X120018100Y-91637100D03*
D10*
%TO.P,PFD_Main_1,2,2*%
%TO.N,unconnected-(PFD_Main_1-Pad2)*%
X120018100Y-88867100D03*
%TO.P,PFD_Main_1,3,3*%
%TO.N,/ADSB_Serial_1_Rx*%
X120018100Y-86097100D03*
%TO.P,PFD_Main_1,4,4*%
%TO.N,/ADSB_Serial_1_Tx*%
X120018100Y-83327100D03*
%TO.P,PFD_Main_1,5,5*%
%TO.N,/XPNDR_Serial_2_Rx*%
X120018100Y-80557100D03*
%TO.P,PFD_Main_1,6,6*%
%TO.N,/XPNDR_Serial_2_Tx*%
X120018100Y-77787100D03*
%TO.P,PFD_Main_1,7,7*%
%TO.N,/VPX_Serial_3_Rx*%
X120018100Y-75017100D03*
%TO.P,PFD_Main_1,8,8*%
%TO.N,/VPX_Serial_3_Tx*%
X120018100Y-72247100D03*
%TO.P,PFD_Main_1,9,9*%
%TO.N,/ELT_Serial_4_Rx*%
X120018100Y-69477100D03*
%TO.P,PFD_Main_1,10,10*%
%TO.N,/ELT_Serial_4_Tx*%
X120018100Y-66707100D03*
%TO.P,PFD_Main_1,11,11*%
%TO.N,/GPS_Serial_5_Rx*%
X120018100Y-63937100D03*
%TO.P,PFD_Main_1,12,12*%
%TO.N,/GPS_Serial_5_Tx*%
X120018100Y-61167100D03*
%TO.P,PFD_Main_1,13,13*%
%TO.N,/L_Audio_Out_1*%
X120018100Y-58397100D03*
%TO.P,PFD_Main_1,14,14*%
%TO.N,unconnected-(PFD_Main_1-Pad14)*%
X120018100Y-55627100D03*
%TO.P,PFD_Main_1,15,15*%
%TO.N,/SV_Data_1A*%
X120018100Y-52857100D03*
%TO.P,PFD_Main_1,16,16*%
%TO.N,/SV_GND_1*%
X120018100Y-50087100D03*
%TO.P,PFD_Main_1,17,17*%
%TO.N,/SV_GND_2*%
X120018100Y-47317100D03*
%TO.P,PFD_Main_1,18,18*%
%TO.N,/SV_Data_2B*%
X120018100Y-44547100D03*
%TO.P,PFD_Main_1,19,19*%
%TO.N,/SV_EMS_Aux*%
X120018100Y-41777100D03*
%TO.P,PFD_Main_1,20,20*%
%TO.N,/PFD_&_Dim_12V*%
X122858100Y-90252100D03*
%TO.P,PFD_Main_1,21,21*%
%TO.N,GND*%
X122858100Y-87482100D03*
%TO.P,PFD_Main_1,22,22*%
X122858100Y-84712100D03*
%TO.P,PFD_Main_1,23,23*%
%TO.N,unconnected-(PFD_Main_1-Pad23)*%
X122858100Y-81942100D03*
%TO.P,PFD_Main_1,24,24*%
%TO.N,/GPS_GND*%
X122858100Y-79172100D03*
%TO.P,PFD_Main_1,25,25*%
%TO.N,/Dimmer_Signal_Input*%
X122858100Y-76402100D03*
%TO.P,PFD_Main_1,26,26*%
%TO.N,/Dimmer_Output_Signal*%
X122858100Y-73632100D03*
%TO.P,PFD_Main_1,27,27*%
%TO.N,unconnected-(PFD_Main_1-Pad27)*%
X122858100Y-70862100D03*
%TO.P,PFD_Main_1,28,28*%
%TO.N,unconnected-(PFD_Main_1-Pad28)*%
X122858100Y-68092100D03*
%TO.P,PFD_Main_1,29,29*%
%TO.N,/GPS_Power*%
X122858100Y-65322100D03*
%TO.P,PFD_Main_1,30,30*%
%TO.N,/Audio_Out_GND*%
X122858100Y-62552100D03*
%TO.P,PFD_Main_1,31,31*%
%TO.N,/R_Audio_Out_1*%
X122858100Y-59782100D03*
%TO.P,PFD_Main_1,32,32*%
%TO.N,unconnected-(PFD_Main_1-Pad32)*%
X122858100Y-57012100D03*
%TO.P,PFD_Main_1,33,33*%
%TO.N,unconnected-(PFD_Main_1-Pad33)*%
X122858100Y-54242100D03*
%TO.P,PFD_Main_1,34,34*%
%TO.N,/SV_Data_1B*%
X122858100Y-51472100D03*
%TO.P,PFD_Main_1,35,35*%
%TO.N,/SV_Power_1*%
X122858100Y-48702100D03*
%TO.P,PFD_Main_1,36,36*%
%TO.N,/SV_Data_2A*%
X122858100Y-45932100D03*
%TO.P,PFD_Main_1,37,37*%
%TO.N,/SV_Power_2*%
X122858100Y-43162100D03*
%TD*%
D12*
%TO.P,SkyView_3,0,PAD*%
%TO.N,unconnected-(SkyView_3-PAD-Pad0)*%
X174622000Y-88069100D03*
X199622000Y-88069100D03*
D13*
%TO.P,SkyView_3,1,1*%
%TO.N,/SV_Data_1A*%
X181582000Y-86649100D03*
D10*
%TO.P,SkyView_3,2,2*%
%TO.N,/SV_GND_1*%
X184352000Y-86649100D03*
%TO.P,SkyView_3,3,3*%
%TO.N,/SV_GND_2*%
X187122000Y-86649100D03*
%TO.P,SkyView_3,4,4*%
%TO.N,/SV_Data_2B*%
X189892000Y-86649100D03*
%TO.P,SkyView_3,5,5*%
%TO.N,/SV_EMS_Aux*%
X192662000Y-86649100D03*
%TO.P,SkyView_3,6,6*%
%TO.N,/SV_Data_1B*%
X182967000Y-89489100D03*
%TO.P,SkyView_3,7,7*%
%TO.N,/SV_Power_1*%
X185737000Y-89489100D03*
%TO.P,SkyView_3,8,8*%
%TO.N,/SV_Data_2A*%
X188507000Y-89489100D03*
%TO.P,SkyView_3,9,9*%
%TO.N,/SV_Power_2*%
X191277000Y-89489100D03*
%TD*%
D12*
%TO.P,ADSB_Serial_1,0,PAD*%
%TO.N,unconnected-(ADSB_Serial_1-PAD-Pad0)*%
X134622000Y-88069100D03*
X159622000Y-88069100D03*
D13*
%TO.P,ADSB_Serial_1,1,1*%
%TO.N,GND*%
X141582000Y-86649100D03*
D10*
%TO.P,ADSB_Serial_1,2,2*%
%TO.N,/ADSB_XPNDR_IDENT_12V*%
X144352000Y-86649100D03*
%TO.P,ADSB_Serial_1,3,3*%
%TO.N,/ADSB_Serial_1_Tx*%
X147122000Y-86649100D03*
%TO.P,ADSB_Serial_1,4,4*%
%TO.N,/ADSB_Serial_1_Rx*%
X149892000Y-86649100D03*
%TO.P,ADSB_Serial_1,5,5*%
%TO.N,unconnected-(ADSB_Serial_1-Pad5)*%
X152662000Y-86649100D03*
%TO.P,ADSB_Serial_1,6,6*%
%TO.N,unconnected-(ADSB_Serial_1-Pad6)*%
X142967000Y-89489100D03*
%TO.P,ADSB_Serial_1,7,7*%
%TO.N,unconnected-(ADSB_Serial_1-Pad7)*%
X145737000Y-89489100D03*
%TO.P,ADSB_Serial_1,8,8*%
%TO.N,unconnected-(ADSB_Serial_1-Pad8)*%
X148507000Y-89489100D03*
%TO.P,ADSB_Serial_1,9,9*%
%TO.N,unconnected-(ADSB_Serial_1-Pad9)*%
X151277000Y-89489100D03*
%TD*%
D12*
%TO.P,XPNDR_Serial_2,0,PAD*%
%TO.N,unconnected-(XPNDR_Serial_2-PAD-Pad0)*%
X134361100Y-73069100D03*
X159361100Y-73069100D03*
D13*
%TO.P,XPNDR_Serial_2,1,1*%
%TO.N,GND*%
X141321100Y-71649100D03*
D10*
%TO.P,XPNDR_Serial_2,2,2*%
%TO.N,/ADSB_XPNDR_IDENT_12V*%
X144091100Y-71649100D03*
%TO.P,XPNDR_Serial_2,3,3*%
%TO.N,/XPNDR_Serial_2_Tx*%
X146861100Y-71649100D03*
%TO.P,XPNDR_Serial_2,4,4*%
%TO.N,/XPNDR_Serial_2_Rx*%
X149631100Y-71649100D03*
%TO.P,XPNDR_Serial_2,5,5*%
%TO.N,/Ident_SW_Input*%
X152401100Y-71649100D03*
%TO.P,XPNDR_Serial_2,6,6*%
%TO.N,/GPS_Serial_Input_to_XPNDR_from_R*%
X142706100Y-74489100D03*
%TO.P,XPNDR_Serial_2,7,7*%
%TO.N,unconnected-(XPNDR_Serial_2-Pad7)*%
X145476100Y-74489100D03*
%TO.P,XPNDR_Serial_2,8,8*%
%TO.N,unconnected-(XPNDR_Serial_2-Pad8)*%
X148246100Y-74489100D03*
%TO.P,XPNDR_Serial_2,9,9*%
%TO.N,unconnected-(XPNDR_Serial_2-Pad9)*%
X151016100Y-74489100D03*
%TD*%
D12*
%TO.P,AP_Pitch_SV_Net_1,0,PAD*%
%TO.N,unconnected-(AP_Pitch_SV_Net_1-PAD-Pad0)*%
X199892100Y-43085200D03*
X174892100Y-43085200D03*
D13*
%TO.P,AP_Pitch_SV_Net_1,1,1*%
%TO.N,/SV_Data_1A*%
X192932100Y-44505200D03*
D10*
%TO.P,AP_Pitch_SV_Net_1,2,2*%
%TO.N,GND*%
X190162100Y-44505200D03*
%TO.P,AP_Pitch_SV_Net_1,3,3*%
%TO.N,/AP_Disengage (Unused)*%
X187392100Y-44505200D03*
%TO.P,AP_Pitch_SV_Net_1,4,4*%
%TO.N,/SV_Data_2B*%
X184622100Y-44505200D03*
%TO.P,AP_Pitch_SV_Net_1,5,5*%
%TO.N,unconnected-(AP_Pitch_SV_Net_1-Pad5)*%
X181852100Y-44505200D03*
%TO.P,AP_Pitch_SV_Net_1,6,6*%
%TO.N,/SV_Data_1B*%
X191547100Y-41665200D03*
%TO.P,AP_Pitch_SV_Net_1,7,7*%
%TO.N,/SV-Net_AP_12V*%
X188777100Y-41665200D03*
%TO.P,AP_Pitch_SV_Net_1,8,8*%
%TO.N,/SV_Data_2A*%
X186007100Y-41665200D03*
%TO.P,AP_Pitch_SV_Net_1,9,9*%
%TO.N,unconnected-(AP_Pitch_SV_Net_1-Pad9)*%
X183237100Y-41665200D03*
%TD*%
D12*
%TO.P,Dimmer_&_Audio_Output_1,0,PAD*%
%TO.N,unconnected-(Dimmer_&_Audio_Output_1-PAD-Pad0)*%
X174622000Y-103069100D03*
X199622000Y-103069100D03*
D13*
%TO.P,Dimmer_&_Audio_Output_1,1,1*%
%TO.N,/L_Audio_Out_1*%
X181582000Y-101649100D03*
D10*
%TO.P,Dimmer_&_Audio_Output_1,2,2*%
%TO.N,/R_Audio_Out_1*%
X184352000Y-101649100D03*
%TO.P,Dimmer_&_Audio_Output_1,3,3*%
%TO.N,/Dimmer_Output_Signal*%
X187122000Y-101649100D03*
%TO.P,Dimmer_&_Audio_Output_1,4,4*%
%TO.N,unconnected-(Dimmer_&_Audio_Output_1-Pad4)*%
X189892000Y-101649100D03*
%TO.P,Dimmer_&_Audio_Output_1,5,5*%
%TO.N,unconnected-(Dimmer_&_Audio_Output_1-Pad5)*%
X192662000Y-101649100D03*
%TO.P,Dimmer_&_Audio_Output_1,6,6*%
%TO.N,/Audio_Out_GND*%
X182967000Y-104489100D03*
%TO.P,Dimmer_&_Audio_Output_1,7,7*%
%TO.N,/Dimmer_Output_Signal*%
X185737000Y-104489100D03*
%TO.P,Dimmer_&_Audio_Output_1,8,8*%
X188507000Y-104489100D03*
%TO.P,Dimmer_&_Audio_Output_1,9,9*%
%TO.N,unconnected-(Dimmer_&_Audio_Output_1-Pad9)*%
X191277000Y-104489100D03*
%TD*%
D12*
%TO.P,ELT_Serial_4,0,PAD*%
%TO.N,unconnected-(ELT_Serial_4-PAD-Pad0)*%
X134906100Y-43069100D03*
X159906100Y-43069100D03*
D13*
%TO.P,ELT_Serial_4,1,1*%
%TO.N,GND*%
X141866100Y-41649100D03*
D10*
%TO.P,ELT_Serial_4,2,2*%
%TO.N,/ELT_12V*%
X144636100Y-41649100D03*
%TO.P,ELT_Serial_4,3,3*%
%TO.N,/ELT_Serial_4_Tx*%
X147406100Y-41649100D03*
%TO.P,ELT_Serial_4,4,4*%
%TO.N,/ELT_Serial_4_Rx*%
X150176100Y-41649100D03*
%TO.P,ELT_Serial_4,5,5*%
%TO.N,unconnected-(ELT_Serial_4-Pad5)*%
X152946100Y-41649100D03*
%TO.P,ELT_Serial_4,6,6*%
%TO.N,unconnected-(ELT_Serial_4-Pad6)*%
X143251100Y-44489100D03*
%TO.P,ELT_Serial_4,7,7*%
%TO.N,unconnected-(ELT_Serial_4-Pad7)*%
X146021100Y-44489100D03*
%TO.P,ELT_Serial_4,8,8*%
%TO.N,unconnected-(ELT_Serial_4-Pad8)*%
X148791100Y-44489100D03*
%TO.P,ELT_Serial_4,9,9*%
%TO.N,unconnected-(ELT_Serial_4-Pad9)*%
X151561100Y-44489100D03*
%TD*%
D12*
%TO.P,GPS_Serial_5,0,PAD*%
%TO.N,unconnected-(GPS_Serial_5-PAD-Pad0)*%
X134622000Y-28069100D03*
X159622000Y-28069100D03*
D13*
%TO.P,GPS_Serial_5,1,1*%
%TO.N,/GPS_GND*%
X141582000Y-26649100D03*
D10*
%TO.P,GPS_Serial_5,2,2*%
%TO.N,/GPS_Power*%
X144352000Y-26649100D03*
%TO.P,GPS_Serial_5,3,3*%
%TO.N,/GPS_Serial_5_Tx*%
X147122000Y-26649100D03*
%TO.P,GPS_Serial_5,4,4*%
%TO.N,/GPS_Serial_5_Rx*%
X149892000Y-26649100D03*
%TO.P,GPS_Serial_5,5,5*%
%TO.N,unconnected-(GPS_Serial_5-Pad5)*%
X152662000Y-26649100D03*
%TO.P,GPS_Serial_5,6,6*%
%TO.N,unconnected-(GPS_Serial_5-Pad6)*%
X142967000Y-29489100D03*
%TO.P,GPS_Serial_5,7,7*%
%TO.N,unconnected-(GPS_Serial_5-Pad7)*%
X145737000Y-29489100D03*
%TO.P,GPS_Serial_5,8,8*%
%TO.N,unconnected-(GPS_Serial_5-Pad8)*%
X148507000Y-29489100D03*
%TO.P,GPS_Serial_5,9,9*%
%TO.N,unconnected-(GPS_Serial_5-Pad9)*%
X151277000Y-29489100D03*
%TD*%
D12*
%TO.P,Ident_&_Dimmer_Input_1,0,PAD*%
%TO.N,unconnected-(Ident_&_Dimmer_Input_1-PAD-Pad0)*%
X134622000Y-103069100D03*
X159622000Y-103069100D03*
D13*
%TO.P,Ident_&_Dimmer_Input_1,1,1*%
%TO.N,GND*%
X141582000Y-101649100D03*
D10*
%TO.P,Ident_&_Dimmer_Input_1,2,2*%
%TO.N,/Dimmer_Signal_Input*%
X144352000Y-101649100D03*
%TO.P,Ident_&_Dimmer_Input_1,3,3*%
%TO.N,unconnected-(Ident_&_Dimmer_Input_1-Pad3)*%
X147122000Y-101649100D03*
%TO.P,Ident_&_Dimmer_Input_1,4,4*%
%TO.N,/Dimmer_Output_Signal*%
X149892000Y-101649100D03*
%TO.P,Ident_&_Dimmer_Input_1,5,5*%
%TO.N,GND*%
X152662000Y-101649100D03*
%TO.P,Ident_&_Dimmer_Input_1,6,6*%
%TO.N,/PFD_&_Dim_12V*%
X142967000Y-104489100D03*
%TO.P,Ident_&_Dimmer_Input_1,7,7*%
%TO.N,/GPS_Serial_Input_to_XPNDR_to_R*%
X145737000Y-104489100D03*
%TO.P,Ident_&_Dimmer_Input_1,8,8*%
%TO.N,/Ident_SW_Input*%
X148507000Y-104489100D03*
%TO.P,Ident_&_Dimmer_Input_1,9,9*%
%TO.N,/ADSB_XPNDR_IDENT_12V*%
X151277000Y-104489100D03*
%TD*%
D12*
%TO.P,SkyView_1,0,PAD*%
%TO.N,unconnected-(SkyView_1-PAD-Pad0)*%
X174622000Y-58069100D03*
X199622000Y-58069100D03*
D13*
%TO.P,SkyView_1,1,1*%
%TO.N,/SV_Data_1A*%
X181582000Y-56649100D03*
D10*
%TO.P,SkyView_1,2,2*%
%TO.N,/SV_GND_1*%
X184352000Y-56649100D03*
%TO.P,SkyView_1,3,3*%
%TO.N,/SV_GND_2*%
X187122000Y-56649100D03*
%TO.P,SkyView_1,4,4*%
%TO.N,/SV_Data_2B*%
X189892000Y-56649100D03*
%TO.P,SkyView_1,5,5*%
%TO.N,/SV_EMS_Aux*%
X192662000Y-56649100D03*
%TO.P,SkyView_1,6,6*%
%TO.N,/SV_Data_1B*%
X182967000Y-59489100D03*
%TO.P,SkyView_1,7,7*%
%TO.N,/SV_Power_1*%
X185737000Y-59489100D03*
%TO.P,SkyView_1,8,8*%
%TO.N,/SV_Data_2A*%
X188507000Y-59489100D03*
%TO.P,SkyView_1,9,9*%
%TO.N,/SV_Power_2*%
X191277000Y-59489100D03*
%TD*%
D12*
%TO.P,VPX_Serial_3,0,PAD*%
%TO.N,unconnected-(VPX_Serial_3-PAD-Pad0)*%
X134622000Y-58069100D03*
X159622000Y-58069100D03*
D13*
%TO.P,VPX_Serial_3,1,1*%
%TO.N,GND*%
X141582000Y-56649100D03*
D10*
%TO.P,VPX_Serial_3,2,2*%
%TO.N,unconnected-(VPX_Serial_3-Pad2)*%
X144352000Y-56649100D03*
%TO.P,VPX_Serial_3,3,3*%
%TO.N,/VPX_Serial_3_Tx*%
X147122000Y-56649100D03*
%TO.P,VPX_Serial_3,4,4*%
%TO.N,/VPX_Serial_3_Rx*%
X149892000Y-56649100D03*
%TO.P,VPX_Serial_3,5,5*%
%TO.N,unconnected-(VPX_Serial_3-Pad5)*%
X152662000Y-56649100D03*
%TO.P,VPX_Serial_3,6,6*%
%TO.N,unconnected-(VPX_Serial_3-Pad6)*%
X142967000Y-59489100D03*
%TO.P,VPX_Serial_3,7,7*%
%TO.N,unconnected-(VPX_Serial_3-Pad7)*%
X145737000Y-59489100D03*
%TO.P,VPX_Serial_3,8,8*%
%TO.N,unconnected-(VPX_Serial_3-Pad8)*%
X148507000Y-59489100D03*
%TO.P,VPX_Serial_3,9,9*%
%TO.N,unconnected-(VPX_Serial_3-Pad9)*%
X151277000Y-59489100D03*
%TD*%
D14*
%TO.N,/GPS_Serial_5_Rx*%
X157295200Y-64146200D03*
%TO.N,/SV_Data_1A*%
X179447000Y-57495100D03*
%TO.N,/VPX_Serial_3_Tx*%
X147122000Y-69435600D03*
%TO.N,/ADSB_Serial_1_Rx*%
X141090500Y-91593500D03*
%TD*%
D15*
%TO.N,GND*%
X190162100Y-39547200D02*
X190162100Y-29505100D01*
D16*
%TO.N,/SV_Data_1A*%
X192070800Y-25428000D02*
X193545600Y-26902800D01*
X152977100Y-28069100D02*
X155618200Y-25428000D01*
X118215700Y-51054700D02*
X118215700Y-41022600D01*
X119782600Y-39455700D02*
X129355900Y-39455700D01*
X193545600Y-26902800D02*
X193545600Y-29505100D01*
X155618200Y-25428000D02*
X192070800Y-25428000D01*
X140742500Y-28069100D02*
X152977100Y-28069100D01*
X129355900Y-39455700D02*
X140742500Y-28069100D01*
X118215700Y-41022600D02*
X119782600Y-39455700D01*
X120018100Y-52857100D02*
X118215700Y-51054700D01*
%TO.N,/ADSB_XPNDR_IDENT_12V*%
X171415600Y-119489100D02*
X171119100Y-119489100D01*
X173743600Y-117161100D02*
X171415600Y-119489100D01*
X173743600Y-116123200D02*
X173743600Y-117161100D01*
X163926400Y-106306000D02*
X173743600Y-116123200D01*
X153093900Y-106306000D02*
X163926400Y-106306000D01*
X151277000Y-104489100D02*
X153093900Y-106306000D01*
%TO.N,/Dimmer_Output_Signal*%
X184495400Y-105730700D02*
X185737000Y-104489100D01*
X154253700Y-105730700D02*
X184495400Y-105730700D01*
X150172100Y-101649100D02*
X154253700Y-105730700D01*
X149892000Y-101649100D02*
X150172100Y-101649100D01*
D17*
%TO.N,/PFD_&_Dim_12V*%
X163745100Y-107890100D02*
X172504100Y-116649100D01*
X146368000Y-107890100D02*
X163745100Y-107890100D01*
X142967000Y-104489100D02*
X146368000Y-107890100D01*
X120018100Y-91637100D02*
X121870000Y-91637100D01*
X122858100Y-90252100D02*
X122858100Y-90746100D01*
X122761000Y-90746100D02*
X122858100Y-90746100D01*
X121870000Y-91637100D02*
X122761000Y-90746100D01*
X140391900Y-104489100D02*
X142967000Y-104489100D01*
X126648900Y-90746100D02*
X140391900Y-104489100D01*
X122858100Y-90746100D02*
X126648900Y-90746100D01*
D15*
%TO.N,GND*%
X141582000Y-101649100D02*
X141582000Y-99547200D01*
X152662000Y-101649100D02*
X152662000Y-99547200D01*
X165579100Y-119489100D02*
X162809100Y-119489100D01*
X164194100Y-116649100D02*
X161424100Y-116649100D01*
X165579100Y-119757500D02*
X165579100Y-119489100D01*
X167424200Y-121602600D02*
X165579100Y-119757500D01*
X180631600Y-121602600D02*
X167424200Y-121602600D01*
X194769100Y-107465100D02*
X180631600Y-121602600D01*
X194769100Y-99547200D02*
X194769100Y-107465100D01*
X152662000Y-99547200D02*
X194769100Y-99547200D01*
X214078300Y-87482100D02*
X213858100Y-87482100D01*
X215967500Y-89371300D02*
X214078300Y-87482100D01*
X215967500Y-91164600D02*
X215967500Y-89371300D01*
X212396100Y-94736000D02*
X215967500Y-91164600D01*
X199580300Y-94736000D02*
X212396100Y-94736000D01*
X194769100Y-99547200D02*
X199580300Y-94736000D01*
X141582000Y-86649100D02*
X139480100Y-86649100D01*
X137556200Y-84725200D02*
X139480100Y-86649100D01*
X122858100Y-84725200D02*
X137556200Y-84725200D01*
X122858100Y-87482100D02*
X122858100Y-84725200D01*
X122858100Y-84725200D02*
X122858100Y-84712100D01*
X152662000Y-99547200D02*
X141582000Y-99547200D01*
X139382700Y-86746500D02*
X139480100Y-86649100D01*
X139382700Y-97347900D02*
X139382700Y-86746500D01*
X141582000Y-99547200D02*
X139382700Y-97347900D01*
X141866100Y-41649100D02*
X141866100Y-39547200D01*
X192427600Y-39547200D02*
X190162100Y-39547200D01*
X195045000Y-42164600D02*
X192427600Y-39547200D01*
X195045000Y-45848600D02*
X195045000Y-42164600D01*
X194286500Y-46607100D02*
X195045000Y-45848600D01*
X191574900Y-46607100D02*
X194286500Y-46607100D01*
X190162100Y-45194300D02*
X191574900Y-46607100D01*
X190162100Y-44505200D02*
X190162100Y-45194300D01*
X190162100Y-39547200D02*
X141866100Y-39547200D01*
D16*
%TO.N,/SV_Power_2*%
X213858100Y-42793000D02*
X213858100Y-43162100D01*
X211604800Y-40539700D02*
X213858100Y-42793000D01*
X207046600Y-40539700D02*
X211604800Y-40539700D01*
X198982800Y-48603500D02*
X207046600Y-40539700D01*
X187020700Y-48603500D02*
X198982800Y-48603500D01*
X184764500Y-46347300D02*
X187020700Y-48603500D01*
X133971500Y-46347300D02*
X184764500Y-46347300D01*
X130786300Y-43162100D02*
X133971500Y-46347300D01*
X122858100Y-43162100D02*
X130786300Y-43162100D01*
X213858100Y-43448500D02*
X213858100Y-43162100D01*
X211295400Y-46011200D02*
X213858100Y-43448500D01*
X206161800Y-46011200D02*
X211295400Y-46011200D01*
X192683900Y-59489100D02*
X206161800Y-46011200D01*
X191277000Y-59489100D02*
X192683900Y-59489100D01*
%TO.N,/SV_Data_2A*%
X215105700Y-44684500D02*
X213858100Y-45932100D01*
X215105700Y-42621200D02*
X215105700Y-44684500D01*
X212417400Y-39932900D02*
X215105700Y-42621200D01*
X206479100Y-39932900D02*
X212417400Y-39932900D01*
X198376200Y-48035800D02*
X206479100Y-39932900D01*
X189182800Y-48035800D02*
X198376200Y-48035800D01*
X186007100Y-44860100D02*
X189182800Y-48035800D01*
X186007100Y-41665200D02*
X186007100Y-44860100D01*
X189741900Y-60724000D02*
X188507000Y-59489100D01*
X192500700Y-60724000D02*
X189741900Y-60724000D01*
X204522600Y-48702100D02*
X192500700Y-60724000D01*
X211432100Y-48702100D02*
X204522600Y-48702100D01*
X213858100Y-46276100D02*
X211432100Y-48702100D01*
X213858100Y-45932100D02*
X213858100Y-46276100D01*
%TO.N,/SV_Power_1*%
X184464900Y-58217000D02*
X185737000Y-59489100D01*
X179894600Y-58217000D02*
X184464900Y-58217000D01*
X179789600Y-58322000D02*
X179894600Y-58217000D01*
X179104500Y-58322000D02*
X179789600Y-58322000D01*
X169701300Y-48918800D02*
X179104500Y-58322000D01*
X123074800Y-48918800D02*
X169701300Y-48918800D01*
X122858100Y-48702100D02*
X123074800Y-48918800D01*
%TO.N,/SV_Data_1B*%
X179491000Y-59489100D02*
X182967000Y-59489100D01*
X171474000Y-51472100D02*
X179491000Y-59489100D01*
X122858100Y-51472100D02*
X171474000Y-51472100D01*
%TO.N,/GPS_Serial_5_Rx*%
X157086100Y-63937100D02*
X157295200Y-64146200D01*
X120018100Y-63937100D02*
X157086100Y-63937100D01*
X210358300Y-64596900D02*
X211018100Y-63937100D01*
X157745900Y-64596900D02*
X210358300Y-64596900D01*
X157295200Y-64146200D02*
X157745900Y-64596900D01*
%TO.N,/GPS_GND*%
X216258200Y-76772000D02*
X213858100Y-79172100D01*
X216258200Y-42099100D02*
X216258200Y-76772000D01*
X211543100Y-37384000D02*
X216258200Y-42099100D01*
X205758900Y-37384000D02*
X211543100Y-37384000D01*
X193250500Y-24875600D02*
X205758900Y-37384000D01*
X144352400Y-24875600D02*
X193250500Y-24875600D01*
X142808900Y-26419100D02*
X144352400Y-24875600D01*
X142808900Y-26649100D02*
X142808900Y-26419100D01*
X141582000Y-26649100D02*
X142808900Y-26649100D01*
%TO.N,/SV_EMS_Aux*%
X207534000Y-41777100D02*
X211018100Y-41777100D01*
X192662000Y-56649100D02*
X207534000Y-41777100D01*
X183827900Y-47815000D02*
X192662000Y-56649100D01*
X134658600Y-47815000D02*
X183827900Y-47815000D01*
X131390700Y-44547100D02*
X134658600Y-47815000D01*
X122444100Y-44547100D02*
X131390700Y-44547100D01*
X120018100Y-42121100D02*
X122444100Y-44547100D01*
X120018100Y-41777100D02*
X120018100Y-42121100D01*
%TO.N,/SV_Data_2B*%
X118767600Y-43296600D02*
X120018100Y-44547100D01*
X118767600Y-41251300D02*
X118767600Y-43296600D01*
X119475200Y-40543700D02*
X118767600Y-41251300D01*
X128948600Y-40543700D02*
X119475200Y-40543700D01*
X134200300Y-45795400D02*
X128948600Y-40543700D01*
X183331900Y-45795400D02*
X134200300Y-45795400D01*
X184622100Y-44505200D02*
X183331900Y-45795400D01*
X181609800Y-48366900D02*
X189892000Y-56649100D01*
X124258000Y-48366900D02*
X181609800Y-48366900D01*
X123293300Y-47402200D02*
X124258000Y-48366900D01*
X122575000Y-47402200D02*
X123293300Y-47402200D01*
X120018100Y-44845300D02*
X122575000Y-47402200D01*
X120018100Y-44547100D02*
X120018100Y-44845300D01*
X191133900Y-57891000D02*
X189892000Y-56649100D01*
X193414500Y-57891000D02*
X191133900Y-57891000D01*
X206758400Y-44547100D02*
X193414500Y-57891000D01*
X211018100Y-44547100D02*
X206758400Y-44547100D01*
%TO.N,/SV_GND_1*%
X184648500Y-56649100D02*
X184352000Y-56649100D01*
X187003700Y-59004300D02*
X184648500Y-56649100D01*
X187003700Y-59993000D02*
X187003700Y-59004300D01*
X120018100Y-50431100D02*
X120018100Y-50087100D01*
X122444100Y-52857100D02*
X120018100Y-50431100D01*
X150668800Y-52857100D02*
X122444100Y-52857100D01*
X158353300Y-60541600D02*
X150668800Y-52857100D01*
X162624600Y-60541600D02*
X158353300Y-60541600D01*
X162803600Y-60720600D02*
X162624600Y-60541600D01*
X186276100Y-60720600D02*
X162803600Y-60720600D01*
X187003700Y-59993000D02*
X186276100Y-60720600D01*
X204093100Y-50087100D02*
X211018100Y-50087100D01*
X192896200Y-61284000D02*
X204093100Y-50087100D01*
X188294700Y-61284000D02*
X192896200Y-61284000D01*
X187003700Y-59993000D02*
X188294700Y-61284000D01*
%TO.N,/SV_Data_1A*%
X192932100Y-29505100D02*
X193545600Y-29505100D01*
X180293000Y-56649100D02*
X179447000Y-57495100D01*
X181582000Y-56649100D02*
X180293000Y-56649100D01*
X214212700Y-52857100D02*
X211018100Y-52857100D01*
X215679800Y-51390000D02*
X214212700Y-52857100D01*
X215679800Y-42363800D02*
X215679800Y-51390000D01*
X211543400Y-38227400D02*
X215679800Y-42363800D01*
X202267900Y-38227400D02*
X211543400Y-38227400D01*
X193545600Y-29505100D02*
X202267900Y-38227400D01*
%TO.N,/GPS_Serial_5_Tx*%
X208692100Y-63493100D02*
X211018100Y-61167100D01*
X158731300Y-63493100D02*
X208692100Y-63493100D01*
X158005100Y-62766900D02*
X158731300Y-63493100D01*
X124935300Y-62766900D02*
X158005100Y-62766900D01*
X123335500Y-61167100D02*
X124935300Y-62766900D01*
X120018100Y-61167100D02*
X123335500Y-61167100D01*
%TO.N,/GPS_Power*%
X122858100Y-65322100D02*
X213858100Y-65322100D01*
%TO.N,/ELT_Serial_4_Tx*%
X120018100Y-66707100D02*
X211018100Y-66707100D01*
%TO.N,/ELT_Serial_4_Rx*%
X132052200Y-69477100D02*
X120018100Y-69477100D01*
X132920600Y-68608700D02*
X132052200Y-69477100D01*
X210149700Y-68608700D02*
X132920600Y-68608700D01*
X211018100Y-69477100D02*
X210149700Y-68608700D01*
%TO.N,/VPX_Serial_3_Tx*%
X147244700Y-69312900D02*
X147122000Y-69435600D01*
X208083900Y-69312900D02*
X147244700Y-69312900D01*
X211018100Y-72247100D02*
X208083900Y-69312900D01*
X130104300Y-72247100D02*
X120018100Y-72247100D01*
X132915800Y-69435600D02*
X130104300Y-72247100D01*
X147122000Y-69435600D02*
X132915800Y-69435600D01*
%TO.N,/VPX_Serial_3_Rx*%
X148637400Y-55394500D02*
X149892000Y-56649100D01*
X140632900Y-55394500D02*
X148637400Y-55394500D01*
X140548600Y-55478800D02*
X140632900Y-55394500D01*
X122359800Y-55478800D02*
X140548600Y-55478800D01*
X121218700Y-54337700D02*
X122359800Y-55478800D01*
X119525300Y-54337700D02*
X121218700Y-54337700D01*
X118764100Y-55098900D02*
X119525300Y-54337700D01*
X118764100Y-73763100D02*
X118764100Y-55098900D01*
X120018100Y-75017100D02*
X118764100Y-73763100D01*
X150289700Y-56649100D02*
X149892000Y-56649100D01*
X154750300Y-61109700D02*
X150289700Y-56649100D01*
X162412100Y-61109700D02*
X154750300Y-61109700D01*
X163139800Y-61837400D02*
X162412100Y-61109700D01*
X199285900Y-61837400D02*
X163139800Y-61837400D01*
X203992900Y-57130400D02*
X199285900Y-61837400D01*
X212123800Y-57130400D02*
X203992900Y-57130400D01*
X213475600Y-58482200D02*
X212123800Y-57130400D01*
X214293300Y-58482200D02*
X213475600Y-58482200D01*
X215137200Y-59326100D02*
X214293300Y-58482200D01*
X215137200Y-71366800D02*
X215137200Y-59326100D01*
X214256900Y-72247100D02*
X215137200Y-71366800D01*
X213430300Y-72247100D02*
X214256900Y-72247100D01*
X211018100Y-74659300D02*
X213430300Y-72247100D01*
X211018100Y-75017100D02*
X211018100Y-74659300D01*
%TO.N,/XPNDR_Serial_2_Tx*%
X203647700Y-70416700D02*
X211018100Y-77787100D01*
X148131400Y-70416700D02*
X203647700Y-70416700D01*
X146899000Y-71649100D02*
X148131400Y-70416700D01*
X146861100Y-71649100D02*
X146899000Y-71649100D01*
X135759200Y-77787100D02*
X120018100Y-77787100D01*
X140477100Y-73069200D02*
X135759200Y-77787100D01*
X145441000Y-73069200D02*
X140477100Y-73069200D01*
X146861100Y-71649100D02*
X145441000Y-73069200D01*
%TO.N,/XPNDR_Serial_2_Rx*%
X158819200Y-80557100D02*
X211018100Y-80557100D01*
X149911200Y-71649100D02*
X158819200Y-80557100D01*
X149631100Y-71649100D02*
X149911200Y-71649100D01*
X149332900Y-71649100D02*
X149631100Y-71649100D01*
X146776000Y-74206000D02*
X149332900Y-71649100D01*
X146776000Y-74924300D02*
X146776000Y-74206000D01*
X141143200Y-80557100D02*
X146776000Y-74924300D01*
X120018100Y-80557100D02*
X141143200Y-80557100D01*
%TO.N,/ADSB_Serial_1_Tx*%
X150444000Y-83327100D02*
X147122000Y-86649100D01*
X211018100Y-83327100D02*
X150444000Y-83327100D01*
X120088800Y-83256400D02*
X120018100Y-83327100D01*
X143729300Y-83256400D02*
X120088800Y-83256400D01*
X147122000Y-86649100D02*
X143729300Y-83256400D01*
%TO.N,/ADSB_Serial_1_Rx*%
X151127700Y-85413400D02*
X149892000Y-86649100D01*
X210334400Y-85413400D02*
X151127700Y-85413400D01*
X211018100Y-86097100D02*
X210334400Y-85413400D01*
X141090500Y-89527600D02*
X141090500Y-91593500D01*
X142543600Y-88074500D02*
X141090500Y-89527600D01*
X148466600Y-88074500D02*
X142543600Y-88074500D01*
X149892000Y-86649100D02*
X148466600Y-88074500D01*
%TO.N,/Audio_Out_GND*%
X210488900Y-62552100D02*
X213858100Y-62552100D01*
X208996000Y-64045000D02*
X210488900Y-62552100D01*
X158502600Y-64045000D02*
X208996000Y-64045000D01*
X157776400Y-63318800D02*
X158502600Y-64045000D01*
X123624800Y-63318800D02*
X157776400Y-63318800D01*
X122858100Y-62552100D02*
X123624800Y-63318800D01*
%TO.N,/L_Audio_Out_1*%
X207025900Y-62389300D02*
X211018100Y-58397100D01*
X162032100Y-62389300D02*
X207025900Y-62389300D01*
X161305800Y-61663000D02*
X162032100Y-62389300D01*
X133227600Y-61663000D02*
X161305800Y-61663000D01*
X129961700Y-58397100D02*
X133227600Y-61663000D01*
X120018100Y-58397100D02*
X129961700Y-58397100D01*
%TO.N,/R_Audio_Out_1*%
X210413800Y-59782100D02*
X213858100Y-59782100D01*
X207254700Y-62941200D02*
X210413800Y-59782100D01*
X158960000Y-62941200D02*
X207254700Y-62941200D01*
X158233800Y-62215000D02*
X158960000Y-62941200D01*
X125291000Y-62215000D02*
X158233800Y-62215000D01*
X122858100Y-59782100D02*
X125291000Y-62215000D01*
%TO.N,/Dimmer_Signal_Input*%
X210540700Y-76402100D02*
X213858100Y-76402100D01*
X204003400Y-69864800D02*
X210540700Y-76402100D01*
X147902700Y-69864800D02*
X204003400Y-69864800D01*
X147505000Y-70262500D02*
X147902700Y-69864800D01*
X132978100Y-70262500D02*
X147505000Y-70262500D01*
X126838500Y-76402100D02*
X132978100Y-70262500D01*
X122858100Y-76402100D02*
X126838500Y-76402100D01*
%TD*%
M02*
