%TF.GenerationSoftware,KiCad,Pcbnew,7.0.9*%
%TF.CreationDate,2024-01-18T11:01:42-08:00*%
%TF.ProjectId,Interconnect Board,496e7465-7263-46f6-9e6e-65637420426f,v1.4*%
%TF.SameCoordinates,Original*%
%TF.FileFunction,Copper,L2,Bot*%
%TF.FilePolarity,Positive*%
%FSLAX46Y46*%
G04 Gerber Fmt 4.6, Leading zero omitted, Abs format (unit mm)*
G04 Created by KiCad (PCBNEW 7.0.9) date 2024-01-18 11:01:42*
%MOMM*%
%LPD*%
G01*
G04 APERTURE LIST*
%TA.AperFunction,ComponentPad*%
%ADD10C,1.600000*%
%TD*%
%TA.AperFunction,ComponentPad*%
%ADD11O,1.600000X1.600000*%
%TD*%
%TA.AperFunction,ComponentPad*%
%ADD12C,4.000000*%
%TD*%
%TA.AperFunction,ComponentPad*%
%ADD13R,1.600000X1.600000*%
%TD*%
%TA.AperFunction,ViaPad*%
%ADD14C,0.800000*%
%TD*%
%TA.AperFunction,Conductor*%
%ADD15C,0.250000*%
%TD*%
%TA.AperFunction,Conductor*%
%ADD16C,2.000000*%
%TD*%
%TA.AperFunction,Conductor*%
%ADD17C,2.500000*%
%TD*%
%TA.AperFunction,Conductor*%
%ADD18C,1.599800*%
%TD*%
G04 APERTURE END LIST*
D10*
%TO.P,R1,1*%
%TO.N,/GPS_Serial_Input_to_XPNDR_from_R*%
X132220100Y-118509100D03*
D11*
%TO.P,R1,2*%
%TO.N,/GPS_Serial_Input_to_XPNDR_to_R*%
X142380100Y-118509100D03*
%TD*%
D12*
%TO.P,Power_Input_1,0,PAD*%
%TO.N,unconnected-(Power_Input_1-PAD-Pad0)*%
X154464100Y-118069100D03*
X179464100Y-118069100D03*
D13*
%TO.P,Power_Input_1,1,1*%
%TO.N,GND*%
X161424100Y-116649100D03*
D10*
%TO.P,Power_Input_1,2,2*%
X164194100Y-116649100D03*
%TO.P,Power_Input_1,3,3*%
%TO.N,/ADSB_12V*%
X166964100Y-116649100D03*
%TO.P,Power_Input_1,4,4*%
%TO.N,/MFD_12V*%
X169734100Y-116649100D03*
%TO.P,Power_Input_1,5,5*%
%TO.N,/PFD_&_Dim_12V*%
X172504100Y-116649100D03*
%TO.P,Power_Input_1,6,6*%
%TO.N,GND*%
X162809100Y-119489100D03*
%TO.P,Power_Input_1,7,7*%
%TO.N,/ELT_12V*%
X165579100Y-119489100D03*
%TO.P,Power_Input_1,8,8*%
%TO.N,/SV-Net_AP_12V*%
X168349100Y-119489100D03*
%TO.P,Power_Input_1,9,9*%
%TO.N,/XPNDR_&_IDENT_12V*%
X171119100Y-119489100D03*
%TD*%
D12*
%TO.P,AP_Roll_SV_Net_2,0,PAD*%
%TO.N,unconnected-(AP_Roll_SV_Net_2-PAD-Pad0)*%
X199892100Y-28085100D03*
X174892100Y-28085100D03*
D13*
%TO.P,AP_Roll_SV_Net_2,1,1*%
%TO.N,/SV_Data_1A*%
X192932100Y-29505100D03*
D10*
%TO.P,AP_Roll_SV_Net_2,2,2*%
%TO.N,GND*%
X190162100Y-29505100D03*
%TO.P,AP_Roll_SV_Net_2,3,3*%
%TO.N,/AP_Disengage (Unused)*%
X187392100Y-29505100D03*
%TO.P,AP_Roll_SV_Net_2,4,4*%
%TO.N,/SV_Data_2B*%
X184622100Y-29505100D03*
%TO.P,AP_Roll_SV_Net_2,5,5*%
%TO.N,unconnected-(AP_Roll_SV_Net_2-Pad5)*%
X181852100Y-29505100D03*
%TO.P,AP_Roll_SV_Net_2,6,6*%
%TO.N,/SV_Data_1B*%
X191547100Y-26665100D03*
%TO.P,AP_Roll_SV_Net_2,7,7*%
%TO.N,/SV-Net_AP_12V*%
X188777100Y-26665100D03*
%TO.P,AP_Roll_SV_Net_2,8,8*%
%TO.N,/SV_Data_2A*%
X186007100Y-26665100D03*
%TO.P,AP_Roll_SV_Net_2,9,9*%
%TO.N,unconnected-(AP_Roll_SV_Net_2-Pad9)*%
X183237100Y-26665100D03*
%TD*%
D12*
%TO.P,XPNDR_Serial_2,0,PAD*%
%TO.N,unconnected-(XPNDR_Serial_2-PAD-Pad0)*%
X134361100Y-73069100D03*
X159361100Y-73069100D03*
D13*
%TO.P,XPNDR_Serial_2,1,1*%
%TO.N,GND*%
X141321100Y-71649100D03*
D10*
%TO.P,XPNDR_Serial_2,2,2*%
%TO.N,/XPNDR_&_IDENT_12V*%
X144091100Y-71649100D03*
%TO.P,XPNDR_Serial_2,3,3*%
%TO.N,/XPNDR_Serial_2_Tx*%
X146861100Y-71649100D03*
%TO.P,XPNDR_Serial_2,4,4*%
%TO.N,/XPNDR_Serial_2_Rx*%
X149631100Y-71649100D03*
%TO.P,XPNDR_Serial_2,5,5*%
%TO.N,/Ident_SW_Input*%
X152401100Y-71649100D03*
%TO.P,XPNDR_Serial_2,6,6*%
%TO.N,/GPS_Serial_Input_to_XPNDR_from_R*%
X142706100Y-74489100D03*
%TO.P,XPNDR_Serial_2,7,7*%
%TO.N,unconnected-(XPNDR_Serial_2-Pad7)*%
X145476100Y-74489100D03*
%TO.P,XPNDR_Serial_2,8,8*%
%TO.N,unconnected-(XPNDR_Serial_2-Pad8)*%
X148246100Y-74489100D03*
%TO.P,XPNDR_Serial_2,9,9*%
%TO.N,unconnected-(XPNDR_Serial_2-Pad9)*%
X151016100Y-74489100D03*
%TD*%
D12*
%TO.P,SkyView_2,0,PAD*%
%TO.N,unconnected-(SkyView_2-PAD-Pad0)*%
X174622000Y-73069100D03*
X199622000Y-73069100D03*
D13*
%TO.P,SkyView_2,1,1*%
%TO.N,/SV_Data_1A*%
X181582000Y-71649100D03*
D10*
%TO.P,SkyView_2,2,2*%
%TO.N,/SV_GND_1*%
X184352000Y-71649100D03*
%TO.P,SkyView_2,3,3*%
%TO.N,/SV_GND_2*%
X187122000Y-71649100D03*
%TO.P,SkyView_2,4,4*%
%TO.N,/SV_Data_2B*%
X189892000Y-71649100D03*
%TO.P,SkyView_2,5,5*%
%TO.N,/SV_EMS_Aux*%
X192662000Y-71649100D03*
%TO.P,SkyView_2,6,6*%
%TO.N,/SV_Data_1B*%
X182967000Y-74489100D03*
%TO.P,SkyView_2,7,7*%
%TO.N,/SV_Power_1*%
X185737000Y-74489100D03*
%TO.P,SkyView_2,8,8*%
%TO.N,/SV_Data_2A*%
X188507000Y-74489100D03*
%TO.P,SkyView_2,9,9*%
%TO.N,/SV_Power_2*%
X191277000Y-74489100D03*
%TD*%
D12*
%TO.P,AP_Pitch_SV_Net_1,0,PAD*%
%TO.N,unconnected-(AP_Pitch_SV_Net_1-PAD-Pad0)*%
X199892100Y-43085200D03*
X174892100Y-43085200D03*
D13*
%TO.P,AP_Pitch_SV_Net_1,1,1*%
%TO.N,/SV_Data_1A*%
X192932100Y-44505200D03*
D10*
%TO.P,AP_Pitch_SV_Net_1,2,2*%
%TO.N,GND*%
X190162100Y-44505200D03*
%TO.P,AP_Pitch_SV_Net_1,3,3*%
%TO.N,/AP_Disengage (Unused)*%
X187392100Y-44505200D03*
%TO.P,AP_Pitch_SV_Net_1,4,4*%
%TO.N,/SV_Data_2B*%
X184622100Y-44505200D03*
%TO.P,AP_Pitch_SV_Net_1,5,5*%
%TO.N,unconnected-(AP_Pitch_SV_Net_1-Pad5)*%
X181852100Y-44505200D03*
%TO.P,AP_Pitch_SV_Net_1,6,6*%
%TO.N,/SV_Data_1B*%
X191547100Y-41665200D03*
%TO.P,AP_Pitch_SV_Net_1,7,7*%
%TO.N,/SV-Net_AP_12V*%
X188777100Y-41665200D03*
%TO.P,AP_Pitch_SV_Net_1,8,8*%
%TO.N,/SV_Data_2A*%
X186007100Y-41665200D03*
%TO.P,AP_Pitch_SV_Net_1,9,9*%
%TO.N,unconnected-(AP_Pitch_SV_Net_1-Pad9)*%
X183237100Y-41665200D03*
%TD*%
D12*
%TO.P,Dimmer_&_Audio_Output_1,0,PAD*%
%TO.N,unconnected-(Dimmer_&_Audio_Output_1-PAD-Pad0)*%
X174622000Y-103069100D03*
X199622000Y-103069100D03*
D13*
%TO.P,Dimmer_&_Audio_Output_1,1,1*%
%TO.N,/L_Audio_Out_1*%
X181582000Y-101649100D03*
D10*
%TO.P,Dimmer_&_Audio_Output_1,2,2*%
%TO.N,/R_Audio_Out_1*%
X184352000Y-101649100D03*
%TO.P,Dimmer_&_Audio_Output_1,3,3*%
%TO.N,/Dimmer_Output_Signal*%
X187122000Y-101649100D03*
%TO.P,Dimmer_&_Audio_Output_1,4,4*%
%TO.N,unconnected-(Dimmer_&_Audio_Output_1-Pad4)*%
X189892000Y-101649100D03*
%TO.P,Dimmer_&_Audio_Output_1,5,5*%
%TO.N,unconnected-(Dimmer_&_Audio_Output_1-Pad5)*%
X192662000Y-101649100D03*
%TO.P,Dimmer_&_Audio_Output_1,6,6*%
%TO.N,/Audio_Out_GND*%
X182967000Y-104489100D03*
%TO.P,Dimmer_&_Audio_Output_1,7,7*%
%TO.N,/Dimmer_Output_Signal*%
X185737000Y-104489100D03*
%TO.P,Dimmer_&_Audio_Output_1,8,8*%
X188507000Y-104489100D03*
%TO.P,Dimmer_&_Audio_Output_1,9,9*%
%TO.N,unconnected-(Dimmer_&_Audio_Output_1-Pad9)*%
X191277000Y-104489100D03*
%TD*%
D12*
%TO.P,MFD_Main_2,0,PAD*%
%TO.N,unconnected-(MFD_Main_2-PAD-Pad0)*%
X212438100Y-98457100D03*
X212438100Y-34957100D03*
D13*
%TO.P,MFD_Main_2,1,1*%
%TO.N,/MFD_12V*%
X211018100Y-91637100D03*
D10*
%TO.P,MFD_Main_2,2,2*%
%TO.N,unconnected-(MFD_Main_2-Pad2)*%
X211018100Y-88867100D03*
%TO.P,MFD_Main_2,3,3*%
%TO.N,/ADSB_Serial_1_Rx*%
X211018100Y-86097100D03*
%TO.P,MFD_Main_2,4,4*%
%TO.N,/ADSB_Serial_1_Tx*%
X211018100Y-83327100D03*
%TO.P,MFD_Main_2,5,5*%
%TO.N,/XPNDR_Serial_2_Rx*%
X211018100Y-80557100D03*
%TO.P,MFD_Main_2,6,6*%
%TO.N,/XPNDR_Serial_2_Tx*%
X211018100Y-77787100D03*
%TO.P,MFD_Main_2,7,7*%
%TO.N,/VPX_Serial_3_Rx*%
X211018100Y-75017100D03*
%TO.P,MFD_Main_2,8,8*%
%TO.N,/VPX_Serial_3_Tx*%
X211018100Y-72247100D03*
%TO.P,MFD_Main_2,9,9*%
%TO.N,/ELT_Serial_4_Rx*%
X211018100Y-69477100D03*
%TO.P,MFD_Main_2,10,10*%
%TO.N,/ELT_Serial_4_Tx*%
X211018100Y-66707100D03*
%TO.P,MFD_Main_2,11,11*%
%TO.N,/GPS_Serial_5_Rx*%
X211018100Y-63937100D03*
%TO.P,MFD_Main_2,12,12*%
%TO.N,/GPS_Serial_5_Tx*%
X211018100Y-61167100D03*
%TO.P,MFD_Main_2,13,13*%
%TO.N,/L_Audio_Out_1*%
X211018100Y-58397100D03*
%TO.P,MFD_Main_2,14,14*%
%TO.N,unconnected-(MFD_Main_2-Pad14)*%
X211018100Y-55627100D03*
%TO.P,MFD_Main_2,15,15*%
%TO.N,/SV_Data_1A*%
X211018100Y-52857100D03*
%TO.P,MFD_Main_2,16,16*%
%TO.N,/SV_GND_1*%
X211018100Y-50087100D03*
%TO.P,MFD_Main_2,17,17*%
%TO.N,/SV_GND_2*%
X211018100Y-47317100D03*
%TO.P,MFD_Main_2,18,18*%
%TO.N,/SV_Data_2B*%
X211018100Y-44547100D03*
%TO.P,MFD_Main_2,19,19*%
%TO.N,/SV_EMS_Aux*%
X211018100Y-41777100D03*
%TO.P,MFD_Main_2,20,20*%
%TO.N,/MFD_12V*%
X213858100Y-90252100D03*
%TO.P,MFD_Main_2,21,21*%
%TO.N,GND*%
X213858100Y-87482100D03*
%TO.P,MFD_Main_2,22,22*%
X213858100Y-84712100D03*
%TO.P,MFD_Main_2,23,23*%
%TO.N,unconnected-(MFD_Main_2-Pad23)*%
X213858100Y-81942100D03*
%TO.P,MFD_Main_2,24,24*%
%TO.N,/GPS_GND*%
X213858100Y-79172100D03*
%TO.P,MFD_Main_2,25,25*%
%TO.N,/Dimmer_Signal_Input*%
X213858100Y-76402100D03*
%TO.P,MFD_Main_2,26,26*%
%TO.N,unconnected-(MFD_Main_2-Pad26)*%
X213858100Y-73632100D03*
%TO.P,MFD_Main_2,27,27*%
%TO.N,unconnected-(MFD_Main_2-Pad27)*%
X213858100Y-70862100D03*
%TO.P,MFD_Main_2,28,28*%
%TO.N,unconnected-(MFD_Main_2-Pad28)*%
X213858100Y-68092100D03*
%TO.P,MFD_Main_2,29,29*%
%TO.N,/GPS_Power*%
X213858100Y-65322100D03*
%TO.P,MFD_Main_2,30,30*%
%TO.N,/Audio_Out_GND*%
X213858100Y-62552100D03*
%TO.P,MFD_Main_2,31,31*%
%TO.N,/R_Audio_Out_1*%
X213858100Y-59782100D03*
%TO.P,MFD_Main_2,32,32*%
%TO.N,unconnected-(MFD_Main_2-Pad32)*%
X213858100Y-57012100D03*
%TO.P,MFD_Main_2,33,33*%
%TO.N,unconnected-(MFD_Main_2-Pad33)*%
X213858100Y-54242100D03*
%TO.P,MFD_Main_2,34,34*%
%TO.N,/SV_Data_1B*%
X213858100Y-51472100D03*
%TO.P,MFD_Main_2,35,35*%
%TO.N,/SV_Power_1*%
X213858100Y-48702100D03*
%TO.P,MFD_Main_2,36,36*%
%TO.N,/SV_Data_2A*%
X213858100Y-45932100D03*
%TO.P,MFD_Main_2,37,37*%
%TO.N,/SV_Power_2*%
X213858100Y-43162100D03*
%TD*%
D12*
%TO.P,PFD_Main_1,0,PAD*%
%TO.N,unconnected-(PFD_Main_1-PAD-Pad0)*%
X121438100Y-98457100D03*
X121438100Y-34957100D03*
D13*
%TO.P,PFD_Main_1,1,1*%
%TO.N,/PFD_&_Dim_12V*%
X120018100Y-91637100D03*
D10*
%TO.P,PFD_Main_1,2,2*%
%TO.N,unconnected-(PFD_Main_1-Pad2)*%
X120018100Y-88867100D03*
%TO.P,PFD_Main_1,3,3*%
%TO.N,/ADSB_Serial_1_Rx*%
X120018100Y-86097100D03*
%TO.P,PFD_Main_1,4,4*%
%TO.N,/ADSB_Serial_1_Tx*%
X120018100Y-83327100D03*
%TO.P,PFD_Main_1,5,5*%
%TO.N,/XPNDR_Serial_2_Rx*%
X120018100Y-80557100D03*
%TO.P,PFD_Main_1,6,6*%
%TO.N,/XPNDR_Serial_2_Tx*%
X120018100Y-77787100D03*
%TO.P,PFD_Main_1,7,7*%
%TO.N,/VPX_Serial_3_Rx*%
X120018100Y-75017100D03*
%TO.P,PFD_Main_1,8,8*%
%TO.N,/VPX_Serial_3_Tx*%
X120018100Y-72247100D03*
%TO.P,PFD_Main_1,9,9*%
%TO.N,/ELT_Serial_4_Rx*%
X120018100Y-69477100D03*
%TO.P,PFD_Main_1,10,10*%
%TO.N,/ELT_Serial_4_Tx*%
X120018100Y-66707100D03*
%TO.P,PFD_Main_1,11,11*%
%TO.N,/GPS_Serial_5_Rx*%
X120018100Y-63937100D03*
%TO.P,PFD_Main_1,12,12*%
%TO.N,/GPS_Serial_5_Tx*%
X120018100Y-61167100D03*
%TO.P,PFD_Main_1,13,13*%
%TO.N,/L_Audio_Out_1*%
X120018100Y-58397100D03*
%TO.P,PFD_Main_1,14,14*%
%TO.N,unconnected-(PFD_Main_1-Pad14)*%
X120018100Y-55627100D03*
%TO.P,PFD_Main_1,15,15*%
%TO.N,/SV_Data_1A*%
X120018100Y-52857100D03*
%TO.P,PFD_Main_1,16,16*%
%TO.N,/SV_GND_1*%
X120018100Y-50087100D03*
%TO.P,PFD_Main_1,17,17*%
%TO.N,/SV_GND_2*%
X120018100Y-47317100D03*
%TO.P,PFD_Main_1,18,18*%
%TO.N,/SV_Data_2B*%
X120018100Y-44547100D03*
%TO.P,PFD_Main_1,19,19*%
%TO.N,/SV_EMS_Aux*%
X120018100Y-41777100D03*
%TO.P,PFD_Main_1,20,20*%
%TO.N,/PFD_&_Dim_12V*%
X122858100Y-90252100D03*
%TO.P,PFD_Main_1,21,21*%
%TO.N,GND*%
X122858100Y-87482100D03*
%TO.P,PFD_Main_1,22,22*%
X122858100Y-84712100D03*
%TO.P,PFD_Main_1,23,23*%
%TO.N,unconnected-(PFD_Main_1-Pad23)*%
X122858100Y-81942100D03*
%TO.P,PFD_Main_1,24,24*%
%TO.N,/GPS_GND*%
X122858100Y-79172100D03*
%TO.P,PFD_Main_1,25,25*%
%TO.N,/Dimmer_Signal_Input*%
X122858100Y-76402100D03*
%TO.P,PFD_Main_1,26,26*%
%TO.N,/Dimmer_Output_Signal*%
X122858100Y-73632100D03*
%TO.P,PFD_Main_1,27,27*%
%TO.N,unconnected-(PFD_Main_1-Pad27)*%
X122858100Y-70862100D03*
%TO.P,PFD_Main_1,28,28*%
%TO.N,unconnected-(PFD_Main_1-Pad28)*%
X122858100Y-68092100D03*
%TO.P,PFD_Main_1,29,29*%
%TO.N,/GPS_Power*%
X122858100Y-65322100D03*
%TO.P,PFD_Main_1,30,30*%
%TO.N,/Audio_Out_GND*%
X122858100Y-62552100D03*
%TO.P,PFD_Main_1,31,31*%
%TO.N,/R_Audio_Out_1*%
X122858100Y-59782100D03*
%TO.P,PFD_Main_1,32,32*%
%TO.N,unconnected-(PFD_Main_1-Pad32)*%
X122858100Y-57012100D03*
%TO.P,PFD_Main_1,33,33*%
%TO.N,unconnected-(PFD_Main_1-Pad33)*%
X122858100Y-54242100D03*
%TO.P,PFD_Main_1,34,34*%
%TO.N,/SV_Data_1B*%
X122858100Y-51472100D03*
%TO.P,PFD_Main_1,35,35*%
%TO.N,/SV_Power_1*%
X122858100Y-48702100D03*
%TO.P,PFD_Main_1,36,36*%
%TO.N,/SV_Data_2A*%
X122858100Y-45932100D03*
%TO.P,PFD_Main_1,37,37*%
%TO.N,/SV_Power_2*%
X122858100Y-43162100D03*
%TD*%
D12*
%TO.P,SkyView_3,0,PAD*%
%TO.N,unconnected-(SkyView_3-PAD-Pad0)*%
X174622000Y-88069100D03*
X199622000Y-88069100D03*
D13*
%TO.P,SkyView_3,1,1*%
%TO.N,/SV_Data_1A*%
X181582000Y-86649100D03*
D10*
%TO.P,SkyView_3,2,2*%
%TO.N,/SV_GND_1*%
X184352000Y-86649100D03*
%TO.P,SkyView_3,3,3*%
%TO.N,/SV_GND_2*%
X187122000Y-86649100D03*
%TO.P,SkyView_3,4,4*%
%TO.N,/SV_Data_2B*%
X189892000Y-86649100D03*
%TO.P,SkyView_3,5,5*%
%TO.N,/SV_EMS_Aux*%
X192662000Y-86649100D03*
%TO.P,SkyView_3,6,6*%
%TO.N,/SV_Data_1B*%
X182967000Y-89489100D03*
%TO.P,SkyView_3,7,7*%
%TO.N,/SV_Power_1*%
X185737000Y-89489100D03*
%TO.P,SkyView_3,8,8*%
%TO.N,/SV_Data_2A*%
X188507000Y-89489100D03*
%TO.P,SkyView_3,9,9*%
%TO.N,/SV_Power_2*%
X191277000Y-89489100D03*
%TD*%
D12*
%TO.P,ADSB_Serial_1,0,PAD*%
%TO.N,unconnected-(ADSB_Serial_1-PAD-Pad0)*%
X134622000Y-88069100D03*
X159622000Y-88069100D03*
D13*
%TO.P,ADSB_Serial_1,1,1*%
%TO.N,GND*%
X141582000Y-86649100D03*
D10*
%TO.P,ADSB_Serial_1,2,2*%
%TO.N,/ADSB_12V*%
X144352000Y-86649100D03*
%TO.P,ADSB_Serial_1,3,3*%
%TO.N,/ADSB_Serial_1_Tx*%
X147122000Y-86649100D03*
%TO.P,ADSB_Serial_1,4,4*%
%TO.N,/ADSB_Serial_1_Rx*%
X149892000Y-86649100D03*
%TO.P,ADSB_Serial_1,5,5*%
%TO.N,unconnected-(ADSB_Serial_1-Pad5)*%
X152662000Y-86649100D03*
%TO.P,ADSB_Serial_1,6,6*%
%TO.N,unconnected-(ADSB_Serial_1-Pad6)*%
X142967000Y-89489100D03*
%TO.P,ADSB_Serial_1,7,7*%
%TO.N,unconnected-(ADSB_Serial_1-Pad7)*%
X145737000Y-89489100D03*
%TO.P,ADSB_Serial_1,8,8*%
%TO.N,unconnected-(ADSB_Serial_1-Pad8)*%
X148507000Y-89489100D03*
%TO.P,ADSB_Serial_1,9,9*%
%TO.N,unconnected-(ADSB_Serial_1-Pad9)*%
X151277000Y-89489100D03*
%TD*%
D12*
%TO.P,ELT_Serial_4,0,PAD*%
%TO.N,unconnected-(ELT_Serial_4-PAD-Pad0)*%
X134906100Y-43069100D03*
X159906100Y-43069100D03*
D13*
%TO.P,ELT_Serial_4,1,1*%
%TO.N,GND*%
X141866100Y-41649100D03*
D10*
%TO.P,ELT_Serial_4,2,2*%
%TO.N,/ELT_12V*%
X144636100Y-41649100D03*
%TO.P,ELT_Serial_4,3,3*%
%TO.N,/ELT_Serial_4_Tx*%
X147406100Y-41649100D03*
%TO.P,ELT_Serial_4,4,4*%
%TO.N,/ELT_Serial_4_Rx*%
X150176100Y-41649100D03*
%TO.P,ELT_Serial_4,5,5*%
%TO.N,unconnected-(ELT_Serial_4-Pad5)*%
X152946100Y-41649100D03*
%TO.P,ELT_Serial_4,6,6*%
%TO.N,unconnected-(ELT_Serial_4-Pad6)*%
X143251100Y-44489100D03*
%TO.P,ELT_Serial_4,7,7*%
%TO.N,unconnected-(ELT_Serial_4-Pad7)*%
X146021100Y-44489100D03*
%TO.P,ELT_Serial_4,8,8*%
%TO.N,unconnected-(ELT_Serial_4-Pad8)*%
X148791100Y-44489100D03*
%TO.P,ELT_Serial_4,9,9*%
%TO.N,unconnected-(ELT_Serial_4-Pad9)*%
X151561100Y-44489100D03*
%TD*%
D12*
%TO.P,GPS_Serial_5,0,PAD*%
%TO.N,unconnected-(GPS_Serial_5-PAD-Pad0)*%
X134622000Y-28069100D03*
X159622000Y-28069100D03*
D13*
%TO.P,GPS_Serial_5,1,1*%
%TO.N,/GPS_GND*%
X141582000Y-26649100D03*
D10*
%TO.P,GPS_Serial_5,2,2*%
%TO.N,/GPS_Power*%
X144352000Y-26649100D03*
%TO.P,GPS_Serial_5,3,3*%
%TO.N,/GPS_Serial_5_Tx*%
X147122000Y-26649100D03*
%TO.P,GPS_Serial_5,4,4*%
%TO.N,/GPS_Serial_5_Rx*%
X149892000Y-26649100D03*
%TO.P,GPS_Serial_5,5,5*%
%TO.N,unconnected-(GPS_Serial_5-Pad5)*%
X152662000Y-26649100D03*
%TO.P,GPS_Serial_5,6,6*%
%TO.N,unconnected-(GPS_Serial_5-Pad6)*%
X142967000Y-29489100D03*
%TO.P,GPS_Serial_5,7,7*%
%TO.N,unconnected-(GPS_Serial_5-Pad7)*%
X145737000Y-29489100D03*
%TO.P,GPS_Serial_5,8,8*%
%TO.N,unconnected-(GPS_Serial_5-Pad8)*%
X148507000Y-29489100D03*
%TO.P,GPS_Serial_5,9,9*%
%TO.N,unconnected-(GPS_Serial_5-Pad9)*%
X151277000Y-29489100D03*
%TD*%
D12*
%TO.P,Ident_&_Dimmer_Input_1,0,PAD*%
%TO.N,unconnected-(Ident_&_Dimmer_Input_1-PAD-Pad0)*%
X134622000Y-103069100D03*
X159622000Y-103069100D03*
D13*
%TO.P,Ident_&_Dimmer_Input_1,1,1*%
%TO.N,GND*%
X141582000Y-101649100D03*
D10*
%TO.P,Ident_&_Dimmer_Input_1,2,2*%
%TO.N,/Dimmer_Signal_Input*%
X144352000Y-101649100D03*
%TO.P,Ident_&_Dimmer_Input_1,3,3*%
%TO.N,unconnected-(Ident_&_Dimmer_Input_1-Pad3)*%
X147122000Y-101649100D03*
%TO.P,Ident_&_Dimmer_Input_1,4,4*%
%TO.N,/Dimmer_Output_Signal*%
X149892000Y-101649100D03*
%TO.P,Ident_&_Dimmer_Input_1,5,5*%
%TO.N,GND*%
X152662000Y-101649100D03*
%TO.P,Ident_&_Dimmer_Input_1,6,6*%
%TO.N,/PFD_&_Dim_12V*%
X142967000Y-104489100D03*
%TO.P,Ident_&_Dimmer_Input_1,7,7*%
%TO.N,/GPS_Serial_Input_to_XPNDR_to_R*%
X145737000Y-104489100D03*
%TO.P,Ident_&_Dimmer_Input_1,8,8*%
%TO.N,/Ident_SW_Input*%
X148507000Y-104489100D03*
%TO.P,Ident_&_Dimmer_Input_1,9,9*%
%TO.N,/XPNDR_&_IDENT_12V*%
X151277000Y-104489100D03*
%TD*%
D12*
%TO.P,SkyView_1,0,PAD*%
%TO.N,unconnected-(SkyView_1-PAD-Pad0)*%
X174622000Y-58069100D03*
X199622000Y-58069100D03*
D13*
%TO.P,SkyView_1,1,1*%
%TO.N,/SV_Data_1A*%
X181582000Y-56649100D03*
D10*
%TO.P,SkyView_1,2,2*%
%TO.N,/SV_GND_1*%
X184352000Y-56649100D03*
%TO.P,SkyView_1,3,3*%
%TO.N,/SV_GND_2*%
X187122000Y-56649100D03*
%TO.P,SkyView_1,4,4*%
%TO.N,/SV_Data_2B*%
X189892000Y-56649100D03*
%TO.P,SkyView_1,5,5*%
%TO.N,/SV_EMS_Aux*%
X192662000Y-56649100D03*
%TO.P,SkyView_1,6,6*%
%TO.N,/SV_Data_1B*%
X182967000Y-59489100D03*
%TO.P,SkyView_1,7,7*%
%TO.N,/SV_Power_1*%
X185737000Y-59489100D03*
%TO.P,SkyView_1,8,8*%
%TO.N,/SV_Data_2A*%
X188507000Y-59489100D03*
%TO.P,SkyView_1,9,9*%
%TO.N,/SV_Power_2*%
X191277000Y-59489100D03*
%TD*%
D12*
%TO.P,VPX_Serial_3,0,PAD*%
%TO.N,unconnected-(VPX_Serial_3-PAD-Pad0)*%
X134622000Y-58069100D03*
X159622000Y-58069100D03*
D13*
%TO.P,VPX_Serial_3,1,1*%
%TO.N,GND*%
X141582000Y-56649100D03*
D10*
%TO.P,VPX_Serial_3,2,2*%
%TO.N,unconnected-(VPX_Serial_3-Pad2)*%
X144352000Y-56649100D03*
%TO.P,VPX_Serial_3,3,3*%
%TO.N,/VPX_Serial_3_Tx*%
X147122000Y-56649100D03*
%TO.P,VPX_Serial_3,4,4*%
%TO.N,/VPX_Serial_3_Rx*%
X149892000Y-56649100D03*
%TO.P,VPX_Serial_3,5,5*%
%TO.N,unconnected-(VPX_Serial_3-Pad5)*%
X152662000Y-56649100D03*
%TO.P,VPX_Serial_3,6,6*%
%TO.N,unconnected-(VPX_Serial_3-Pad6)*%
X142967000Y-59489100D03*
%TO.P,VPX_Serial_3,7,7*%
%TO.N,unconnected-(VPX_Serial_3-Pad7)*%
X145737000Y-59489100D03*
%TO.P,VPX_Serial_3,8,8*%
%TO.N,unconnected-(VPX_Serial_3-Pad8)*%
X148507000Y-59489100D03*
%TO.P,VPX_Serial_3,9,9*%
%TO.N,unconnected-(VPX_Serial_3-Pad9)*%
X151277000Y-59489100D03*
%TD*%
D14*
%TO.N,/GPS_Serial_Input_to_XPNDR_from_R*%
X144184000Y-91478400D03*
X132297400Y-98282800D03*
%TO.N,GND*%
X192406200Y-47000100D03*
%TO.N,/ADSB_12V*%
X166113100Y-92471600D03*
%TO.N,/SV_Data_2A*%
X184842500Y-48817100D03*
%TO.N,/SV_Data_1B*%
X185633700Y-45791200D03*
%TO.N,/SV_Data_2B*%
X182901600Y-49764000D03*
%TO.N,/SV_GND_2*%
X124328000Y-47786400D03*
%TO.N,/SV_Data_1A*%
X181910400Y-46633900D03*
%TO.N,/ELT_Serial_4_Tx*%
X156788100Y-66205400D03*
%TO.N,/ELT_Serial_4_Rx*%
X163047200Y-66790900D03*
%TO.N,/ADSB_Serial_1_Tx*%
X150138400Y-84525200D03*
X124160100Y-80865900D03*
%TD*%
D15*
%TO.N,/GPS_Serial_Input_to_XPNDR_from_R*%
X132128900Y-118417900D02*
X132220100Y-118509100D01*
X132128900Y-98451300D02*
X132128900Y-118417900D01*
X132297400Y-98282800D02*
X132128900Y-98451300D01*
X144352000Y-91310400D02*
X144184000Y-91478400D01*
X144352000Y-88932600D02*
X144352000Y-91310400D01*
X145631100Y-87653500D02*
X144352000Y-88932600D01*
X145631100Y-77414100D02*
X145631100Y-87653500D01*
X142706100Y-74489100D02*
X145631100Y-77414100D01*
%TO.N,/GPS_Serial_Input_to_XPNDR_to_R*%
X145737000Y-113925300D02*
X142380100Y-117282200D01*
X145737000Y-104489100D02*
X145737000Y-113925300D01*
X142380100Y-118509100D02*
X142380100Y-117282200D01*
%TO.N,/Dimmer_Output_Signal*%
X149563300Y-101649100D02*
X149892000Y-101649100D01*
X123657500Y-73632100D02*
X122858100Y-73632100D01*
X149563300Y-99537900D02*
X123657500Y-73632100D01*
X149563300Y-101649100D02*
X149563300Y-99537900D01*
X185737000Y-115280800D02*
X185737000Y-104489100D01*
X177941700Y-123076100D02*
X185737000Y-115280800D01*
X164654100Y-123076100D02*
X177941700Y-123076100D01*
X147208600Y-105630600D02*
X164654100Y-123076100D01*
X147208600Y-104003800D02*
X147208600Y-105630600D01*
X149563300Y-101649100D02*
X147208600Y-104003800D01*
%TO.N,/XPNDR_&_IDENT_12V*%
X144091100Y-74966400D02*
X144091100Y-71649100D01*
X151168800Y-82044100D02*
X144091100Y-74966400D01*
X151168800Y-87744700D02*
X151168800Y-82044100D01*
X150014800Y-88898700D02*
X151168800Y-87744700D01*
X150014800Y-94860700D02*
X150014800Y-88898700D01*
X151277000Y-96122900D02*
X150014800Y-94860700D01*
X151277000Y-104489100D02*
X151277000Y-96122900D01*
%TO.N,/Ident_SW_Input*%
X153933300Y-73181300D02*
X152401100Y-71649100D01*
X153933300Y-103615400D02*
X153933300Y-73181300D01*
X151794900Y-105753800D02*
X153933300Y-103615400D01*
X149771700Y-105753800D02*
X151794900Y-105753800D01*
X148507000Y-104489100D02*
X149771700Y-105753800D01*
%TO.N,/ELT_12V*%
X165579100Y-93107000D02*
X165579100Y-119489100D01*
X165286200Y-92814100D02*
X165579100Y-93107000D01*
X165286200Y-52221900D02*
X165286200Y-92814100D01*
X153457200Y-40392900D02*
X165286200Y-52221900D01*
X145892300Y-40392900D02*
X153457200Y-40392900D01*
X144636100Y-41649100D02*
X145892300Y-40392900D01*
D16*
%TO.N,/SV-Net_AP_12V*%
X188777100Y-26542000D02*
X188777100Y-26665100D01*
X188777100Y-26418800D02*
X188777100Y-26542000D01*
X186888000Y-24529700D02*
X188777100Y-26418800D01*
X182365700Y-24529700D02*
X186888000Y-24529700D01*
X178619300Y-28276100D02*
X182365700Y-24529700D01*
X178619300Y-113504400D02*
X178619300Y-28276100D01*
X175613100Y-116510600D02*
X178619300Y-113504400D01*
X175613100Y-118036400D02*
X175613100Y-116510600D01*
X172019800Y-121629700D02*
X175613100Y-118036400D01*
X170263200Y-121629700D02*
X172019800Y-121629700D01*
X168349100Y-119715600D02*
X170263200Y-121629700D01*
X168349100Y-119489100D02*
X168349100Y-119715600D01*
X188777100Y-37452300D02*
X188777100Y-41665200D01*
X195069000Y-31160400D02*
X188777100Y-37452300D01*
X195069000Y-27160000D02*
X195069000Y-31160400D01*
X192426000Y-24517000D02*
X195069000Y-27160000D01*
X190679100Y-24517000D02*
X192426000Y-24517000D01*
X188777100Y-26419000D02*
X190679100Y-24517000D01*
X188777100Y-26542000D02*
X188777100Y-26419000D01*
D17*
%TO.N,GND*%
X122858100Y-84712100D02*
X122858100Y-87482100D01*
D18*
X123277700Y-87901700D02*
X122858100Y-87482100D01*
X124743000Y-87901700D02*
X123277700Y-87901700D01*
D17*
X141582000Y-101649100D02*
X139230100Y-101649100D01*
X213858100Y-84712100D02*
X213858100Y-87482100D01*
X125482700Y-87901700D02*
X124743000Y-87901700D01*
X139230100Y-101649100D02*
X125482700Y-87901700D01*
X141582000Y-86649100D02*
X141582000Y-84297200D01*
X140311900Y-72658300D02*
X141321100Y-71649100D01*
X140311900Y-83027100D02*
X140311900Y-72658300D01*
X141582000Y-84297200D02*
X140311900Y-83027100D01*
X191628700Y-47000100D02*
X192406200Y-47000100D01*
X190162100Y-45533500D02*
X191628700Y-47000100D01*
X190162100Y-44505200D02*
X190162100Y-45533500D01*
X141582000Y-56649100D02*
X141582000Y-54998100D01*
X141321100Y-71649100D02*
X141321100Y-69297200D01*
X161424100Y-116649100D02*
X161424100Y-114297200D01*
X143373300Y-67245000D02*
X141321100Y-69297200D01*
X154836200Y-67245000D02*
X143373300Y-67245000D01*
X140860000Y-42655200D02*
X141866100Y-41649100D01*
X140860000Y-53467900D02*
X140860000Y-42655200D01*
X141636400Y-54244300D02*
X140860000Y-53467900D01*
X141582000Y-54298700D02*
X141636400Y-54244300D01*
X141582000Y-54998100D02*
X141582000Y-54298700D01*
X154836200Y-65396900D02*
X154836200Y-67245000D01*
X155015900Y-65217200D02*
X154836200Y-65396900D01*
X155015900Y-55626200D02*
X155015900Y-65217200D01*
X153634000Y-54244300D02*
X155015900Y-55626200D01*
X141636400Y-54244300D02*
X153634000Y-54244300D01*
X155656100Y-68064900D02*
X154836200Y-67245000D01*
X155656100Y-108529200D02*
X155656100Y-68064900D01*
X161424100Y-114297200D02*
X155656100Y-108529200D01*
D15*
%TO.N,/ADSB_12V*%
X166964100Y-93322600D02*
X166113100Y-92471600D01*
X166964100Y-116649100D02*
X166964100Y-93322600D01*
%TO.N,/SV_Power_2*%
X191277000Y-74489100D02*
X191277000Y-59489100D01*
X213858100Y-42874300D02*
X213858100Y-43162100D01*
X210229100Y-39245300D02*
X213858100Y-42874300D01*
X207542500Y-39245300D02*
X210229100Y-39245300D01*
X196785900Y-28488700D02*
X207542500Y-39245300D01*
X196785900Y-26824200D02*
X196785900Y-28488700D01*
X193037100Y-23075400D02*
X196785900Y-26824200D01*
X142879600Y-23075400D02*
X193037100Y-23075400D01*
X139773200Y-26181800D02*
X142879600Y-23075400D01*
X139773200Y-26369400D02*
X139773200Y-26181800D01*
X122980500Y-43162100D02*
X139773200Y-26369400D01*
X122858100Y-43162100D02*
X122980500Y-43162100D01*
%TO.N,/SV_Data_2A*%
X186007100Y-41665200D02*
X186007100Y-26665100D01*
X188507000Y-59489100D02*
X188507000Y-74489100D01*
X188208800Y-59489100D02*
X188507000Y-59489100D01*
X185654600Y-56934900D02*
X188208800Y-59489100D01*
X185654600Y-49629200D02*
X185654600Y-56934900D01*
X184842500Y-48817100D02*
X185654600Y-49629200D01*
X186460600Y-47199000D02*
X184842500Y-48817100D01*
X186460600Y-45448600D02*
X186460600Y-47199000D01*
X186007100Y-44995100D02*
X186460600Y-45448600D01*
X186007100Y-41665200D02*
X186007100Y-44995100D01*
%TO.N,/SV_Power_1*%
X185737000Y-59489100D02*
X185737000Y-74489100D01*
X185737000Y-74489100D02*
X185737000Y-87930200D01*
X185737000Y-87930200D02*
X185737000Y-89489100D01*
X187605100Y-87930200D02*
X185737000Y-87930200D01*
X188507000Y-87028300D02*
X187605100Y-87930200D01*
X188507000Y-80129800D02*
X188507000Y-87028300D01*
X202047400Y-66589400D02*
X188507000Y-80129800D01*
X202047400Y-65592100D02*
X202047400Y-66589400D01*
X210475500Y-57164000D02*
X202047400Y-65592100D01*
X211637700Y-57164000D02*
X210475500Y-57164000D01*
X212713500Y-58239800D02*
X211637700Y-57164000D01*
X214410000Y-58239800D02*
X212713500Y-58239800D01*
X215667400Y-56982400D02*
X214410000Y-58239800D01*
X215667400Y-50511400D02*
X215667400Y-56982400D01*
X213858100Y-48702100D02*
X215667400Y-50511400D01*
%TO.N,/SV_Data_1B*%
X182967000Y-89489100D02*
X182967000Y-74489100D01*
X204846900Y-51472100D02*
X213858100Y-51472100D01*
X195040000Y-41665200D02*
X204846900Y-51472100D01*
X191547100Y-41665200D02*
X195040000Y-41665200D01*
X182967000Y-74489100D02*
X182967000Y-59489100D01*
X182967000Y-50906300D02*
X182967000Y-59489100D01*
X184015600Y-49857700D02*
X182967000Y-50906300D01*
X184015600Y-47409300D02*
X184015600Y-49857700D01*
X185633700Y-45791200D02*
X184015600Y-47409300D01*
%TO.N,/GPS_Serial_5_Rx*%
X120018100Y-64281100D02*
X120018100Y-63937100D01*
X122292500Y-66555500D02*
X120018100Y-64281100D01*
X123368700Y-66555500D02*
X122292500Y-66555500D01*
X131413800Y-58510400D02*
X123368700Y-66555500D01*
X131413800Y-57151800D02*
X131413800Y-58510400D01*
X138996300Y-49569300D02*
X131413800Y-57151800D01*
X138996300Y-41452500D02*
X138996300Y-49569300D01*
X147271900Y-33176900D02*
X138996300Y-41452500D01*
X147271900Y-28925200D02*
X147271900Y-33176900D01*
X149548000Y-26649100D02*
X147271900Y-28925200D01*
X149892000Y-26649100D02*
X149548000Y-26649100D01*
%TO.N,/GPS_GND*%
X127138300Y-42319700D02*
X141582000Y-27876000D01*
X127138300Y-48971100D02*
X127138300Y-42319700D01*
X123252300Y-52857100D02*
X127138300Y-48971100D01*
X121870800Y-52857100D02*
X123252300Y-52857100D01*
X120643900Y-54084000D02*
X121870800Y-52857100D01*
X119779000Y-54084000D02*
X120643900Y-54084000D01*
X118760600Y-55102400D02*
X119779000Y-54084000D01*
X118760600Y-75550300D02*
X118760600Y-55102400D01*
X119612400Y-76402100D02*
X118760600Y-75550300D01*
X120432100Y-76402100D02*
X119612400Y-76402100D01*
X122858100Y-78828100D02*
X120432100Y-76402100D01*
X122858100Y-79172100D02*
X122858100Y-78828100D01*
X141582000Y-26649100D02*
X141582000Y-27876000D01*
%TO.N,/SV_EMS_Aux*%
X192662000Y-56649100D02*
X192662000Y-71649100D01*
%TO.N,/SV_Data_2B*%
X184622100Y-44505200D02*
X184622100Y-29505100D01*
X189892000Y-56649100D02*
X189892000Y-71649100D01*
X182901600Y-46225700D02*
X184622100Y-44505200D01*
X182901600Y-49764000D02*
X182901600Y-46225700D01*
%TO.N,/SV_GND_2*%
X187122000Y-74904300D02*
X187122000Y-71649100D01*
X187972100Y-75754400D02*
X187122000Y-74904300D01*
X187122000Y-76604500D02*
X187122000Y-86649100D01*
X187972100Y-75754400D02*
X187122000Y-76604500D01*
X193169300Y-55414100D02*
X193901100Y-56145900D01*
X188357000Y-55414100D02*
X193169300Y-55414100D01*
X187122000Y-56649100D02*
X188357000Y-55414100D01*
X191763400Y-75754400D02*
X187972100Y-75754400D01*
X193901100Y-73616700D02*
X191763400Y-75754400D01*
X193901100Y-56145900D02*
X193901100Y-73616700D01*
X195672300Y-54374700D02*
X193901100Y-56145900D01*
X211618400Y-54374700D02*
X195672300Y-54374700D01*
X212725600Y-55481900D02*
X211618400Y-54374700D01*
X214361500Y-55481900D02*
X212725600Y-55481900D01*
X215115300Y-54728100D02*
X214361500Y-55481900D01*
X215115300Y-50934400D02*
X215115300Y-54728100D01*
X214426100Y-50245200D02*
X215115300Y-50934400D01*
X213602200Y-50245200D02*
X214426100Y-50245200D01*
X211018100Y-47661100D02*
X213602200Y-50245200D01*
X211018100Y-47317100D02*
X211018100Y-47661100D01*
X123858700Y-47317100D02*
X124328000Y-47786400D01*
X120018100Y-47317100D02*
X123858700Y-47317100D01*
%TO.N,/SV_GND_1*%
X184352000Y-56649100D02*
X184352000Y-71649100D01*
%TO.N,/SV_Data_1A*%
X192932100Y-44505200D02*
X194159000Y-44505200D01*
X202510900Y-52857100D02*
X194159000Y-44505200D01*
X211018100Y-52857100D02*
X202510900Y-52857100D01*
X181582000Y-71649100D02*
X181582000Y-70422200D01*
X181582000Y-57876000D02*
X181582000Y-70422200D01*
X181582000Y-57262500D02*
X181582000Y-57876000D01*
X181582000Y-57262500D02*
X181582000Y-56649100D01*
X181910400Y-55093800D02*
X181910400Y-46633900D01*
X181582000Y-55422200D02*
X181910400Y-55093800D01*
X181582000Y-56649100D02*
X181582000Y-55422200D01*
%TO.N,/GPS_Serial_5_Tx*%
X145892800Y-25419900D02*
X147122000Y-26649100D01*
X143820900Y-25419900D02*
X145892800Y-25419900D01*
X142967000Y-26273800D02*
X143820900Y-25419900D01*
X142967000Y-27657200D02*
X142967000Y-26273800D01*
X132210200Y-38414000D02*
X142967000Y-27657200D01*
X132210200Y-49443800D02*
X132210200Y-38414000D01*
X123256900Y-58397100D02*
X132210200Y-49443800D01*
X122430300Y-58397100D02*
X123256900Y-58397100D01*
X120018100Y-60809300D02*
X122430300Y-58397100D01*
X120018100Y-61167100D02*
X120018100Y-60809300D01*
%TO.N,/GPS_Power*%
X122858100Y-64784100D02*
X122858100Y-65322100D01*
X138256800Y-49385400D02*
X122858100Y-64784100D01*
X138256800Y-41267200D02*
X138256800Y-49385400D01*
X144352000Y-35172000D02*
X138256800Y-41267200D01*
X144352000Y-26649100D02*
X144352000Y-35172000D01*
%TO.N,/ELT_Serial_4_Tx*%
X147406100Y-45627000D02*
X147406100Y-41649100D01*
X156788100Y-55009000D02*
X147406100Y-45627000D01*
X156788100Y-66205400D02*
X156788100Y-55009000D01*
%TO.N,/ELT_Serial_4_Rx*%
X163047200Y-54221900D02*
X163047200Y-66790900D01*
X150474400Y-41649100D02*
X163047200Y-54221900D01*
X150176100Y-41649100D02*
X150474400Y-41649100D01*
%TO.N,/VPX_Serial_3_Tx*%
X146823800Y-56649100D02*
X147122000Y-56649100D01*
X144266900Y-59206000D02*
X146823800Y-56649100D01*
X144266900Y-59924300D02*
X144266900Y-59206000D01*
X143475200Y-60716000D02*
X144266900Y-59924300D01*
X143083800Y-60716000D02*
X143475200Y-60716000D01*
X131552700Y-72247100D02*
X143083800Y-60716000D01*
X120018100Y-72247100D02*
X131552700Y-72247100D01*
%TO.N,/ADSB_Serial_1_Tx*%
X123992200Y-80698000D02*
X124160100Y-80865900D01*
X122303200Y-80698000D02*
X123992200Y-80698000D01*
X120018100Y-82983100D02*
X122303200Y-80698000D01*
X120018100Y-83327100D02*
X120018100Y-82983100D01*
X149245900Y-84525200D02*
X150138400Y-84525200D01*
X147122000Y-86649100D02*
X149245900Y-84525200D01*
%TO.N,/Audio_Out_GND*%
X212245000Y-64165200D02*
X213858100Y-62552100D01*
X212245000Y-69985300D02*
X212245000Y-64165200D01*
X211526300Y-70704000D02*
X212245000Y-69985300D01*
X210763900Y-70704000D02*
X211526300Y-70704000D01*
X197195100Y-84272800D02*
X210763900Y-70704000D01*
X197195100Y-88427200D02*
X197195100Y-84272800D01*
X185822100Y-99800200D02*
X197195100Y-88427200D01*
X185822100Y-101932300D02*
X185822100Y-99800200D01*
X183265300Y-104489100D02*
X185822100Y-101932300D01*
X182967000Y-104489100D02*
X183265300Y-104489100D01*
%TO.N,/L_Audio_Out_1*%
X181582000Y-101649100D02*
X182808900Y-101649100D01*
X182808900Y-101252100D02*
X182808900Y-101649100D01*
X194122500Y-89938500D02*
X182808900Y-101252100D01*
X194122500Y-83594200D02*
X194122500Y-89938500D01*
X202599300Y-75117400D02*
X194122500Y-83594200D01*
X202599300Y-66815900D02*
X202599300Y-75117400D01*
X211018100Y-58397100D02*
X202599300Y-66815900D01*
%TO.N,/R_Audio_Out_1*%
X184352000Y-100489600D02*
X184352000Y-101649100D01*
X194949500Y-89892100D02*
X184352000Y-100489600D01*
X194949500Y-83936900D02*
X194949500Y-89892100D01*
X209240800Y-69645600D02*
X194949500Y-83936900D01*
X209240800Y-63921600D02*
X209240800Y-69645600D01*
X210610300Y-62552100D02*
X209240800Y-63921600D01*
X211432100Y-62552100D02*
X210610300Y-62552100D01*
X213858100Y-60126100D02*
X211432100Y-62552100D01*
X213858100Y-59782100D02*
X213858100Y-60126100D01*
%TO.N,/AP_Disengage (Unused)*%
X187321400Y-44434500D02*
X187392100Y-44505200D01*
X187321400Y-29575800D02*
X187321400Y-44434500D01*
X187392100Y-29505100D02*
X187321400Y-29575800D01*
%TO.N,/Dimmer_Signal_Input*%
X125579700Y-79123700D02*
X122858100Y-76402100D01*
X125579700Y-82876800D02*
X125579700Y-79123700D01*
X144352000Y-101649100D02*
X125579700Y-82876800D01*
%TD*%
M02*
