%TF.GenerationSoftware,KiCad,Pcbnew,7.0.9*%
%TF.CreationDate,2024-01-18T11:01:42-08:00*%
%TF.ProjectId,Interconnect Board,496e7465-7263-46f6-9e6e-65637420426f,v1.4*%
%TF.SameCoordinates,Original*%
%TF.FileFunction,Copper,L1,Top*%
%TF.FilePolarity,Positive*%
%FSLAX46Y46*%
G04 Gerber Fmt 4.6, Leading zero omitted, Abs format (unit mm)*
G04 Created by KiCad (PCBNEW 7.0.9) date 2024-01-18 11:01:42*
%MOMM*%
%LPD*%
G01*
G04 APERTURE LIST*
%TA.AperFunction,ComponentPad*%
%ADD10C,1.600000*%
%TD*%
%TA.AperFunction,ComponentPad*%
%ADD11O,1.600000X1.600000*%
%TD*%
%TA.AperFunction,ComponentPad*%
%ADD12C,4.000000*%
%TD*%
%TA.AperFunction,ComponentPad*%
%ADD13R,1.600000X1.600000*%
%TD*%
%TA.AperFunction,ViaPad*%
%ADD14C,0.800000*%
%TD*%
%TA.AperFunction,Conductor*%
%ADD15C,0.250000*%
%TD*%
%TA.AperFunction,Conductor*%
%ADD16C,1.599800*%
%TD*%
%TA.AperFunction,Conductor*%
%ADD17C,2.000000*%
%TD*%
%TA.AperFunction,Conductor*%
%ADD18C,2.500000*%
%TD*%
G04 APERTURE END LIST*
D10*
%TO.P,R1,1*%
%TO.N,/GPS_Serial_Input_to_XPNDR_from_R*%
X132220100Y-118509100D03*
D11*
%TO.P,R1,2*%
%TO.N,/GPS_Serial_Input_to_XPNDR_to_R*%
X142380100Y-118509100D03*
%TD*%
D12*
%TO.P,Power_Input_1,0,PAD*%
%TO.N,unconnected-(Power_Input_1-PAD-Pad0)*%
X154464100Y-118069100D03*
X179464100Y-118069100D03*
D13*
%TO.P,Power_Input_1,1,1*%
%TO.N,GND*%
X161424100Y-116649100D03*
D10*
%TO.P,Power_Input_1,2,2*%
X164194100Y-116649100D03*
%TO.P,Power_Input_1,3,3*%
%TO.N,/ADSB_12V*%
X166964100Y-116649100D03*
%TO.P,Power_Input_1,4,4*%
%TO.N,/MFD_12V*%
X169734100Y-116649100D03*
%TO.P,Power_Input_1,5,5*%
%TO.N,/PFD_&_Dim_12V*%
X172504100Y-116649100D03*
%TO.P,Power_Input_1,6,6*%
%TO.N,GND*%
X162809100Y-119489100D03*
%TO.P,Power_Input_1,7,7*%
%TO.N,/ELT_12V*%
X165579100Y-119489100D03*
%TO.P,Power_Input_1,8,8*%
%TO.N,/SV-Net_AP_12V*%
X168349100Y-119489100D03*
%TO.P,Power_Input_1,9,9*%
%TO.N,/XPNDR_&_IDENT_12V*%
X171119100Y-119489100D03*
%TD*%
D12*
%TO.P,AP_Roll_SV_Net_2,0,PAD*%
%TO.N,unconnected-(AP_Roll_SV_Net_2-PAD-Pad0)*%
X199892100Y-28085100D03*
X174892100Y-28085100D03*
D13*
%TO.P,AP_Roll_SV_Net_2,1,1*%
%TO.N,/SV_Data_1A*%
X192932100Y-29505100D03*
D10*
%TO.P,AP_Roll_SV_Net_2,2,2*%
%TO.N,GND*%
X190162100Y-29505100D03*
%TO.P,AP_Roll_SV_Net_2,3,3*%
%TO.N,/AP_Disengage (Unused)*%
X187392100Y-29505100D03*
%TO.P,AP_Roll_SV_Net_2,4,4*%
%TO.N,/SV_Data_2B*%
X184622100Y-29505100D03*
%TO.P,AP_Roll_SV_Net_2,5,5*%
%TO.N,unconnected-(AP_Roll_SV_Net_2-Pad5)*%
X181852100Y-29505100D03*
%TO.P,AP_Roll_SV_Net_2,6,6*%
%TO.N,/SV_Data_1B*%
X191547100Y-26665100D03*
%TO.P,AP_Roll_SV_Net_2,7,7*%
%TO.N,/SV-Net_AP_12V*%
X188777100Y-26665100D03*
%TO.P,AP_Roll_SV_Net_2,8,8*%
%TO.N,/SV_Data_2A*%
X186007100Y-26665100D03*
%TO.P,AP_Roll_SV_Net_2,9,9*%
%TO.N,unconnected-(AP_Roll_SV_Net_2-Pad9)*%
X183237100Y-26665100D03*
%TD*%
D12*
%TO.P,XPNDR_Serial_2,0,PAD*%
%TO.N,unconnected-(XPNDR_Serial_2-PAD-Pad0)*%
X134361100Y-73069100D03*
X159361100Y-73069100D03*
D13*
%TO.P,XPNDR_Serial_2,1,1*%
%TO.N,GND*%
X141321100Y-71649100D03*
D10*
%TO.P,XPNDR_Serial_2,2,2*%
%TO.N,/XPNDR_&_IDENT_12V*%
X144091100Y-71649100D03*
%TO.P,XPNDR_Serial_2,3,3*%
%TO.N,/XPNDR_Serial_2_Tx*%
X146861100Y-71649100D03*
%TO.P,XPNDR_Serial_2,4,4*%
%TO.N,/XPNDR_Serial_2_Rx*%
X149631100Y-71649100D03*
%TO.P,XPNDR_Serial_2,5,5*%
%TO.N,/Ident_SW_Input*%
X152401100Y-71649100D03*
%TO.P,XPNDR_Serial_2,6,6*%
%TO.N,/GPS_Serial_Input_to_XPNDR_from_R*%
X142706100Y-74489100D03*
%TO.P,XPNDR_Serial_2,7,7*%
%TO.N,unconnected-(XPNDR_Serial_2-Pad7)*%
X145476100Y-74489100D03*
%TO.P,XPNDR_Serial_2,8,8*%
%TO.N,unconnected-(XPNDR_Serial_2-Pad8)*%
X148246100Y-74489100D03*
%TO.P,XPNDR_Serial_2,9,9*%
%TO.N,unconnected-(XPNDR_Serial_2-Pad9)*%
X151016100Y-74489100D03*
%TD*%
D12*
%TO.P,SkyView_2,0,PAD*%
%TO.N,unconnected-(SkyView_2-PAD-Pad0)*%
X174622000Y-73069100D03*
X199622000Y-73069100D03*
D13*
%TO.P,SkyView_2,1,1*%
%TO.N,/SV_Data_1A*%
X181582000Y-71649100D03*
D10*
%TO.P,SkyView_2,2,2*%
%TO.N,/SV_GND_1*%
X184352000Y-71649100D03*
%TO.P,SkyView_2,3,3*%
%TO.N,/SV_GND_2*%
X187122000Y-71649100D03*
%TO.P,SkyView_2,4,4*%
%TO.N,/SV_Data_2B*%
X189892000Y-71649100D03*
%TO.P,SkyView_2,5,5*%
%TO.N,/SV_EMS_Aux*%
X192662000Y-71649100D03*
%TO.P,SkyView_2,6,6*%
%TO.N,/SV_Data_1B*%
X182967000Y-74489100D03*
%TO.P,SkyView_2,7,7*%
%TO.N,/SV_Power_1*%
X185737000Y-74489100D03*
%TO.P,SkyView_2,8,8*%
%TO.N,/SV_Data_2A*%
X188507000Y-74489100D03*
%TO.P,SkyView_2,9,9*%
%TO.N,/SV_Power_2*%
X191277000Y-74489100D03*
%TD*%
D12*
%TO.P,AP_Pitch_SV_Net_1,0,PAD*%
%TO.N,unconnected-(AP_Pitch_SV_Net_1-PAD-Pad0)*%
X199892100Y-43085200D03*
X174892100Y-43085200D03*
D13*
%TO.P,AP_Pitch_SV_Net_1,1,1*%
%TO.N,/SV_Data_1A*%
X192932100Y-44505200D03*
D10*
%TO.P,AP_Pitch_SV_Net_1,2,2*%
%TO.N,GND*%
X190162100Y-44505200D03*
%TO.P,AP_Pitch_SV_Net_1,3,3*%
%TO.N,/AP_Disengage (Unused)*%
X187392100Y-44505200D03*
%TO.P,AP_Pitch_SV_Net_1,4,4*%
%TO.N,/SV_Data_2B*%
X184622100Y-44505200D03*
%TO.P,AP_Pitch_SV_Net_1,5,5*%
%TO.N,unconnected-(AP_Pitch_SV_Net_1-Pad5)*%
X181852100Y-44505200D03*
%TO.P,AP_Pitch_SV_Net_1,6,6*%
%TO.N,/SV_Data_1B*%
X191547100Y-41665200D03*
%TO.P,AP_Pitch_SV_Net_1,7,7*%
%TO.N,/SV-Net_AP_12V*%
X188777100Y-41665200D03*
%TO.P,AP_Pitch_SV_Net_1,8,8*%
%TO.N,/SV_Data_2A*%
X186007100Y-41665200D03*
%TO.P,AP_Pitch_SV_Net_1,9,9*%
%TO.N,unconnected-(AP_Pitch_SV_Net_1-Pad9)*%
X183237100Y-41665200D03*
%TD*%
D12*
%TO.P,Dimmer_&_Audio_Output_1,0,PAD*%
%TO.N,unconnected-(Dimmer_&_Audio_Output_1-PAD-Pad0)*%
X174622000Y-103069100D03*
X199622000Y-103069100D03*
D13*
%TO.P,Dimmer_&_Audio_Output_1,1,1*%
%TO.N,/L_Audio_Out_1*%
X181582000Y-101649100D03*
D10*
%TO.P,Dimmer_&_Audio_Output_1,2,2*%
%TO.N,/R_Audio_Out_1*%
X184352000Y-101649100D03*
%TO.P,Dimmer_&_Audio_Output_1,3,3*%
%TO.N,/Dimmer_Output_Signal*%
X187122000Y-101649100D03*
%TO.P,Dimmer_&_Audio_Output_1,4,4*%
%TO.N,unconnected-(Dimmer_&_Audio_Output_1-Pad4)*%
X189892000Y-101649100D03*
%TO.P,Dimmer_&_Audio_Output_1,5,5*%
%TO.N,unconnected-(Dimmer_&_Audio_Output_1-Pad5)*%
X192662000Y-101649100D03*
%TO.P,Dimmer_&_Audio_Output_1,6,6*%
%TO.N,/Audio_Out_GND*%
X182967000Y-104489100D03*
%TO.P,Dimmer_&_Audio_Output_1,7,7*%
%TO.N,/Dimmer_Output_Signal*%
X185737000Y-104489100D03*
%TO.P,Dimmer_&_Audio_Output_1,8,8*%
X188507000Y-104489100D03*
%TO.P,Dimmer_&_Audio_Output_1,9,9*%
%TO.N,unconnected-(Dimmer_&_Audio_Output_1-Pad9)*%
X191277000Y-104489100D03*
%TD*%
D12*
%TO.P,MFD_Main_2,0,PAD*%
%TO.N,unconnected-(MFD_Main_2-PAD-Pad0)*%
X212438100Y-98457100D03*
X212438100Y-34957100D03*
D13*
%TO.P,MFD_Main_2,1,1*%
%TO.N,/MFD_12V*%
X211018100Y-91637100D03*
D10*
%TO.P,MFD_Main_2,2,2*%
%TO.N,unconnected-(MFD_Main_2-Pad2)*%
X211018100Y-88867100D03*
%TO.P,MFD_Main_2,3,3*%
%TO.N,/ADSB_Serial_1_Rx*%
X211018100Y-86097100D03*
%TO.P,MFD_Main_2,4,4*%
%TO.N,/ADSB_Serial_1_Tx*%
X211018100Y-83327100D03*
%TO.P,MFD_Main_2,5,5*%
%TO.N,/XPNDR_Serial_2_Rx*%
X211018100Y-80557100D03*
%TO.P,MFD_Main_2,6,6*%
%TO.N,/XPNDR_Serial_2_Tx*%
X211018100Y-77787100D03*
%TO.P,MFD_Main_2,7,7*%
%TO.N,/VPX_Serial_3_Rx*%
X211018100Y-75017100D03*
%TO.P,MFD_Main_2,8,8*%
%TO.N,/VPX_Serial_3_Tx*%
X211018100Y-72247100D03*
%TO.P,MFD_Main_2,9,9*%
%TO.N,/ELT_Serial_4_Rx*%
X211018100Y-69477100D03*
%TO.P,MFD_Main_2,10,10*%
%TO.N,/ELT_Serial_4_Tx*%
X211018100Y-66707100D03*
%TO.P,MFD_Main_2,11,11*%
%TO.N,/GPS_Serial_5_Rx*%
X211018100Y-63937100D03*
%TO.P,MFD_Main_2,12,12*%
%TO.N,/GPS_Serial_5_Tx*%
X211018100Y-61167100D03*
%TO.P,MFD_Main_2,13,13*%
%TO.N,/L_Audio_Out_1*%
X211018100Y-58397100D03*
%TO.P,MFD_Main_2,14,14*%
%TO.N,unconnected-(MFD_Main_2-Pad14)*%
X211018100Y-55627100D03*
%TO.P,MFD_Main_2,15,15*%
%TO.N,/SV_Data_1A*%
X211018100Y-52857100D03*
%TO.P,MFD_Main_2,16,16*%
%TO.N,/SV_GND_1*%
X211018100Y-50087100D03*
%TO.P,MFD_Main_2,17,17*%
%TO.N,/SV_GND_2*%
X211018100Y-47317100D03*
%TO.P,MFD_Main_2,18,18*%
%TO.N,/SV_Data_2B*%
X211018100Y-44547100D03*
%TO.P,MFD_Main_2,19,19*%
%TO.N,/SV_EMS_Aux*%
X211018100Y-41777100D03*
%TO.P,MFD_Main_2,20,20*%
%TO.N,/MFD_12V*%
X213858100Y-90252100D03*
%TO.P,MFD_Main_2,21,21*%
%TO.N,GND*%
X213858100Y-87482100D03*
%TO.P,MFD_Main_2,22,22*%
X213858100Y-84712100D03*
%TO.P,MFD_Main_2,23,23*%
%TO.N,unconnected-(MFD_Main_2-Pad23)*%
X213858100Y-81942100D03*
%TO.P,MFD_Main_2,24,24*%
%TO.N,/GPS_GND*%
X213858100Y-79172100D03*
%TO.P,MFD_Main_2,25,25*%
%TO.N,/Dimmer_Signal_Input*%
X213858100Y-76402100D03*
%TO.P,MFD_Main_2,26,26*%
%TO.N,unconnected-(MFD_Main_2-Pad26)*%
X213858100Y-73632100D03*
%TO.P,MFD_Main_2,27,27*%
%TO.N,unconnected-(MFD_Main_2-Pad27)*%
X213858100Y-70862100D03*
%TO.P,MFD_Main_2,28,28*%
%TO.N,unconnected-(MFD_Main_2-Pad28)*%
X213858100Y-68092100D03*
%TO.P,MFD_Main_2,29,29*%
%TO.N,/GPS_Power*%
X213858100Y-65322100D03*
%TO.P,MFD_Main_2,30,30*%
%TO.N,/Audio_Out_GND*%
X213858100Y-62552100D03*
%TO.P,MFD_Main_2,31,31*%
%TO.N,/R_Audio_Out_1*%
X213858100Y-59782100D03*
%TO.P,MFD_Main_2,32,32*%
%TO.N,unconnected-(MFD_Main_2-Pad32)*%
X213858100Y-57012100D03*
%TO.P,MFD_Main_2,33,33*%
%TO.N,unconnected-(MFD_Main_2-Pad33)*%
X213858100Y-54242100D03*
%TO.P,MFD_Main_2,34,34*%
%TO.N,/SV_Data_1B*%
X213858100Y-51472100D03*
%TO.P,MFD_Main_2,35,35*%
%TO.N,/SV_Power_1*%
X213858100Y-48702100D03*
%TO.P,MFD_Main_2,36,36*%
%TO.N,/SV_Data_2A*%
X213858100Y-45932100D03*
%TO.P,MFD_Main_2,37,37*%
%TO.N,/SV_Power_2*%
X213858100Y-43162100D03*
%TD*%
D12*
%TO.P,PFD_Main_1,0,PAD*%
%TO.N,unconnected-(PFD_Main_1-PAD-Pad0)*%
X121438100Y-98457100D03*
X121438100Y-34957100D03*
D13*
%TO.P,PFD_Main_1,1,1*%
%TO.N,/PFD_&_Dim_12V*%
X120018100Y-91637100D03*
D10*
%TO.P,PFD_Main_1,2,2*%
%TO.N,unconnected-(PFD_Main_1-Pad2)*%
X120018100Y-88867100D03*
%TO.P,PFD_Main_1,3,3*%
%TO.N,/ADSB_Serial_1_Rx*%
X120018100Y-86097100D03*
%TO.P,PFD_Main_1,4,4*%
%TO.N,/ADSB_Serial_1_Tx*%
X120018100Y-83327100D03*
%TO.P,PFD_Main_1,5,5*%
%TO.N,/XPNDR_Serial_2_Rx*%
X120018100Y-80557100D03*
%TO.P,PFD_Main_1,6,6*%
%TO.N,/XPNDR_Serial_2_Tx*%
X120018100Y-77787100D03*
%TO.P,PFD_Main_1,7,7*%
%TO.N,/VPX_Serial_3_Rx*%
X120018100Y-75017100D03*
%TO.P,PFD_Main_1,8,8*%
%TO.N,/VPX_Serial_3_Tx*%
X120018100Y-72247100D03*
%TO.P,PFD_Main_1,9,9*%
%TO.N,/ELT_Serial_4_Rx*%
X120018100Y-69477100D03*
%TO.P,PFD_Main_1,10,10*%
%TO.N,/ELT_Serial_4_Tx*%
X120018100Y-66707100D03*
%TO.P,PFD_Main_1,11,11*%
%TO.N,/GPS_Serial_5_Rx*%
X120018100Y-63937100D03*
%TO.P,PFD_Main_1,12,12*%
%TO.N,/GPS_Serial_5_Tx*%
X120018100Y-61167100D03*
%TO.P,PFD_Main_1,13,13*%
%TO.N,/L_Audio_Out_1*%
X120018100Y-58397100D03*
%TO.P,PFD_Main_1,14,14*%
%TO.N,unconnected-(PFD_Main_1-Pad14)*%
X120018100Y-55627100D03*
%TO.P,PFD_Main_1,15,15*%
%TO.N,/SV_Data_1A*%
X120018100Y-52857100D03*
%TO.P,PFD_Main_1,16,16*%
%TO.N,/SV_GND_1*%
X120018100Y-50087100D03*
%TO.P,PFD_Main_1,17,17*%
%TO.N,/SV_GND_2*%
X120018100Y-47317100D03*
%TO.P,PFD_Main_1,18,18*%
%TO.N,/SV_Data_2B*%
X120018100Y-44547100D03*
%TO.P,PFD_Main_1,19,19*%
%TO.N,/SV_EMS_Aux*%
X120018100Y-41777100D03*
%TO.P,PFD_Main_1,20,20*%
%TO.N,/PFD_&_Dim_12V*%
X122858100Y-90252100D03*
%TO.P,PFD_Main_1,21,21*%
%TO.N,GND*%
X122858100Y-87482100D03*
%TO.P,PFD_Main_1,22,22*%
X122858100Y-84712100D03*
%TO.P,PFD_Main_1,23,23*%
%TO.N,unconnected-(PFD_Main_1-Pad23)*%
X122858100Y-81942100D03*
%TO.P,PFD_Main_1,24,24*%
%TO.N,/GPS_GND*%
X122858100Y-79172100D03*
%TO.P,PFD_Main_1,25,25*%
%TO.N,/Dimmer_Signal_Input*%
X122858100Y-76402100D03*
%TO.P,PFD_Main_1,26,26*%
%TO.N,/Dimmer_Output_Signal*%
X122858100Y-73632100D03*
%TO.P,PFD_Main_1,27,27*%
%TO.N,unconnected-(PFD_Main_1-Pad27)*%
X122858100Y-70862100D03*
%TO.P,PFD_Main_1,28,28*%
%TO.N,unconnected-(PFD_Main_1-Pad28)*%
X122858100Y-68092100D03*
%TO.P,PFD_Main_1,29,29*%
%TO.N,/GPS_Power*%
X122858100Y-65322100D03*
%TO.P,PFD_Main_1,30,30*%
%TO.N,/Audio_Out_GND*%
X122858100Y-62552100D03*
%TO.P,PFD_Main_1,31,31*%
%TO.N,/R_Audio_Out_1*%
X122858100Y-59782100D03*
%TO.P,PFD_Main_1,32,32*%
%TO.N,unconnected-(PFD_Main_1-Pad32)*%
X122858100Y-57012100D03*
%TO.P,PFD_Main_1,33,33*%
%TO.N,unconnected-(PFD_Main_1-Pad33)*%
X122858100Y-54242100D03*
%TO.P,PFD_Main_1,34,34*%
%TO.N,/SV_Data_1B*%
X122858100Y-51472100D03*
%TO.P,PFD_Main_1,35,35*%
%TO.N,/SV_Power_1*%
X122858100Y-48702100D03*
%TO.P,PFD_Main_1,36,36*%
%TO.N,/SV_Data_2A*%
X122858100Y-45932100D03*
%TO.P,PFD_Main_1,37,37*%
%TO.N,/SV_Power_2*%
X122858100Y-43162100D03*
%TD*%
D12*
%TO.P,SkyView_3,0,PAD*%
%TO.N,unconnected-(SkyView_3-PAD-Pad0)*%
X174622000Y-88069100D03*
X199622000Y-88069100D03*
D13*
%TO.P,SkyView_3,1,1*%
%TO.N,/SV_Data_1A*%
X181582000Y-86649100D03*
D10*
%TO.P,SkyView_3,2,2*%
%TO.N,/SV_GND_1*%
X184352000Y-86649100D03*
%TO.P,SkyView_3,3,3*%
%TO.N,/SV_GND_2*%
X187122000Y-86649100D03*
%TO.P,SkyView_3,4,4*%
%TO.N,/SV_Data_2B*%
X189892000Y-86649100D03*
%TO.P,SkyView_3,5,5*%
%TO.N,/SV_EMS_Aux*%
X192662000Y-86649100D03*
%TO.P,SkyView_3,6,6*%
%TO.N,/SV_Data_1B*%
X182967000Y-89489100D03*
%TO.P,SkyView_3,7,7*%
%TO.N,/SV_Power_1*%
X185737000Y-89489100D03*
%TO.P,SkyView_3,8,8*%
%TO.N,/SV_Data_2A*%
X188507000Y-89489100D03*
%TO.P,SkyView_3,9,9*%
%TO.N,/SV_Power_2*%
X191277000Y-89489100D03*
%TD*%
D12*
%TO.P,ADSB_Serial_1,0,PAD*%
%TO.N,unconnected-(ADSB_Serial_1-PAD-Pad0)*%
X134622000Y-88069100D03*
X159622000Y-88069100D03*
D13*
%TO.P,ADSB_Serial_1,1,1*%
%TO.N,GND*%
X141582000Y-86649100D03*
D10*
%TO.P,ADSB_Serial_1,2,2*%
%TO.N,/ADSB_12V*%
X144352000Y-86649100D03*
%TO.P,ADSB_Serial_1,3,3*%
%TO.N,/ADSB_Serial_1_Tx*%
X147122000Y-86649100D03*
%TO.P,ADSB_Serial_1,4,4*%
%TO.N,/ADSB_Serial_1_Rx*%
X149892000Y-86649100D03*
%TO.P,ADSB_Serial_1,5,5*%
%TO.N,unconnected-(ADSB_Serial_1-Pad5)*%
X152662000Y-86649100D03*
%TO.P,ADSB_Serial_1,6,6*%
%TO.N,unconnected-(ADSB_Serial_1-Pad6)*%
X142967000Y-89489100D03*
%TO.P,ADSB_Serial_1,7,7*%
%TO.N,unconnected-(ADSB_Serial_1-Pad7)*%
X145737000Y-89489100D03*
%TO.P,ADSB_Serial_1,8,8*%
%TO.N,unconnected-(ADSB_Serial_1-Pad8)*%
X148507000Y-89489100D03*
%TO.P,ADSB_Serial_1,9,9*%
%TO.N,unconnected-(ADSB_Serial_1-Pad9)*%
X151277000Y-89489100D03*
%TD*%
D12*
%TO.P,ELT_Serial_4,0,PAD*%
%TO.N,unconnected-(ELT_Serial_4-PAD-Pad0)*%
X134906100Y-43069100D03*
X159906100Y-43069100D03*
D13*
%TO.P,ELT_Serial_4,1,1*%
%TO.N,GND*%
X141866100Y-41649100D03*
D10*
%TO.P,ELT_Serial_4,2,2*%
%TO.N,/ELT_12V*%
X144636100Y-41649100D03*
%TO.P,ELT_Serial_4,3,3*%
%TO.N,/ELT_Serial_4_Tx*%
X147406100Y-41649100D03*
%TO.P,ELT_Serial_4,4,4*%
%TO.N,/ELT_Serial_4_Rx*%
X150176100Y-41649100D03*
%TO.P,ELT_Serial_4,5,5*%
%TO.N,unconnected-(ELT_Serial_4-Pad5)*%
X152946100Y-41649100D03*
%TO.P,ELT_Serial_4,6,6*%
%TO.N,unconnected-(ELT_Serial_4-Pad6)*%
X143251100Y-44489100D03*
%TO.P,ELT_Serial_4,7,7*%
%TO.N,unconnected-(ELT_Serial_4-Pad7)*%
X146021100Y-44489100D03*
%TO.P,ELT_Serial_4,8,8*%
%TO.N,unconnected-(ELT_Serial_4-Pad8)*%
X148791100Y-44489100D03*
%TO.P,ELT_Serial_4,9,9*%
%TO.N,unconnected-(ELT_Serial_4-Pad9)*%
X151561100Y-44489100D03*
%TD*%
D12*
%TO.P,GPS_Serial_5,0,PAD*%
%TO.N,unconnected-(GPS_Serial_5-PAD-Pad0)*%
X134622000Y-28069100D03*
X159622000Y-28069100D03*
D13*
%TO.P,GPS_Serial_5,1,1*%
%TO.N,/GPS_GND*%
X141582000Y-26649100D03*
D10*
%TO.P,GPS_Serial_5,2,2*%
%TO.N,/GPS_Power*%
X144352000Y-26649100D03*
%TO.P,GPS_Serial_5,3,3*%
%TO.N,/GPS_Serial_5_Tx*%
X147122000Y-26649100D03*
%TO.P,GPS_Serial_5,4,4*%
%TO.N,/GPS_Serial_5_Rx*%
X149892000Y-26649100D03*
%TO.P,GPS_Serial_5,5,5*%
%TO.N,unconnected-(GPS_Serial_5-Pad5)*%
X152662000Y-26649100D03*
%TO.P,GPS_Serial_5,6,6*%
%TO.N,unconnected-(GPS_Serial_5-Pad6)*%
X142967000Y-29489100D03*
%TO.P,GPS_Serial_5,7,7*%
%TO.N,unconnected-(GPS_Serial_5-Pad7)*%
X145737000Y-29489100D03*
%TO.P,GPS_Serial_5,8,8*%
%TO.N,unconnected-(GPS_Serial_5-Pad8)*%
X148507000Y-29489100D03*
%TO.P,GPS_Serial_5,9,9*%
%TO.N,unconnected-(GPS_Serial_5-Pad9)*%
X151277000Y-29489100D03*
%TD*%
D12*
%TO.P,Ident_&_Dimmer_Input_1,0,PAD*%
%TO.N,unconnected-(Ident_&_Dimmer_Input_1-PAD-Pad0)*%
X134622000Y-103069100D03*
X159622000Y-103069100D03*
D13*
%TO.P,Ident_&_Dimmer_Input_1,1,1*%
%TO.N,GND*%
X141582000Y-101649100D03*
D10*
%TO.P,Ident_&_Dimmer_Input_1,2,2*%
%TO.N,/Dimmer_Signal_Input*%
X144352000Y-101649100D03*
%TO.P,Ident_&_Dimmer_Input_1,3,3*%
%TO.N,unconnected-(Ident_&_Dimmer_Input_1-Pad3)*%
X147122000Y-101649100D03*
%TO.P,Ident_&_Dimmer_Input_1,4,4*%
%TO.N,/Dimmer_Output_Signal*%
X149892000Y-101649100D03*
%TO.P,Ident_&_Dimmer_Input_1,5,5*%
%TO.N,GND*%
X152662000Y-101649100D03*
%TO.P,Ident_&_Dimmer_Input_1,6,6*%
%TO.N,/PFD_&_Dim_12V*%
X142967000Y-104489100D03*
%TO.P,Ident_&_Dimmer_Input_1,7,7*%
%TO.N,/GPS_Serial_Input_to_XPNDR_to_R*%
X145737000Y-104489100D03*
%TO.P,Ident_&_Dimmer_Input_1,8,8*%
%TO.N,/Ident_SW_Input*%
X148507000Y-104489100D03*
%TO.P,Ident_&_Dimmer_Input_1,9,9*%
%TO.N,/XPNDR_&_IDENT_12V*%
X151277000Y-104489100D03*
%TD*%
D12*
%TO.P,SkyView_1,0,PAD*%
%TO.N,unconnected-(SkyView_1-PAD-Pad0)*%
X174622000Y-58069100D03*
X199622000Y-58069100D03*
D13*
%TO.P,SkyView_1,1,1*%
%TO.N,/SV_Data_1A*%
X181582000Y-56649100D03*
D10*
%TO.P,SkyView_1,2,2*%
%TO.N,/SV_GND_1*%
X184352000Y-56649100D03*
%TO.P,SkyView_1,3,3*%
%TO.N,/SV_GND_2*%
X187122000Y-56649100D03*
%TO.P,SkyView_1,4,4*%
%TO.N,/SV_Data_2B*%
X189892000Y-56649100D03*
%TO.P,SkyView_1,5,5*%
%TO.N,/SV_EMS_Aux*%
X192662000Y-56649100D03*
%TO.P,SkyView_1,6,6*%
%TO.N,/SV_Data_1B*%
X182967000Y-59489100D03*
%TO.P,SkyView_1,7,7*%
%TO.N,/SV_Power_1*%
X185737000Y-59489100D03*
%TO.P,SkyView_1,8,8*%
%TO.N,/SV_Data_2A*%
X188507000Y-59489100D03*
%TO.P,SkyView_1,9,9*%
%TO.N,/SV_Power_2*%
X191277000Y-59489100D03*
%TD*%
D12*
%TO.P,VPX_Serial_3,0,PAD*%
%TO.N,unconnected-(VPX_Serial_3-PAD-Pad0)*%
X134622000Y-58069100D03*
X159622000Y-58069100D03*
D13*
%TO.P,VPX_Serial_3,1,1*%
%TO.N,GND*%
X141582000Y-56649100D03*
D10*
%TO.P,VPX_Serial_3,2,2*%
%TO.N,unconnected-(VPX_Serial_3-Pad2)*%
X144352000Y-56649100D03*
%TO.P,VPX_Serial_3,3,3*%
%TO.N,/VPX_Serial_3_Tx*%
X147122000Y-56649100D03*
%TO.P,VPX_Serial_3,4,4*%
%TO.N,/VPX_Serial_3_Rx*%
X149892000Y-56649100D03*
%TO.P,VPX_Serial_3,5,5*%
%TO.N,unconnected-(VPX_Serial_3-Pad5)*%
X152662000Y-56649100D03*
%TO.P,VPX_Serial_3,6,6*%
%TO.N,unconnected-(VPX_Serial_3-Pad6)*%
X142967000Y-59489100D03*
%TO.P,VPX_Serial_3,7,7*%
%TO.N,unconnected-(VPX_Serial_3-Pad7)*%
X145737000Y-59489100D03*
%TO.P,VPX_Serial_3,8,8*%
%TO.N,unconnected-(VPX_Serial_3-Pad8)*%
X148507000Y-59489100D03*
%TO.P,VPX_Serial_3,9,9*%
%TO.N,unconnected-(VPX_Serial_3-Pad9)*%
X151277000Y-59489100D03*
%TD*%
D14*
%TO.N,/GPS_Serial_Input_to_XPNDR_from_R*%
X144184000Y-91478400D03*
X132297400Y-98282800D03*
%TO.N,GND*%
X192406200Y-47000100D03*
%TO.N,/ADSB_12V*%
X166113100Y-92471600D03*
%TO.N,/SV_Data_2A*%
X184842500Y-48817100D03*
%TO.N,/SV_Data_1B*%
X185633700Y-45791200D03*
%TO.N,/SV_Data_2B*%
X182901600Y-49764000D03*
%TO.N,/SV_GND_2*%
X124328000Y-47786400D03*
%TO.N,/SV_Data_1A*%
X181910400Y-46633900D03*
%TO.N,/ELT_Serial_4_Tx*%
X156788100Y-66205400D03*
%TO.N,/ELT_Serial_4_Rx*%
X163047200Y-66790900D03*
%TO.N,/ADSB_Serial_1_Tx*%
X150138400Y-84525200D03*
X124160100Y-80865900D03*
%TD*%
D15*
%TO.N,/GPS_Serial_Input_to_XPNDR_from_R*%
X139101800Y-91478400D02*
X132297400Y-98282800D01*
X144184000Y-91478400D02*
X139101800Y-91478400D01*
%TO.N,/Dimmer_Output_Signal*%
X187122000Y-104489100D02*
X187122000Y-101649100D01*
X188507000Y-104489100D02*
X187122000Y-104489100D01*
X187122000Y-104489100D02*
X185737000Y-104489100D01*
%TO.N,/XPNDR_&_IDENT_12V*%
X156539200Y-104489100D02*
X151277000Y-104489100D01*
X168191000Y-116140900D02*
X156539200Y-104489100D01*
X168191000Y-117157500D02*
X168191000Y-116140900D01*
X170522600Y-119489100D02*
X168191000Y-117157500D01*
X171119100Y-119489100D02*
X170522600Y-119489100D01*
D16*
%TO.N,/PFD_&_Dim_12V*%
X120018100Y-91637100D02*
X121919900Y-91637100D01*
D17*
X141849000Y-110131200D02*
X141849000Y-105607100D01*
X153781200Y-122063400D02*
X141849000Y-110131200D01*
X171586400Y-122063400D02*
X153781200Y-122063400D01*
X173243700Y-120406100D02*
X171586400Y-122063400D01*
X173243700Y-117388700D02*
X173243700Y-120406100D01*
X172504100Y-116649100D02*
X173243700Y-117388700D01*
X141849000Y-105607100D02*
X142967000Y-104489100D01*
D16*
X122306700Y-91250300D02*
X121919900Y-91637100D01*
X122858100Y-91250300D02*
X122306700Y-91250300D01*
D17*
X122858100Y-90252100D02*
X122858100Y-91250300D01*
X136002100Y-99760200D02*
X141849000Y-105607100D01*
X133226900Y-99760200D02*
X136002100Y-99760200D01*
X133002400Y-99984700D02*
X133226900Y-99760200D01*
X131592500Y-99984700D02*
X133002400Y-99984700D01*
X122858100Y-91250300D02*
X131592500Y-99984700D01*
D16*
%TO.N,GND*%
X214277700Y-84292500D02*
X213858100Y-84712100D01*
X215743000Y-84292500D02*
X214277700Y-84292500D01*
D18*
X162809100Y-116649100D02*
X162809100Y-119489100D01*
X161424100Y-116649100D02*
X162809100Y-116649100D01*
X162809100Y-116649100D02*
X164194100Y-116649100D01*
D16*
X189742500Y-29924700D02*
X190162100Y-29505100D01*
X189742500Y-31390000D02*
X189742500Y-29924700D01*
D18*
X141866100Y-41649100D02*
X141866100Y-39297200D01*
X170691700Y-39297200D02*
X141866100Y-39297200D01*
X179467200Y-30521700D02*
X170691700Y-39297200D01*
X189272000Y-31860500D02*
X189742500Y-31390000D01*
X180806000Y-31860500D02*
X189272000Y-31860500D01*
X179467200Y-30521700D02*
X180806000Y-31860500D01*
X179467200Y-27106700D02*
X179467200Y-30521700D01*
X182268200Y-24305700D02*
X179467200Y-27106700D01*
X192516700Y-24305700D02*
X182268200Y-24305700D01*
X195361100Y-27150100D02*
X192516700Y-24305700D01*
X195361100Y-36151100D02*
X195361100Y-27150100D01*
X198582100Y-39372100D02*
X195361100Y-36151100D01*
X213438700Y-39372100D02*
X198582100Y-39372100D01*
X216235400Y-42168800D02*
X213438700Y-39372100D01*
X216235400Y-83800100D02*
X216235400Y-42168800D01*
X215743000Y-84292500D02*
X216235400Y-83800100D01*
X194345900Y-47000100D02*
X192406200Y-47000100D01*
X196340200Y-45005800D02*
X194345900Y-47000100D01*
X196340200Y-41614000D02*
X196340200Y-45005800D01*
X198582100Y-39372100D02*
X196340200Y-41614000D01*
X137089600Y-84508600D02*
X139230100Y-86649100D01*
X123061600Y-84508600D02*
X137089600Y-84508600D01*
X122858100Y-84712100D02*
X123061600Y-84508600D01*
X141582000Y-86649100D02*
X139230100Y-86649100D01*
X152662000Y-101085000D02*
X152662000Y-101649100D01*
X150874200Y-99297200D02*
X152662000Y-101085000D01*
X141582000Y-99297200D02*
X150874200Y-99297200D01*
X141582000Y-101649100D02*
X141582000Y-99297200D01*
D15*
%TO.N,/ADSB_12V*%
X145582500Y-85418600D02*
X144352000Y-86649100D01*
X153479700Y-85418600D02*
X145582500Y-85418600D01*
X160532700Y-92471600D02*
X153479700Y-85418600D01*
X166113100Y-92471600D02*
X160532700Y-92471600D01*
D17*
%TO.N,/MFD_12V*%
X213858100Y-90252100D02*
X213858100Y-90967500D01*
D16*
X213589500Y-90967500D02*
X212919900Y-91637100D01*
X213858100Y-90967500D02*
X213589500Y-90967500D01*
X211018100Y-91637100D02*
X211969000Y-91637100D01*
X211969000Y-91637100D02*
X212919900Y-91637100D01*
D17*
X169734100Y-112660300D02*
X169734100Y-116649100D01*
X178933100Y-103461300D02*
X169734100Y-112660300D01*
X178933100Y-100841700D02*
X178933100Y-103461300D01*
X181559400Y-98215400D02*
X178933100Y-100841700D01*
X205390700Y-98215400D02*
X181559400Y-98215400D01*
X211969000Y-91637100D02*
X205390700Y-98215400D01*
D15*
%TO.N,/SV_Power_2*%
X188645700Y-77120400D02*
X191277000Y-74489100D01*
X188645700Y-87201800D02*
X188645700Y-77120400D01*
X190933000Y-89489100D02*
X188645700Y-87201800D01*
X191277000Y-89489100D02*
X190933000Y-89489100D01*
X213858100Y-43448500D02*
X213858100Y-43162100D01*
X211229600Y-46077000D02*
X213858100Y-43448500D01*
X206541500Y-46077000D02*
X211229600Y-46077000D01*
X193129400Y-59489100D02*
X206541500Y-46077000D01*
X191277000Y-59489100D02*
X193129400Y-59489100D01*
%TO.N,/SV_Data_2A*%
X185890200Y-77105900D02*
X188507000Y-74489100D01*
X185890200Y-87216300D02*
X185890200Y-77105900D01*
X188163000Y-89489100D02*
X185890200Y-87216300D01*
X188507000Y-89489100D02*
X188163000Y-89489100D01*
X189753900Y-60736000D02*
X188507000Y-59489100D01*
X192672100Y-60736000D02*
X189753900Y-60736000D01*
X204706000Y-48702100D02*
X192672100Y-60736000D01*
X211432100Y-48702100D02*
X204706000Y-48702100D01*
X213858100Y-46276100D02*
X211432100Y-48702100D01*
X213858100Y-45932100D02*
X213858100Y-46276100D01*
X130390400Y-45932100D02*
X122858100Y-45932100D01*
X133275400Y-48817100D02*
X130390400Y-45932100D01*
X184842500Y-48817100D02*
X133275400Y-48817100D01*
%TO.N,/SV_Power_1*%
X184147100Y-57899200D02*
X185737000Y-59489100D01*
X179248800Y-57899200D02*
X184147100Y-57899200D01*
X173166200Y-51816600D02*
X179248800Y-57899200D01*
X125972600Y-51816600D02*
X173166200Y-51816600D01*
X122858100Y-48702100D02*
X125972600Y-51816600D01*
%TO.N,/SV_Data_1B*%
X191547100Y-41305000D02*
X191547100Y-40449900D01*
X188895500Y-43956600D02*
X191547100Y-41305000D01*
X188895500Y-44738200D02*
X188895500Y-43956600D01*
X187842500Y-45791200D02*
X188895500Y-44738200D01*
X185633700Y-45791200D02*
X187842500Y-45791200D01*
X191547100Y-26665100D02*
X191547100Y-40449900D01*
X191547100Y-40449900D02*
X191547100Y-41665200D01*
X180042600Y-59489100D02*
X182967000Y-59489100D01*
X172922000Y-52368500D02*
X180042600Y-59489100D01*
X123754500Y-52368500D02*
X172922000Y-52368500D01*
X122858100Y-51472100D02*
X123754500Y-52368500D01*
%TO.N,/GPS_Serial_5_Rx*%
X210897700Y-64057500D02*
X211018100Y-63937100D01*
X120138500Y-64057500D02*
X210897700Y-64057500D01*
X120018100Y-63937100D02*
X120138500Y-64057500D01*
%TO.N,/GPS_GND*%
X209195800Y-79172100D02*
X213858100Y-79172100D01*
X199856700Y-69833000D02*
X209195800Y-79172100D01*
X149712200Y-69833000D02*
X199856700Y-69833000D01*
X148256600Y-71288600D02*
X149712200Y-69833000D01*
X148256600Y-72725400D02*
X148256600Y-71288600D01*
X146776000Y-74206000D02*
X148256600Y-72725400D01*
X146776000Y-74924300D02*
X146776000Y-74206000D01*
X142528200Y-79172100D02*
X146776000Y-74924300D01*
X122858100Y-79172100D02*
X142528200Y-79172100D01*
%TO.N,/SV_EMS_Aux*%
X193087100Y-86224000D02*
X192662000Y-86649100D01*
X193087100Y-72074200D02*
X193087100Y-86224000D01*
X192662000Y-71649100D02*
X193087100Y-72074200D01*
X206352000Y-41777100D02*
X192662000Y-55467100D01*
X211018100Y-41777100D02*
X206352000Y-41777100D01*
X192662000Y-56649100D02*
X192662000Y-55467100D01*
X127607100Y-41777100D02*
X120018100Y-41777100D01*
X133441200Y-47611200D02*
X127607100Y-41777100D01*
X184806100Y-47611200D02*
X133441200Y-47611200D01*
X192662000Y-55467100D02*
X184806100Y-47611200D01*
%TO.N,/SV_Data_2B*%
X192519600Y-84021500D02*
X189892000Y-86649100D01*
X192519600Y-73932700D02*
X192519600Y-84021500D01*
X190236000Y-71649100D02*
X192519600Y-73932700D01*
X189892000Y-71649100D02*
X190236000Y-71649100D01*
X189786700Y-56649100D02*
X189892000Y-56649100D01*
X182901600Y-49764000D02*
X189786700Y-56649100D01*
X207170300Y-44547100D02*
X211018100Y-44547100D01*
X193827800Y-57889600D02*
X207170300Y-44547100D01*
X191132500Y-57889600D02*
X193827800Y-57889600D01*
X189892000Y-56649100D02*
X191132500Y-57889600D01*
X132300000Y-49764000D02*
X182901600Y-49764000D01*
X129495500Y-46959500D02*
X132300000Y-49764000D01*
X123985500Y-46959500D02*
X129495500Y-46959500D01*
X123771300Y-47173700D02*
X123985500Y-46959500D01*
X122300700Y-47173700D02*
X123771300Y-47173700D01*
X120018100Y-44891100D02*
X122300700Y-47173700D01*
X120018100Y-44547100D02*
X120018100Y-44891100D01*
%TO.N,/SV_GND_2*%
X181530400Y-51057500D02*
X187122000Y-56649100D01*
X127599100Y-51057500D02*
X181530400Y-51057500D01*
X124328000Y-47786400D02*
X127599100Y-51057500D01*
%TO.N,/SV_GND_1*%
X184352000Y-71649100D02*
X184352000Y-86649100D01*
X184668800Y-56649100D02*
X184352000Y-56649100D01*
X187003700Y-58984000D02*
X184668800Y-56649100D01*
X187003700Y-60021800D02*
X187003700Y-58984000D01*
X186302900Y-60722600D02*
X187003700Y-60021800D01*
X172197400Y-60722600D02*
X186302900Y-60722600D01*
X164395200Y-52920400D02*
X172197400Y-60722600D01*
X122507400Y-52920400D02*
X164395200Y-52920400D01*
X120018100Y-50431100D02*
X122507400Y-52920400D01*
X120018100Y-50087100D02*
X120018100Y-50431100D01*
X188274700Y-61292800D02*
X187003700Y-60021800D01*
X192932100Y-61292800D02*
X188274700Y-61292800D01*
X204137800Y-50087100D02*
X192932100Y-61292800D01*
X211018100Y-50087100D02*
X204137800Y-50087100D01*
%TO.N,/SV_Data_1A*%
X181582000Y-71649100D02*
X181582000Y-86649100D01*
X192932100Y-44505200D02*
X192932100Y-29505100D01*
X192932100Y-44505200D02*
X191705200Y-44505200D01*
X191705200Y-44759300D02*
X191705200Y-44505200D01*
X189830600Y-46633900D02*
X191705200Y-44759300D01*
X181910400Y-46633900D02*
X189830600Y-46633900D01*
X118767500Y-51606500D02*
X120018100Y-52857100D01*
X118767500Y-41255200D02*
X118767500Y-51606500D01*
X119523200Y-40499500D02*
X118767500Y-41255200D01*
X137526500Y-40499500D02*
X119523200Y-40499500D01*
X143660900Y-46633900D02*
X137526500Y-40499500D01*
X181910400Y-46633900D02*
X143660900Y-46633900D01*
%TO.N,/GPS_Serial_5_Tx*%
X209233000Y-62952200D02*
X211018100Y-61167100D01*
X124993300Y-62952200D02*
X209233000Y-62952200D01*
X123208200Y-61167100D02*
X124993300Y-62952200D01*
X120018100Y-61167100D02*
X123208200Y-61167100D01*
%TO.N,/GPS_Power*%
X213858100Y-65322100D02*
X122858100Y-65322100D01*
%TO.N,/ELT_Serial_4_Tx*%
X157029500Y-65964000D02*
X156788100Y-66205400D01*
X210275000Y-65964000D02*
X157029500Y-65964000D01*
X211018100Y-66707100D02*
X210275000Y-65964000D01*
X148016300Y-66707100D02*
X120018100Y-66707100D01*
X148518000Y-66205400D02*
X148016300Y-66707100D01*
X156788100Y-66205400D02*
X148518000Y-66205400D01*
%TO.N,/ELT_Serial_4_Rx*%
X208563200Y-67022200D02*
X163047200Y-67022200D01*
X211018100Y-69477100D02*
X208563200Y-67022200D01*
X163047200Y-67022200D02*
X163047200Y-66790900D01*
X131315700Y-69477100D02*
X120018100Y-69477100D01*
X133493700Y-67299100D02*
X131315700Y-69477100D01*
X148204900Y-67299100D02*
X133493700Y-67299100D01*
X148438000Y-67066000D02*
X148204900Y-67299100D01*
X163003400Y-67066000D02*
X148438000Y-67066000D01*
X163047200Y-67022200D02*
X163003400Y-67066000D01*
%TO.N,/VPX_Serial_3_Tx*%
X129326400Y-72247100D02*
X120018100Y-72247100D01*
X133678800Y-67894700D02*
X129326400Y-72247100D01*
X148389900Y-67894700D02*
X133678800Y-67894700D01*
X148666700Y-67617900D02*
X148389900Y-67894700D01*
X206388900Y-67617900D02*
X148666700Y-67617900D01*
X211018100Y-72247100D02*
X206388900Y-67617900D01*
%TO.N,/VPX_Serial_3_Rx*%
X148622200Y-55379300D02*
X149892000Y-56649100D01*
X139858800Y-55379300D02*
X148622200Y-55379300D01*
X139760900Y-55477200D02*
X139858800Y-55379300D01*
X121720900Y-55477200D02*
X139760900Y-55477200D01*
X120581400Y-54337700D02*
X121720900Y-55477200D01*
X119525300Y-54337700D02*
X120581400Y-54337700D01*
X118764100Y-55098900D02*
X119525300Y-54337700D01*
X118764100Y-73763100D02*
X118764100Y-55098900D01*
X120018100Y-75017100D02*
X118764100Y-73763100D01*
X127337000Y-75017100D02*
X120018100Y-75017100D01*
X133907500Y-68446600D02*
X127337000Y-75017100D01*
X148618600Y-68446600D02*
X133907500Y-68446600D01*
X148895400Y-68169800D02*
X148618600Y-68446600D01*
X204170800Y-68169800D02*
X148895400Y-68169800D01*
X211018100Y-75017100D02*
X204170800Y-68169800D01*
%TO.N,/XPNDR_Serial_2_Tx*%
X145441000Y-73069200D02*
X146861100Y-71649100D01*
X140479300Y-73069200D02*
X145441000Y-73069200D01*
X135761400Y-77787100D02*
X140479300Y-73069200D01*
X120018100Y-77787100D02*
X135761400Y-77787100D01*
X209224700Y-77787100D02*
X211018100Y-77787100D01*
X200718700Y-69281100D02*
X209224700Y-77787100D01*
X149347500Y-69281100D02*
X200718700Y-69281100D01*
X146979500Y-71649100D02*
X149347500Y-69281100D01*
X146861100Y-71649100D02*
X146979500Y-71649100D01*
%TO.N,/XPNDR_Serial_2_Rx*%
X149631100Y-74887600D02*
X149631100Y-71649100D01*
X144772000Y-79746700D02*
X149631100Y-74887600D01*
X124099700Y-79746700D02*
X144772000Y-79746700D01*
X123289300Y-80557100D02*
X124099700Y-79746700D01*
X120018100Y-80557100D02*
X123289300Y-80557100D01*
X203307400Y-80557100D02*
X211018100Y-80557100D01*
X193150800Y-70400500D02*
X203307400Y-80557100D01*
X150879700Y-70400500D02*
X193150800Y-70400500D01*
X149631100Y-71649100D02*
X150879700Y-70400500D01*
%TO.N,/ADSB_Serial_1_Tx*%
X162203100Y-84525200D02*
X150138400Y-84525200D01*
X168419700Y-90741800D02*
X162203100Y-84525200D01*
X203603400Y-90741800D02*
X168419700Y-90741800D01*
X211018100Y-83327100D02*
X203603400Y-90741800D01*
X146479100Y-80865900D02*
X124160100Y-80865900D01*
X150138400Y-84525200D02*
X146479100Y-80865900D01*
%TO.N,/ADSB_Serial_1_Rx*%
X150190300Y-86649100D02*
X149892000Y-86649100D01*
X153029300Y-89488100D02*
X150190300Y-86649100D01*
X156845700Y-93304500D02*
X153029300Y-89488100D01*
X203810700Y-93304500D02*
X156845700Y-93304500D01*
X211018100Y-86097100D02*
X203810700Y-93304500D01*
X120018100Y-86382100D02*
X120018100Y-86097100D01*
X122361700Y-88725700D02*
X120018100Y-86382100D01*
X127820000Y-88725700D02*
X122361700Y-88725700D01*
X129817900Y-90723600D02*
X127820000Y-88725700D01*
X143769400Y-90723600D02*
X129817900Y-90723600D01*
X143841500Y-90651500D02*
X143769400Y-90723600D01*
X144526600Y-90651500D02*
X143841500Y-90651500D01*
X144598700Y-90723600D02*
X144526600Y-90651500D01*
X151793800Y-90723600D02*
X144598700Y-90723600D01*
X153029300Y-89488100D02*
X151793800Y-90723600D01*
%TO.N,/Audio_Out_GND*%
X210540800Y-62552100D02*
X213858100Y-62552100D01*
X209588800Y-63504100D02*
X210540800Y-62552100D01*
X123810100Y-63504100D02*
X209588800Y-63504100D01*
X122858100Y-62552100D02*
X123810100Y-63504100D01*
%TO.N,/L_Audio_Out_1*%
X129961700Y-58397100D02*
X120018100Y-58397100D01*
X133409300Y-61844700D02*
X129961700Y-58397100D01*
X206136500Y-61844700D02*
X133409300Y-61844700D01*
X209584100Y-58397100D02*
X206136500Y-61844700D01*
X211018100Y-58397100D02*
X209584100Y-58397100D01*
%TO.N,/R_Audio_Out_1*%
X209548600Y-59782100D02*
X213858100Y-59782100D01*
X206932300Y-62398400D02*
X209548600Y-59782100D01*
X125474400Y-62398400D02*
X206932300Y-62398400D01*
X122858100Y-59782100D02*
X125474400Y-62398400D01*
%TO.N,/Dimmer_Signal_Input*%
X209368900Y-76402100D02*
X213858100Y-76402100D01*
X201696000Y-68729200D02*
X209368900Y-76402100D01*
X149116600Y-68729200D02*
X201696000Y-68729200D01*
X148843500Y-69002300D02*
X149116600Y-68729200D01*
X134238600Y-69002300D02*
X148843500Y-69002300D01*
X126838800Y-76402100D02*
X134238600Y-69002300D01*
X122858100Y-76402100D02*
X126838800Y-76402100D01*
%TD*%
M02*
