%TF.GenerationSoftware,KiCad,Pcbnew,7.0.9*%
%TF.CreationDate,2023-12-19T17:39:46-08:00*%
%TF.ProjectId,Interconnect Board,496e7465-7263-46f6-9e6e-65637420426f,v0.1*%
%TF.SameCoordinates,Original*%
%TF.FileFunction,Copper,L2,Bot*%
%TF.FilePolarity,Positive*%
%FSLAX46Y46*%
G04 Gerber Fmt 4.6, Leading zero omitted, Abs format (unit mm)*
G04 Created by KiCad (PCBNEW 7.0.9) date 2023-12-19 17:39:46*
%MOMM*%
%LPD*%
G01*
G04 APERTURE LIST*
%TA.AperFunction,ComponentPad*%
%ADD10C,4.000000*%
%TD*%
%TA.AperFunction,ComponentPad*%
%ADD11R,1.600000X1.600000*%
%TD*%
%TA.AperFunction,ComponentPad*%
%ADD12C,1.600000*%
%TD*%
%TA.AperFunction,ViaPad*%
%ADD13C,0.800000*%
%TD*%
%TA.AperFunction,Conductor*%
%ADD14C,0.250000*%
%TD*%
%TA.AperFunction,Conductor*%
%ADD15C,1.000000*%
%TD*%
%TA.AperFunction,Conductor*%
%ADD16C,1.500000*%
%TD*%
G04 APERTURE END LIST*
D10*
%TO.P,SkyView_1,0,PAD*%
%TO.N,GND*%
X168732100Y-74620800D03*
X193732100Y-74620800D03*
D11*
%TO.P,SkyView_1,1,1*%
%TO.N,Net-(Main_1_PFD1-Pad15)*%
X175692100Y-73200800D03*
D12*
%TO.P,SkyView_1,2,2*%
%TO.N,Net-(Main_1_PFD1-Pad16)*%
X178462100Y-73200800D03*
%TO.P,SkyView_1,3,3*%
%TO.N,Net-(Main_1_PFD1-Pad17)*%
X181232100Y-73200800D03*
%TO.P,SkyView_1,4,4*%
%TO.N,Net-(Main_1_PFD1-Pad18)*%
X184002100Y-73200800D03*
%TO.P,SkyView_1,5,5*%
%TO.N,Net-(Main_1_PFD1-Pad19)*%
X186772100Y-73200800D03*
%TO.P,SkyView_1,6,6*%
%TO.N,Net-(Main_1_PFD1-Pad34)*%
X177077100Y-76040800D03*
%TO.P,SkyView_1,7,7*%
%TO.N,Net-(Main_1_PFD1-Pad35)*%
X179847100Y-76040800D03*
%TO.P,SkyView_1,8,8*%
%TO.N,Net-(Main_1_PFD1-Pad36)*%
X182617100Y-76040800D03*
%TO.P,SkyView_1,9,9*%
%TO.N,Net-(Main_1_PFD1-Pad37)*%
X185387100Y-76040800D03*
%TD*%
D10*
%TO.P,Serial_5_GPS1,0,PAD*%
%TO.N,GND*%
X129431900Y-37149100D03*
X154431900Y-37149100D03*
D11*
%TO.P,Serial_5_GPS1,1,1*%
%TO.N,/GPS_GND*%
X147471900Y-35729100D03*
D12*
%TO.P,Serial_5_GPS1,2,2*%
%TO.N,/GPS_Power*%
X144701900Y-35729100D03*
%TO.P,Serial_5_GPS1,3,3*%
%TO.N,unconnected-(Serial_5_GPS1-Pad3)*%
X141931900Y-35729100D03*
%TO.P,Serial_5_GPS1,4,4*%
%TO.N,unconnected-(Serial_5_GPS1-Pad4)*%
X139161900Y-35729100D03*
%TO.P,Serial_5_GPS1,5,5*%
%TO.N,unconnected-(Serial_5_GPS1-Pad5)*%
X136391900Y-35729100D03*
%TO.P,Serial_5_GPS1,6,6*%
%TO.N,/GPS_Serial_5_Rx*%
X146086900Y-38569100D03*
%TO.P,Serial_5_GPS1,7,7*%
%TO.N,/GPS_Serial_5_Tx*%
X143316900Y-38569100D03*
%TO.P,Serial_5_GPS1,8,8*%
%TO.N,unconnected-(Serial_5_GPS1-Pad8)*%
X140546900Y-38569100D03*
%TO.P,Serial_5_GPS1,9,9*%
%TO.N,unconnected-(Serial_5_GPS1-Pad9)*%
X137776900Y-38569100D03*
%TD*%
D10*
%TO.P,Serial_2_XPNDR1,0,PAD*%
%TO.N,GND*%
X129431900Y-92949100D03*
X154431900Y-92949100D03*
D11*
%TO.P,Serial_2_XPNDR1,1,1*%
X147471900Y-91529100D03*
D12*
%TO.P,Serial_2_XPNDR1,2,2*%
%TO.N,/XPNDR_12V*%
X144701900Y-91529100D03*
%TO.P,Serial_2_XPNDR1,3,3*%
%TO.N,unconnected-(Serial_2_XPNDR1-Pad3)*%
X141931900Y-91529100D03*
%TO.P,Serial_2_XPNDR1,4,4*%
%TO.N,unconnected-(Serial_2_XPNDR1-Pad4)*%
X139161900Y-91529100D03*
%TO.P,Serial_2_XPNDR1,5,5*%
%TO.N,unconnected-(Serial_2_XPNDR1-Pad5)*%
X136391900Y-91529100D03*
%TO.P,Serial_2_XPNDR1,6,6*%
%TO.N,/XPNDR_Serial_2_Rx*%
X146086900Y-94369100D03*
%TO.P,Serial_2_XPNDR1,7,7*%
%TO.N,/XPNDR_Serial_2_Tx*%
X143316900Y-94369100D03*
%TO.P,Serial_2_XPNDR1,8,8*%
%TO.N,unconnected-(Serial_2_XPNDR1-Pad8)*%
X140546900Y-94369100D03*
%TO.P,Serial_2_XPNDR1,9,9*%
%TO.N,unconnected-(Serial_2_XPNDR1-Pad9)*%
X137776900Y-94369100D03*
%TD*%
D10*
%TO.P,Serial_3_VPX1,0,PAD*%
%TO.N,GND*%
X129431900Y-74349100D03*
X154431900Y-74349100D03*
D11*
%TO.P,Serial_3_VPX1,1,1*%
X147471900Y-72929100D03*
D12*
%TO.P,Serial_3_VPX1,2,2*%
%TO.N,unconnected-(Serial_3_VPX1-Pad2)*%
X144701900Y-72929100D03*
%TO.P,Serial_3_VPX1,3,3*%
%TO.N,unconnected-(Serial_3_VPX1-Pad3)*%
X141931900Y-72929100D03*
%TO.P,Serial_3_VPX1,4,4*%
%TO.N,unconnected-(Serial_3_VPX1-Pad4)*%
X139161900Y-72929100D03*
%TO.P,Serial_3_VPX1,5,5*%
%TO.N,unconnected-(Serial_3_VPX1-Pad5)*%
X136391900Y-72929100D03*
%TO.P,Serial_3_VPX1,6,6*%
%TO.N,/VPX_Serial_3_Rx*%
X146086900Y-75769100D03*
%TO.P,Serial_3_VPX1,7,7*%
%TO.N,/VPX_Serial_3_Tx*%
X143316900Y-75769100D03*
%TO.P,Serial_3_VPX1,8,8*%
%TO.N,unconnected-(Serial_3_VPX1-Pad8)*%
X140546900Y-75769100D03*
%TO.P,Serial_3_VPX1,9,9*%
%TO.N,unconnected-(Serial_3_VPX1-Pad9)*%
X137776900Y-75769100D03*
%TD*%
D10*
%TO.P,SV-Net_AP_Roll_1,0,PAD*%
%TO.N,GND*%
X193752100Y-55645500D03*
X168752100Y-55645500D03*
D11*
%TO.P,SV-Net_AP_Roll_1,1,1*%
%TO.N,Net-(Main_1_PFD1-Pad15)*%
X186792100Y-57065500D03*
D12*
%TO.P,SV-Net_AP_Roll_1,2,2*%
%TO.N,GND*%
X184022100Y-57065500D03*
%TO.P,SV-Net_AP_Roll_1,3,3*%
%TO.N,unconnected-(SV-Net_AP_Roll_1-Pad3)*%
X181252100Y-57065500D03*
%TO.P,SV-Net_AP_Roll_1,4,4*%
%TO.N,Net-(Main_1_PFD1-Pad18)*%
X178482100Y-57065500D03*
%TO.P,SV-Net_AP_Roll_1,5,5*%
%TO.N,unconnected-(SV-Net_AP_Roll_1-Pad5)*%
X175712100Y-57065500D03*
%TO.P,SV-Net_AP_Roll_1,6,6*%
%TO.N,Net-(Main_1_PFD1-Pad34)*%
X185407100Y-54225500D03*
%TO.P,SV-Net_AP_Roll_1,7,7*%
%TO.N,/SV-Net_AP_12V*%
X182637100Y-54225500D03*
%TO.P,SV-Net_AP_Roll_1,8,8*%
%TO.N,Net-(Main_1_PFD1-Pad36)*%
X179867100Y-54225500D03*
%TO.P,SV-Net_AP_Roll_1,9,9*%
%TO.N,unconnected-(SV-Net_AP_Roll_1-Pad9)*%
X177097100Y-54225500D03*
%TD*%
D10*
%TO.P,Dimmer_and_Audio_Output1,0,PAD*%
%TO.N,GND*%
X129431900Y-130149200D03*
X154431900Y-130149200D03*
D11*
%TO.P,Dimmer_and_Audio_Output1,1,1*%
X147471900Y-128729200D03*
D12*
%TO.P,Dimmer_and_Audio_Output1,2,2*%
%TO.N,/Dimmer_Signal_Input*%
X144701900Y-128729200D03*
%TO.P,Dimmer_and_Audio_Output1,3,3*%
%TO.N,/dimmer_output_signal*%
X141931900Y-128729200D03*
%TO.P,Dimmer_and_Audio_Output1,4,4*%
%TO.N,/R_Audio_Out_1*%
X139161900Y-128729200D03*
%TO.P,Dimmer_and_Audio_Output1,5,5*%
%TO.N,/L_Audio_Out_1*%
X136391900Y-128729200D03*
%TO.P,Dimmer_and_Audio_Output1,6,6*%
%TO.N,/PFD_12V*%
X146086900Y-131569200D03*
%TO.P,Dimmer_and_Audio_Output1,7,7*%
%TO.N,/dimmer_output_signal*%
X143316900Y-131569200D03*
%TO.P,Dimmer_and_Audio_Output1,8,8*%
X140546900Y-131569200D03*
%TO.P,Dimmer_and_Audio_Output1,9,9*%
%TO.N,/Audio_Out_GND*%
X137776900Y-131569200D03*
%TD*%
D10*
%TO.P,Serial_4_ELT1,0,PAD*%
%TO.N,GND*%
X129431900Y-55749100D03*
X154431900Y-55749100D03*
D11*
%TO.P,Serial_4_ELT1,1,1*%
X147471900Y-54329100D03*
D12*
%TO.P,Serial_4_ELT1,2,2*%
%TO.N,/ELT_12V*%
X144701900Y-54329100D03*
%TO.P,Serial_4_ELT1,3,3*%
%TO.N,unconnected-(Serial_4_ELT1-Pad3)*%
X141931900Y-54329100D03*
%TO.P,Serial_4_ELT1,4,4*%
%TO.N,unconnected-(Serial_4_ELT1-Pad4)*%
X139161900Y-54329100D03*
%TO.P,Serial_4_ELT1,5,5*%
%TO.N,unconnected-(Serial_4_ELT1-Pad5)*%
X136391900Y-54329100D03*
%TO.P,Serial_4_ELT1,6,6*%
%TO.N,/ELT_Serial_4_Rx*%
X146086900Y-57169100D03*
%TO.P,Serial_4_ELT1,7,7*%
%TO.N,/ELT_Serial_4_Tx*%
X143316900Y-57169100D03*
%TO.P,Serial_4_ELT1,8,8*%
%TO.N,unconnected-(Serial_4_ELT1-Pad8)*%
X140546900Y-57169100D03*
%TO.P,Serial_4_ELT1,9,9*%
%TO.N,unconnected-(Serial_4_ELT1-Pad9)*%
X137776900Y-57169100D03*
%TD*%
D10*
%TO.P,Main_2_MFD1,0,PAD*%
%TO.N,GND*%
X211601700Y-115394100D03*
X211601700Y-51894100D03*
D11*
%TO.P,Main_2_MFD1,1,1*%
%TO.N,/MFD_12V*%
X210181700Y-108574100D03*
D12*
%TO.P,Main_2_MFD1,2,2*%
%TO.N,unconnected-(Main_2_MFD1-Pad2)*%
X210181700Y-105804100D03*
%TO.P,Main_2_MFD1,3,3*%
%TO.N,/ADSB_Serial_1_Rx*%
X210181700Y-103034100D03*
%TO.P,Main_2_MFD1,4,4*%
%TO.N,/ADSB_Serial_1_Tx*%
X210181700Y-100264100D03*
%TO.P,Main_2_MFD1,5,5*%
%TO.N,/XPNDR_Serial_2_Rx*%
X210181700Y-97494100D03*
%TO.P,Main_2_MFD1,6,6*%
%TO.N,/XPNDR_Serial_2_Tx*%
X210181700Y-94724100D03*
%TO.P,Main_2_MFD1,7,7*%
%TO.N,/VPX_Serial_3_Rx*%
X210181700Y-91954100D03*
%TO.P,Main_2_MFD1,8,8*%
%TO.N,/VPX_Serial_3_Tx*%
X210181700Y-89184100D03*
%TO.P,Main_2_MFD1,9,9*%
%TO.N,/ELT_Serial_4_Rx*%
X210181700Y-86414100D03*
%TO.P,Main_2_MFD1,10,10*%
%TO.N,/ELT_Serial_4_Tx*%
X210181700Y-83644100D03*
%TO.P,Main_2_MFD1,11,11*%
%TO.N,/GPS_Serial_5_Rx*%
X210181700Y-80874100D03*
%TO.P,Main_2_MFD1,12,12*%
%TO.N,/GPS_Serial_5_Tx*%
X210181700Y-78104100D03*
%TO.P,Main_2_MFD1,13,13*%
%TO.N,/L_Audio_Out_1*%
X210181700Y-75334100D03*
%TO.P,Main_2_MFD1,14,14*%
%TO.N,unconnected-(Main_2_MFD1-Pad14)*%
X210181700Y-72564100D03*
%TO.P,Main_2_MFD1,15,15*%
%TO.N,Net-(Main_1_PFD1-Pad15)*%
X210181700Y-69794100D03*
%TO.P,Main_2_MFD1,16,16*%
%TO.N,Net-(Main_1_PFD1-Pad16)*%
X210181700Y-67024100D03*
%TO.P,Main_2_MFD1,17,17*%
%TO.N,Net-(Main_1_PFD1-Pad17)*%
X210181700Y-64254100D03*
%TO.P,Main_2_MFD1,18,18*%
%TO.N,Net-(Main_1_PFD1-Pad18)*%
X210181700Y-61484100D03*
%TO.P,Main_2_MFD1,19,19*%
%TO.N,Net-(Main_1_PFD1-Pad19)*%
X210181700Y-58714100D03*
%TO.P,Main_2_MFD1,20,20*%
%TO.N,/MFD_12V*%
X213021700Y-107189100D03*
%TO.P,Main_2_MFD1,21,21*%
%TO.N,GND*%
X213021700Y-104419100D03*
%TO.P,Main_2_MFD1,22,22*%
X213021700Y-101649100D03*
%TO.P,Main_2_MFD1,23,23*%
%TO.N,unconnected-(Main_2_MFD1-Pad23)*%
X213021700Y-98879100D03*
%TO.P,Main_2_MFD1,24,24*%
%TO.N,/GPS_GND*%
X213021700Y-96109100D03*
%TO.P,Main_2_MFD1,25,25*%
%TO.N,/Dimmer_Signal_Input*%
X213021700Y-93339100D03*
%TO.P,Main_2_MFD1,26,26*%
%TO.N,unconnected-(Main_2_MFD1-Pad26)*%
X213021700Y-90569100D03*
%TO.P,Main_2_MFD1,27,27*%
%TO.N,unconnected-(Main_2_MFD1-Pad27)*%
X213021700Y-87799100D03*
%TO.P,Main_2_MFD1,28,28*%
%TO.N,unconnected-(Main_2_MFD1-Pad28)*%
X213021700Y-85029100D03*
%TO.P,Main_2_MFD1,29,29*%
%TO.N,/GPS_Power*%
X213021700Y-82259100D03*
%TO.P,Main_2_MFD1,30,30*%
%TO.N,/Audio_Out_GND*%
X213021700Y-79489100D03*
%TO.P,Main_2_MFD1,31,31*%
%TO.N,/R_Audio_Out_1*%
X213021700Y-76719100D03*
%TO.P,Main_2_MFD1,32,32*%
%TO.N,unconnected-(Main_2_MFD1-Pad32)*%
X213021700Y-73949100D03*
%TO.P,Main_2_MFD1,33,33*%
%TO.N,unconnected-(Main_2_MFD1-Pad33)*%
X213021700Y-71179100D03*
%TO.P,Main_2_MFD1,34,34*%
%TO.N,Net-(Main_1_PFD1-Pad34)*%
X213021700Y-68409100D03*
%TO.P,Main_2_MFD1,35,35*%
%TO.N,Net-(Main_1_PFD1-Pad35)*%
X213021700Y-65639100D03*
%TO.P,Main_2_MFD1,36,36*%
%TO.N,Net-(Main_1_PFD1-Pad36)*%
X213021700Y-62869100D03*
%TO.P,Main_2_MFD1,37,37*%
%TO.N,Net-(Main_1_PFD1-Pad37)*%
X213021700Y-60099100D03*
%TD*%
D10*
%TO.P,SkyView_2,0,PAD*%
%TO.N,GND*%
X168732100Y-93136800D03*
X193732100Y-93136800D03*
D11*
%TO.P,SkyView_2,1,1*%
%TO.N,Net-(Main_1_PFD1-Pad15)*%
X175692100Y-91716800D03*
D12*
%TO.P,SkyView_2,2,2*%
%TO.N,Net-(Main_1_PFD1-Pad16)*%
X178462100Y-91716800D03*
%TO.P,SkyView_2,3,3*%
%TO.N,Net-(Main_1_PFD1-Pad17)*%
X181232100Y-91716800D03*
%TO.P,SkyView_2,4,4*%
%TO.N,Net-(Main_1_PFD1-Pad18)*%
X184002100Y-91716800D03*
%TO.P,SkyView_2,5,5*%
%TO.N,Net-(Main_1_PFD1-Pad19)*%
X186772100Y-91716800D03*
%TO.P,SkyView_2,6,6*%
%TO.N,Net-(Main_1_PFD1-Pad34)*%
X177077100Y-94556800D03*
%TO.P,SkyView_2,7,7*%
%TO.N,Net-(Main_1_PFD1-Pad35)*%
X179847100Y-94556800D03*
%TO.P,SkyView_2,8,8*%
%TO.N,Net-(Main_1_PFD1-Pad36)*%
X182617100Y-94556800D03*
%TO.P,SkyView_2,9,9*%
%TO.N,Net-(Main_1_PFD1-Pad37)*%
X185387100Y-94556800D03*
%TD*%
D10*
%TO.P,Main_1_PFD1,0,PAD*%
%TO.N,GND*%
X112021700Y-115394100D03*
X112021700Y-51894100D03*
D11*
%TO.P,Main_1_PFD1,1,1*%
%TO.N,/PFD_12V*%
X110601700Y-108574100D03*
D12*
%TO.P,Main_1_PFD1,2,2*%
%TO.N,unconnected-(Main_1_PFD1-Pad2)*%
X110601700Y-105804100D03*
%TO.P,Main_1_PFD1,3,3*%
%TO.N,/ADSB_Serial_1_Rx*%
X110601700Y-103034100D03*
%TO.P,Main_1_PFD1,4,4*%
%TO.N,/ADSB_Serial_1_Tx*%
X110601700Y-100264100D03*
%TO.P,Main_1_PFD1,5,5*%
%TO.N,/XPNDR_Serial_2_Rx*%
X110601700Y-97494100D03*
%TO.P,Main_1_PFD1,6,6*%
%TO.N,/XPNDR_Serial_2_Tx*%
X110601700Y-94724100D03*
%TO.P,Main_1_PFD1,7,7*%
%TO.N,/VPX_Serial_3_Rx*%
X110601700Y-91954100D03*
%TO.P,Main_1_PFD1,8,8*%
%TO.N,/VPX_Serial_3_Tx*%
X110601700Y-89184100D03*
%TO.P,Main_1_PFD1,9,9*%
%TO.N,/ELT_Serial_4_Rx*%
X110601700Y-86414100D03*
%TO.P,Main_1_PFD1,10,10*%
%TO.N,/ELT_Serial_4_Tx*%
X110601700Y-83644100D03*
%TO.P,Main_1_PFD1,11,11*%
%TO.N,/GPS_Serial_5_Rx*%
X110601700Y-80874100D03*
%TO.P,Main_1_PFD1,12,12*%
%TO.N,/GPS_Serial_5_Tx*%
X110601700Y-78104100D03*
%TO.P,Main_1_PFD1,13,13*%
%TO.N,/L_Audio_Out_1*%
X110601700Y-75334100D03*
%TO.P,Main_1_PFD1,14,14*%
%TO.N,unconnected-(Main_1_PFD1-Pad14)*%
X110601700Y-72564100D03*
%TO.P,Main_1_PFD1,15,15*%
%TO.N,Net-(Main_1_PFD1-Pad15)*%
X110601700Y-69794100D03*
%TO.P,Main_1_PFD1,16,16*%
%TO.N,Net-(Main_1_PFD1-Pad16)*%
X110601700Y-67024100D03*
%TO.P,Main_1_PFD1,17,17*%
%TO.N,Net-(Main_1_PFD1-Pad17)*%
X110601700Y-64254100D03*
%TO.P,Main_1_PFD1,18,18*%
%TO.N,Net-(Main_1_PFD1-Pad18)*%
X110601700Y-61484100D03*
%TO.P,Main_1_PFD1,19,19*%
%TO.N,Net-(Main_1_PFD1-Pad19)*%
X110601700Y-58714100D03*
%TO.P,Main_1_PFD1,20,20*%
%TO.N,/PFD_12V*%
X113441700Y-107189100D03*
%TO.P,Main_1_PFD1,21,21*%
%TO.N,GND*%
X113441700Y-104419100D03*
%TO.P,Main_1_PFD1,22,22*%
X113441700Y-101649100D03*
%TO.P,Main_1_PFD1,23,23*%
%TO.N,unconnected-(Main_1_PFD1-Pad23)*%
X113441700Y-98879100D03*
%TO.P,Main_1_PFD1,24,24*%
%TO.N,/GPS_GND*%
X113441700Y-96109100D03*
%TO.P,Main_1_PFD1,25,25*%
%TO.N,/Dimmer_Signal_Input*%
X113441700Y-93339100D03*
%TO.P,Main_1_PFD1,26,26*%
%TO.N,/dimmer_output_signal*%
X113441700Y-90569100D03*
%TO.P,Main_1_PFD1,27,27*%
%TO.N,unconnected-(Main_1_PFD1-Pad27)*%
X113441700Y-87799100D03*
%TO.P,Main_1_PFD1,28,28*%
%TO.N,unconnected-(Main_1_PFD1-Pad28)*%
X113441700Y-85029100D03*
%TO.P,Main_1_PFD1,29,29*%
%TO.N,/GPS_Power*%
X113441700Y-82259100D03*
%TO.P,Main_1_PFD1,30,30*%
%TO.N,/Audio_Out_GND*%
X113441700Y-79489100D03*
%TO.P,Main_1_PFD1,31,31*%
%TO.N,/R_Audio_Out_1*%
X113441700Y-76719100D03*
%TO.P,Main_1_PFD1,32,32*%
%TO.N,unconnected-(Main_1_PFD1-Pad32)*%
X113441700Y-73949100D03*
%TO.P,Main_1_PFD1,33,33*%
%TO.N,unconnected-(Main_1_PFD1-Pad33)*%
X113441700Y-71179100D03*
%TO.P,Main_1_PFD1,34,34*%
%TO.N,Net-(Main_1_PFD1-Pad34)*%
X113441700Y-68409100D03*
%TO.P,Main_1_PFD1,35,35*%
%TO.N,Net-(Main_1_PFD1-Pad35)*%
X113441700Y-65639100D03*
%TO.P,Main_1_PFD1,36,36*%
%TO.N,Net-(Main_1_PFD1-Pad36)*%
X113441700Y-62869100D03*
%TO.P,Main_1_PFD1,37,37*%
%TO.N,Net-(Main_1_PFD1-Pad37)*%
X113441700Y-60099100D03*
%TD*%
D10*
%TO.P,Serial_1_ADSB1,0,PAD*%
%TO.N,GND*%
X129431900Y-111549200D03*
X154431900Y-111549200D03*
D11*
%TO.P,Serial_1_ADSB1,1,1*%
X147471900Y-110129200D03*
D12*
%TO.P,Serial_1_ADSB1,2,2*%
%TO.N,/ADSB_12V*%
X144701900Y-110129200D03*
%TO.P,Serial_1_ADSB1,3,3*%
%TO.N,unconnected-(Serial_1_ADSB1-Pad3)*%
X141931900Y-110129200D03*
%TO.P,Serial_1_ADSB1,4,4*%
%TO.N,unconnected-(Serial_1_ADSB1-Pad4)*%
X139161900Y-110129200D03*
%TO.P,Serial_1_ADSB1,5,5*%
%TO.N,unconnected-(Serial_1_ADSB1-Pad5)*%
X136391900Y-110129200D03*
%TO.P,Serial_1_ADSB1,6,6*%
%TO.N,/ADSB_Serial_1_Rx*%
X146086900Y-112969200D03*
%TO.P,Serial_1_ADSB1,7,7*%
%TO.N,/ADSB_Serial_1_Tx*%
X143316900Y-112969200D03*
%TO.P,Serial_1_ADSB1,8,8*%
%TO.N,unconnected-(Serial_1_ADSB1-Pad8)*%
X140546900Y-112969200D03*
%TO.P,Serial_1_ADSB1,9,9*%
%TO.N,unconnected-(Serial_1_ADSB1-Pad9)*%
X137776900Y-112969200D03*
%TD*%
D10*
%TO.P,SkyView_3,0,PAD*%
%TO.N,GND*%
X168732100Y-111652800D03*
X193732100Y-111652800D03*
D11*
%TO.P,SkyView_3,1,1*%
%TO.N,Net-(Main_1_PFD1-Pad15)*%
X175692100Y-110232800D03*
D12*
%TO.P,SkyView_3,2,2*%
%TO.N,Net-(Main_1_PFD1-Pad16)*%
X178462100Y-110232800D03*
%TO.P,SkyView_3,3,3*%
%TO.N,Net-(Main_1_PFD1-Pad17)*%
X181232100Y-110232800D03*
%TO.P,SkyView_3,4,4*%
%TO.N,Net-(Main_1_PFD1-Pad18)*%
X184002100Y-110232800D03*
%TO.P,SkyView_3,5,5*%
%TO.N,Net-(Main_1_PFD1-Pad19)*%
X186772100Y-110232800D03*
%TO.P,SkyView_3,6,6*%
%TO.N,Net-(Main_1_PFD1-Pad34)*%
X177077100Y-113072800D03*
%TO.P,SkyView_3,7,7*%
%TO.N,Net-(Main_1_PFD1-Pad35)*%
X179847100Y-113072800D03*
%TO.P,SkyView_3,8,8*%
%TO.N,Net-(Main_1_PFD1-Pad36)*%
X182617100Y-113072800D03*
%TO.P,SkyView_3,9,9*%
%TO.N,Net-(Main_1_PFD1-Pad37)*%
X185387100Y-113072800D03*
%TD*%
D10*
%TO.P,SV-Net_AP_Pitch_1,0,PAD*%
%TO.N,GND*%
X193752100Y-37129500D03*
X168752100Y-37129500D03*
D11*
%TO.P,SV-Net_AP_Pitch_1,1,1*%
%TO.N,Net-(Main_1_PFD1-Pad15)*%
X186792100Y-38549500D03*
D12*
%TO.P,SV-Net_AP_Pitch_1,2,2*%
%TO.N,GND*%
X184022100Y-38549500D03*
%TO.P,SV-Net_AP_Pitch_1,3,3*%
%TO.N,unconnected-(SV-Net_AP_Pitch_1-Pad3)*%
X181252100Y-38549500D03*
%TO.P,SV-Net_AP_Pitch_1,4,4*%
%TO.N,Net-(Main_1_PFD1-Pad18)*%
X178482100Y-38549500D03*
%TO.P,SV-Net_AP_Pitch_1,5,5*%
%TO.N,unconnected-(SV-Net_AP_Pitch_1-Pad5)*%
X175712100Y-38549500D03*
%TO.P,SV-Net_AP_Pitch_1,6,6*%
%TO.N,Net-(Main_1_PFD1-Pad34)*%
X185407100Y-35709500D03*
%TO.P,SV-Net_AP_Pitch_1,7,7*%
%TO.N,/SV-Net_AP_12V*%
X182637100Y-35709500D03*
%TO.P,SV-Net_AP_Pitch_1,8,8*%
%TO.N,Net-(Main_1_PFD1-Pad36)*%
X179867100Y-35709500D03*
%TO.P,SV-Net_AP_Pitch_1,9,9*%
%TO.N,unconnected-(SV-Net_AP_Pitch_1-Pad9)*%
X177097100Y-35709500D03*
%TD*%
D10*
%TO.P,power_input_1,0,PAD*%
%TO.N,unconnected-(power_input_1-PAD-Pad0)*%
X168732100Y-130168800D03*
X193732100Y-130168800D03*
D11*
%TO.P,power_input_1,1,1*%
%TO.N,GND*%
X175692100Y-128748800D03*
D12*
%TO.P,power_input_1,2,2*%
%TO.N,/PFD_12V*%
X178462100Y-128748800D03*
%TO.P,power_input_1,3,3*%
%TO.N,/MFD_12V*%
X181232100Y-128748800D03*
%TO.P,power_input_1,4,4*%
%TO.N,/SV-Net_AP_12V*%
X184002100Y-128748800D03*
%TO.P,power_input_1,5,5*%
%TO.N,/ADSB_12V*%
X186772100Y-128748800D03*
%TO.P,power_input_1,6,6*%
%TO.N,/XPNDR_12V*%
X177077100Y-131588800D03*
%TO.P,power_input_1,7,7*%
%TO.N,/ELT_12V*%
X179847100Y-131588800D03*
%TO.P,power_input_1,8,8*%
%TO.N,GND*%
X182617100Y-131588800D03*
%TO.P,power_input_1,9,9*%
X185387100Y-131588800D03*
%TD*%
D13*
%TO.N,/VPX_Serial_3_Tx*%
X131432700Y-86841100D03*
%TO.N,/ELT_Serial_4_Rx*%
X151195300Y-83349400D03*
%TO.N,/ELT_Serial_4_Tx*%
X119132600Y-82919600D03*
%TO.N,/XPNDR_12V*%
X170885400Y-126112300D03*
%TO.N,/ADSB_12V*%
X149282000Y-114179400D03*
%TD*%
D14*
%TO.N,/Dimmer_Signal_Input*%
X137184600Y-133221300D02*
X140488500Y-133221300D01*
X141772600Y-131421400D02*
X144464800Y-128729200D01*
X141772600Y-131937200D02*
X141772600Y-131421400D01*
X114568600Y-110605300D02*
X137184600Y-133221300D01*
X113441700Y-93339100D02*
X114568600Y-94466000D01*
X114568600Y-94466000D02*
X114568600Y-110605300D01*
X140488500Y-133221300D02*
X141772600Y-131937200D01*
X144464800Y-128729200D02*
X144701900Y-128729200D01*
%TO.N,/dimmer_output_signal*%
X115207700Y-92335000D02*
X115207600Y-92335000D01*
X115207700Y-110602400D02*
X115207700Y-92335000D01*
X139383100Y-132733000D02*
X137338300Y-132733000D01*
X137338300Y-132733000D02*
X115207700Y-110602400D01*
X140546900Y-131569200D02*
X139383100Y-132733000D01*
X115207600Y-92335000D02*
X113441700Y-90569100D01*
%TO.N,/R_Audio_Out_1*%
X139161900Y-125630700D02*
X117270700Y-103739500D01*
X117270700Y-80548100D02*
X113441700Y-76719100D01*
X117270700Y-103739500D02*
X117270700Y-80548100D01*
X139161900Y-128729200D02*
X139161900Y-125630700D01*
%TO.N,/L_Audio_Out_1*%
X113184800Y-83644100D02*
X113703200Y-83644100D01*
X111766500Y-82225800D02*
X113184800Y-83644100D01*
X111766500Y-76498900D02*
X111766500Y-82225800D01*
X113703200Y-83644100D02*
X116258200Y-86199100D01*
X116258200Y-86199100D02*
X116258200Y-108595600D01*
X110601700Y-75334100D02*
X111766500Y-76498900D01*
X116258300Y-108595600D02*
X136391900Y-128729200D01*
X116258200Y-108595600D02*
X116258300Y-108595600D01*
%TO.N,/Audio_Out_GND*%
X116763700Y-105464100D02*
X137776900Y-126477300D01*
X116763700Y-82811100D02*
X116763700Y-105464100D01*
X137776900Y-126477300D02*
X137776900Y-131569200D01*
X113441700Y-79489100D02*
X116763700Y-82811100D01*
%TO.N,/VPX_Serial_3_Tx*%
X131432700Y-86841100D02*
X142504700Y-75769100D01*
X142504700Y-75769100D02*
X143316900Y-75769100D01*
%TO.N,/ELT_Serial_4_Rx*%
X146086900Y-57169100D02*
X151195300Y-62277500D01*
X151195300Y-62277500D02*
X151195300Y-83349400D01*
%TO.N,/ELT_Serial_4_Tx*%
X119132600Y-82919600D02*
X119132600Y-81353400D01*
X119132600Y-81353400D02*
X143316900Y-57169100D01*
%TO.N,/GPS_Power*%
X113184800Y-75334100D02*
X113719100Y-75334100D01*
X113719100Y-75334100D02*
X144701900Y-44351300D01*
X112271300Y-76247600D02*
X113184800Y-75334100D01*
X112271300Y-81088700D02*
X112271300Y-76247600D01*
X144701900Y-44351300D02*
X144701900Y-35729100D01*
X113441700Y-82259100D02*
X112271300Y-81088700D01*
%TO.N,/GPS_Serial_5_Tx*%
X127105000Y-54781000D02*
X143316900Y-38569100D01*
X112530900Y-69794100D02*
X113683200Y-69794100D01*
X110601700Y-78104100D02*
X109469400Y-76971800D01*
X113683200Y-69794100D02*
X127105000Y-56372300D01*
X110546000Y-71019800D02*
X111305200Y-71019800D01*
X109469400Y-72096400D02*
X110546000Y-71019800D01*
X111305200Y-71019800D02*
X112530900Y-69794100D01*
X127105000Y-56372300D02*
X127105000Y-54781000D01*
X109469400Y-76971800D02*
X109469400Y-72096400D01*
%TO.N,Net-(Main_1_PFD1-Pad15)*%
X175692100Y-91716800D02*
X175692100Y-73200800D01*
X186792100Y-57065500D02*
X186792100Y-60973900D01*
X175692100Y-110232800D02*
X175692100Y-109105900D01*
X175692100Y-73200800D02*
X175692100Y-72073900D01*
X175692100Y-91716800D02*
X175692100Y-109105900D01*
X186792100Y-60973900D02*
X175692100Y-72073900D01*
%TO.N,Net-(Main_1_PFD1-Pad16)*%
X178462100Y-91716800D02*
X178462100Y-110232800D01*
X178462100Y-73200800D02*
X178462100Y-91716800D01*
%TO.N,Net-(Main_1_PFD1-Pad17)*%
X181232100Y-91716800D02*
X181232100Y-110232800D01*
X181232100Y-73200800D02*
X181232100Y-91716800D01*
%TO.N,Net-(Main_1_PFD1-Pad18)*%
X195718800Y-61484100D02*
X210181700Y-61484100D01*
X184002100Y-73200800D02*
X195718800Y-61484100D01*
X184002100Y-91716800D02*
X184002100Y-110232800D01*
X178482100Y-38549500D02*
X178482100Y-57065500D01*
X184002100Y-73200800D02*
X184002100Y-91716800D01*
%TO.N,Net-(Main_1_PFD1-Pad19)*%
X186772100Y-91716800D02*
X186772100Y-110232800D01*
X186772100Y-73200800D02*
X186772100Y-91716800D01*
%TO.N,/GPS_GND*%
X113441700Y-96109100D02*
X113441700Y-95898900D01*
X137837400Y-36899600D02*
X139633400Y-36899600D01*
X141895100Y-34119500D02*
X145862300Y-34119500D01*
X111727100Y-65483800D02*
X112892000Y-64318900D01*
X139633400Y-36899600D02*
X140546900Y-35986100D01*
X113441700Y-95898900D02*
X110881900Y-93339100D01*
X108510500Y-91494800D02*
X108510500Y-67519800D01*
X140546900Y-35467700D02*
X141895100Y-34119500D01*
X136268900Y-38468100D02*
X137837400Y-36899600D01*
X112892000Y-64318900D02*
X113676700Y-64318900D01*
X136268900Y-41726700D02*
X136268900Y-38468100D01*
X113676700Y-64318900D02*
X136268900Y-41726700D01*
X108510500Y-67519800D02*
X110546500Y-65483800D01*
X110881900Y-93339100D02*
X110354800Y-93339100D01*
X110546500Y-65483800D02*
X111727100Y-65483800D01*
X145862300Y-34119500D02*
X147471900Y-35729100D01*
X110354800Y-93339100D02*
X108510500Y-91494800D01*
X140546900Y-35986100D02*
X140546900Y-35467700D01*
%TO.N,/GPS_Serial_5_Rx*%
X113642600Y-67088900D02*
X141931900Y-38799600D01*
X111727100Y-68253800D02*
X112892000Y-67088900D01*
X144260300Y-34577100D02*
X145157600Y-34577100D01*
X112892000Y-67088900D02*
X113642600Y-67088900D01*
X141931900Y-37658300D02*
X143476300Y-36113900D01*
X110601700Y-80874100D02*
X108986200Y-79258600D01*
X145157600Y-34577100D02*
X146086900Y-35506400D01*
X143476300Y-35361100D02*
X144260300Y-34577100D01*
X110507600Y-68253800D02*
X111727100Y-68253800D01*
X146086900Y-35506400D02*
X146086900Y-38569100D01*
X108986200Y-69775200D02*
X110507600Y-68253800D01*
X143476300Y-36113900D02*
X143476300Y-35361100D01*
X141931900Y-38799600D02*
X141931900Y-37658300D01*
X108986200Y-79258600D02*
X108986200Y-69775200D01*
%TO.N,Net-(Main_1_PFD1-Pad34)*%
X187919000Y-56130100D02*
X187919000Y-60826700D01*
X177077100Y-94556800D02*
X177077100Y-113072800D01*
X186014400Y-54225500D02*
X187919000Y-56130100D01*
X187919000Y-60826700D02*
X177077100Y-71668600D01*
X177077100Y-94556800D02*
X177077100Y-76040800D01*
X177077100Y-71668600D02*
X177077100Y-76040800D01*
X185407100Y-54225500D02*
X186014400Y-54225500D01*
%TO.N,Net-(Main_1_PFD1-Pad35)*%
X179847100Y-76040800D02*
X179847100Y-94556800D01*
X179847100Y-94556800D02*
X179847100Y-113072800D01*
%TO.N,Net-(Main_1_PFD1-Pad36)*%
X125099300Y-48862800D02*
X137776900Y-36185200D01*
X184966500Y-53069000D02*
X184280200Y-53755300D01*
X179867100Y-35709500D02*
X179867100Y-54225500D01*
X213021700Y-62869100D02*
X213021700Y-62650100D01*
X137776900Y-35518800D02*
X139629700Y-33666000D01*
X139629700Y-33666000D02*
X177823600Y-33666000D01*
X125099300Y-51211500D02*
X125099300Y-48862800D01*
X193151400Y-60353400D02*
X185867000Y-53069000D01*
X177823600Y-33666000D02*
X179867100Y-35709500D01*
X183128800Y-55352400D02*
X180994000Y-55352400D01*
X180994000Y-55352400D02*
X179867100Y-54225500D01*
X213021700Y-62650100D02*
X210725000Y-60353400D01*
X182617100Y-94556800D02*
X182617100Y-113072800D01*
X184280200Y-53755300D02*
X184280200Y-54201000D01*
X185867000Y-53069000D02*
X184966500Y-53069000D01*
X193151400Y-60353400D02*
X182617100Y-70887700D01*
X137776900Y-36185200D02*
X137776900Y-35518800D01*
X210725000Y-60353400D02*
X193151400Y-60353400D01*
X182617100Y-70887700D02*
X182617100Y-76040800D01*
X113441700Y-62869100D02*
X125099300Y-51211500D01*
X182617100Y-94556800D02*
X182617100Y-76040800D01*
X184280200Y-54201000D02*
X183128800Y-55352400D01*
%TO.N,Net-(Main_1_PFD1-Pad37)*%
X185387100Y-76040800D02*
X185387100Y-94556800D01*
X185387100Y-94556800D02*
X185387100Y-113072800D01*
D15*
%TO.N,/MFD_12V*%
X201406800Y-108574100D02*
X181232100Y-128748800D01*
X210181700Y-108574100D02*
X201406800Y-108574100D01*
%TO.N,/PFD_12V*%
X110601700Y-108574100D02*
X110601700Y-110076000D01*
X151568800Y-127246900D02*
X176960200Y-127246900D01*
X147246500Y-131569200D02*
X151568800Y-127246900D01*
X110601700Y-110076000D02*
X123689100Y-123163400D01*
X123689100Y-123163400D02*
X123689100Y-128244900D01*
X146086900Y-131569200D02*
X147246500Y-131569200D01*
X129528800Y-134084600D02*
X143571500Y-134084600D01*
X123689100Y-128244900D02*
X129528800Y-134084600D01*
X176960200Y-127246900D02*
X178462100Y-128748800D01*
X143571500Y-134084600D02*
X146086900Y-131569200D01*
D14*
%TO.N,/XPNDR_12V*%
X144701900Y-91529100D02*
X144701900Y-94635000D01*
X170885400Y-120818500D02*
X170885400Y-126112300D01*
X144701900Y-94635000D02*
X170885400Y-120818500D01*
%TO.N,/ADSB_12V*%
X144701900Y-110129200D02*
X145231800Y-110129200D01*
X145231800Y-110129200D02*
X149282000Y-114179400D01*
D16*
%TO.N,GND*%
X154431900Y-92949100D02*
X168544400Y-92949100D01*
X193732100Y-93136800D02*
X193732100Y-74620800D01*
X147852700Y-87623700D02*
X147852700Y-73309900D01*
X184022100Y-57065500D02*
X182263500Y-58824100D01*
X129431900Y-86812500D02*
X129431900Y-74349100D01*
X132500200Y-89880800D02*
X132614200Y-89766800D01*
X154431900Y-111549200D02*
X150643800Y-111549200D01*
X129431900Y-111549200D02*
X129431900Y-92949100D01*
X132614200Y-89766800D02*
X145709600Y-89766800D01*
X180823300Y-133382600D02*
X176390900Y-133382600D01*
X175283500Y-132275200D02*
X175283500Y-129157400D01*
X182617100Y-131588800D02*
X180823300Y-133382600D01*
X168752100Y-37149100D02*
X154431900Y-37149100D01*
X171930700Y-58824100D02*
X168752100Y-55645500D01*
X145709600Y-89766800D02*
X147852700Y-87623700D01*
X150643800Y-111549200D02*
X149223800Y-110129200D01*
X168732100Y-62022700D02*
X171930700Y-58824100D01*
X213021700Y-101649100D02*
X213021700Y-104419100D01*
X132500200Y-89880800D02*
X129431900Y-86812500D01*
X168732100Y-111652800D02*
X168732100Y-93136800D01*
X147471900Y-91529100D02*
X145709600Y-89766800D01*
X182263500Y-58824100D02*
X171930700Y-58824100D01*
X113441700Y-101649100D02*
X113441700Y-104419100D01*
X147471900Y-128729200D02*
X147471900Y-126977300D01*
X129431900Y-92949100D02*
X132500200Y-89880800D01*
X168752100Y-37149100D02*
X168752100Y-55645500D01*
X150643800Y-111549200D02*
X150643800Y-123805400D01*
X193732100Y-111652800D02*
X193732100Y-93136800D01*
X147852700Y-73309900D02*
X147471900Y-72929100D01*
X176390900Y-133382600D02*
X175283500Y-132275200D01*
X150643800Y-123805400D02*
X147471900Y-126977300D01*
X175283500Y-129157400D02*
X175692100Y-128748800D01*
X168732100Y-74620800D02*
X168732100Y-62022700D01*
X168752100Y-37149100D02*
X168752100Y-37129500D01*
X147471900Y-110129200D02*
X149223800Y-110129200D01*
X168544400Y-92949100D02*
X168732100Y-93136800D01*
D15*
%TO.N,/SV-Net_AP_12V*%
X195722900Y-126666800D02*
X186084100Y-126666800D01*
X188294000Y-48568600D02*
X203615600Y-48568600D01*
X182637100Y-35709500D02*
X184165400Y-34181200D01*
X214579500Y-107810200D02*
X195722900Y-126666800D01*
X203615600Y-48568600D02*
X214579500Y-59532500D01*
X214579500Y-59532500D02*
X214579500Y-107810200D01*
X186015600Y-34181200D02*
X188294000Y-36459600D01*
X184165400Y-34181200D02*
X186015600Y-34181200D01*
X188294000Y-36459600D02*
X188294000Y-48568600D01*
X188294000Y-48568600D02*
X182637100Y-54225500D01*
X186084100Y-126666800D02*
X184002100Y-128748800D01*
D14*
%TO.N,/ELT_12V*%
X150110500Y-62788500D02*
X150110500Y-96993300D01*
X150110500Y-96993300D02*
X179847100Y-126729900D01*
X144701900Y-57379900D02*
X150110500Y-62788500D01*
X179847100Y-126729900D02*
X179847100Y-131588800D01*
X144701900Y-54329100D02*
X144701900Y-57379900D01*
%TD*%
M02*
