%TF.GenerationSoftware,KiCad,Pcbnew,7.0.9*%
%TF.CreationDate,2023-12-19T17:39:46-08:00*%
%TF.ProjectId,Interconnect Board,496e7465-7263-46f6-9e6e-65637420426f,v0.1*%
%TF.SameCoordinates,Original*%
%TF.FileFunction,Copper,L1,Top*%
%TF.FilePolarity,Positive*%
%FSLAX46Y46*%
G04 Gerber Fmt 4.6, Leading zero omitted, Abs format (unit mm)*
G04 Created by KiCad (PCBNEW 7.0.9) date 2023-12-19 17:39:46*
%MOMM*%
%LPD*%
G01*
G04 APERTURE LIST*
%TA.AperFunction,ComponentPad*%
%ADD10C,4.000000*%
%TD*%
%TA.AperFunction,ComponentPad*%
%ADD11R,1.600000X1.600000*%
%TD*%
%TA.AperFunction,ComponentPad*%
%ADD12C,1.600000*%
%TD*%
%TA.AperFunction,ViaPad*%
%ADD13C,0.800000*%
%TD*%
%TA.AperFunction,Conductor*%
%ADD14C,0.250000*%
%TD*%
%TA.AperFunction,Conductor*%
%ADD15C,1.000000*%
%TD*%
%TA.AperFunction,Conductor*%
%ADD16C,1.500000*%
%TD*%
G04 APERTURE END LIST*
D10*
%TO.P,SkyView_1,0,PAD*%
%TO.N,GND*%
X168732100Y-74620800D03*
X193732100Y-74620800D03*
D11*
%TO.P,SkyView_1,1,1*%
%TO.N,Net-(Main_1_PFD1-Pad15)*%
X175692100Y-73200800D03*
D12*
%TO.P,SkyView_1,2,2*%
%TO.N,Net-(Main_1_PFD1-Pad16)*%
X178462100Y-73200800D03*
%TO.P,SkyView_1,3,3*%
%TO.N,Net-(Main_1_PFD1-Pad17)*%
X181232100Y-73200800D03*
%TO.P,SkyView_1,4,4*%
%TO.N,Net-(Main_1_PFD1-Pad18)*%
X184002100Y-73200800D03*
%TO.P,SkyView_1,5,5*%
%TO.N,Net-(Main_1_PFD1-Pad19)*%
X186772100Y-73200800D03*
%TO.P,SkyView_1,6,6*%
%TO.N,Net-(Main_1_PFD1-Pad34)*%
X177077100Y-76040800D03*
%TO.P,SkyView_1,7,7*%
%TO.N,Net-(Main_1_PFD1-Pad35)*%
X179847100Y-76040800D03*
%TO.P,SkyView_1,8,8*%
%TO.N,Net-(Main_1_PFD1-Pad36)*%
X182617100Y-76040800D03*
%TO.P,SkyView_1,9,9*%
%TO.N,Net-(Main_1_PFD1-Pad37)*%
X185387100Y-76040800D03*
%TD*%
D10*
%TO.P,Serial_5_GPS1,0,PAD*%
%TO.N,GND*%
X129431900Y-37149100D03*
X154431900Y-37149100D03*
D11*
%TO.P,Serial_5_GPS1,1,1*%
%TO.N,/GPS_GND*%
X147471900Y-35729100D03*
D12*
%TO.P,Serial_5_GPS1,2,2*%
%TO.N,/GPS_Power*%
X144701900Y-35729100D03*
%TO.P,Serial_5_GPS1,3,3*%
%TO.N,unconnected-(Serial_5_GPS1-Pad3)*%
X141931900Y-35729100D03*
%TO.P,Serial_5_GPS1,4,4*%
%TO.N,unconnected-(Serial_5_GPS1-Pad4)*%
X139161900Y-35729100D03*
%TO.P,Serial_5_GPS1,5,5*%
%TO.N,unconnected-(Serial_5_GPS1-Pad5)*%
X136391900Y-35729100D03*
%TO.P,Serial_5_GPS1,6,6*%
%TO.N,/GPS_Serial_5_Rx*%
X146086900Y-38569100D03*
%TO.P,Serial_5_GPS1,7,7*%
%TO.N,/GPS_Serial_5_Tx*%
X143316900Y-38569100D03*
%TO.P,Serial_5_GPS1,8,8*%
%TO.N,unconnected-(Serial_5_GPS1-Pad8)*%
X140546900Y-38569100D03*
%TO.P,Serial_5_GPS1,9,9*%
%TO.N,unconnected-(Serial_5_GPS1-Pad9)*%
X137776900Y-38569100D03*
%TD*%
D10*
%TO.P,Serial_2_XPNDR1,0,PAD*%
%TO.N,GND*%
X129431900Y-92949100D03*
X154431900Y-92949100D03*
D11*
%TO.P,Serial_2_XPNDR1,1,1*%
X147471900Y-91529100D03*
D12*
%TO.P,Serial_2_XPNDR1,2,2*%
%TO.N,/XPNDR_12V*%
X144701900Y-91529100D03*
%TO.P,Serial_2_XPNDR1,3,3*%
%TO.N,unconnected-(Serial_2_XPNDR1-Pad3)*%
X141931900Y-91529100D03*
%TO.P,Serial_2_XPNDR1,4,4*%
%TO.N,unconnected-(Serial_2_XPNDR1-Pad4)*%
X139161900Y-91529100D03*
%TO.P,Serial_2_XPNDR1,5,5*%
%TO.N,unconnected-(Serial_2_XPNDR1-Pad5)*%
X136391900Y-91529100D03*
%TO.P,Serial_2_XPNDR1,6,6*%
%TO.N,/XPNDR_Serial_2_Rx*%
X146086900Y-94369100D03*
%TO.P,Serial_2_XPNDR1,7,7*%
%TO.N,/XPNDR_Serial_2_Tx*%
X143316900Y-94369100D03*
%TO.P,Serial_2_XPNDR1,8,8*%
%TO.N,unconnected-(Serial_2_XPNDR1-Pad8)*%
X140546900Y-94369100D03*
%TO.P,Serial_2_XPNDR1,9,9*%
%TO.N,unconnected-(Serial_2_XPNDR1-Pad9)*%
X137776900Y-94369100D03*
%TD*%
D10*
%TO.P,Serial_3_VPX1,0,PAD*%
%TO.N,GND*%
X129431900Y-74349100D03*
X154431900Y-74349100D03*
D11*
%TO.P,Serial_3_VPX1,1,1*%
X147471900Y-72929100D03*
D12*
%TO.P,Serial_3_VPX1,2,2*%
%TO.N,unconnected-(Serial_3_VPX1-Pad2)*%
X144701900Y-72929100D03*
%TO.P,Serial_3_VPX1,3,3*%
%TO.N,unconnected-(Serial_3_VPX1-Pad3)*%
X141931900Y-72929100D03*
%TO.P,Serial_3_VPX1,4,4*%
%TO.N,unconnected-(Serial_3_VPX1-Pad4)*%
X139161900Y-72929100D03*
%TO.P,Serial_3_VPX1,5,5*%
%TO.N,unconnected-(Serial_3_VPX1-Pad5)*%
X136391900Y-72929100D03*
%TO.P,Serial_3_VPX1,6,6*%
%TO.N,/VPX_Serial_3_Rx*%
X146086900Y-75769100D03*
%TO.P,Serial_3_VPX1,7,7*%
%TO.N,/VPX_Serial_3_Tx*%
X143316900Y-75769100D03*
%TO.P,Serial_3_VPX1,8,8*%
%TO.N,unconnected-(Serial_3_VPX1-Pad8)*%
X140546900Y-75769100D03*
%TO.P,Serial_3_VPX1,9,9*%
%TO.N,unconnected-(Serial_3_VPX1-Pad9)*%
X137776900Y-75769100D03*
%TD*%
D10*
%TO.P,SV-Net_AP_Roll_1,0,PAD*%
%TO.N,GND*%
X193752100Y-55645500D03*
X168752100Y-55645500D03*
D11*
%TO.P,SV-Net_AP_Roll_1,1,1*%
%TO.N,Net-(Main_1_PFD1-Pad15)*%
X186792100Y-57065500D03*
D12*
%TO.P,SV-Net_AP_Roll_1,2,2*%
%TO.N,GND*%
X184022100Y-57065500D03*
%TO.P,SV-Net_AP_Roll_1,3,3*%
%TO.N,unconnected-(SV-Net_AP_Roll_1-Pad3)*%
X181252100Y-57065500D03*
%TO.P,SV-Net_AP_Roll_1,4,4*%
%TO.N,Net-(Main_1_PFD1-Pad18)*%
X178482100Y-57065500D03*
%TO.P,SV-Net_AP_Roll_1,5,5*%
%TO.N,unconnected-(SV-Net_AP_Roll_1-Pad5)*%
X175712100Y-57065500D03*
%TO.P,SV-Net_AP_Roll_1,6,6*%
%TO.N,Net-(Main_1_PFD1-Pad34)*%
X185407100Y-54225500D03*
%TO.P,SV-Net_AP_Roll_1,7,7*%
%TO.N,/SV-Net_AP_12V*%
X182637100Y-54225500D03*
%TO.P,SV-Net_AP_Roll_1,8,8*%
%TO.N,Net-(Main_1_PFD1-Pad36)*%
X179867100Y-54225500D03*
%TO.P,SV-Net_AP_Roll_1,9,9*%
%TO.N,unconnected-(SV-Net_AP_Roll_1-Pad9)*%
X177097100Y-54225500D03*
%TD*%
D10*
%TO.P,Dimmer_and_Audio_Output1,0,PAD*%
%TO.N,GND*%
X129431900Y-130149200D03*
X154431900Y-130149200D03*
D11*
%TO.P,Dimmer_and_Audio_Output1,1,1*%
X147471900Y-128729200D03*
D12*
%TO.P,Dimmer_and_Audio_Output1,2,2*%
%TO.N,/Dimmer_Signal_Input*%
X144701900Y-128729200D03*
%TO.P,Dimmer_and_Audio_Output1,3,3*%
%TO.N,/dimmer_output_signal*%
X141931900Y-128729200D03*
%TO.P,Dimmer_and_Audio_Output1,4,4*%
%TO.N,/R_Audio_Out_1*%
X139161900Y-128729200D03*
%TO.P,Dimmer_and_Audio_Output1,5,5*%
%TO.N,/L_Audio_Out_1*%
X136391900Y-128729200D03*
%TO.P,Dimmer_and_Audio_Output1,6,6*%
%TO.N,/PFD_12V*%
X146086900Y-131569200D03*
%TO.P,Dimmer_and_Audio_Output1,7,7*%
%TO.N,/dimmer_output_signal*%
X143316900Y-131569200D03*
%TO.P,Dimmer_and_Audio_Output1,8,8*%
X140546900Y-131569200D03*
%TO.P,Dimmer_and_Audio_Output1,9,9*%
%TO.N,/Audio_Out_GND*%
X137776900Y-131569200D03*
%TD*%
D10*
%TO.P,Serial_4_ELT1,0,PAD*%
%TO.N,GND*%
X129431900Y-55749100D03*
X154431900Y-55749100D03*
D11*
%TO.P,Serial_4_ELT1,1,1*%
X147471900Y-54329100D03*
D12*
%TO.P,Serial_4_ELT1,2,2*%
%TO.N,/ELT_12V*%
X144701900Y-54329100D03*
%TO.P,Serial_4_ELT1,3,3*%
%TO.N,unconnected-(Serial_4_ELT1-Pad3)*%
X141931900Y-54329100D03*
%TO.P,Serial_4_ELT1,4,4*%
%TO.N,unconnected-(Serial_4_ELT1-Pad4)*%
X139161900Y-54329100D03*
%TO.P,Serial_4_ELT1,5,5*%
%TO.N,unconnected-(Serial_4_ELT1-Pad5)*%
X136391900Y-54329100D03*
%TO.P,Serial_4_ELT1,6,6*%
%TO.N,/ELT_Serial_4_Rx*%
X146086900Y-57169100D03*
%TO.P,Serial_4_ELT1,7,7*%
%TO.N,/ELT_Serial_4_Tx*%
X143316900Y-57169100D03*
%TO.P,Serial_4_ELT1,8,8*%
%TO.N,unconnected-(Serial_4_ELT1-Pad8)*%
X140546900Y-57169100D03*
%TO.P,Serial_4_ELT1,9,9*%
%TO.N,unconnected-(Serial_4_ELT1-Pad9)*%
X137776900Y-57169100D03*
%TD*%
D10*
%TO.P,Main_2_MFD1,0,PAD*%
%TO.N,GND*%
X211601700Y-115394100D03*
X211601700Y-51894100D03*
D11*
%TO.P,Main_2_MFD1,1,1*%
%TO.N,/MFD_12V*%
X210181700Y-108574100D03*
D12*
%TO.P,Main_2_MFD1,2,2*%
%TO.N,unconnected-(Main_2_MFD1-Pad2)*%
X210181700Y-105804100D03*
%TO.P,Main_2_MFD1,3,3*%
%TO.N,/ADSB_Serial_1_Rx*%
X210181700Y-103034100D03*
%TO.P,Main_2_MFD1,4,4*%
%TO.N,/ADSB_Serial_1_Tx*%
X210181700Y-100264100D03*
%TO.P,Main_2_MFD1,5,5*%
%TO.N,/XPNDR_Serial_2_Rx*%
X210181700Y-97494100D03*
%TO.P,Main_2_MFD1,6,6*%
%TO.N,/XPNDR_Serial_2_Tx*%
X210181700Y-94724100D03*
%TO.P,Main_2_MFD1,7,7*%
%TO.N,/VPX_Serial_3_Rx*%
X210181700Y-91954100D03*
%TO.P,Main_2_MFD1,8,8*%
%TO.N,/VPX_Serial_3_Tx*%
X210181700Y-89184100D03*
%TO.P,Main_2_MFD1,9,9*%
%TO.N,/ELT_Serial_4_Rx*%
X210181700Y-86414100D03*
%TO.P,Main_2_MFD1,10,10*%
%TO.N,/ELT_Serial_4_Tx*%
X210181700Y-83644100D03*
%TO.P,Main_2_MFD1,11,11*%
%TO.N,/GPS_Serial_5_Rx*%
X210181700Y-80874100D03*
%TO.P,Main_2_MFD1,12,12*%
%TO.N,/GPS_Serial_5_Tx*%
X210181700Y-78104100D03*
%TO.P,Main_2_MFD1,13,13*%
%TO.N,/L_Audio_Out_1*%
X210181700Y-75334100D03*
%TO.P,Main_2_MFD1,14,14*%
%TO.N,unconnected-(Main_2_MFD1-Pad14)*%
X210181700Y-72564100D03*
%TO.P,Main_2_MFD1,15,15*%
%TO.N,Net-(Main_1_PFD1-Pad15)*%
X210181700Y-69794100D03*
%TO.P,Main_2_MFD1,16,16*%
%TO.N,Net-(Main_1_PFD1-Pad16)*%
X210181700Y-67024100D03*
%TO.P,Main_2_MFD1,17,17*%
%TO.N,Net-(Main_1_PFD1-Pad17)*%
X210181700Y-64254100D03*
%TO.P,Main_2_MFD1,18,18*%
%TO.N,Net-(Main_1_PFD1-Pad18)*%
X210181700Y-61484100D03*
%TO.P,Main_2_MFD1,19,19*%
%TO.N,Net-(Main_1_PFD1-Pad19)*%
X210181700Y-58714100D03*
%TO.P,Main_2_MFD1,20,20*%
%TO.N,/MFD_12V*%
X213021700Y-107189100D03*
%TO.P,Main_2_MFD1,21,21*%
%TO.N,GND*%
X213021700Y-104419100D03*
%TO.P,Main_2_MFD1,22,22*%
X213021700Y-101649100D03*
%TO.P,Main_2_MFD1,23,23*%
%TO.N,unconnected-(Main_2_MFD1-Pad23)*%
X213021700Y-98879100D03*
%TO.P,Main_2_MFD1,24,24*%
%TO.N,/GPS_GND*%
X213021700Y-96109100D03*
%TO.P,Main_2_MFD1,25,25*%
%TO.N,/Dimmer_Signal_Input*%
X213021700Y-93339100D03*
%TO.P,Main_2_MFD1,26,26*%
%TO.N,unconnected-(Main_2_MFD1-Pad26)*%
X213021700Y-90569100D03*
%TO.P,Main_2_MFD1,27,27*%
%TO.N,unconnected-(Main_2_MFD1-Pad27)*%
X213021700Y-87799100D03*
%TO.P,Main_2_MFD1,28,28*%
%TO.N,unconnected-(Main_2_MFD1-Pad28)*%
X213021700Y-85029100D03*
%TO.P,Main_2_MFD1,29,29*%
%TO.N,/GPS_Power*%
X213021700Y-82259100D03*
%TO.P,Main_2_MFD1,30,30*%
%TO.N,/Audio_Out_GND*%
X213021700Y-79489100D03*
%TO.P,Main_2_MFD1,31,31*%
%TO.N,/R_Audio_Out_1*%
X213021700Y-76719100D03*
%TO.P,Main_2_MFD1,32,32*%
%TO.N,unconnected-(Main_2_MFD1-Pad32)*%
X213021700Y-73949100D03*
%TO.P,Main_2_MFD1,33,33*%
%TO.N,unconnected-(Main_2_MFD1-Pad33)*%
X213021700Y-71179100D03*
%TO.P,Main_2_MFD1,34,34*%
%TO.N,Net-(Main_1_PFD1-Pad34)*%
X213021700Y-68409100D03*
%TO.P,Main_2_MFD1,35,35*%
%TO.N,Net-(Main_1_PFD1-Pad35)*%
X213021700Y-65639100D03*
%TO.P,Main_2_MFD1,36,36*%
%TO.N,Net-(Main_1_PFD1-Pad36)*%
X213021700Y-62869100D03*
%TO.P,Main_2_MFD1,37,37*%
%TO.N,Net-(Main_1_PFD1-Pad37)*%
X213021700Y-60099100D03*
%TD*%
D10*
%TO.P,SkyView_2,0,PAD*%
%TO.N,GND*%
X168732100Y-93136800D03*
X193732100Y-93136800D03*
D11*
%TO.P,SkyView_2,1,1*%
%TO.N,Net-(Main_1_PFD1-Pad15)*%
X175692100Y-91716800D03*
D12*
%TO.P,SkyView_2,2,2*%
%TO.N,Net-(Main_1_PFD1-Pad16)*%
X178462100Y-91716800D03*
%TO.P,SkyView_2,3,3*%
%TO.N,Net-(Main_1_PFD1-Pad17)*%
X181232100Y-91716800D03*
%TO.P,SkyView_2,4,4*%
%TO.N,Net-(Main_1_PFD1-Pad18)*%
X184002100Y-91716800D03*
%TO.P,SkyView_2,5,5*%
%TO.N,Net-(Main_1_PFD1-Pad19)*%
X186772100Y-91716800D03*
%TO.P,SkyView_2,6,6*%
%TO.N,Net-(Main_1_PFD1-Pad34)*%
X177077100Y-94556800D03*
%TO.P,SkyView_2,7,7*%
%TO.N,Net-(Main_1_PFD1-Pad35)*%
X179847100Y-94556800D03*
%TO.P,SkyView_2,8,8*%
%TO.N,Net-(Main_1_PFD1-Pad36)*%
X182617100Y-94556800D03*
%TO.P,SkyView_2,9,9*%
%TO.N,Net-(Main_1_PFD1-Pad37)*%
X185387100Y-94556800D03*
%TD*%
D10*
%TO.P,Main_1_PFD1,0,PAD*%
%TO.N,GND*%
X112021700Y-115394100D03*
X112021700Y-51894100D03*
D11*
%TO.P,Main_1_PFD1,1,1*%
%TO.N,/PFD_12V*%
X110601700Y-108574100D03*
D12*
%TO.P,Main_1_PFD1,2,2*%
%TO.N,unconnected-(Main_1_PFD1-Pad2)*%
X110601700Y-105804100D03*
%TO.P,Main_1_PFD1,3,3*%
%TO.N,/ADSB_Serial_1_Rx*%
X110601700Y-103034100D03*
%TO.P,Main_1_PFD1,4,4*%
%TO.N,/ADSB_Serial_1_Tx*%
X110601700Y-100264100D03*
%TO.P,Main_1_PFD1,5,5*%
%TO.N,/XPNDR_Serial_2_Rx*%
X110601700Y-97494100D03*
%TO.P,Main_1_PFD1,6,6*%
%TO.N,/XPNDR_Serial_2_Tx*%
X110601700Y-94724100D03*
%TO.P,Main_1_PFD1,7,7*%
%TO.N,/VPX_Serial_3_Rx*%
X110601700Y-91954100D03*
%TO.P,Main_1_PFD1,8,8*%
%TO.N,/VPX_Serial_3_Tx*%
X110601700Y-89184100D03*
%TO.P,Main_1_PFD1,9,9*%
%TO.N,/ELT_Serial_4_Rx*%
X110601700Y-86414100D03*
%TO.P,Main_1_PFD1,10,10*%
%TO.N,/ELT_Serial_4_Tx*%
X110601700Y-83644100D03*
%TO.P,Main_1_PFD1,11,11*%
%TO.N,/GPS_Serial_5_Rx*%
X110601700Y-80874100D03*
%TO.P,Main_1_PFD1,12,12*%
%TO.N,/GPS_Serial_5_Tx*%
X110601700Y-78104100D03*
%TO.P,Main_1_PFD1,13,13*%
%TO.N,/L_Audio_Out_1*%
X110601700Y-75334100D03*
%TO.P,Main_1_PFD1,14,14*%
%TO.N,unconnected-(Main_1_PFD1-Pad14)*%
X110601700Y-72564100D03*
%TO.P,Main_1_PFD1,15,15*%
%TO.N,Net-(Main_1_PFD1-Pad15)*%
X110601700Y-69794100D03*
%TO.P,Main_1_PFD1,16,16*%
%TO.N,Net-(Main_1_PFD1-Pad16)*%
X110601700Y-67024100D03*
%TO.P,Main_1_PFD1,17,17*%
%TO.N,Net-(Main_1_PFD1-Pad17)*%
X110601700Y-64254100D03*
%TO.P,Main_1_PFD1,18,18*%
%TO.N,Net-(Main_1_PFD1-Pad18)*%
X110601700Y-61484100D03*
%TO.P,Main_1_PFD1,19,19*%
%TO.N,Net-(Main_1_PFD1-Pad19)*%
X110601700Y-58714100D03*
%TO.P,Main_1_PFD1,20,20*%
%TO.N,/PFD_12V*%
X113441700Y-107189100D03*
%TO.P,Main_1_PFD1,21,21*%
%TO.N,GND*%
X113441700Y-104419100D03*
%TO.P,Main_1_PFD1,22,22*%
X113441700Y-101649100D03*
%TO.P,Main_1_PFD1,23,23*%
%TO.N,unconnected-(Main_1_PFD1-Pad23)*%
X113441700Y-98879100D03*
%TO.P,Main_1_PFD1,24,24*%
%TO.N,/GPS_GND*%
X113441700Y-96109100D03*
%TO.P,Main_1_PFD1,25,25*%
%TO.N,/Dimmer_Signal_Input*%
X113441700Y-93339100D03*
%TO.P,Main_1_PFD1,26,26*%
%TO.N,/dimmer_output_signal*%
X113441700Y-90569100D03*
%TO.P,Main_1_PFD1,27,27*%
%TO.N,unconnected-(Main_1_PFD1-Pad27)*%
X113441700Y-87799100D03*
%TO.P,Main_1_PFD1,28,28*%
%TO.N,unconnected-(Main_1_PFD1-Pad28)*%
X113441700Y-85029100D03*
%TO.P,Main_1_PFD1,29,29*%
%TO.N,/GPS_Power*%
X113441700Y-82259100D03*
%TO.P,Main_1_PFD1,30,30*%
%TO.N,/Audio_Out_GND*%
X113441700Y-79489100D03*
%TO.P,Main_1_PFD1,31,31*%
%TO.N,/R_Audio_Out_1*%
X113441700Y-76719100D03*
%TO.P,Main_1_PFD1,32,32*%
%TO.N,unconnected-(Main_1_PFD1-Pad32)*%
X113441700Y-73949100D03*
%TO.P,Main_1_PFD1,33,33*%
%TO.N,unconnected-(Main_1_PFD1-Pad33)*%
X113441700Y-71179100D03*
%TO.P,Main_1_PFD1,34,34*%
%TO.N,Net-(Main_1_PFD1-Pad34)*%
X113441700Y-68409100D03*
%TO.P,Main_1_PFD1,35,35*%
%TO.N,Net-(Main_1_PFD1-Pad35)*%
X113441700Y-65639100D03*
%TO.P,Main_1_PFD1,36,36*%
%TO.N,Net-(Main_1_PFD1-Pad36)*%
X113441700Y-62869100D03*
%TO.P,Main_1_PFD1,37,37*%
%TO.N,Net-(Main_1_PFD1-Pad37)*%
X113441700Y-60099100D03*
%TD*%
D10*
%TO.P,Serial_1_ADSB1,0,PAD*%
%TO.N,GND*%
X129431900Y-111549200D03*
X154431900Y-111549200D03*
D11*
%TO.P,Serial_1_ADSB1,1,1*%
X147471900Y-110129200D03*
D12*
%TO.P,Serial_1_ADSB1,2,2*%
%TO.N,/ADSB_12V*%
X144701900Y-110129200D03*
%TO.P,Serial_1_ADSB1,3,3*%
%TO.N,unconnected-(Serial_1_ADSB1-Pad3)*%
X141931900Y-110129200D03*
%TO.P,Serial_1_ADSB1,4,4*%
%TO.N,unconnected-(Serial_1_ADSB1-Pad4)*%
X139161900Y-110129200D03*
%TO.P,Serial_1_ADSB1,5,5*%
%TO.N,unconnected-(Serial_1_ADSB1-Pad5)*%
X136391900Y-110129200D03*
%TO.P,Serial_1_ADSB1,6,6*%
%TO.N,/ADSB_Serial_1_Rx*%
X146086900Y-112969200D03*
%TO.P,Serial_1_ADSB1,7,7*%
%TO.N,/ADSB_Serial_1_Tx*%
X143316900Y-112969200D03*
%TO.P,Serial_1_ADSB1,8,8*%
%TO.N,unconnected-(Serial_1_ADSB1-Pad8)*%
X140546900Y-112969200D03*
%TO.P,Serial_1_ADSB1,9,9*%
%TO.N,unconnected-(Serial_1_ADSB1-Pad9)*%
X137776900Y-112969200D03*
%TD*%
D10*
%TO.P,SkyView_3,0,PAD*%
%TO.N,GND*%
X168732100Y-111652800D03*
X193732100Y-111652800D03*
D11*
%TO.P,SkyView_3,1,1*%
%TO.N,Net-(Main_1_PFD1-Pad15)*%
X175692100Y-110232800D03*
D12*
%TO.P,SkyView_3,2,2*%
%TO.N,Net-(Main_1_PFD1-Pad16)*%
X178462100Y-110232800D03*
%TO.P,SkyView_3,3,3*%
%TO.N,Net-(Main_1_PFD1-Pad17)*%
X181232100Y-110232800D03*
%TO.P,SkyView_3,4,4*%
%TO.N,Net-(Main_1_PFD1-Pad18)*%
X184002100Y-110232800D03*
%TO.P,SkyView_3,5,5*%
%TO.N,Net-(Main_1_PFD1-Pad19)*%
X186772100Y-110232800D03*
%TO.P,SkyView_3,6,6*%
%TO.N,Net-(Main_1_PFD1-Pad34)*%
X177077100Y-113072800D03*
%TO.P,SkyView_3,7,7*%
%TO.N,Net-(Main_1_PFD1-Pad35)*%
X179847100Y-113072800D03*
%TO.P,SkyView_3,8,8*%
%TO.N,Net-(Main_1_PFD1-Pad36)*%
X182617100Y-113072800D03*
%TO.P,SkyView_3,9,9*%
%TO.N,Net-(Main_1_PFD1-Pad37)*%
X185387100Y-113072800D03*
%TD*%
D10*
%TO.P,SV-Net_AP_Pitch_1,0,PAD*%
%TO.N,GND*%
X193752100Y-37129500D03*
X168752100Y-37129500D03*
D11*
%TO.P,SV-Net_AP_Pitch_1,1,1*%
%TO.N,Net-(Main_1_PFD1-Pad15)*%
X186792100Y-38549500D03*
D12*
%TO.P,SV-Net_AP_Pitch_1,2,2*%
%TO.N,GND*%
X184022100Y-38549500D03*
%TO.P,SV-Net_AP_Pitch_1,3,3*%
%TO.N,unconnected-(SV-Net_AP_Pitch_1-Pad3)*%
X181252100Y-38549500D03*
%TO.P,SV-Net_AP_Pitch_1,4,4*%
%TO.N,Net-(Main_1_PFD1-Pad18)*%
X178482100Y-38549500D03*
%TO.P,SV-Net_AP_Pitch_1,5,5*%
%TO.N,unconnected-(SV-Net_AP_Pitch_1-Pad5)*%
X175712100Y-38549500D03*
%TO.P,SV-Net_AP_Pitch_1,6,6*%
%TO.N,Net-(Main_1_PFD1-Pad34)*%
X185407100Y-35709500D03*
%TO.P,SV-Net_AP_Pitch_1,7,7*%
%TO.N,/SV-Net_AP_12V*%
X182637100Y-35709500D03*
%TO.P,SV-Net_AP_Pitch_1,8,8*%
%TO.N,Net-(Main_1_PFD1-Pad36)*%
X179867100Y-35709500D03*
%TO.P,SV-Net_AP_Pitch_1,9,9*%
%TO.N,unconnected-(SV-Net_AP_Pitch_1-Pad9)*%
X177097100Y-35709500D03*
%TD*%
D10*
%TO.P,power_input_1,0,PAD*%
%TO.N,unconnected-(power_input_1-PAD-Pad0)*%
X168732100Y-130168800D03*
X193732100Y-130168800D03*
D11*
%TO.P,power_input_1,1,1*%
%TO.N,GND*%
X175692100Y-128748800D03*
D12*
%TO.P,power_input_1,2,2*%
%TO.N,/PFD_12V*%
X178462100Y-128748800D03*
%TO.P,power_input_1,3,3*%
%TO.N,/MFD_12V*%
X181232100Y-128748800D03*
%TO.P,power_input_1,4,4*%
%TO.N,/SV-Net_AP_12V*%
X184002100Y-128748800D03*
%TO.P,power_input_1,5,5*%
%TO.N,/ADSB_12V*%
X186772100Y-128748800D03*
%TO.P,power_input_1,6,6*%
%TO.N,/XPNDR_12V*%
X177077100Y-131588800D03*
%TO.P,power_input_1,7,7*%
%TO.N,/ELT_12V*%
X179847100Y-131588800D03*
%TO.P,power_input_1,8,8*%
%TO.N,GND*%
X182617100Y-131588800D03*
%TO.P,power_input_1,9,9*%
X185387100Y-131588800D03*
%TD*%
D13*
%TO.N,/VPX_Serial_3_Tx*%
X131432700Y-86841100D03*
%TO.N,/ELT_Serial_4_Rx*%
X151195300Y-83349400D03*
%TO.N,/ELT_Serial_4_Tx*%
X119132600Y-82919600D03*
%TO.N,/XPNDR_12V*%
X170885400Y-126112300D03*
%TO.N,/ADSB_12V*%
X149282000Y-114179400D03*
%TD*%
D14*
%TO.N,/Dimmer_Signal_Input*%
X204719300Y-90147500D02*
X116633300Y-90147500D01*
X207910900Y-93339100D02*
X204719300Y-90147500D01*
X213021700Y-93339100D02*
X207910900Y-93339100D01*
X116633300Y-90147500D02*
X113441700Y-93339100D01*
%TO.N,/dimmer_output_signal*%
X140546900Y-131569200D02*
X141931900Y-131569200D01*
X141931900Y-131569200D02*
X143316900Y-131569200D01*
X141931900Y-131569200D02*
X141931900Y-128729200D01*
%TO.N,/R_Audio_Out_1*%
X121882300Y-76719100D02*
X124642900Y-79479700D01*
X113441700Y-76719100D02*
X121882300Y-76719100D01*
X172551500Y-80340600D02*
X204498400Y-80340600D01*
X124642900Y-79479700D02*
X171690600Y-79479700D01*
X204498400Y-80340600D02*
X208119900Y-76719100D01*
X208119900Y-76719100D02*
X213021700Y-76719100D01*
X171690600Y-79479700D02*
X172551500Y-80340600D01*
%TO.N,/L_Audio_Out_1*%
X172740800Y-79888600D02*
X199462000Y-79888600D01*
X199462000Y-79888600D02*
X204016500Y-75334100D01*
X204016500Y-75334100D02*
X210181700Y-75334100D01*
X110601700Y-75334100D02*
X125081200Y-75334100D01*
X128774900Y-79027800D02*
X171880000Y-79027800D01*
X125081200Y-75334100D02*
X128774900Y-79027800D01*
X171880000Y-79027800D02*
X172740800Y-79888600D01*
%TO.N,/Audio_Out_GND*%
X207720000Y-81248200D02*
X209479100Y-79489100D01*
X113441700Y-79489100D02*
X114596900Y-80644300D01*
X114596900Y-80644300D02*
X170940100Y-80644300D01*
X209479100Y-79489100D02*
X213021700Y-79489100D01*
X171544000Y-81248200D02*
X207720000Y-81248200D01*
X170940100Y-80644300D02*
X171544000Y-81248200D01*
%TO.N,/ADSB_Serial_1_Rx*%
X125094400Y-103034100D02*
X136164200Y-114103900D01*
X149385700Y-112969200D02*
X146086900Y-112969200D01*
X136164200Y-114103900D02*
X144952200Y-114103900D01*
X210181700Y-103034100D02*
X159320800Y-103034100D01*
X110601700Y-103034100D02*
X125094400Y-103034100D01*
X144952200Y-114103900D02*
X146086900Y-112969200D01*
X159320800Y-103034100D02*
X149385700Y-112969200D01*
%TO.N,/ADSB_Serial_1_Tx*%
X148407300Y-111256100D02*
X145030000Y-111256100D01*
X141603800Y-111256100D02*
X143316900Y-112969200D01*
X145030000Y-111256100D02*
X143316900Y-112969200D01*
X124933200Y-100264100D02*
X135925200Y-111256100D01*
X210181700Y-100264100D02*
X159399300Y-100264100D01*
X110601700Y-100264100D02*
X124933200Y-100264100D01*
X159399300Y-100264100D02*
X148407300Y-111256100D01*
X135925200Y-111256100D02*
X141603800Y-111256100D01*
%TO.N,/XPNDR_Serial_2_Rx*%
X149211900Y-97494100D02*
X210181700Y-97494100D01*
X142961900Y-97494100D02*
X146086900Y-94369100D01*
X110601700Y-97494100D02*
X142961900Y-97494100D01*
X146086900Y-94369100D02*
X149211900Y-97494100D01*
%TO.N,/XPNDR_Serial_2_Tx*%
X126372000Y-90611500D02*
X133880700Y-90611500D01*
X110601700Y-94724100D02*
X122259400Y-94724100D01*
X209203800Y-95702000D02*
X149699600Y-95702000D01*
X133880700Y-90611500D02*
X136286300Y-93017100D01*
X146786400Y-92788800D02*
X144897200Y-92788800D01*
X144897200Y-92788800D02*
X143316900Y-94369100D01*
X136286300Y-93017100D02*
X141964900Y-93017100D01*
X141964900Y-93017100D02*
X143316900Y-94369100D01*
X122259400Y-94724100D02*
X126372000Y-90611500D01*
X149699600Y-95702000D02*
X146786400Y-92788800D01*
X210181700Y-94724100D02*
X209203800Y-95702000D01*
%TO.N,/VPX_Serial_3_Rx*%
X109456100Y-72063600D02*
X109456100Y-90808500D01*
X177814900Y-79435200D02*
X197914200Y-79435200D01*
X110108500Y-71411200D02*
X109456100Y-72063600D01*
X112530900Y-72564100D02*
X111378000Y-71411200D01*
X212636900Y-75493400D02*
X213389700Y-75493400D01*
X214189800Y-76293500D02*
X214189800Y-88262900D01*
X146086900Y-75769100D02*
X144949400Y-76906600D01*
X144949400Y-76906600D02*
X127778300Y-76906600D01*
X203182800Y-74166600D02*
X211310100Y-74166600D01*
X147265500Y-76947700D02*
X175327400Y-76947700D01*
X211310100Y-74166600D02*
X212636900Y-75493400D01*
X210181700Y-91743900D02*
X210181700Y-91954100D01*
X127778300Y-76906600D02*
X123435800Y-72564100D01*
X109456100Y-90808500D02*
X110601700Y-91954100D01*
X213389700Y-75493400D02*
X214189800Y-76293500D01*
X111378000Y-71411200D02*
X110108500Y-71411200D01*
X175327400Y-76947700D02*
X177814900Y-79435200D01*
X123435800Y-72564100D02*
X112530900Y-72564100D01*
X214189800Y-88262900D02*
X213268600Y-89184100D01*
X197914200Y-79435200D02*
X203182800Y-74166600D01*
X212741500Y-89184100D02*
X210181700Y-91743900D01*
X213268600Y-89184100D02*
X212741500Y-89184100D01*
X146086900Y-75769100D02*
X147265500Y-76947700D01*
%TO.N,/VPX_Serial_3_Tx*%
X133775700Y-89184100D02*
X131432700Y-86841100D01*
X129089700Y-89184100D02*
X131432700Y-86841100D01*
X210181700Y-89184100D02*
X133775700Y-89184100D01*
X110601700Y-89184100D02*
X129089700Y-89184100D01*
%TO.N,/ELT_Serial_4_Rx*%
X210181700Y-86414100D02*
X207117000Y-83349400D01*
X130831800Y-86414100D02*
X110601700Y-86414100D01*
X133896500Y-83349400D02*
X130831800Y-86414100D01*
X151195300Y-83349400D02*
X133896500Y-83349400D01*
X207117000Y-83349400D02*
X151195300Y-83349400D01*
%TO.N,/ELT_Serial_4_Tx*%
X119439500Y-82612700D02*
X209150300Y-82612700D01*
X119132600Y-82919600D02*
X119439500Y-82612700D01*
X118408100Y-83644100D02*
X119132600Y-82919600D01*
X209150300Y-82612700D02*
X210181700Y-83644100D01*
X110601700Y-83644100D02*
X118408100Y-83644100D01*
%TO.N,/GPS_Power*%
X212920100Y-82157500D02*
X213021700Y-82259100D01*
X113543300Y-82157500D02*
X212920100Y-82157500D01*
X113441700Y-82259100D02*
X113543300Y-82157500D01*
%TO.N,/GPS_Serial_5_Tx*%
X171727400Y-80792500D02*
X207493300Y-80792500D01*
X171094600Y-80159700D02*
X171727400Y-80792500D01*
X122628200Y-78104100D02*
X124683800Y-80159700D01*
X207493300Y-80792500D02*
X210181700Y-78104100D01*
X124683800Y-80159700D02*
X171094600Y-80159700D01*
X110601700Y-78104100D02*
X122628200Y-78104100D01*
%TO.N,Net-(Main_1_PFD1-Pad15)*%
X184538300Y-37422600D02*
X185665200Y-38549500D01*
X178397100Y-78983300D02*
X197727000Y-78983300D01*
X197727000Y-78983300D02*
X206916200Y-69794100D01*
X182878600Y-41070500D02*
X182878600Y-38080500D01*
X175692100Y-73200800D02*
X175692100Y-76278300D01*
X182878600Y-38080500D02*
X183536500Y-37422600D01*
X171158500Y-69794100D02*
X174565200Y-73200800D01*
X183536500Y-37422600D02*
X184538300Y-37422600D01*
X186792100Y-38549500D02*
X185665200Y-38549500D01*
X186549700Y-57065500D02*
X186549700Y-44741600D01*
X206916200Y-69794100D02*
X210181700Y-69794100D01*
X110601700Y-69794100D02*
X171158500Y-69794100D01*
X186792100Y-57065500D02*
X186549700Y-57065500D01*
X175692100Y-76278300D02*
X178397100Y-78983300D01*
X175692100Y-73200800D02*
X174565200Y-73200800D01*
X186549700Y-44741600D02*
X182878600Y-41070500D01*
%TO.N,Net-(Main_1_PFD1-Pad16)*%
X197357100Y-78075000D02*
X180236500Y-78075000D01*
X172285400Y-67024100D02*
X178462100Y-73200800D01*
X210181700Y-67024100D02*
X208408000Y-67024100D01*
X178462100Y-76300600D02*
X178462100Y-73200800D01*
X110601700Y-67024100D02*
X172285400Y-67024100D01*
X208408000Y-67024100D02*
X197357100Y-78075000D01*
X180236500Y-78075000D02*
X178462100Y-76300600D01*
%TO.N,Net-(Main_1_PFD1-Pad17)*%
X181232100Y-76270200D02*
X181232100Y-73200800D01*
X110601700Y-64254100D02*
X172285400Y-64254100D01*
X210181700Y-64254100D02*
X209583800Y-64254100D01*
X209583800Y-64254100D02*
X196670200Y-77167700D01*
X172285400Y-64254100D02*
X181232100Y-73200800D01*
X182129600Y-77167700D02*
X181232100Y-76270200D01*
X196670200Y-77167700D02*
X182129600Y-77167700D01*
%TO.N,Net-(Main_1_PFD1-Pad18)*%
X146045800Y-58953900D02*
X146047300Y-58955400D01*
X112915400Y-58953900D02*
X146045800Y-58953900D01*
X110601700Y-61484100D02*
X110601700Y-61267600D01*
X146532800Y-58953900D02*
X176593700Y-58953900D01*
X176593700Y-58953900D02*
X178482100Y-57065500D01*
X146047300Y-58955400D02*
X146531300Y-58955400D01*
X176593700Y-58953900D02*
X176593700Y-65792400D01*
X176593700Y-65792400D02*
X184002100Y-73200800D01*
X110601700Y-61267600D02*
X112915400Y-58953900D01*
X146531300Y-58955400D02*
X146532800Y-58953900D01*
%TO.N,Net-(Main_1_PFD1-Pad19)*%
X179867100Y-57326900D02*
X179867100Y-56808500D01*
X110864500Y-58451300D02*
X110601700Y-58714100D01*
X175014700Y-55925300D02*
X172488700Y-58451300D01*
X196805900Y-58714100D02*
X195624700Y-59895300D01*
X186772100Y-59895300D02*
X182435500Y-59895300D01*
X172488700Y-58451300D02*
X110864500Y-58451300D01*
X195624700Y-59895300D02*
X186772100Y-59895300D01*
X179867100Y-56808500D02*
X178983900Y-55925300D01*
X182435500Y-59895300D02*
X179867100Y-57326900D01*
X186772100Y-59895300D02*
X186772100Y-73200800D01*
X178983900Y-55925300D02*
X175014700Y-55925300D01*
X210181700Y-58714100D02*
X196805900Y-58714100D01*
%TO.N,/GPS_GND*%
X144701900Y-94594600D02*
X144701900Y-94130500D01*
X113441700Y-96109100D02*
X143187400Y-96109100D01*
X143187400Y-96109100D02*
X144701900Y-94594600D01*
X149532400Y-96174000D02*
X212956800Y-96174000D01*
X212956800Y-96174000D02*
X213021700Y-96109100D01*
X146600600Y-93242200D02*
X149532400Y-96174000D01*
X144701900Y-94130500D02*
X145590200Y-93242200D01*
X145590200Y-93242200D02*
X146600600Y-93242200D01*
%TO.N,/GPS_Serial_5_Rx*%
X160133900Y-81703800D02*
X209352000Y-81703800D01*
X110601700Y-80874100D02*
X110856600Y-81129000D01*
X209352000Y-81703800D02*
X210181700Y-80874100D01*
X110856600Y-81129000D02*
X159559100Y-81129000D01*
X159559100Y-81129000D02*
X160133900Y-81703800D01*
%TO.N,Net-(Main_1_PFD1-Pad34)*%
X179566200Y-78529900D02*
X197541300Y-78529900D01*
X113441700Y-68409100D02*
X173022200Y-68409100D01*
X177077100Y-72464000D02*
X177077100Y-76040800D01*
X197541300Y-78529900D02*
X207662100Y-68409100D01*
X207662100Y-68409100D02*
X213021700Y-68409100D01*
X182402100Y-37902100D02*
X182402100Y-51220500D01*
X185407100Y-35709500D02*
X184594700Y-35709500D01*
X182402100Y-51220500D02*
X185407100Y-54225500D01*
X184594700Y-35709500D02*
X182402100Y-37902100D01*
X177077100Y-76040800D02*
X179566200Y-78529900D01*
X173022200Y-68409100D02*
X177077100Y-72464000D01*
%TO.N,Net-(Main_1_PFD1-Pad35)*%
X179847100Y-72973500D02*
X179847100Y-76040800D01*
X213021700Y-65639100D02*
X208838000Y-65639100D01*
X208838000Y-65639100D02*
X196854000Y-77623100D01*
X172512700Y-65639100D02*
X179847100Y-72973500D01*
X181429400Y-77623100D02*
X179847100Y-76040800D01*
X196854000Y-77623100D02*
X181429400Y-77623100D01*
X113441700Y-65639100D02*
X172512700Y-65639100D01*
%TO.N,Net-(Main_1_PFD1-Pad37)*%
X201529000Y-60099100D02*
X213021700Y-60099100D01*
X169748600Y-60099100D02*
X182614800Y-72965300D01*
X182614800Y-73478700D02*
X185176900Y-76040800D01*
X185176900Y-76040800D02*
X185387100Y-76040800D01*
X185387100Y-76040800D02*
X185587300Y-76040800D01*
X185587300Y-76040800D02*
X201529000Y-60099100D01*
X182614800Y-72965300D02*
X182614800Y-73478700D01*
X113441700Y-60099100D02*
X169748600Y-60099100D01*
D15*
%TO.N,/MFD_12V*%
X210181700Y-108574100D02*
X211683600Y-108574100D01*
X213021700Y-107189100D02*
X211683600Y-108527200D01*
X211683600Y-108527200D02*
X211683600Y-108574100D01*
%TO.N,/PFD_12V*%
X113441700Y-107189100D02*
X112103600Y-108527200D01*
X110601700Y-108574100D02*
X112103600Y-108574100D01*
X112103600Y-108527200D02*
X112103600Y-108574100D01*
D14*
%TO.N,unconnected-(power_input_1-PAD-Pad0)*%
X191149800Y-132751100D02*
X171314400Y-132751100D01*
X193732100Y-130168800D02*
X191149800Y-132751100D01*
X171314400Y-132751100D02*
X168732100Y-130168800D01*
%TO.N,/XPNDR_12V*%
X177077100Y-131588800D02*
X176361900Y-131588800D01*
X176361900Y-131588800D02*
X170885400Y-126112300D01*
%TO.N,/ADSB_12V*%
X184135700Y-126112400D02*
X186772100Y-128748800D01*
X171913800Y-126112400D02*
X184135700Y-126112400D01*
X159980800Y-114179400D02*
X171913800Y-126112400D01*
X149282000Y-114179400D02*
X159980800Y-114179400D01*
D16*
%TO.N,GND*%
X193752100Y-51894100D02*
X193752100Y-55645500D01*
X193732100Y-111652800D02*
X207860400Y-111652800D01*
X207860400Y-111652800D02*
X209498400Y-113290700D01*
X214810100Y-107979000D02*
X209498400Y-113290700D01*
X125576900Y-51894100D02*
X129431900Y-55749100D01*
X184022100Y-38769800D02*
X185563400Y-40311100D01*
X168648500Y-55749100D02*
X168752100Y-55645500D01*
X147471900Y-91529100D02*
X149223800Y-91529100D01*
X115247400Y-106224800D02*
X115247400Y-111549200D01*
X193752100Y-51894100D02*
X211601700Y-51894100D01*
X188549000Y-114846200D02*
X171925500Y-114846200D01*
X214810100Y-106207500D02*
X214810100Y-107979000D01*
X149223800Y-54329100D02*
X150643800Y-55749100D01*
X154431900Y-92949100D02*
X150643800Y-92949100D01*
X188549000Y-114846200D02*
X190538700Y-114846200D01*
X190570500Y-48712500D02*
X193752100Y-51894100D01*
X190570500Y-40311100D02*
X190570500Y-48712500D01*
X209498400Y-113290700D02*
X211601700Y-115394100D01*
X184022100Y-38549500D02*
X184022100Y-38769800D01*
X190538700Y-114846200D02*
X193732100Y-111652800D01*
X190570500Y-40311100D02*
X193752100Y-37129500D01*
X150643800Y-92949100D02*
X149223800Y-91529100D01*
X147471900Y-72929100D02*
X149223800Y-72929100D01*
X154431900Y-55749100D02*
X168648500Y-55749100D01*
X193752100Y-55645500D02*
X190579200Y-58818400D01*
X147471900Y-128729200D02*
X153011900Y-128729200D01*
X145717700Y-52574900D02*
X132606100Y-52574900D01*
X185563400Y-40311100D02*
X190570500Y-40311100D01*
X185593100Y-58818400D02*
X184022100Y-57247400D01*
X132606100Y-52574900D02*
X129431900Y-55749100D01*
X168732100Y-74620800D02*
X168460400Y-74349100D01*
X125576900Y-51894100D02*
X125576900Y-41004100D01*
X150643800Y-55749100D02*
X154431900Y-55749100D01*
X150643800Y-74349100D02*
X149223800Y-72929100D01*
X168628500Y-111549200D02*
X168732100Y-111652800D01*
X147471900Y-54329100D02*
X145717700Y-52574900D01*
X154431900Y-111549200D02*
X168628500Y-111549200D01*
X112021700Y-51894100D02*
X125576900Y-51894100D01*
X112021700Y-114774900D02*
X112021700Y-115394100D01*
X147471900Y-54329100D02*
X149223800Y-54329100D01*
X190579200Y-58818400D02*
X185593100Y-58818400D01*
X182617100Y-131588800D02*
X185387100Y-131588800D01*
X186509500Y-131588800D02*
X188549000Y-129549300D01*
X184022100Y-57247400D02*
X184022100Y-57065500D01*
X129431900Y-111549200D02*
X129431900Y-130149200D01*
X168460400Y-74349100D02*
X154431900Y-74349100D01*
X115247400Y-111549200D02*
X112021700Y-114774900D01*
X171925500Y-114846200D02*
X168732100Y-111652800D01*
X125576900Y-41004100D02*
X129431900Y-37149100D01*
X185387100Y-131588800D02*
X186509500Y-131588800D01*
X188549000Y-129549300D02*
X188549000Y-114846200D01*
X113441700Y-104419100D02*
X115247400Y-106224800D01*
X213021700Y-104419100D02*
X214810100Y-106207500D01*
X153011900Y-128729200D02*
X154431900Y-130149200D01*
X154431900Y-74349100D02*
X150643800Y-74349100D01*
X115247400Y-111549200D02*
X129431900Y-111549200D01*
%TD*%
M02*
