%TF.GenerationSoftware,KiCad,Pcbnew,7.0.9*%
%TF.CreationDate,2023-12-19T17:39:46-08:00*%
%TF.ProjectId,Interconnect Board,496e7465-7263-46f6-9e6e-65637420426f,v0.1*%
%TF.SameCoordinates,Original*%
%TF.FileFunction,Legend,Top*%
%TF.FilePolarity,Positive*%
%FSLAX46Y46*%
G04 Gerber Fmt 4.6, Leading zero omitted, Abs format (unit mm)*
G04 Created by KiCad (PCBNEW 7.0.9) date 2023-12-19 17:39:46*
%MOMM*%
%LPD*%
G01*
G04 APERTURE LIST*
%ADD10C,0.300000*%
%ADD11C,0.150000*%
%ADD12C,0.120000*%
G04 APERTURE END LIST*
D10*
X200084737Y-25378543D02*
X200299023Y-25449971D01*
X200299023Y-25449971D02*
X200656165Y-25449971D01*
X200656165Y-25449971D02*
X200799023Y-25378543D01*
X200799023Y-25378543D02*
X200870451Y-25307114D01*
X200870451Y-25307114D02*
X200941880Y-25164257D01*
X200941880Y-25164257D02*
X200941880Y-25021400D01*
X200941880Y-25021400D02*
X200870451Y-24878543D01*
X200870451Y-24878543D02*
X200799023Y-24807114D01*
X200799023Y-24807114D02*
X200656165Y-24735685D01*
X200656165Y-24735685D02*
X200370451Y-24664257D01*
X200370451Y-24664257D02*
X200227594Y-24592828D01*
X200227594Y-24592828D02*
X200156165Y-24521400D01*
X200156165Y-24521400D02*
X200084737Y-24378543D01*
X200084737Y-24378543D02*
X200084737Y-24235685D01*
X200084737Y-24235685D02*
X200156165Y-24092828D01*
X200156165Y-24092828D02*
X200227594Y-24021400D01*
X200227594Y-24021400D02*
X200370451Y-23949971D01*
X200370451Y-23949971D02*
X200727594Y-23949971D01*
X200727594Y-23949971D02*
X200941880Y-24021400D01*
X202156165Y-25378543D02*
X202013308Y-25449971D01*
X202013308Y-25449971D02*
X201727594Y-25449971D01*
X201727594Y-25449971D02*
X201584736Y-25378543D01*
X201584736Y-25378543D02*
X201513308Y-25235685D01*
X201513308Y-25235685D02*
X201513308Y-24664257D01*
X201513308Y-24664257D02*
X201584736Y-24521400D01*
X201584736Y-24521400D02*
X201727594Y-24449971D01*
X201727594Y-24449971D02*
X202013308Y-24449971D01*
X202013308Y-24449971D02*
X202156165Y-24521400D01*
X202156165Y-24521400D02*
X202227594Y-24664257D01*
X202227594Y-24664257D02*
X202227594Y-24807114D01*
X202227594Y-24807114D02*
X201513308Y-24949971D01*
X202870450Y-25449971D02*
X202870450Y-24449971D01*
X202870450Y-24735685D02*
X202941879Y-24592828D01*
X202941879Y-24592828D02*
X203013308Y-24521400D01*
X203013308Y-24521400D02*
X203156165Y-24449971D01*
X203156165Y-24449971D02*
X203299022Y-24449971D01*
X203799021Y-25449971D02*
X203799021Y-24449971D01*
X203799021Y-23949971D02*
X203727593Y-24021400D01*
X203727593Y-24021400D02*
X203799021Y-24092828D01*
X203799021Y-24092828D02*
X203870450Y-24021400D01*
X203870450Y-24021400D02*
X203799021Y-23949971D01*
X203799021Y-23949971D02*
X203799021Y-24092828D01*
X205156165Y-25449971D02*
X205156165Y-24664257D01*
X205156165Y-24664257D02*
X205084736Y-24521400D01*
X205084736Y-24521400D02*
X204941879Y-24449971D01*
X204941879Y-24449971D02*
X204656165Y-24449971D01*
X204656165Y-24449971D02*
X204513307Y-24521400D01*
X205156165Y-25378543D02*
X205013307Y-25449971D01*
X205013307Y-25449971D02*
X204656165Y-25449971D01*
X204656165Y-25449971D02*
X204513307Y-25378543D01*
X204513307Y-25378543D02*
X204441879Y-25235685D01*
X204441879Y-25235685D02*
X204441879Y-25092828D01*
X204441879Y-25092828D02*
X204513307Y-24949971D01*
X204513307Y-24949971D02*
X204656165Y-24878543D01*
X204656165Y-24878543D02*
X205013307Y-24878543D01*
X205013307Y-24878543D02*
X205156165Y-24807114D01*
X206084736Y-25449971D02*
X205941879Y-25378543D01*
X205941879Y-25378543D02*
X205870450Y-25235685D01*
X205870450Y-25235685D02*
X205870450Y-23949971D01*
X207799021Y-25449971D02*
X207799021Y-23949971D01*
X207799021Y-23949971D02*
X208656164Y-25449971D01*
X208656164Y-25449971D02*
X208656164Y-23949971D01*
X209584736Y-25449971D02*
X209441879Y-25378543D01*
X209441879Y-25378543D02*
X209370450Y-25307114D01*
X209370450Y-25307114D02*
X209299022Y-25164257D01*
X209299022Y-25164257D02*
X209299022Y-24735685D01*
X209299022Y-24735685D02*
X209370450Y-24592828D01*
X209370450Y-24592828D02*
X209441879Y-24521400D01*
X209441879Y-24521400D02*
X209584736Y-24449971D01*
X209584736Y-24449971D02*
X209799022Y-24449971D01*
X209799022Y-24449971D02*
X209941879Y-24521400D01*
X209941879Y-24521400D02*
X210013308Y-24592828D01*
X210013308Y-24592828D02*
X210084736Y-24735685D01*
X210084736Y-24735685D02*
X210084736Y-25164257D01*
X210084736Y-25164257D02*
X210013308Y-25307114D01*
X210013308Y-25307114D02*
X209941879Y-25378543D01*
X209941879Y-25378543D02*
X209799022Y-25449971D01*
X209799022Y-25449971D02*
X209584736Y-25449971D01*
X210727593Y-25307114D02*
X210799022Y-25378543D01*
X210799022Y-25378543D02*
X210727593Y-25449971D01*
X210727593Y-25449971D02*
X210656165Y-25378543D01*
X210656165Y-25378543D02*
X210727593Y-25307114D01*
X210727593Y-25307114D02*
X210727593Y-25449971D01*
X112084737Y-25378543D02*
X112299023Y-25449971D01*
X112299023Y-25449971D02*
X112656165Y-25449971D01*
X112656165Y-25449971D02*
X112799023Y-25378543D01*
X112799023Y-25378543D02*
X112870451Y-25307114D01*
X112870451Y-25307114D02*
X112941880Y-25164257D01*
X112941880Y-25164257D02*
X112941880Y-25021400D01*
X112941880Y-25021400D02*
X112870451Y-24878543D01*
X112870451Y-24878543D02*
X112799023Y-24807114D01*
X112799023Y-24807114D02*
X112656165Y-24735685D01*
X112656165Y-24735685D02*
X112370451Y-24664257D01*
X112370451Y-24664257D02*
X112227594Y-24592828D01*
X112227594Y-24592828D02*
X112156165Y-24521400D01*
X112156165Y-24521400D02*
X112084737Y-24378543D01*
X112084737Y-24378543D02*
X112084737Y-24235685D01*
X112084737Y-24235685D02*
X112156165Y-24092828D01*
X112156165Y-24092828D02*
X112227594Y-24021400D01*
X112227594Y-24021400D02*
X112370451Y-23949971D01*
X112370451Y-23949971D02*
X112727594Y-23949971D01*
X112727594Y-23949971D02*
X112941880Y-24021400D01*
X113584736Y-25449971D02*
X113584736Y-23949971D01*
X113727594Y-24878543D02*
X114156165Y-25449971D01*
X114156165Y-24449971D02*
X113584736Y-25021400D01*
X114656165Y-24449971D02*
X115013308Y-25449971D01*
X115370451Y-24449971D02*
X115013308Y-25449971D01*
X115013308Y-25449971D02*
X114870451Y-25807114D01*
X114870451Y-25807114D02*
X114799022Y-25878543D01*
X114799022Y-25878543D02*
X114656165Y-25949971D01*
X115727594Y-23949971D02*
X116227594Y-25449971D01*
X116227594Y-25449971D02*
X116727594Y-23949971D01*
X117227593Y-25449971D02*
X117227593Y-24449971D01*
X117227593Y-23949971D02*
X117156165Y-24021400D01*
X117156165Y-24021400D02*
X117227593Y-24092828D01*
X117227593Y-24092828D02*
X117299022Y-24021400D01*
X117299022Y-24021400D02*
X117227593Y-23949971D01*
X117227593Y-23949971D02*
X117227593Y-24092828D01*
X118513308Y-25378543D02*
X118370451Y-25449971D01*
X118370451Y-25449971D02*
X118084737Y-25449971D01*
X118084737Y-25449971D02*
X117941879Y-25378543D01*
X117941879Y-25378543D02*
X117870451Y-25235685D01*
X117870451Y-25235685D02*
X117870451Y-24664257D01*
X117870451Y-24664257D02*
X117941879Y-24521400D01*
X117941879Y-24521400D02*
X118084737Y-24449971D01*
X118084737Y-24449971D02*
X118370451Y-24449971D01*
X118370451Y-24449971D02*
X118513308Y-24521400D01*
X118513308Y-24521400D02*
X118584737Y-24664257D01*
X118584737Y-24664257D02*
X118584737Y-24807114D01*
X118584737Y-24807114D02*
X117870451Y-24949971D01*
X119084736Y-24449971D02*
X119370451Y-25449971D01*
X119370451Y-25449971D02*
X119656165Y-24735685D01*
X119656165Y-24735685D02*
X119941879Y-25449971D01*
X119941879Y-25449971D02*
X120227593Y-24449971D01*
X121941879Y-25449971D02*
X121941879Y-23949971D01*
X122656165Y-24449971D02*
X122656165Y-25449971D01*
X122656165Y-24592828D02*
X122727594Y-24521400D01*
X122727594Y-24521400D02*
X122870451Y-24449971D01*
X122870451Y-24449971D02*
X123084737Y-24449971D01*
X123084737Y-24449971D02*
X123227594Y-24521400D01*
X123227594Y-24521400D02*
X123299023Y-24664257D01*
X123299023Y-24664257D02*
X123299023Y-25449971D01*
X123799023Y-24449971D02*
X124370451Y-24449971D01*
X124013308Y-23949971D02*
X124013308Y-25235685D01*
X124013308Y-25235685D02*
X124084737Y-25378543D01*
X124084737Y-25378543D02*
X124227594Y-25449971D01*
X124227594Y-25449971D02*
X124370451Y-25449971D01*
X125441880Y-25378543D02*
X125299023Y-25449971D01*
X125299023Y-25449971D02*
X125013309Y-25449971D01*
X125013309Y-25449971D02*
X124870451Y-25378543D01*
X124870451Y-25378543D02*
X124799023Y-25235685D01*
X124799023Y-25235685D02*
X124799023Y-24664257D01*
X124799023Y-24664257D02*
X124870451Y-24521400D01*
X124870451Y-24521400D02*
X125013309Y-24449971D01*
X125013309Y-24449971D02*
X125299023Y-24449971D01*
X125299023Y-24449971D02*
X125441880Y-24521400D01*
X125441880Y-24521400D02*
X125513309Y-24664257D01*
X125513309Y-24664257D02*
X125513309Y-24807114D01*
X125513309Y-24807114D02*
X124799023Y-24949971D01*
X126156165Y-25449971D02*
X126156165Y-24449971D01*
X126156165Y-24735685D02*
X126227594Y-24592828D01*
X126227594Y-24592828D02*
X126299023Y-24521400D01*
X126299023Y-24521400D02*
X126441880Y-24449971D01*
X126441880Y-24449971D02*
X126584737Y-24449971D01*
X126870451Y-24449971D02*
X127441879Y-24449971D01*
X127084736Y-25449971D02*
X127084736Y-24164257D01*
X127084736Y-24164257D02*
X127156165Y-24021400D01*
X127156165Y-24021400D02*
X127299022Y-23949971D01*
X127299022Y-23949971D02*
X127441879Y-23949971D01*
X128584737Y-25449971D02*
X128584737Y-24664257D01*
X128584737Y-24664257D02*
X128513308Y-24521400D01*
X128513308Y-24521400D02*
X128370451Y-24449971D01*
X128370451Y-24449971D02*
X128084737Y-24449971D01*
X128084737Y-24449971D02*
X127941879Y-24521400D01*
X128584737Y-25378543D02*
X128441879Y-25449971D01*
X128441879Y-25449971D02*
X128084737Y-25449971D01*
X128084737Y-25449971D02*
X127941879Y-25378543D01*
X127941879Y-25378543D02*
X127870451Y-25235685D01*
X127870451Y-25235685D02*
X127870451Y-25092828D01*
X127870451Y-25092828D02*
X127941879Y-24949971D01*
X127941879Y-24949971D02*
X128084737Y-24878543D01*
X128084737Y-24878543D02*
X128441879Y-24878543D01*
X128441879Y-24878543D02*
X128584737Y-24807114D01*
X129941880Y-25378543D02*
X129799022Y-25449971D01*
X129799022Y-25449971D02*
X129513308Y-25449971D01*
X129513308Y-25449971D02*
X129370451Y-25378543D01*
X129370451Y-25378543D02*
X129299022Y-25307114D01*
X129299022Y-25307114D02*
X129227594Y-25164257D01*
X129227594Y-25164257D02*
X129227594Y-24735685D01*
X129227594Y-24735685D02*
X129299022Y-24592828D01*
X129299022Y-24592828D02*
X129370451Y-24521400D01*
X129370451Y-24521400D02*
X129513308Y-24449971D01*
X129513308Y-24449971D02*
X129799022Y-24449971D01*
X129799022Y-24449971D02*
X129941880Y-24521400D01*
X131156165Y-25378543D02*
X131013308Y-25449971D01*
X131013308Y-25449971D02*
X130727594Y-25449971D01*
X130727594Y-25449971D02*
X130584736Y-25378543D01*
X130584736Y-25378543D02*
X130513308Y-25235685D01*
X130513308Y-25235685D02*
X130513308Y-24664257D01*
X130513308Y-24664257D02*
X130584736Y-24521400D01*
X130584736Y-24521400D02*
X130727594Y-24449971D01*
X130727594Y-24449971D02*
X131013308Y-24449971D01*
X131013308Y-24449971D02*
X131156165Y-24521400D01*
X131156165Y-24521400D02*
X131227594Y-24664257D01*
X131227594Y-24664257D02*
X131227594Y-24807114D01*
X131227594Y-24807114D02*
X130513308Y-24949971D01*
X133513307Y-24664257D02*
X133727593Y-24735685D01*
X133727593Y-24735685D02*
X133799022Y-24807114D01*
X133799022Y-24807114D02*
X133870450Y-24949971D01*
X133870450Y-24949971D02*
X133870450Y-25164257D01*
X133870450Y-25164257D02*
X133799022Y-25307114D01*
X133799022Y-25307114D02*
X133727593Y-25378543D01*
X133727593Y-25378543D02*
X133584736Y-25449971D01*
X133584736Y-25449971D02*
X133013307Y-25449971D01*
X133013307Y-25449971D02*
X133013307Y-23949971D01*
X133013307Y-23949971D02*
X133513307Y-23949971D01*
X133513307Y-23949971D02*
X133656165Y-24021400D01*
X133656165Y-24021400D02*
X133727593Y-24092828D01*
X133727593Y-24092828D02*
X133799022Y-24235685D01*
X133799022Y-24235685D02*
X133799022Y-24378543D01*
X133799022Y-24378543D02*
X133727593Y-24521400D01*
X133727593Y-24521400D02*
X133656165Y-24592828D01*
X133656165Y-24592828D02*
X133513307Y-24664257D01*
X133513307Y-24664257D02*
X133013307Y-24664257D01*
X134727593Y-25449971D02*
X134584736Y-25378543D01*
X134584736Y-25378543D02*
X134513307Y-25307114D01*
X134513307Y-25307114D02*
X134441879Y-25164257D01*
X134441879Y-25164257D02*
X134441879Y-24735685D01*
X134441879Y-24735685D02*
X134513307Y-24592828D01*
X134513307Y-24592828D02*
X134584736Y-24521400D01*
X134584736Y-24521400D02*
X134727593Y-24449971D01*
X134727593Y-24449971D02*
X134941879Y-24449971D01*
X134941879Y-24449971D02*
X135084736Y-24521400D01*
X135084736Y-24521400D02*
X135156165Y-24592828D01*
X135156165Y-24592828D02*
X135227593Y-24735685D01*
X135227593Y-24735685D02*
X135227593Y-25164257D01*
X135227593Y-25164257D02*
X135156165Y-25307114D01*
X135156165Y-25307114D02*
X135084736Y-25378543D01*
X135084736Y-25378543D02*
X134941879Y-25449971D01*
X134941879Y-25449971D02*
X134727593Y-25449971D01*
X136513308Y-25449971D02*
X136513308Y-24664257D01*
X136513308Y-24664257D02*
X136441879Y-24521400D01*
X136441879Y-24521400D02*
X136299022Y-24449971D01*
X136299022Y-24449971D02*
X136013308Y-24449971D01*
X136013308Y-24449971D02*
X135870450Y-24521400D01*
X136513308Y-25378543D02*
X136370450Y-25449971D01*
X136370450Y-25449971D02*
X136013308Y-25449971D01*
X136013308Y-25449971D02*
X135870450Y-25378543D01*
X135870450Y-25378543D02*
X135799022Y-25235685D01*
X135799022Y-25235685D02*
X135799022Y-25092828D01*
X135799022Y-25092828D02*
X135870450Y-24949971D01*
X135870450Y-24949971D02*
X136013308Y-24878543D01*
X136013308Y-24878543D02*
X136370450Y-24878543D01*
X136370450Y-24878543D02*
X136513308Y-24807114D01*
X137227593Y-25449971D02*
X137227593Y-24449971D01*
X137227593Y-24735685D02*
X137299022Y-24592828D01*
X137299022Y-24592828D02*
X137370451Y-24521400D01*
X137370451Y-24521400D02*
X137513308Y-24449971D01*
X137513308Y-24449971D02*
X137656165Y-24449971D01*
X138799022Y-25449971D02*
X138799022Y-23949971D01*
X138799022Y-25378543D02*
X138656164Y-25449971D01*
X138656164Y-25449971D02*
X138370450Y-25449971D01*
X138370450Y-25449971D02*
X138227593Y-25378543D01*
X138227593Y-25378543D02*
X138156164Y-25307114D01*
X138156164Y-25307114D02*
X138084736Y-25164257D01*
X138084736Y-25164257D02*
X138084736Y-24735685D01*
X138084736Y-24735685D02*
X138156164Y-24592828D01*
X138156164Y-24592828D02*
X138227593Y-24521400D01*
X138227593Y-24521400D02*
X138370450Y-24449971D01*
X138370450Y-24449971D02*
X138656164Y-24449971D01*
X138656164Y-24449971D02*
X138799022Y-24521400D01*
X140513307Y-24449971D02*
X140870450Y-25449971D01*
X140870450Y-25449971D02*
X141227593Y-24449971D01*
X142584736Y-25449971D02*
X141727593Y-25449971D01*
X142156164Y-25449971D02*
X142156164Y-23949971D01*
X142156164Y-23949971D02*
X142013307Y-24164257D01*
X142013307Y-24164257D02*
X141870450Y-24307114D01*
X141870450Y-24307114D02*
X141727593Y-24378543D01*
X143227592Y-25307114D02*
X143299021Y-25378543D01*
X143299021Y-25378543D02*
X143227592Y-25449971D01*
X143227592Y-25449971D02*
X143156164Y-25378543D01*
X143156164Y-25378543D02*
X143227592Y-25307114D01*
X143227592Y-25307114D02*
X143227592Y-25449971D01*
X144227593Y-23949971D02*
X144370450Y-23949971D01*
X144370450Y-23949971D02*
X144513307Y-24021400D01*
X144513307Y-24021400D02*
X144584736Y-24092828D01*
X144584736Y-24092828D02*
X144656164Y-24235685D01*
X144656164Y-24235685D02*
X144727593Y-24521400D01*
X144727593Y-24521400D02*
X144727593Y-24878543D01*
X144727593Y-24878543D02*
X144656164Y-25164257D01*
X144656164Y-25164257D02*
X144584736Y-25307114D01*
X144584736Y-25307114D02*
X144513307Y-25378543D01*
X144513307Y-25378543D02*
X144370450Y-25449971D01*
X144370450Y-25449971D02*
X144227593Y-25449971D01*
X144227593Y-25449971D02*
X144084736Y-25378543D01*
X144084736Y-25378543D02*
X144013307Y-25307114D01*
X144013307Y-25307114D02*
X143941878Y-25164257D01*
X143941878Y-25164257D02*
X143870450Y-24878543D01*
X143870450Y-24878543D02*
X143870450Y-24521400D01*
X143870450Y-24521400D02*
X143941878Y-24235685D01*
X143941878Y-24235685D02*
X144013307Y-24092828D01*
X144013307Y-24092828D02*
X144084736Y-24021400D01*
X144084736Y-24021400D02*
X144227593Y-23949971D01*
D11*
X177684481Y-67718000D02*
X177827338Y-67765619D01*
X177827338Y-67765619D02*
X178065433Y-67765619D01*
X178065433Y-67765619D02*
X178160671Y-67718000D01*
X178160671Y-67718000D02*
X178208290Y-67670380D01*
X178208290Y-67670380D02*
X178255909Y-67575142D01*
X178255909Y-67575142D02*
X178255909Y-67479904D01*
X178255909Y-67479904D02*
X178208290Y-67384666D01*
X178208290Y-67384666D02*
X178160671Y-67337047D01*
X178160671Y-67337047D02*
X178065433Y-67289428D01*
X178065433Y-67289428D02*
X177874957Y-67241809D01*
X177874957Y-67241809D02*
X177779719Y-67194190D01*
X177779719Y-67194190D02*
X177732100Y-67146571D01*
X177732100Y-67146571D02*
X177684481Y-67051333D01*
X177684481Y-67051333D02*
X177684481Y-66956095D01*
X177684481Y-66956095D02*
X177732100Y-66860857D01*
X177732100Y-66860857D02*
X177779719Y-66813238D01*
X177779719Y-66813238D02*
X177874957Y-66765619D01*
X177874957Y-66765619D02*
X178113052Y-66765619D01*
X178113052Y-66765619D02*
X178255909Y-66813238D01*
X178684481Y-67765619D02*
X178684481Y-66765619D01*
X178779719Y-67384666D02*
X179065433Y-67765619D01*
X179065433Y-67098952D02*
X178684481Y-67479904D01*
X179398767Y-67098952D02*
X179636862Y-67765619D01*
X179874957Y-67098952D02*
X179636862Y-67765619D01*
X179636862Y-67765619D02*
X179541624Y-68003714D01*
X179541624Y-68003714D02*
X179494005Y-68051333D01*
X179494005Y-68051333D02*
X179398767Y-68098952D01*
X180113053Y-66765619D02*
X180446386Y-67765619D01*
X180446386Y-67765619D02*
X180779719Y-66765619D01*
X181113053Y-67765619D02*
X181113053Y-67098952D01*
X181113053Y-66765619D02*
X181065434Y-66813238D01*
X181065434Y-66813238D02*
X181113053Y-66860857D01*
X181113053Y-66860857D02*
X181160672Y-66813238D01*
X181160672Y-66813238D02*
X181113053Y-66765619D01*
X181113053Y-66765619D02*
X181113053Y-66860857D01*
X181970195Y-67718000D02*
X181874957Y-67765619D01*
X181874957Y-67765619D02*
X181684481Y-67765619D01*
X181684481Y-67765619D02*
X181589243Y-67718000D01*
X181589243Y-67718000D02*
X181541624Y-67622761D01*
X181541624Y-67622761D02*
X181541624Y-67241809D01*
X181541624Y-67241809D02*
X181589243Y-67146571D01*
X181589243Y-67146571D02*
X181684481Y-67098952D01*
X181684481Y-67098952D02*
X181874957Y-67098952D01*
X181874957Y-67098952D02*
X181970195Y-67146571D01*
X181970195Y-67146571D02*
X182017814Y-67241809D01*
X182017814Y-67241809D02*
X182017814Y-67337047D01*
X182017814Y-67337047D02*
X181541624Y-67432285D01*
X182351148Y-67098952D02*
X182541624Y-67765619D01*
X182541624Y-67765619D02*
X182732100Y-67289428D01*
X182732100Y-67289428D02*
X182922576Y-67765619D01*
X182922576Y-67765619D02*
X183113052Y-67098952D01*
X183255910Y-67860857D02*
X184017814Y-67860857D01*
X184779719Y-67765619D02*
X184208291Y-67765619D01*
X184494005Y-67765619D02*
X184494005Y-66765619D01*
X184494005Y-66765619D02*
X184398767Y-66908476D01*
X184398767Y-66908476D02*
X184303529Y-67003714D01*
X184303529Y-67003714D02*
X184208291Y-67051333D01*
X136765233Y-30246300D02*
X136908090Y-30293919D01*
X136908090Y-30293919D02*
X137146185Y-30293919D01*
X137146185Y-30293919D02*
X137241423Y-30246300D01*
X137241423Y-30246300D02*
X137289042Y-30198680D01*
X137289042Y-30198680D02*
X137336661Y-30103442D01*
X137336661Y-30103442D02*
X137336661Y-30008204D01*
X137336661Y-30008204D02*
X137289042Y-29912966D01*
X137289042Y-29912966D02*
X137241423Y-29865347D01*
X137241423Y-29865347D02*
X137146185Y-29817728D01*
X137146185Y-29817728D02*
X136955709Y-29770109D01*
X136955709Y-29770109D02*
X136860471Y-29722490D01*
X136860471Y-29722490D02*
X136812852Y-29674871D01*
X136812852Y-29674871D02*
X136765233Y-29579633D01*
X136765233Y-29579633D02*
X136765233Y-29484395D01*
X136765233Y-29484395D02*
X136812852Y-29389157D01*
X136812852Y-29389157D02*
X136860471Y-29341538D01*
X136860471Y-29341538D02*
X136955709Y-29293919D01*
X136955709Y-29293919D02*
X137193804Y-29293919D01*
X137193804Y-29293919D02*
X137336661Y-29341538D01*
X138146185Y-30246300D02*
X138050947Y-30293919D01*
X138050947Y-30293919D02*
X137860471Y-30293919D01*
X137860471Y-30293919D02*
X137765233Y-30246300D01*
X137765233Y-30246300D02*
X137717614Y-30151061D01*
X137717614Y-30151061D02*
X137717614Y-29770109D01*
X137717614Y-29770109D02*
X137765233Y-29674871D01*
X137765233Y-29674871D02*
X137860471Y-29627252D01*
X137860471Y-29627252D02*
X138050947Y-29627252D01*
X138050947Y-29627252D02*
X138146185Y-29674871D01*
X138146185Y-29674871D02*
X138193804Y-29770109D01*
X138193804Y-29770109D02*
X138193804Y-29865347D01*
X138193804Y-29865347D02*
X137717614Y-29960585D01*
X138622376Y-30293919D02*
X138622376Y-29627252D01*
X138622376Y-29817728D02*
X138669995Y-29722490D01*
X138669995Y-29722490D02*
X138717614Y-29674871D01*
X138717614Y-29674871D02*
X138812852Y-29627252D01*
X138812852Y-29627252D02*
X138908090Y-29627252D01*
X139241424Y-30293919D02*
X139241424Y-29627252D01*
X139241424Y-29293919D02*
X139193805Y-29341538D01*
X139193805Y-29341538D02*
X139241424Y-29389157D01*
X139241424Y-29389157D02*
X139289043Y-29341538D01*
X139289043Y-29341538D02*
X139241424Y-29293919D01*
X139241424Y-29293919D02*
X139241424Y-29389157D01*
X140146185Y-30293919D02*
X140146185Y-29770109D01*
X140146185Y-29770109D02*
X140098566Y-29674871D01*
X140098566Y-29674871D02*
X140003328Y-29627252D01*
X140003328Y-29627252D02*
X139812852Y-29627252D01*
X139812852Y-29627252D02*
X139717614Y-29674871D01*
X140146185Y-30246300D02*
X140050947Y-30293919D01*
X140050947Y-30293919D02*
X139812852Y-30293919D01*
X139812852Y-30293919D02*
X139717614Y-30246300D01*
X139717614Y-30246300D02*
X139669995Y-30151061D01*
X139669995Y-30151061D02*
X139669995Y-30055823D01*
X139669995Y-30055823D02*
X139717614Y-29960585D01*
X139717614Y-29960585D02*
X139812852Y-29912966D01*
X139812852Y-29912966D02*
X140050947Y-29912966D01*
X140050947Y-29912966D02*
X140146185Y-29865347D01*
X140765233Y-30293919D02*
X140669995Y-30246300D01*
X140669995Y-30246300D02*
X140622376Y-30151061D01*
X140622376Y-30151061D02*
X140622376Y-29293919D01*
X140908091Y-30389157D02*
X141669995Y-30389157D01*
X142384281Y-29293919D02*
X141908091Y-29293919D01*
X141908091Y-29293919D02*
X141860472Y-29770109D01*
X141860472Y-29770109D02*
X141908091Y-29722490D01*
X141908091Y-29722490D02*
X142003329Y-29674871D01*
X142003329Y-29674871D02*
X142241424Y-29674871D01*
X142241424Y-29674871D02*
X142336662Y-29722490D01*
X142336662Y-29722490D02*
X142384281Y-29770109D01*
X142384281Y-29770109D02*
X142431900Y-29865347D01*
X142431900Y-29865347D02*
X142431900Y-30103442D01*
X142431900Y-30103442D02*
X142384281Y-30198680D01*
X142384281Y-30198680D02*
X142336662Y-30246300D01*
X142336662Y-30246300D02*
X142241424Y-30293919D01*
X142241424Y-30293919D02*
X142003329Y-30293919D01*
X142003329Y-30293919D02*
X141908091Y-30246300D01*
X141908091Y-30246300D02*
X141860472Y-30198680D01*
X142622377Y-30389157D02*
X143384281Y-30389157D01*
X144146186Y-29341538D02*
X144050948Y-29293919D01*
X144050948Y-29293919D02*
X143908091Y-29293919D01*
X143908091Y-29293919D02*
X143765234Y-29341538D01*
X143765234Y-29341538D02*
X143669996Y-29436776D01*
X143669996Y-29436776D02*
X143622377Y-29532014D01*
X143622377Y-29532014D02*
X143574758Y-29722490D01*
X143574758Y-29722490D02*
X143574758Y-29865347D01*
X143574758Y-29865347D02*
X143622377Y-30055823D01*
X143622377Y-30055823D02*
X143669996Y-30151061D01*
X143669996Y-30151061D02*
X143765234Y-30246300D01*
X143765234Y-30246300D02*
X143908091Y-30293919D01*
X143908091Y-30293919D02*
X144003329Y-30293919D01*
X144003329Y-30293919D02*
X144146186Y-30246300D01*
X144146186Y-30246300D02*
X144193805Y-30198680D01*
X144193805Y-30198680D02*
X144193805Y-29865347D01*
X144193805Y-29865347D02*
X144003329Y-29865347D01*
X144622377Y-30293919D02*
X144622377Y-29293919D01*
X144622377Y-29293919D02*
X145003329Y-29293919D01*
X145003329Y-29293919D02*
X145098567Y-29341538D01*
X145098567Y-29341538D02*
X145146186Y-29389157D01*
X145146186Y-29389157D02*
X145193805Y-29484395D01*
X145193805Y-29484395D02*
X145193805Y-29627252D01*
X145193805Y-29627252D02*
X145146186Y-29722490D01*
X145146186Y-29722490D02*
X145098567Y-29770109D01*
X145098567Y-29770109D02*
X145003329Y-29817728D01*
X145003329Y-29817728D02*
X144622377Y-29817728D01*
X145574758Y-30246300D02*
X145717615Y-30293919D01*
X145717615Y-30293919D02*
X145955710Y-30293919D01*
X145955710Y-30293919D02*
X146050948Y-30246300D01*
X146050948Y-30246300D02*
X146098567Y-30198680D01*
X146098567Y-30198680D02*
X146146186Y-30103442D01*
X146146186Y-30103442D02*
X146146186Y-30008204D01*
X146146186Y-30008204D02*
X146098567Y-29912966D01*
X146098567Y-29912966D02*
X146050948Y-29865347D01*
X146050948Y-29865347D02*
X145955710Y-29817728D01*
X145955710Y-29817728D02*
X145765234Y-29770109D01*
X145765234Y-29770109D02*
X145669996Y-29722490D01*
X145669996Y-29722490D02*
X145622377Y-29674871D01*
X145622377Y-29674871D02*
X145574758Y-29579633D01*
X145574758Y-29579633D02*
X145574758Y-29484395D01*
X145574758Y-29484395D02*
X145622377Y-29389157D01*
X145622377Y-29389157D02*
X145669996Y-29341538D01*
X145669996Y-29341538D02*
X145765234Y-29293919D01*
X145765234Y-29293919D02*
X146003329Y-29293919D01*
X146003329Y-29293919D02*
X146146186Y-29341538D01*
X147098567Y-30293919D02*
X146527139Y-30293919D01*
X146812853Y-30293919D02*
X146812853Y-29293919D01*
X146812853Y-29293919D02*
X146717615Y-29436776D01*
X146717615Y-29436776D02*
X146622377Y-29532014D01*
X146622377Y-29532014D02*
X146527139Y-29579633D01*
X135741423Y-86046300D02*
X135884280Y-86093919D01*
X135884280Y-86093919D02*
X136122375Y-86093919D01*
X136122375Y-86093919D02*
X136217613Y-86046300D01*
X136217613Y-86046300D02*
X136265232Y-85998680D01*
X136265232Y-85998680D02*
X136312851Y-85903442D01*
X136312851Y-85903442D02*
X136312851Y-85808204D01*
X136312851Y-85808204D02*
X136265232Y-85712966D01*
X136265232Y-85712966D02*
X136217613Y-85665347D01*
X136217613Y-85665347D02*
X136122375Y-85617728D01*
X136122375Y-85617728D02*
X135931899Y-85570109D01*
X135931899Y-85570109D02*
X135836661Y-85522490D01*
X135836661Y-85522490D02*
X135789042Y-85474871D01*
X135789042Y-85474871D02*
X135741423Y-85379633D01*
X135741423Y-85379633D02*
X135741423Y-85284395D01*
X135741423Y-85284395D02*
X135789042Y-85189157D01*
X135789042Y-85189157D02*
X135836661Y-85141538D01*
X135836661Y-85141538D02*
X135931899Y-85093919D01*
X135931899Y-85093919D02*
X136169994Y-85093919D01*
X136169994Y-85093919D02*
X136312851Y-85141538D01*
X137122375Y-86046300D02*
X137027137Y-86093919D01*
X137027137Y-86093919D02*
X136836661Y-86093919D01*
X136836661Y-86093919D02*
X136741423Y-86046300D01*
X136741423Y-86046300D02*
X136693804Y-85951061D01*
X136693804Y-85951061D02*
X136693804Y-85570109D01*
X136693804Y-85570109D02*
X136741423Y-85474871D01*
X136741423Y-85474871D02*
X136836661Y-85427252D01*
X136836661Y-85427252D02*
X137027137Y-85427252D01*
X137027137Y-85427252D02*
X137122375Y-85474871D01*
X137122375Y-85474871D02*
X137169994Y-85570109D01*
X137169994Y-85570109D02*
X137169994Y-85665347D01*
X137169994Y-85665347D02*
X136693804Y-85760585D01*
X137598566Y-86093919D02*
X137598566Y-85427252D01*
X137598566Y-85617728D02*
X137646185Y-85522490D01*
X137646185Y-85522490D02*
X137693804Y-85474871D01*
X137693804Y-85474871D02*
X137789042Y-85427252D01*
X137789042Y-85427252D02*
X137884280Y-85427252D01*
X138217614Y-86093919D02*
X138217614Y-85427252D01*
X138217614Y-85093919D02*
X138169995Y-85141538D01*
X138169995Y-85141538D02*
X138217614Y-85189157D01*
X138217614Y-85189157D02*
X138265233Y-85141538D01*
X138265233Y-85141538D02*
X138217614Y-85093919D01*
X138217614Y-85093919D02*
X138217614Y-85189157D01*
X139122375Y-86093919D02*
X139122375Y-85570109D01*
X139122375Y-85570109D02*
X139074756Y-85474871D01*
X139074756Y-85474871D02*
X138979518Y-85427252D01*
X138979518Y-85427252D02*
X138789042Y-85427252D01*
X138789042Y-85427252D02*
X138693804Y-85474871D01*
X139122375Y-86046300D02*
X139027137Y-86093919D01*
X139027137Y-86093919D02*
X138789042Y-86093919D01*
X138789042Y-86093919D02*
X138693804Y-86046300D01*
X138693804Y-86046300D02*
X138646185Y-85951061D01*
X138646185Y-85951061D02*
X138646185Y-85855823D01*
X138646185Y-85855823D02*
X138693804Y-85760585D01*
X138693804Y-85760585D02*
X138789042Y-85712966D01*
X138789042Y-85712966D02*
X139027137Y-85712966D01*
X139027137Y-85712966D02*
X139122375Y-85665347D01*
X139741423Y-86093919D02*
X139646185Y-86046300D01*
X139646185Y-86046300D02*
X139598566Y-85951061D01*
X139598566Y-85951061D02*
X139598566Y-85093919D01*
X139884281Y-86189157D02*
X140646185Y-86189157D01*
X140836662Y-85189157D02*
X140884281Y-85141538D01*
X140884281Y-85141538D02*
X140979519Y-85093919D01*
X140979519Y-85093919D02*
X141217614Y-85093919D01*
X141217614Y-85093919D02*
X141312852Y-85141538D01*
X141312852Y-85141538D02*
X141360471Y-85189157D01*
X141360471Y-85189157D02*
X141408090Y-85284395D01*
X141408090Y-85284395D02*
X141408090Y-85379633D01*
X141408090Y-85379633D02*
X141360471Y-85522490D01*
X141360471Y-85522490D02*
X140789043Y-86093919D01*
X140789043Y-86093919D02*
X141408090Y-86093919D01*
X141598567Y-86189157D02*
X142360471Y-86189157D01*
X142503329Y-85093919D02*
X143169995Y-86093919D01*
X143169995Y-85093919D02*
X142503329Y-86093919D01*
X143550948Y-86093919D02*
X143550948Y-85093919D01*
X143550948Y-85093919D02*
X143931900Y-85093919D01*
X143931900Y-85093919D02*
X144027138Y-85141538D01*
X144027138Y-85141538D02*
X144074757Y-85189157D01*
X144074757Y-85189157D02*
X144122376Y-85284395D01*
X144122376Y-85284395D02*
X144122376Y-85427252D01*
X144122376Y-85427252D02*
X144074757Y-85522490D01*
X144074757Y-85522490D02*
X144027138Y-85570109D01*
X144027138Y-85570109D02*
X143931900Y-85617728D01*
X143931900Y-85617728D02*
X143550948Y-85617728D01*
X144550948Y-86093919D02*
X144550948Y-85093919D01*
X144550948Y-85093919D02*
X145122376Y-86093919D01*
X145122376Y-86093919D02*
X145122376Y-85093919D01*
X145598567Y-86093919D02*
X145598567Y-85093919D01*
X145598567Y-85093919D02*
X145836662Y-85093919D01*
X145836662Y-85093919D02*
X145979519Y-85141538D01*
X145979519Y-85141538D02*
X146074757Y-85236776D01*
X146074757Y-85236776D02*
X146122376Y-85332014D01*
X146122376Y-85332014D02*
X146169995Y-85522490D01*
X146169995Y-85522490D02*
X146169995Y-85665347D01*
X146169995Y-85665347D02*
X146122376Y-85855823D01*
X146122376Y-85855823D02*
X146074757Y-85951061D01*
X146074757Y-85951061D02*
X145979519Y-86046300D01*
X145979519Y-86046300D02*
X145836662Y-86093919D01*
X145836662Y-86093919D02*
X145598567Y-86093919D01*
X147169995Y-86093919D02*
X146836662Y-85617728D01*
X146598567Y-86093919D02*
X146598567Y-85093919D01*
X146598567Y-85093919D02*
X146979519Y-85093919D01*
X146979519Y-85093919D02*
X147074757Y-85141538D01*
X147074757Y-85141538D02*
X147122376Y-85189157D01*
X147122376Y-85189157D02*
X147169995Y-85284395D01*
X147169995Y-85284395D02*
X147169995Y-85427252D01*
X147169995Y-85427252D02*
X147122376Y-85522490D01*
X147122376Y-85522490D02*
X147074757Y-85570109D01*
X147074757Y-85570109D02*
X146979519Y-85617728D01*
X146979519Y-85617728D02*
X146598567Y-85617728D01*
X148122376Y-86093919D02*
X147550948Y-86093919D01*
X147836662Y-86093919D02*
X147836662Y-85093919D01*
X147836662Y-85093919D02*
X147741424Y-85236776D01*
X147741424Y-85236776D02*
X147646186Y-85332014D01*
X147646186Y-85332014D02*
X147550948Y-85379633D01*
X136836661Y-67446300D02*
X136979518Y-67493919D01*
X136979518Y-67493919D02*
X137217613Y-67493919D01*
X137217613Y-67493919D02*
X137312851Y-67446300D01*
X137312851Y-67446300D02*
X137360470Y-67398680D01*
X137360470Y-67398680D02*
X137408089Y-67303442D01*
X137408089Y-67303442D02*
X137408089Y-67208204D01*
X137408089Y-67208204D02*
X137360470Y-67112966D01*
X137360470Y-67112966D02*
X137312851Y-67065347D01*
X137312851Y-67065347D02*
X137217613Y-67017728D01*
X137217613Y-67017728D02*
X137027137Y-66970109D01*
X137027137Y-66970109D02*
X136931899Y-66922490D01*
X136931899Y-66922490D02*
X136884280Y-66874871D01*
X136884280Y-66874871D02*
X136836661Y-66779633D01*
X136836661Y-66779633D02*
X136836661Y-66684395D01*
X136836661Y-66684395D02*
X136884280Y-66589157D01*
X136884280Y-66589157D02*
X136931899Y-66541538D01*
X136931899Y-66541538D02*
X137027137Y-66493919D01*
X137027137Y-66493919D02*
X137265232Y-66493919D01*
X137265232Y-66493919D02*
X137408089Y-66541538D01*
X138217613Y-67446300D02*
X138122375Y-67493919D01*
X138122375Y-67493919D02*
X137931899Y-67493919D01*
X137931899Y-67493919D02*
X137836661Y-67446300D01*
X137836661Y-67446300D02*
X137789042Y-67351061D01*
X137789042Y-67351061D02*
X137789042Y-66970109D01*
X137789042Y-66970109D02*
X137836661Y-66874871D01*
X137836661Y-66874871D02*
X137931899Y-66827252D01*
X137931899Y-66827252D02*
X138122375Y-66827252D01*
X138122375Y-66827252D02*
X138217613Y-66874871D01*
X138217613Y-66874871D02*
X138265232Y-66970109D01*
X138265232Y-66970109D02*
X138265232Y-67065347D01*
X138265232Y-67065347D02*
X137789042Y-67160585D01*
X138693804Y-67493919D02*
X138693804Y-66827252D01*
X138693804Y-67017728D02*
X138741423Y-66922490D01*
X138741423Y-66922490D02*
X138789042Y-66874871D01*
X138789042Y-66874871D02*
X138884280Y-66827252D01*
X138884280Y-66827252D02*
X138979518Y-66827252D01*
X139312852Y-67493919D02*
X139312852Y-66827252D01*
X139312852Y-66493919D02*
X139265233Y-66541538D01*
X139265233Y-66541538D02*
X139312852Y-66589157D01*
X139312852Y-66589157D02*
X139360471Y-66541538D01*
X139360471Y-66541538D02*
X139312852Y-66493919D01*
X139312852Y-66493919D02*
X139312852Y-66589157D01*
X140217613Y-67493919D02*
X140217613Y-66970109D01*
X140217613Y-66970109D02*
X140169994Y-66874871D01*
X140169994Y-66874871D02*
X140074756Y-66827252D01*
X140074756Y-66827252D02*
X139884280Y-66827252D01*
X139884280Y-66827252D02*
X139789042Y-66874871D01*
X140217613Y-67446300D02*
X140122375Y-67493919D01*
X140122375Y-67493919D02*
X139884280Y-67493919D01*
X139884280Y-67493919D02*
X139789042Y-67446300D01*
X139789042Y-67446300D02*
X139741423Y-67351061D01*
X139741423Y-67351061D02*
X139741423Y-67255823D01*
X139741423Y-67255823D02*
X139789042Y-67160585D01*
X139789042Y-67160585D02*
X139884280Y-67112966D01*
X139884280Y-67112966D02*
X140122375Y-67112966D01*
X140122375Y-67112966D02*
X140217613Y-67065347D01*
X140836661Y-67493919D02*
X140741423Y-67446300D01*
X140741423Y-67446300D02*
X140693804Y-67351061D01*
X140693804Y-67351061D02*
X140693804Y-66493919D01*
X140979519Y-67589157D02*
X141741423Y-67589157D01*
X141884281Y-66493919D02*
X142503328Y-66493919D01*
X142503328Y-66493919D02*
X142169995Y-66874871D01*
X142169995Y-66874871D02*
X142312852Y-66874871D01*
X142312852Y-66874871D02*
X142408090Y-66922490D01*
X142408090Y-66922490D02*
X142455709Y-66970109D01*
X142455709Y-66970109D02*
X142503328Y-67065347D01*
X142503328Y-67065347D02*
X142503328Y-67303442D01*
X142503328Y-67303442D02*
X142455709Y-67398680D01*
X142455709Y-67398680D02*
X142408090Y-67446300D01*
X142408090Y-67446300D02*
X142312852Y-67493919D01*
X142312852Y-67493919D02*
X142027138Y-67493919D01*
X142027138Y-67493919D02*
X141931900Y-67446300D01*
X141931900Y-67446300D02*
X141884281Y-67398680D01*
X142693805Y-67589157D02*
X143455709Y-67589157D01*
X143550948Y-66493919D02*
X143884281Y-67493919D01*
X143884281Y-67493919D02*
X144217614Y-66493919D01*
X144550948Y-67493919D02*
X144550948Y-66493919D01*
X144550948Y-66493919D02*
X144931900Y-66493919D01*
X144931900Y-66493919D02*
X145027138Y-66541538D01*
X145027138Y-66541538D02*
X145074757Y-66589157D01*
X145074757Y-66589157D02*
X145122376Y-66684395D01*
X145122376Y-66684395D02*
X145122376Y-66827252D01*
X145122376Y-66827252D02*
X145074757Y-66922490D01*
X145074757Y-66922490D02*
X145027138Y-66970109D01*
X145027138Y-66970109D02*
X144931900Y-67017728D01*
X144931900Y-67017728D02*
X144550948Y-67017728D01*
X145455710Y-66493919D02*
X146122376Y-67493919D01*
X146122376Y-66493919D02*
X145455710Y-67493919D01*
X147027138Y-67493919D02*
X146455710Y-67493919D01*
X146741424Y-67493919D02*
X146741424Y-66493919D01*
X146741424Y-66493919D02*
X146646186Y-66636776D01*
X146646186Y-66636776D02*
X146550948Y-66732014D01*
X146550948Y-66732014D02*
X146455710Y-66779633D01*
X174656861Y-63362700D02*
X174799718Y-63410319D01*
X174799718Y-63410319D02*
X175037813Y-63410319D01*
X175037813Y-63410319D02*
X175133051Y-63362700D01*
X175133051Y-63362700D02*
X175180670Y-63315080D01*
X175180670Y-63315080D02*
X175228289Y-63219842D01*
X175228289Y-63219842D02*
X175228289Y-63124604D01*
X175228289Y-63124604D02*
X175180670Y-63029366D01*
X175180670Y-63029366D02*
X175133051Y-62981747D01*
X175133051Y-62981747D02*
X175037813Y-62934128D01*
X175037813Y-62934128D02*
X174847337Y-62886509D01*
X174847337Y-62886509D02*
X174752099Y-62838890D01*
X174752099Y-62838890D02*
X174704480Y-62791271D01*
X174704480Y-62791271D02*
X174656861Y-62696033D01*
X174656861Y-62696033D02*
X174656861Y-62600795D01*
X174656861Y-62600795D02*
X174704480Y-62505557D01*
X174704480Y-62505557D02*
X174752099Y-62457938D01*
X174752099Y-62457938D02*
X174847337Y-62410319D01*
X174847337Y-62410319D02*
X175085432Y-62410319D01*
X175085432Y-62410319D02*
X175228289Y-62457938D01*
X175514004Y-62410319D02*
X175847337Y-63410319D01*
X175847337Y-63410319D02*
X176180670Y-62410319D01*
X176514004Y-63029366D02*
X177275909Y-63029366D01*
X177752099Y-63410319D02*
X177752099Y-62410319D01*
X177752099Y-62410319D02*
X178323527Y-63410319D01*
X178323527Y-63410319D02*
X178323527Y-62410319D01*
X179180670Y-63362700D02*
X179085432Y-63410319D01*
X179085432Y-63410319D02*
X178894956Y-63410319D01*
X178894956Y-63410319D02*
X178799718Y-63362700D01*
X178799718Y-63362700D02*
X178752099Y-63267461D01*
X178752099Y-63267461D02*
X178752099Y-62886509D01*
X178752099Y-62886509D02*
X178799718Y-62791271D01*
X178799718Y-62791271D02*
X178894956Y-62743652D01*
X178894956Y-62743652D02*
X179085432Y-62743652D01*
X179085432Y-62743652D02*
X179180670Y-62791271D01*
X179180670Y-62791271D02*
X179228289Y-62886509D01*
X179228289Y-62886509D02*
X179228289Y-62981747D01*
X179228289Y-62981747D02*
X178752099Y-63076985D01*
X179514004Y-62743652D02*
X179894956Y-62743652D01*
X179656861Y-62410319D02*
X179656861Y-63267461D01*
X179656861Y-63267461D02*
X179704480Y-63362700D01*
X179704480Y-63362700D02*
X179799718Y-63410319D01*
X179799718Y-63410319D02*
X179894956Y-63410319D01*
X179990195Y-63505557D02*
X180752099Y-63505557D01*
X180942576Y-63124604D02*
X181418766Y-63124604D01*
X180847338Y-63410319D02*
X181180671Y-62410319D01*
X181180671Y-62410319D02*
X181514004Y-63410319D01*
X181847338Y-63410319D02*
X181847338Y-62410319D01*
X181847338Y-62410319D02*
X182228290Y-62410319D01*
X182228290Y-62410319D02*
X182323528Y-62457938D01*
X182323528Y-62457938D02*
X182371147Y-62505557D01*
X182371147Y-62505557D02*
X182418766Y-62600795D01*
X182418766Y-62600795D02*
X182418766Y-62743652D01*
X182418766Y-62743652D02*
X182371147Y-62838890D01*
X182371147Y-62838890D02*
X182323528Y-62886509D01*
X182323528Y-62886509D02*
X182228290Y-62934128D01*
X182228290Y-62934128D02*
X181847338Y-62934128D01*
X182609243Y-63505557D02*
X183371147Y-63505557D01*
X184180671Y-63410319D02*
X183847338Y-62934128D01*
X183609243Y-63410319D02*
X183609243Y-62410319D01*
X183609243Y-62410319D02*
X183990195Y-62410319D01*
X183990195Y-62410319D02*
X184085433Y-62457938D01*
X184085433Y-62457938D02*
X184133052Y-62505557D01*
X184133052Y-62505557D02*
X184180671Y-62600795D01*
X184180671Y-62600795D02*
X184180671Y-62743652D01*
X184180671Y-62743652D02*
X184133052Y-62838890D01*
X184133052Y-62838890D02*
X184085433Y-62886509D01*
X184085433Y-62886509D02*
X183990195Y-62934128D01*
X183990195Y-62934128D02*
X183609243Y-62934128D01*
X184752100Y-63410319D02*
X184656862Y-63362700D01*
X184656862Y-63362700D02*
X184609243Y-63315080D01*
X184609243Y-63315080D02*
X184561624Y-63219842D01*
X184561624Y-63219842D02*
X184561624Y-62934128D01*
X184561624Y-62934128D02*
X184609243Y-62838890D01*
X184609243Y-62838890D02*
X184656862Y-62791271D01*
X184656862Y-62791271D02*
X184752100Y-62743652D01*
X184752100Y-62743652D02*
X184894957Y-62743652D01*
X184894957Y-62743652D02*
X184990195Y-62791271D01*
X184990195Y-62791271D02*
X185037814Y-62838890D01*
X185037814Y-62838890D02*
X185085433Y-62934128D01*
X185085433Y-62934128D02*
X185085433Y-63219842D01*
X185085433Y-63219842D02*
X185037814Y-63315080D01*
X185037814Y-63315080D02*
X184990195Y-63362700D01*
X184990195Y-63362700D02*
X184894957Y-63410319D01*
X184894957Y-63410319D02*
X184752100Y-63410319D01*
X185656862Y-63410319D02*
X185561624Y-63362700D01*
X185561624Y-63362700D02*
X185514005Y-63267461D01*
X185514005Y-63267461D02*
X185514005Y-62410319D01*
X186180672Y-63410319D02*
X186085434Y-63362700D01*
X186085434Y-63362700D02*
X186037815Y-63267461D01*
X186037815Y-63267461D02*
X186037815Y-62410319D01*
X186323530Y-63505557D02*
X187085434Y-63505557D01*
X187847339Y-63410319D02*
X187275911Y-63410319D01*
X187561625Y-63410319D02*
X187561625Y-62410319D01*
X187561625Y-62410319D02*
X187466387Y-62553176D01*
X187466387Y-62553176D02*
X187371149Y-62648414D01*
X187371149Y-62648414D02*
X187275911Y-62696033D01*
X131908090Y-123294019D02*
X131908090Y-122294019D01*
X131908090Y-122294019D02*
X132146185Y-122294019D01*
X132146185Y-122294019D02*
X132289042Y-122341638D01*
X132289042Y-122341638D02*
X132384280Y-122436876D01*
X132384280Y-122436876D02*
X132431899Y-122532114D01*
X132431899Y-122532114D02*
X132479518Y-122722590D01*
X132479518Y-122722590D02*
X132479518Y-122865447D01*
X132479518Y-122865447D02*
X132431899Y-123055923D01*
X132431899Y-123055923D02*
X132384280Y-123151161D01*
X132384280Y-123151161D02*
X132289042Y-123246400D01*
X132289042Y-123246400D02*
X132146185Y-123294019D01*
X132146185Y-123294019D02*
X131908090Y-123294019D01*
X132908090Y-123294019D02*
X132908090Y-122627352D01*
X132908090Y-122294019D02*
X132860471Y-122341638D01*
X132860471Y-122341638D02*
X132908090Y-122389257D01*
X132908090Y-122389257D02*
X132955709Y-122341638D01*
X132955709Y-122341638D02*
X132908090Y-122294019D01*
X132908090Y-122294019D02*
X132908090Y-122389257D01*
X133384280Y-123294019D02*
X133384280Y-122627352D01*
X133384280Y-122722590D02*
X133431899Y-122674971D01*
X133431899Y-122674971D02*
X133527137Y-122627352D01*
X133527137Y-122627352D02*
X133669994Y-122627352D01*
X133669994Y-122627352D02*
X133765232Y-122674971D01*
X133765232Y-122674971D02*
X133812851Y-122770209D01*
X133812851Y-122770209D02*
X133812851Y-123294019D01*
X133812851Y-122770209D02*
X133860470Y-122674971D01*
X133860470Y-122674971D02*
X133955708Y-122627352D01*
X133955708Y-122627352D02*
X134098565Y-122627352D01*
X134098565Y-122627352D02*
X134193804Y-122674971D01*
X134193804Y-122674971D02*
X134241423Y-122770209D01*
X134241423Y-122770209D02*
X134241423Y-123294019D01*
X134717613Y-123294019D02*
X134717613Y-122627352D01*
X134717613Y-122722590D02*
X134765232Y-122674971D01*
X134765232Y-122674971D02*
X134860470Y-122627352D01*
X134860470Y-122627352D02*
X135003327Y-122627352D01*
X135003327Y-122627352D02*
X135098565Y-122674971D01*
X135098565Y-122674971D02*
X135146184Y-122770209D01*
X135146184Y-122770209D02*
X135146184Y-123294019D01*
X135146184Y-122770209D02*
X135193803Y-122674971D01*
X135193803Y-122674971D02*
X135289041Y-122627352D01*
X135289041Y-122627352D02*
X135431898Y-122627352D01*
X135431898Y-122627352D02*
X135527137Y-122674971D01*
X135527137Y-122674971D02*
X135574756Y-122770209D01*
X135574756Y-122770209D02*
X135574756Y-123294019D01*
X136431898Y-123246400D02*
X136336660Y-123294019D01*
X136336660Y-123294019D02*
X136146184Y-123294019D01*
X136146184Y-123294019D02*
X136050946Y-123246400D01*
X136050946Y-123246400D02*
X136003327Y-123151161D01*
X136003327Y-123151161D02*
X136003327Y-122770209D01*
X136003327Y-122770209D02*
X136050946Y-122674971D01*
X136050946Y-122674971D02*
X136146184Y-122627352D01*
X136146184Y-122627352D02*
X136336660Y-122627352D01*
X136336660Y-122627352D02*
X136431898Y-122674971D01*
X136431898Y-122674971D02*
X136479517Y-122770209D01*
X136479517Y-122770209D02*
X136479517Y-122865447D01*
X136479517Y-122865447D02*
X136003327Y-122960685D01*
X136908089Y-123294019D02*
X136908089Y-122627352D01*
X136908089Y-122817828D02*
X136955708Y-122722590D01*
X136955708Y-122722590D02*
X137003327Y-122674971D01*
X137003327Y-122674971D02*
X137098565Y-122627352D01*
X137098565Y-122627352D02*
X137193803Y-122627352D01*
X137289042Y-123389257D02*
X138050946Y-123389257D01*
X138717613Y-123294019D02*
X138717613Y-122770209D01*
X138717613Y-122770209D02*
X138669994Y-122674971D01*
X138669994Y-122674971D02*
X138574756Y-122627352D01*
X138574756Y-122627352D02*
X138384280Y-122627352D01*
X138384280Y-122627352D02*
X138289042Y-122674971D01*
X138717613Y-123246400D02*
X138622375Y-123294019D01*
X138622375Y-123294019D02*
X138384280Y-123294019D01*
X138384280Y-123294019D02*
X138289042Y-123246400D01*
X138289042Y-123246400D02*
X138241423Y-123151161D01*
X138241423Y-123151161D02*
X138241423Y-123055923D01*
X138241423Y-123055923D02*
X138289042Y-122960685D01*
X138289042Y-122960685D02*
X138384280Y-122913066D01*
X138384280Y-122913066D02*
X138622375Y-122913066D01*
X138622375Y-122913066D02*
X138717613Y-122865447D01*
X139193804Y-122627352D02*
X139193804Y-123294019D01*
X139193804Y-122722590D02*
X139241423Y-122674971D01*
X139241423Y-122674971D02*
X139336661Y-122627352D01*
X139336661Y-122627352D02*
X139479518Y-122627352D01*
X139479518Y-122627352D02*
X139574756Y-122674971D01*
X139574756Y-122674971D02*
X139622375Y-122770209D01*
X139622375Y-122770209D02*
X139622375Y-123294019D01*
X140527137Y-123294019D02*
X140527137Y-122294019D01*
X140527137Y-123246400D02*
X140431899Y-123294019D01*
X140431899Y-123294019D02*
X140241423Y-123294019D01*
X140241423Y-123294019D02*
X140146185Y-123246400D01*
X140146185Y-123246400D02*
X140098566Y-123198780D01*
X140098566Y-123198780D02*
X140050947Y-123103542D01*
X140050947Y-123103542D02*
X140050947Y-122817828D01*
X140050947Y-122817828D02*
X140098566Y-122722590D01*
X140098566Y-122722590D02*
X140146185Y-122674971D01*
X140146185Y-122674971D02*
X140241423Y-122627352D01*
X140241423Y-122627352D02*
X140431899Y-122627352D01*
X140431899Y-122627352D02*
X140527137Y-122674971D01*
X140765233Y-123389257D02*
X141527137Y-123389257D01*
X141717614Y-123008304D02*
X142193804Y-123008304D01*
X141622376Y-123294019D02*
X141955709Y-122294019D01*
X141955709Y-122294019D02*
X142289042Y-123294019D01*
X143050947Y-122627352D02*
X143050947Y-123294019D01*
X142622376Y-122627352D02*
X142622376Y-123151161D01*
X142622376Y-123151161D02*
X142669995Y-123246400D01*
X142669995Y-123246400D02*
X142765233Y-123294019D01*
X142765233Y-123294019D02*
X142908090Y-123294019D01*
X142908090Y-123294019D02*
X143003328Y-123246400D01*
X143003328Y-123246400D02*
X143050947Y-123198780D01*
X143955709Y-123294019D02*
X143955709Y-122294019D01*
X143955709Y-123246400D02*
X143860471Y-123294019D01*
X143860471Y-123294019D02*
X143669995Y-123294019D01*
X143669995Y-123294019D02*
X143574757Y-123246400D01*
X143574757Y-123246400D02*
X143527138Y-123198780D01*
X143527138Y-123198780D02*
X143479519Y-123103542D01*
X143479519Y-123103542D02*
X143479519Y-122817828D01*
X143479519Y-122817828D02*
X143527138Y-122722590D01*
X143527138Y-122722590D02*
X143574757Y-122674971D01*
X143574757Y-122674971D02*
X143669995Y-122627352D01*
X143669995Y-122627352D02*
X143860471Y-122627352D01*
X143860471Y-122627352D02*
X143955709Y-122674971D01*
X144431900Y-123294019D02*
X144431900Y-122627352D01*
X144431900Y-122294019D02*
X144384281Y-122341638D01*
X144384281Y-122341638D02*
X144431900Y-122389257D01*
X144431900Y-122389257D02*
X144479519Y-122341638D01*
X144479519Y-122341638D02*
X144431900Y-122294019D01*
X144431900Y-122294019D02*
X144431900Y-122389257D01*
X145050947Y-123294019D02*
X144955709Y-123246400D01*
X144955709Y-123246400D02*
X144908090Y-123198780D01*
X144908090Y-123198780D02*
X144860471Y-123103542D01*
X144860471Y-123103542D02*
X144860471Y-122817828D01*
X144860471Y-122817828D02*
X144908090Y-122722590D01*
X144908090Y-122722590D02*
X144955709Y-122674971D01*
X144955709Y-122674971D02*
X145050947Y-122627352D01*
X145050947Y-122627352D02*
X145193804Y-122627352D01*
X145193804Y-122627352D02*
X145289042Y-122674971D01*
X145289042Y-122674971D02*
X145336661Y-122722590D01*
X145336661Y-122722590D02*
X145384280Y-122817828D01*
X145384280Y-122817828D02*
X145384280Y-123103542D01*
X145384280Y-123103542D02*
X145336661Y-123198780D01*
X145336661Y-123198780D02*
X145289042Y-123246400D01*
X145289042Y-123246400D02*
X145193804Y-123294019D01*
X145193804Y-123294019D02*
X145050947Y-123294019D01*
X145574757Y-123389257D02*
X146336661Y-123389257D01*
X146765233Y-122294019D02*
X146955709Y-122294019D01*
X146955709Y-122294019D02*
X147050947Y-122341638D01*
X147050947Y-122341638D02*
X147146185Y-122436876D01*
X147146185Y-122436876D02*
X147193804Y-122627352D01*
X147193804Y-122627352D02*
X147193804Y-122960685D01*
X147193804Y-122960685D02*
X147146185Y-123151161D01*
X147146185Y-123151161D02*
X147050947Y-123246400D01*
X147050947Y-123246400D02*
X146955709Y-123294019D01*
X146955709Y-123294019D02*
X146765233Y-123294019D01*
X146765233Y-123294019D02*
X146669995Y-123246400D01*
X146669995Y-123246400D02*
X146574757Y-123151161D01*
X146574757Y-123151161D02*
X146527138Y-122960685D01*
X146527138Y-122960685D02*
X146527138Y-122627352D01*
X146527138Y-122627352D02*
X146574757Y-122436876D01*
X146574757Y-122436876D02*
X146669995Y-122341638D01*
X146669995Y-122341638D02*
X146765233Y-122294019D01*
X148050947Y-122627352D02*
X148050947Y-123294019D01*
X147622376Y-122627352D02*
X147622376Y-123151161D01*
X147622376Y-123151161D02*
X147669995Y-123246400D01*
X147669995Y-123246400D02*
X147765233Y-123294019D01*
X147765233Y-123294019D02*
X147908090Y-123294019D01*
X147908090Y-123294019D02*
X148003328Y-123246400D01*
X148003328Y-123246400D02*
X148050947Y-123198780D01*
X148384281Y-122627352D02*
X148765233Y-122627352D01*
X148527138Y-122294019D02*
X148527138Y-123151161D01*
X148527138Y-123151161D02*
X148574757Y-123246400D01*
X148574757Y-123246400D02*
X148669995Y-123294019D01*
X148669995Y-123294019D02*
X148765233Y-123294019D01*
X149098567Y-122627352D02*
X149098567Y-123627352D01*
X149098567Y-122674971D02*
X149193805Y-122627352D01*
X149193805Y-122627352D02*
X149384281Y-122627352D01*
X149384281Y-122627352D02*
X149479519Y-122674971D01*
X149479519Y-122674971D02*
X149527138Y-122722590D01*
X149527138Y-122722590D02*
X149574757Y-122817828D01*
X149574757Y-122817828D02*
X149574757Y-123103542D01*
X149574757Y-123103542D02*
X149527138Y-123198780D01*
X149527138Y-123198780D02*
X149479519Y-123246400D01*
X149479519Y-123246400D02*
X149384281Y-123294019D01*
X149384281Y-123294019D02*
X149193805Y-123294019D01*
X149193805Y-123294019D02*
X149098567Y-123246400D01*
X150431900Y-122627352D02*
X150431900Y-123294019D01*
X150003329Y-122627352D02*
X150003329Y-123151161D01*
X150003329Y-123151161D02*
X150050948Y-123246400D01*
X150050948Y-123246400D02*
X150146186Y-123294019D01*
X150146186Y-123294019D02*
X150289043Y-123294019D01*
X150289043Y-123294019D02*
X150384281Y-123246400D01*
X150384281Y-123246400D02*
X150431900Y-123198780D01*
X150765234Y-122627352D02*
X151146186Y-122627352D01*
X150908091Y-122294019D02*
X150908091Y-123151161D01*
X150908091Y-123151161D02*
X150955710Y-123246400D01*
X150955710Y-123246400D02*
X151050948Y-123294019D01*
X151050948Y-123294019D02*
X151146186Y-123294019D01*
X152003329Y-123294019D02*
X151431901Y-123294019D01*
X151717615Y-123294019D02*
X151717615Y-122294019D01*
X151717615Y-122294019D02*
X151622377Y-122436876D01*
X151622377Y-122436876D02*
X151527139Y-122532114D01*
X151527139Y-122532114D02*
X151431901Y-122579733D01*
X137003328Y-48846300D02*
X137146185Y-48893919D01*
X137146185Y-48893919D02*
X137384280Y-48893919D01*
X137384280Y-48893919D02*
X137479518Y-48846300D01*
X137479518Y-48846300D02*
X137527137Y-48798680D01*
X137527137Y-48798680D02*
X137574756Y-48703442D01*
X137574756Y-48703442D02*
X137574756Y-48608204D01*
X137574756Y-48608204D02*
X137527137Y-48512966D01*
X137527137Y-48512966D02*
X137479518Y-48465347D01*
X137479518Y-48465347D02*
X137384280Y-48417728D01*
X137384280Y-48417728D02*
X137193804Y-48370109D01*
X137193804Y-48370109D02*
X137098566Y-48322490D01*
X137098566Y-48322490D02*
X137050947Y-48274871D01*
X137050947Y-48274871D02*
X137003328Y-48179633D01*
X137003328Y-48179633D02*
X137003328Y-48084395D01*
X137003328Y-48084395D02*
X137050947Y-47989157D01*
X137050947Y-47989157D02*
X137098566Y-47941538D01*
X137098566Y-47941538D02*
X137193804Y-47893919D01*
X137193804Y-47893919D02*
X137431899Y-47893919D01*
X137431899Y-47893919D02*
X137574756Y-47941538D01*
X138384280Y-48846300D02*
X138289042Y-48893919D01*
X138289042Y-48893919D02*
X138098566Y-48893919D01*
X138098566Y-48893919D02*
X138003328Y-48846300D01*
X138003328Y-48846300D02*
X137955709Y-48751061D01*
X137955709Y-48751061D02*
X137955709Y-48370109D01*
X137955709Y-48370109D02*
X138003328Y-48274871D01*
X138003328Y-48274871D02*
X138098566Y-48227252D01*
X138098566Y-48227252D02*
X138289042Y-48227252D01*
X138289042Y-48227252D02*
X138384280Y-48274871D01*
X138384280Y-48274871D02*
X138431899Y-48370109D01*
X138431899Y-48370109D02*
X138431899Y-48465347D01*
X138431899Y-48465347D02*
X137955709Y-48560585D01*
X138860471Y-48893919D02*
X138860471Y-48227252D01*
X138860471Y-48417728D02*
X138908090Y-48322490D01*
X138908090Y-48322490D02*
X138955709Y-48274871D01*
X138955709Y-48274871D02*
X139050947Y-48227252D01*
X139050947Y-48227252D02*
X139146185Y-48227252D01*
X139479519Y-48893919D02*
X139479519Y-48227252D01*
X139479519Y-47893919D02*
X139431900Y-47941538D01*
X139431900Y-47941538D02*
X139479519Y-47989157D01*
X139479519Y-47989157D02*
X139527138Y-47941538D01*
X139527138Y-47941538D02*
X139479519Y-47893919D01*
X139479519Y-47893919D02*
X139479519Y-47989157D01*
X140384280Y-48893919D02*
X140384280Y-48370109D01*
X140384280Y-48370109D02*
X140336661Y-48274871D01*
X140336661Y-48274871D02*
X140241423Y-48227252D01*
X140241423Y-48227252D02*
X140050947Y-48227252D01*
X140050947Y-48227252D02*
X139955709Y-48274871D01*
X140384280Y-48846300D02*
X140289042Y-48893919D01*
X140289042Y-48893919D02*
X140050947Y-48893919D01*
X140050947Y-48893919D02*
X139955709Y-48846300D01*
X139955709Y-48846300D02*
X139908090Y-48751061D01*
X139908090Y-48751061D02*
X139908090Y-48655823D01*
X139908090Y-48655823D02*
X139955709Y-48560585D01*
X139955709Y-48560585D02*
X140050947Y-48512966D01*
X140050947Y-48512966D02*
X140289042Y-48512966D01*
X140289042Y-48512966D02*
X140384280Y-48465347D01*
X141003328Y-48893919D02*
X140908090Y-48846300D01*
X140908090Y-48846300D02*
X140860471Y-48751061D01*
X140860471Y-48751061D02*
X140860471Y-47893919D01*
X141146186Y-48989157D02*
X141908090Y-48989157D01*
X142574757Y-48227252D02*
X142574757Y-48893919D01*
X142336662Y-47846300D02*
X142098567Y-48560585D01*
X142098567Y-48560585D02*
X142717614Y-48560585D01*
X142860472Y-48989157D02*
X143622376Y-48989157D01*
X143860472Y-48370109D02*
X144193805Y-48370109D01*
X144336662Y-48893919D02*
X143860472Y-48893919D01*
X143860472Y-48893919D02*
X143860472Y-47893919D01*
X143860472Y-47893919D02*
X144336662Y-47893919D01*
X145241424Y-48893919D02*
X144765234Y-48893919D01*
X144765234Y-48893919D02*
X144765234Y-47893919D01*
X145431901Y-47893919D02*
X146003329Y-47893919D01*
X145717615Y-48893919D02*
X145717615Y-47893919D01*
X146860472Y-48893919D02*
X146289044Y-48893919D01*
X146574758Y-48893919D02*
X146574758Y-47893919D01*
X146574758Y-47893919D02*
X146479520Y-48036776D01*
X146479520Y-48036776D02*
X146384282Y-48132014D01*
X146384282Y-48132014D02*
X146289044Y-48179633D01*
X204746519Y-88334575D02*
X203746519Y-88334575D01*
X203746519Y-88334575D02*
X204460804Y-88001242D01*
X204460804Y-88001242D02*
X203746519Y-87667909D01*
X203746519Y-87667909D02*
X204746519Y-87667909D01*
X204746519Y-86763147D02*
X204222709Y-86763147D01*
X204222709Y-86763147D02*
X204127471Y-86810766D01*
X204127471Y-86810766D02*
X204079852Y-86906004D01*
X204079852Y-86906004D02*
X204079852Y-87096480D01*
X204079852Y-87096480D02*
X204127471Y-87191718D01*
X204698900Y-86763147D02*
X204746519Y-86858385D01*
X204746519Y-86858385D02*
X204746519Y-87096480D01*
X204746519Y-87096480D02*
X204698900Y-87191718D01*
X204698900Y-87191718D02*
X204603661Y-87239337D01*
X204603661Y-87239337D02*
X204508423Y-87239337D01*
X204508423Y-87239337D02*
X204413185Y-87191718D01*
X204413185Y-87191718D02*
X204365566Y-87096480D01*
X204365566Y-87096480D02*
X204365566Y-86858385D01*
X204365566Y-86858385D02*
X204317947Y-86763147D01*
X204746519Y-86286956D02*
X204079852Y-86286956D01*
X203746519Y-86286956D02*
X203794138Y-86334575D01*
X203794138Y-86334575D02*
X203841757Y-86286956D01*
X203841757Y-86286956D02*
X203794138Y-86239337D01*
X203794138Y-86239337D02*
X203746519Y-86286956D01*
X203746519Y-86286956D02*
X203841757Y-86286956D01*
X204079852Y-85810766D02*
X204746519Y-85810766D01*
X204175090Y-85810766D02*
X204127471Y-85763147D01*
X204127471Y-85763147D02*
X204079852Y-85667909D01*
X204079852Y-85667909D02*
X204079852Y-85525052D01*
X204079852Y-85525052D02*
X204127471Y-85429814D01*
X204127471Y-85429814D02*
X204222709Y-85382195D01*
X204222709Y-85382195D02*
X204746519Y-85382195D01*
X204841757Y-85144100D02*
X204841757Y-84382195D01*
X203841757Y-84191718D02*
X203794138Y-84144099D01*
X203794138Y-84144099D02*
X203746519Y-84048861D01*
X203746519Y-84048861D02*
X203746519Y-83810766D01*
X203746519Y-83810766D02*
X203794138Y-83715528D01*
X203794138Y-83715528D02*
X203841757Y-83667909D01*
X203841757Y-83667909D02*
X203936995Y-83620290D01*
X203936995Y-83620290D02*
X204032233Y-83620290D01*
X204032233Y-83620290D02*
X204175090Y-83667909D01*
X204175090Y-83667909D02*
X204746519Y-84239337D01*
X204746519Y-84239337D02*
X204746519Y-83620290D01*
X204841757Y-83429814D02*
X204841757Y-82667909D01*
X204746519Y-82429813D02*
X203746519Y-82429813D01*
X203746519Y-82429813D02*
X204460804Y-82096480D01*
X204460804Y-82096480D02*
X203746519Y-81763147D01*
X203746519Y-81763147D02*
X204746519Y-81763147D01*
X204222709Y-80953623D02*
X204222709Y-81286956D01*
X204746519Y-81286956D02*
X203746519Y-81286956D01*
X203746519Y-81286956D02*
X203746519Y-80810766D01*
X204746519Y-80429813D02*
X203746519Y-80429813D01*
X203746519Y-80429813D02*
X203746519Y-80191718D01*
X203746519Y-80191718D02*
X203794138Y-80048861D01*
X203794138Y-80048861D02*
X203889376Y-79953623D01*
X203889376Y-79953623D02*
X203984614Y-79906004D01*
X203984614Y-79906004D02*
X204175090Y-79858385D01*
X204175090Y-79858385D02*
X204317947Y-79858385D01*
X204317947Y-79858385D02*
X204508423Y-79906004D01*
X204508423Y-79906004D02*
X204603661Y-79953623D01*
X204603661Y-79953623D02*
X204698900Y-80048861D01*
X204698900Y-80048861D02*
X204746519Y-80191718D01*
X204746519Y-80191718D02*
X204746519Y-80429813D01*
X204746519Y-78906004D02*
X204746519Y-79477432D01*
X204746519Y-79191718D02*
X203746519Y-79191718D01*
X203746519Y-79191718D02*
X203889376Y-79286956D01*
X203889376Y-79286956D02*
X203984614Y-79382194D01*
X203984614Y-79382194D02*
X204032233Y-79477432D01*
X177684481Y-86234000D02*
X177827338Y-86281619D01*
X177827338Y-86281619D02*
X178065433Y-86281619D01*
X178065433Y-86281619D02*
X178160671Y-86234000D01*
X178160671Y-86234000D02*
X178208290Y-86186380D01*
X178208290Y-86186380D02*
X178255909Y-86091142D01*
X178255909Y-86091142D02*
X178255909Y-85995904D01*
X178255909Y-85995904D02*
X178208290Y-85900666D01*
X178208290Y-85900666D02*
X178160671Y-85853047D01*
X178160671Y-85853047D02*
X178065433Y-85805428D01*
X178065433Y-85805428D02*
X177874957Y-85757809D01*
X177874957Y-85757809D02*
X177779719Y-85710190D01*
X177779719Y-85710190D02*
X177732100Y-85662571D01*
X177732100Y-85662571D02*
X177684481Y-85567333D01*
X177684481Y-85567333D02*
X177684481Y-85472095D01*
X177684481Y-85472095D02*
X177732100Y-85376857D01*
X177732100Y-85376857D02*
X177779719Y-85329238D01*
X177779719Y-85329238D02*
X177874957Y-85281619D01*
X177874957Y-85281619D02*
X178113052Y-85281619D01*
X178113052Y-85281619D02*
X178255909Y-85329238D01*
X178684481Y-86281619D02*
X178684481Y-85281619D01*
X178779719Y-85900666D02*
X179065433Y-86281619D01*
X179065433Y-85614952D02*
X178684481Y-85995904D01*
X179398767Y-85614952D02*
X179636862Y-86281619D01*
X179874957Y-85614952D02*
X179636862Y-86281619D01*
X179636862Y-86281619D02*
X179541624Y-86519714D01*
X179541624Y-86519714D02*
X179494005Y-86567333D01*
X179494005Y-86567333D02*
X179398767Y-86614952D01*
X180113053Y-85281619D02*
X180446386Y-86281619D01*
X180446386Y-86281619D02*
X180779719Y-85281619D01*
X181113053Y-86281619D02*
X181113053Y-85614952D01*
X181113053Y-85281619D02*
X181065434Y-85329238D01*
X181065434Y-85329238D02*
X181113053Y-85376857D01*
X181113053Y-85376857D02*
X181160672Y-85329238D01*
X181160672Y-85329238D02*
X181113053Y-85281619D01*
X181113053Y-85281619D02*
X181113053Y-85376857D01*
X181970195Y-86234000D02*
X181874957Y-86281619D01*
X181874957Y-86281619D02*
X181684481Y-86281619D01*
X181684481Y-86281619D02*
X181589243Y-86234000D01*
X181589243Y-86234000D02*
X181541624Y-86138761D01*
X181541624Y-86138761D02*
X181541624Y-85757809D01*
X181541624Y-85757809D02*
X181589243Y-85662571D01*
X181589243Y-85662571D02*
X181684481Y-85614952D01*
X181684481Y-85614952D02*
X181874957Y-85614952D01*
X181874957Y-85614952D02*
X181970195Y-85662571D01*
X181970195Y-85662571D02*
X182017814Y-85757809D01*
X182017814Y-85757809D02*
X182017814Y-85853047D01*
X182017814Y-85853047D02*
X181541624Y-85948285D01*
X182351148Y-85614952D02*
X182541624Y-86281619D01*
X182541624Y-86281619D02*
X182732100Y-85805428D01*
X182732100Y-85805428D02*
X182922576Y-86281619D01*
X182922576Y-86281619D02*
X183113052Y-85614952D01*
X183255910Y-86376857D02*
X184017814Y-86376857D01*
X184208291Y-85376857D02*
X184255910Y-85329238D01*
X184255910Y-85329238D02*
X184351148Y-85281619D01*
X184351148Y-85281619D02*
X184589243Y-85281619D01*
X184589243Y-85281619D02*
X184684481Y-85329238D01*
X184684481Y-85329238D02*
X184732100Y-85376857D01*
X184732100Y-85376857D02*
X184779719Y-85472095D01*
X184779719Y-85472095D02*
X184779719Y-85567333D01*
X184779719Y-85567333D02*
X184732100Y-85710190D01*
X184732100Y-85710190D02*
X184160672Y-86281619D01*
X184160672Y-86281619D02*
X184779719Y-86281619D01*
X105166519Y-88263147D02*
X104166519Y-88263147D01*
X104166519Y-88263147D02*
X104880804Y-87929814D01*
X104880804Y-87929814D02*
X104166519Y-87596481D01*
X104166519Y-87596481D02*
X105166519Y-87596481D01*
X105166519Y-86691719D02*
X104642709Y-86691719D01*
X104642709Y-86691719D02*
X104547471Y-86739338D01*
X104547471Y-86739338D02*
X104499852Y-86834576D01*
X104499852Y-86834576D02*
X104499852Y-87025052D01*
X104499852Y-87025052D02*
X104547471Y-87120290D01*
X105118900Y-86691719D02*
X105166519Y-86786957D01*
X105166519Y-86786957D02*
X105166519Y-87025052D01*
X105166519Y-87025052D02*
X105118900Y-87120290D01*
X105118900Y-87120290D02*
X105023661Y-87167909D01*
X105023661Y-87167909D02*
X104928423Y-87167909D01*
X104928423Y-87167909D02*
X104833185Y-87120290D01*
X104833185Y-87120290D02*
X104785566Y-87025052D01*
X104785566Y-87025052D02*
X104785566Y-86786957D01*
X104785566Y-86786957D02*
X104737947Y-86691719D01*
X105166519Y-86215528D02*
X104499852Y-86215528D01*
X104166519Y-86215528D02*
X104214138Y-86263147D01*
X104214138Y-86263147D02*
X104261757Y-86215528D01*
X104261757Y-86215528D02*
X104214138Y-86167909D01*
X104214138Y-86167909D02*
X104166519Y-86215528D01*
X104166519Y-86215528D02*
X104261757Y-86215528D01*
X104499852Y-85739338D02*
X105166519Y-85739338D01*
X104595090Y-85739338D02*
X104547471Y-85691719D01*
X104547471Y-85691719D02*
X104499852Y-85596481D01*
X104499852Y-85596481D02*
X104499852Y-85453624D01*
X104499852Y-85453624D02*
X104547471Y-85358386D01*
X104547471Y-85358386D02*
X104642709Y-85310767D01*
X104642709Y-85310767D02*
X105166519Y-85310767D01*
X105261757Y-85072672D02*
X105261757Y-84310767D01*
X105166519Y-83548862D02*
X105166519Y-84120290D01*
X105166519Y-83834576D02*
X104166519Y-83834576D01*
X104166519Y-83834576D02*
X104309376Y-83929814D01*
X104309376Y-83929814D02*
X104404614Y-84025052D01*
X104404614Y-84025052D02*
X104452233Y-84120290D01*
X105261757Y-83358386D02*
X105261757Y-82596481D01*
X105166519Y-82358385D02*
X104166519Y-82358385D01*
X104166519Y-82358385D02*
X104166519Y-81977433D01*
X104166519Y-81977433D02*
X104214138Y-81882195D01*
X104214138Y-81882195D02*
X104261757Y-81834576D01*
X104261757Y-81834576D02*
X104356995Y-81786957D01*
X104356995Y-81786957D02*
X104499852Y-81786957D01*
X104499852Y-81786957D02*
X104595090Y-81834576D01*
X104595090Y-81834576D02*
X104642709Y-81882195D01*
X104642709Y-81882195D02*
X104690328Y-81977433D01*
X104690328Y-81977433D02*
X104690328Y-82358385D01*
X104642709Y-81025052D02*
X104642709Y-81358385D01*
X105166519Y-81358385D02*
X104166519Y-81358385D01*
X104166519Y-81358385D02*
X104166519Y-80882195D01*
X105166519Y-80501242D02*
X104166519Y-80501242D01*
X104166519Y-80501242D02*
X104166519Y-80263147D01*
X104166519Y-80263147D02*
X104214138Y-80120290D01*
X104214138Y-80120290D02*
X104309376Y-80025052D01*
X104309376Y-80025052D02*
X104404614Y-79977433D01*
X104404614Y-79977433D02*
X104595090Y-79929814D01*
X104595090Y-79929814D02*
X104737947Y-79929814D01*
X104737947Y-79929814D02*
X104928423Y-79977433D01*
X104928423Y-79977433D02*
X105023661Y-80025052D01*
X105023661Y-80025052D02*
X105118900Y-80120290D01*
X105118900Y-80120290D02*
X105166519Y-80263147D01*
X105166519Y-80263147D02*
X105166519Y-80501242D01*
X105166519Y-78977433D02*
X105166519Y-79548861D01*
X105166519Y-79263147D02*
X104166519Y-79263147D01*
X104166519Y-79263147D02*
X104309376Y-79358385D01*
X104309376Y-79358385D02*
X104404614Y-79453623D01*
X104404614Y-79453623D02*
X104452233Y-79548861D01*
X136336661Y-104646400D02*
X136479518Y-104694019D01*
X136479518Y-104694019D02*
X136717613Y-104694019D01*
X136717613Y-104694019D02*
X136812851Y-104646400D01*
X136812851Y-104646400D02*
X136860470Y-104598780D01*
X136860470Y-104598780D02*
X136908089Y-104503542D01*
X136908089Y-104503542D02*
X136908089Y-104408304D01*
X136908089Y-104408304D02*
X136860470Y-104313066D01*
X136860470Y-104313066D02*
X136812851Y-104265447D01*
X136812851Y-104265447D02*
X136717613Y-104217828D01*
X136717613Y-104217828D02*
X136527137Y-104170209D01*
X136527137Y-104170209D02*
X136431899Y-104122590D01*
X136431899Y-104122590D02*
X136384280Y-104074971D01*
X136384280Y-104074971D02*
X136336661Y-103979733D01*
X136336661Y-103979733D02*
X136336661Y-103884495D01*
X136336661Y-103884495D02*
X136384280Y-103789257D01*
X136384280Y-103789257D02*
X136431899Y-103741638D01*
X136431899Y-103741638D02*
X136527137Y-103694019D01*
X136527137Y-103694019D02*
X136765232Y-103694019D01*
X136765232Y-103694019D02*
X136908089Y-103741638D01*
X137717613Y-104646400D02*
X137622375Y-104694019D01*
X137622375Y-104694019D02*
X137431899Y-104694019D01*
X137431899Y-104694019D02*
X137336661Y-104646400D01*
X137336661Y-104646400D02*
X137289042Y-104551161D01*
X137289042Y-104551161D02*
X137289042Y-104170209D01*
X137289042Y-104170209D02*
X137336661Y-104074971D01*
X137336661Y-104074971D02*
X137431899Y-104027352D01*
X137431899Y-104027352D02*
X137622375Y-104027352D01*
X137622375Y-104027352D02*
X137717613Y-104074971D01*
X137717613Y-104074971D02*
X137765232Y-104170209D01*
X137765232Y-104170209D02*
X137765232Y-104265447D01*
X137765232Y-104265447D02*
X137289042Y-104360685D01*
X138193804Y-104694019D02*
X138193804Y-104027352D01*
X138193804Y-104217828D02*
X138241423Y-104122590D01*
X138241423Y-104122590D02*
X138289042Y-104074971D01*
X138289042Y-104074971D02*
X138384280Y-104027352D01*
X138384280Y-104027352D02*
X138479518Y-104027352D01*
X138812852Y-104694019D02*
X138812852Y-104027352D01*
X138812852Y-103694019D02*
X138765233Y-103741638D01*
X138765233Y-103741638D02*
X138812852Y-103789257D01*
X138812852Y-103789257D02*
X138860471Y-103741638D01*
X138860471Y-103741638D02*
X138812852Y-103694019D01*
X138812852Y-103694019D02*
X138812852Y-103789257D01*
X139717613Y-104694019D02*
X139717613Y-104170209D01*
X139717613Y-104170209D02*
X139669994Y-104074971D01*
X139669994Y-104074971D02*
X139574756Y-104027352D01*
X139574756Y-104027352D02*
X139384280Y-104027352D01*
X139384280Y-104027352D02*
X139289042Y-104074971D01*
X139717613Y-104646400D02*
X139622375Y-104694019D01*
X139622375Y-104694019D02*
X139384280Y-104694019D01*
X139384280Y-104694019D02*
X139289042Y-104646400D01*
X139289042Y-104646400D02*
X139241423Y-104551161D01*
X139241423Y-104551161D02*
X139241423Y-104455923D01*
X139241423Y-104455923D02*
X139289042Y-104360685D01*
X139289042Y-104360685D02*
X139384280Y-104313066D01*
X139384280Y-104313066D02*
X139622375Y-104313066D01*
X139622375Y-104313066D02*
X139717613Y-104265447D01*
X140336661Y-104694019D02*
X140241423Y-104646400D01*
X140241423Y-104646400D02*
X140193804Y-104551161D01*
X140193804Y-104551161D02*
X140193804Y-103694019D01*
X140479519Y-104789257D02*
X141241423Y-104789257D01*
X142003328Y-104694019D02*
X141431900Y-104694019D01*
X141717614Y-104694019D02*
X141717614Y-103694019D01*
X141717614Y-103694019D02*
X141622376Y-103836876D01*
X141622376Y-103836876D02*
X141527138Y-103932114D01*
X141527138Y-103932114D02*
X141431900Y-103979733D01*
X142193805Y-104789257D02*
X142955709Y-104789257D01*
X143146186Y-104408304D02*
X143622376Y-104408304D01*
X143050948Y-104694019D02*
X143384281Y-103694019D01*
X143384281Y-103694019D02*
X143717614Y-104694019D01*
X144050948Y-104694019D02*
X144050948Y-103694019D01*
X144050948Y-103694019D02*
X144289043Y-103694019D01*
X144289043Y-103694019D02*
X144431900Y-103741638D01*
X144431900Y-103741638D02*
X144527138Y-103836876D01*
X144527138Y-103836876D02*
X144574757Y-103932114D01*
X144574757Y-103932114D02*
X144622376Y-104122590D01*
X144622376Y-104122590D02*
X144622376Y-104265447D01*
X144622376Y-104265447D02*
X144574757Y-104455923D01*
X144574757Y-104455923D02*
X144527138Y-104551161D01*
X144527138Y-104551161D02*
X144431900Y-104646400D01*
X144431900Y-104646400D02*
X144289043Y-104694019D01*
X144289043Y-104694019D02*
X144050948Y-104694019D01*
X145003329Y-104646400D02*
X145146186Y-104694019D01*
X145146186Y-104694019D02*
X145384281Y-104694019D01*
X145384281Y-104694019D02*
X145479519Y-104646400D01*
X145479519Y-104646400D02*
X145527138Y-104598780D01*
X145527138Y-104598780D02*
X145574757Y-104503542D01*
X145574757Y-104503542D02*
X145574757Y-104408304D01*
X145574757Y-104408304D02*
X145527138Y-104313066D01*
X145527138Y-104313066D02*
X145479519Y-104265447D01*
X145479519Y-104265447D02*
X145384281Y-104217828D01*
X145384281Y-104217828D02*
X145193805Y-104170209D01*
X145193805Y-104170209D02*
X145098567Y-104122590D01*
X145098567Y-104122590D02*
X145050948Y-104074971D01*
X145050948Y-104074971D02*
X145003329Y-103979733D01*
X145003329Y-103979733D02*
X145003329Y-103884495D01*
X145003329Y-103884495D02*
X145050948Y-103789257D01*
X145050948Y-103789257D02*
X145098567Y-103741638D01*
X145098567Y-103741638D02*
X145193805Y-103694019D01*
X145193805Y-103694019D02*
X145431900Y-103694019D01*
X145431900Y-103694019D02*
X145574757Y-103741638D01*
X146336662Y-104170209D02*
X146479519Y-104217828D01*
X146479519Y-104217828D02*
X146527138Y-104265447D01*
X146527138Y-104265447D02*
X146574757Y-104360685D01*
X146574757Y-104360685D02*
X146574757Y-104503542D01*
X146574757Y-104503542D02*
X146527138Y-104598780D01*
X146527138Y-104598780D02*
X146479519Y-104646400D01*
X146479519Y-104646400D02*
X146384281Y-104694019D01*
X146384281Y-104694019D02*
X146003329Y-104694019D01*
X146003329Y-104694019D02*
X146003329Y-103694019D01*
X146003329Y-103694019D02*
X146336662Y-103694019D01*
X146336662Y-103694019D02*
X146431900Y-103741638D01*
X146431900Y-103741638D02*
X146479519Y-103789257D01*
X146479519Y-103789257D02*
X146527138Y-103884495D01*
X146527138Y-103884495D02*
X146527138Y-103979733D01*
X146527138Y-103979733D02*
X146479519Y-104074971D01*
X146479519Y-104074971D02*
X146431900Y-104122590D01*
X146431900Y-104122590D02*
X146336662Y-104170209D01*
X146336662Y-104170209D02*
X146003329Y-104170209D01*
X147527138Y-104694019D02*
X146955710Y-104694019D01*
X147241424Y-104694019D02*
X147241424Y-103694019D01*
X147241424Y-103694019D02*
X147146186Y-103836876D01*
X147146186Y-103836876D02*
X147050948Y-103932114D01*
X147050948Y-103932114D02*
X146955710Y-103979733D01*
X177684481Y-104750000D02*
X177827338Y-104797619D01*
X177827338Y-104797619D02*
X178065433Y-104797619D01*
X178065433Y-104797619D02*
X178160671Y-104750000D01*
X178160671Y-104750000D02*
X178208290Y-104702380D01*
X178208290Y-104702380D02*
X178255909Y-104607142D01*
X178255909Y-104607142D02*
X178255909Y-104511904D01*
X178255909Y-104511904D02*
X178208290Y-104416666D01*
X178208290Y-104416666D02*
X178160671Y-104369047D01*
X178160671Y-104369047D02*
X178065433Y-104321428D01*
X178065433Y-104321428D02*
X177874957Y-104273809D01*
X177874957Y-104273809D02*
X177779719Y-104226190D01*
X177779719Y-104226190D02*
X177732100Y-104178571D01*
X177732100Y-104178571D02*
X177684481Y-104083333D01*
X177684481Y-104083333D02*
X177684481Y-103988095D01*
X177684481Y-103988095D02*
X177732100Y-103892857D01*
X177732100Y-103892857D02*
X177779719Y-103845238D01*
X177779719Y-103845238D02*
X177874957Y-103797619D01*
X177874957Y-103797619D02*
X178113052Y-103797619D01*
X178113052Y-103797619D02*
X178255909Y-103845238D01*
X178684481Y-104797619D02*
X178684481Y-103797619D01*
X178779719Y-104416666D02*
X179065433Y-104797619D01*
X179065433Y-104130952D02*
X178684481Y-104511904D01*
X179398767Y-104130952D02*
X179636862Y-104797619D01*
X179874957Y-104130952D02*
X179636862Y-104797619D01*
X179636862Y-104797619D02*
X179541624Y-105035714D01*
X179541624Y-105035714D02*
X179494005Y-105083333D01*
X179494005Y-105083333D02*
X179398767Y-105130952D01*
X180113053Y-103797619D02*
X180446386Y-104797619D01*
X180446386Y-104797619D02*
X180779719Y-103797619D01*
X181113053Y-104797619D02*
X181113053Y-104130952D01*
X181113053Y-103797619D02*
X181065434Y-103845238D01*
X181065434Y-103845238D02*
X181113053Y-103892857D01*
X181113053Y-103892857D02*
X181160672Y-103845238D01*
X181160672Y-103845238D02*
X181113053Y-103797619D01*
X181113053Y-103797619D02*
X181113053Y-103892857D01*
X181970195Y-104750000D02*
X181874957Y-104797619D01*
X181874957Y-104797619D02*
X181684481Y-104797619D01*
X181684481Y-104797619D02*
X181589243Y-104750000D01*
X181589243Y-104750000D02*
X181541624Y-104654761D01*
X181541624Y-104654761D02*
X181541624Y-104273809D01*
X181541624Y-104273809D02*
X181589243Y-104178571D01*
X181589243Y-104178571D02*
X181684481Y-104130952D01*
X181684481Y-104130952D02*
X181874957Y-104130952D01*
X181874957Y-104130952D02*
X181970195Y-104178571D01*
X181970195Y-104178571D02*
X182017814Y-104273809D01*
X182017814Y-104273809D02*
X182017814Y-104369047D01*
X182017814Y-104369047D02*
X181541624Y-104464285D01*
X182351148Y-104130952D02*
X182541624Y-104797619D01*
X182541624Y-104797619D02*
X182732100Y-104321428D01*
X182732100Y-104321428D02*
X182922576Y-104797619D01*
X182922576Y-104797619D02*
X183113052Y-104130952D01*
X183255910Y-104892857D02*
X184017814Y-104892857D01*
X184160672Y-103797619D02*
X184779719Y-103797619D01*
X184779719Y-103797619D02*
X184446386Y-104178571D01*
X184446386Y-104178571D02*
X184589243Y-104178571D01*
X184589243Y-104178571D02*
X184684481Y-104226190D01*
X184684481Y-104226190D02*
X184732100Y-104273809D01*
X184732100Y-104273809D02*
X184779719Y-104369047D01*
X184779719Y-104369047D02*
X184779719Y-104607142D01*
X184779719Y-104607142D02*
X184732100Y-104702380D01*
X184732100Y-104702380D02*
X184684481Y-104750000D01*
X184684481Y-104750000D02*
X184589243Y-104797619D01*
X184589243Y-104797619D02*
X184303529Y-104797619D01*
X184303529Y-104797619D02*
X184208291Y-104750000D01*
X184208291Y-104750000D02*
X184160672Y-104702380D01*
X174228290Y-44846700D02*
X174371147Y-44894319D01*
X174371147Y-44894319D02*
X174609242Y-44894319D01*
X174609242Y-44894319D02*
X174704480Y-44846700D01*
X174704480Y-44846700D02*
X174752099Y-44799080D01*
X174752099Y-44799080D02*
X174799718Y-44703842D01*
X174799718Y-44703842D02*
X174799718Y-44608604D01*
X174799718Y-44608604D02*
X174752099Y-44513366D01*
X174752099Y-44513366D02*
X174704480Y-44465747D01*
X174704480Y-44465747D02*
X174609242Y-44418128D01*
X174609242Y-44418128D02*
X174418766Y-44370509D01*
X174418766Y-44370509D02*
X174323528Y-44322890D01*
X174323528Y-44322890D02*
X174275909Y-44275271D01*
X174275909Y-44275271D02*
X174228290Y-44180033D01*
X174228290Y-44180033D02*
X174228290Y-44084795D01*
X174228290Y-44084795D02*
X174275909Y-43989557D01*
X174275909Y-43989557D02*
X174323528Y-43941938D01*
X174323528Y-43941938D02*
X174418766Y-43894319D01*
X174418766Y-43894319D02*
X174656861Y-43894319D01*
X174656861Y-43894319D02*
X174799718Y-43941938D01*
X175085433Y-43894319D02*
X175418766Y-44894319D01*
X175418766Y-44894319D02*
X175752099Y-43894319D01*
X176085433Y-44513366D02*
X176847338Y-44513366D01*
X177323528Y-44894319D02*
X177323528Y-43894319D01*
X177323528Y-43894319D02*
X177894956Y-44894319D01*
X177894956Y-44894319D02*
X177894956Y-43894319D01*
X178752099Y-44846700D02*
X178656861Y-44894319D01*
X178656861Y-44894319D02*
X178466385Y-44894319D01*
X178466385Y-44894319D02*
X178371147Y-44846700D01*
X178371147Y-44846700D02*
X178323528Y-44751461D01*
X178323528Y-44751461D02*
X178323528Y-44370509D01*
X178323528Y-44370509D02*
X178371147Y-44275271D01*
X178371147Y-44275271D02*
X178466385Y-44227652D01*
X178466385Y-44227652D02*
X178656861Y-44227652D01*
X178656861Y-44227652D02*
X178752099Y-44275271D01*
X178752099Y-44275271D02*
X178799718Y-44370509D01*
X178799718Y-44370509D02*
X178799718Y-44465747D01*
X178799718Y-44465747D02*
X178323528Y-44560985D01*
X179085433Y-44227652D02*
X179466385Y-44227652D01*
X179228290Y-43894319D02*
X179228290Y-44751461D01*
X179228290Y-44751461D02*
X179275909Y-44846700D01*
X179275909Y-44846700D02*
X179371147Y-44894319D01*
X179371147Y-44894319D02*
X179466385Y-44894319D01*
X179561624Y-44989557D02*
X180323528Y-44989557D01*
X180514005Y-44608604D02*
X180990195Y-44608604D01*
X180418767Y-44894319D02*
X180752100Y-43894319D01*
X180752100Y-43894319D02*
X181085433Y-44894319D01*
X181418767Y-44894319D02*
X181418767Y-43894319D01*
X181418767Y-43894319D02*
X181799719Y-43894319D01*
X181799719Y-43894319D02*
X181894957Y-43941938D01*
X181894957Y-43941938D02*
X181942576Y-43989557D01*
X181942576Y-43989557D02*
X181990195Y-44084795D01*
X181990195Y-44084795D02*
X181990195Y-44227652D01*
X181990195Y-44227652D02*
X181942576Y-44322890D01*
X181942576Y-44322890D02*
X181894957Y-44370509D01*
X181894957Y-44370509D02*
X181799719Y-44418128D01*
X181799719Y-44418128D02*
X181418767Y-44418128D01*
X182180672Y-44989557D02*
X182942576Y-44989557D01*
X183180672Y-44894319D02*
X183180672Y-43894319D01*
X183180672Y-43894319D02*
X183561624Y-43894319D01*
X183561624Y-43894319D02*
X183656862Y-43941938D01*
X183656862Y-43941938D02*
X183704481Y-43989557D01*
X183704481Y-43989557D02*
X183752100Y-44084795D01*
X183752100Y-44084795D02*
X183752100Y-44227652D01*
X183752100Y-44227652D02*
X183704481Y-44322890D01*
X183704481Y-44322890D02*
X183656862Y-44370509D01*
X183656862Y-44370509D02*
X183561624Y-44418128D01*
X183561624Y-44418128D02*
X183180672Y-44418128D01*
X184180672Y-44894319D02*
X184180672Y-44227652D01*
X184180672Y-43894319D02*
X184133053Y-43941938D01*
X184133053Y-43941938D02*
X184180672Y-43989557D01*
X184180672Y-43989557D02*
X184228291Y-43941938D01*
X184228291Y-43941938D02*
X184180672Y-43894319D01*
X184180672Y-43894319D02*
X184180672Y-43989557D01*
X184514005Y-44227652D02*
X184894957Y-44227652D01*
X184656862Y-43894319D02*
X184656862Y-44751461D01*
X184656862Y-44751461D02*
X184704481Y-44846700D01*
X184704481Y-44846700D02*
X184799719Y-44894319D01*
X184799719Y-44894319D02*
X184894957Y-44894319D01*
X185656862Y-44846700D02*
X185561624Y-44894319D01*
X185561624Y-44894319D02*
X185371148Y-44894319D01*
X185371148Y-44894319D02*
X185275910Y-44846700D01*
X185275910Y-44846700D02*
X185228291Y-44799080D01*
X185228291Y-44799080D02*
X185180672Y-44703842D01*
X185180672Y-44703842D02*
X185180672Y-44418128D01*
X185180672Y-44418128D02*
X185228291Y-44322890D01*
X185228291Y-44322890D02*
X185275910Y-44275271D01*
X185275910Y-44275271D02*
X185371148Y-44227652D01*
X185371148Y-44227652D02*
X185561624Y-44227652D01*
X185561624Y-44227652D02*
X185656862Y-44275271D01*
X186085434Y-44894319D02*
X186085434Y-43894319D01*
X186514005Y-44894319D02*
X186514005Y-44370509D01*
X186514005Y-44370509D02*
X186466386Y-44275271D01*
X186466386Y-44275271D02*
X186371148Y-44227652D01*
X186371148Y-44227652D02*
X186228291Y-44227652D01*
X186228291Y-44227652D02*
X186133053Y-44275271D01*
X186133053Y-44275271D02*
X186085434Y-44322890D01*
X186752101Y-44989557D02*
X187514005Y-44989557D01*
X188275910Y-44894319D02*
X187704482Y-44894319D01*
X187990196Y-44894319D02*
X187990196Y-43894319D01*
X187990196Y-43894319D02*
X187894958Y-44037176D01*
X187894958Y-44037176D02*
X187799720Y-44132414D01*
X187799720Y-44132414D02*
X187704482Y-44180033D01*
X176184480Y-122646952D02*
X176184480Y-123646952D01*
X176184480Y-122694571D02*
X176279718Y-122646952D01*
X176279718Y-122646952D02*
X176470194Y-122646952D01*
X176470194Y-122646952D02*
X176565432Y-122694571D01*
X176565432Y-122694571D02*
X176613051Y-122742190D01*
X176613051Y-122742190D02*
X176660670Y-122837428D01*
X176660670Y-122837428D02*
X176660670Y-123123142D01*
X176660670Y-123123142D02*
X176613051Y-123218380D01*
X176613051Y-123218380D02*
X176565432Y-123266000D01*
X176565432Y-123266000D02*
X176470194Y-123313619D01*
X176470194Y-123313619D02*
X176279718Y-123313619D01*
X176279718Y-123313619D02*
X176184480Y-123266000D01*
X177232099Y-123313619D02*
X177136861Y-123266000D01*
X177136861Y-123266000D02*
X177089242Y-123218380D01*
X177089242Y-123218380D02*
X177041623Y-123123142D01*
X177041623Y-123123142D02*
X177041623Y-122837428D01*
X177041623Y-122837428D02*
X177089242Y-122742190D01*
X177089242Y-122742190D02*
X177136861Y-122694571D01*
X177136861Y-122694571D02*
X177232099Y-122646952D01*
X177232099Y-122646952D02*
X177374956Y-122646952D01*
X177374956Y-122646952D02*
X177470194Y-122694571D01*
X177470194Y-122694571D02*
X177517813Y-122742190D01*
X177517813Y-122742190D02*
X177565432Y-122837428D01*
X177565432Y-122837428D02*
X177565432Y-123123142D01*
X177565432Y-123123142D02*
X177517813Y-123218380D01*
X177517813Y-123218380D02*
X177470194Y-123266000D01*
X177470194Y-123266000D02*
X177374956Y-123313619D01*
X177374956Y-123313619D02*
X177232099Y-123313619D01*
X177898766Y-122646952D02*
X178089242Y-123313619D01*
X178089242Y-123313619D02*
X178279718Y-122837428D01*
X178279718Y-122837428D02*
X178470194Y-123313619D01*
X178470194Y-123313619D02*
X178660670Y-122646952D01*
X179422575Y-123266000D02*
X179327337Y-123313619D01*
X179327337Y-123313619D02*
X179136861Y-123313619D01*
X179136861Y-123313619D02*
X179041623Y-123266000D01*
X179041623Y-123266000D02*
X178994004Y-123170761D01*
X178994004Y-123170761D02*
X178994004Y-122789809D01*
X178994004Y-122789809D02*
X179041623Y-122694571D01*
X179041623Y-122694571D02*
X179136861Y-122646952D01*
X179136861Y-122646952D02*
X179327337Y-122646952D01*
X179327337Y-122646952D02*
X179422575Y-122694571D01*
X179422575Y-122694571D02*
X179470194Y-122789809D01*
X179470194Y-122789809D02*
X179470194Y-122885047D01*
X179470194Y-122885047D02*
X178994004Y-122980285D01*
X179898766Y-123313619D02*
X179898766Y-122646952D01*
X179898766Y-122837428D02*
X179946385Y-122742190D01*
X179946385Y-122742190D02*
X179994004Y-122694571D01*
X179994004Y-122694571D02*
X180089242Y-122646952D01*
X180089242Y-122646952D02*
X180184480Y-122646952D01*
X180279719Y-123408857D02*
X181041623Y-123408857D01*
X181279719Y-123313619D02*
X181279719Y-122646952D01*
X181279719Y-122313619D02*
X181232100Y-122361238D01*
X181232100Y-122361238D02*
X181279719Y-122408857D01*
X181279719Y-122408857D02*
X181327338Y-122361238D01*
X181327338Y-122361238D02*
X181279719Y-122313619D01*
X181279719Y-122313619D02*
X181279719Y-122408857D01*
X181755909Y-122646952D02*
X181755909Y-123313619D01*
X181755909Y-122742190D02*
X181803528Y-122694571D01*
X181803528Y-122694571D02*
X181898766Y-122646952D01*
X181898766Y-122646952D02*
X182041623Y-122646952D01*
X182041623Y-122646952D02*
X182136861Y-122694571D01*
X182136861Y-122694571D02*
X182184480Y-122789809D01*
X182184480Y-122789809D02*
X182184480Y-123313619D01*
X182660671Y-122646952D02*
X182660671Y-123646952D01*
X182660671Y-122694571D02*
X182755909Y-122646952D01*
X182755909Y-122646952D02*
X182946385Y-122646952D01*
X182946385Y-122646952D02*
X183041623Y-122694571D01*
X183041623Y-122694571D02*
X183089242Y-122742190D01*
X183089242Y-122742190D02*
X183136861Y-122837428D01*
X183136861Y-122837428D02*
X183136861Y-123123142D01*
X183136861Y-123123142D02*
X183089242Y-123218380D01*
X183089242Y-123218380D02*
X183041623Y-123266000D01*
X183041623Y-123266000D02*
X182946385Y-123313619D01*
X182946385Y-123313619D02*
X182755909Y-123313619D01*
X182755909Y-123313619D02*
X182660671Y-123266000D01*
X183994004Y-122646952D02*
X183994004Y-123313619D01*
X183565433Y-122646952D02*
X183565433Y-123170761D01*
X183565433Y-123170761D02*
X183613052Y-123266000D01*
X183613052Y-123266000D02*
X183708290Y-123313619D01*
X183708290Y-123313619D02*
X183851147Y-123313619D01*
X183851147Y-123313619D02*
X183946385Y-123266000D01*
X183946385Y-123266000D02*
X183994004Y-123218380D01*
X184327338Y-122646952D02*
X184708290Y-122646952D01*
X184470195Y-122313619D02*
X184470195Y-123170761D01*
X184470195Y-123170761D02*
X184517814Y-123266000D01*
X184517814Y-123266000D02*
X184613052Y-123313619D01*
X184613052Y-123313619D02*
X184708290Y-123313619D01*
X184803529Y-123408857D02*
X185565433Y-123408857D01*
X186327338Y-123313619D02*
X185755910Y-123313619D01*
X186041624Y-123313619D02*
X186041624Y-122313619D01*
X186041624Y-122313619D02*
X185946386Y-122456476D01*
X185946386Y-122456476D02*
X185851148Y-122551714D01*
X185851148Y-122551714D02*
X185755910Y-122599333D01*
D12*
%TO.C,SkyView_1*%
X165747100Y-79870800D02*
X165747100Y-69370800D01*
X166807100Y-68310800D02*
X195657100Y-68310800D01*
X173365630Y-72359056D02*
X174264898Y-77459056D01*
X175000411Y-70410800D02*
X187463789Y-70410800D01*
X175442100Y-67416462D02*
X175942100Y-67416462D01*
X175692100Y-67849475D02*
X175442100Y-67416462D01*
X175899679Y-78830800D02*
X186564521Y-78830800D01*
X175942100Y-67416462D02*
X175692100Y-67849475D01*
X189098570Y-72359056D02*
X188199302Y-77459056D01*
X195657100Y-80930800D02*
X166807100Y-80930800D01*
X196717100Y-69370800D02*
X196717100Y-79870800D01*
X166807100Y-68310800D02*
G75*
G03*
X165747100Y-69370800I1J-1060001D01*
G01*
X165747100Y-79870800D02*
G75*
G03*
X166807100Y-80930800I1060001J1D01*
G01*
X175000411Y-70410800D02*
G75*
G03*
X173365630Y-72359056I-1J-1659999D01*
G01*
X174264899Y-77459056D02*
G75*
G03*
X175899679Y-78830800I1634781J288256D01*
G01*
X189098581Y-72359058D02*
G75*
G03*
X187463789Y-70410800I-1634781J288258D01*
G01*
X186564521Y-78830801D02*
G75*
G03*
X188199302Y-77459056I-1J1660001D01*
G01*
X196717100Y-69370800D02*
G75*
G03*
X195657100Y-68310800I-1060000J0D01*
G01*
X195657100Y-80930800D02*
G75*
G03*
X196717100Y-79870800I0J1060000D01*
G01*
%TO.C,Serial_5_GPS1*%
X126446900Y-42399100D02*
X126446900Y-31899100D01*
X127506900Y-30839100D02*
X156356900Y-30839100D01*
X134065430Y-35087356D02*
X134894167Y-39787356D01*
X135700211Y-33139100D02*
X148163589Y-33139100D01*
X136528948Y-41159100D02*
X147334852Y-41159100D01*
X147221900Y-29944762D02*
X147721900Y-29944762D01*
X147471900Y-30377775D02*
X147221900Y-29944762D01*
X147721900Y-29944762D02*
X147471900Y-30377775D01*
X149798370Y-35087356D02*
X148969633Y-39787356D01*
X156356900Y-43459100D02*
X127506900Y-43459100D01*
X157416900Y-31899100D02*
X157416900Y-42399100D01*
X127506900Y-30839100D02*
G75*
G03*
X126446900Y-31899100I1J-1060001D01*
G01*
X126446900Y-42399100D02*
G75*
G03*
X127506900Y-43459100I1060001J1D01*
G01*
X135700211Y-33139100D02*
G75*
G03*
X134065430Y-35087356I-1J-1659999D01*
G01*
X134894166Y-39787356D02*
G75*
G03*
X136528948Y-41159100I1634782J288257D01*
G01*
X149798371Y-35087356D02*
G75*
G03*
X148163589Y-33139100I-1634781J288256D01*
G01*
X147334852Y-41159099D02*
G75*
G03*
X148969632Y-39787356I1J1659998D01*
G01*
X157416900Y-31899100D02*
G75*
G03*
X156356900Y-30839100I-1060000J0D01*
G01*
X156356900Y-43459100D02*
G75*
G03*
X157416900Y-42399100I0J1060000D01*
G01*
%TO.C,Serial_2_XPNDR1*%
X126446900Y-98199100D02*
X126446900Y-87699100D01*
X127506900Y-86639100D02*
X156356900Y-86639100D01*
X134065430Y-90887356D02*
X134894167Y-95587356D01*
X135700211Y-88939100D02*
X148163589Y-88939100D01*
X136528948Y-96959100D02*
X147334852Y-96959100D01*
X147221900Y-85744762D02*
X147721900Y-85744762D01*
X147471900Y-86177775D02*
X147221900Y-85744762D01*
X147721900Y-85744762D02*
X147471900Y-86177775D01*
X149798370Y-90887356D02*
X148969633Y-95587356D01*
X156356900Y-99259100D02*
X127506900Y-99259100D01*
X157416900Y-87699100D02*
X157416900Y-98199100D01*
X127506900Y-86639100D02*
G75*
G03*
X126446900Y-87699100I1J-1060001D01*
G01*
X126446900Y-98199100D02*
G75*
G03*
X127506900Y-99259100I1060001J1D01*
G01*
X135700211Y-88939100D02*
G75*
G03*
X134065430Y-90887356I-1J-1659999D01*
G01*
X134894166Y-95587356D02*
G75*
G03*
X136528948Y-96959100I1634782J288257D01*
G01*
X149798371Y-90887356D02*
G75*
G03*
X148163589Y-88939100I-1634781J288256D01*
G01*
X147334852Y-96959099D02*
G75*
G03*
X148969632Y-95587356I1J1659998D01*
G01*
X157416900Y-87699100D02*
G75*
G03*
X156356900Y-86639100I-1060000J0D01*
G01*
X156356900Y-99259100D02*
G75*
G03*
X157416900Y-98199100I0J1060000D01*
G01*
%TO.C,Serial_3_VPX1*%
X126446900Y-79599100D02*
X126446900Y-69099100D01*
X127506900Y-68039100D02*
X156356900Y-68039100D01*
X134065430Y-72287356D02*
X134894167Y-76987356D01*
X135700211Y-70339100D02*
X148163589Y-70339100D01*
X136528948Y-78359100D02*
X147334852Y-78359100D01*
X147221900Y-67144762D02*
X147721900Y-67144762D01*
X147471900Y-67577775D02*
X147221900Y-67144762D01*
X147721900Y-67144762D02*
X147471900Y-67577775D01*
X149798370Y-72287356D02*
X148969633Y-76987356D01*
X156356900Y-80659100D02*
X127506900Y-80659100D01*
X157416900Y-69099100D02*
X157416900Y-79599100D01*
X127506900Y-68039100D02*
G75*
G03*
X126446900Y-69099100I1J-1060001D01*
G01*
X126446900Y-79599100D02*
G75*
G03*
X127506900Y-80659100I1060001J1D01*
G01*
X135700211Y-70339100D02*
G75*
G03*
X134065430Y-72287356I-1J-1659999D01*
G01*
X134894166Y-76987356D02*
G75*
G03*
X136528948Y-78359100I1634782J288257D01*
G01*
X149798371Y-72287356D02*
G75*
G03*
X148163589Y-70339100I-1634781J288256D01*
G01*
X147334852Y-78359099D02*
G75*
G03*
X148969632Y-76987356I1J1659998D01*
G01*
X157416900Y-69099100D02*
G75*
G03*
X156356900Y-68039100I-1060000J0D01*
G01*
X156356900Y-80659100D02*
G75*
G03*
X157416900Y-79599100I0J1060000D01*
G01*
%TO.C,SV-Net_AP_Roll_1*%
X196737100Y-50395500D02*
X196737100Y-60895500D01*
X195677100Y-61955500D02*
X166827100Y-61955500D01*
X189118570Y-57907244D02*
X188219302Y-52807244D01*
X187483789Y-59855500D02*
X175020411Y-59855500D01*
X187042100Y-62849838D02*
X186542100Y-62849838D01*
X186792100Y-62416825D02*
X187042100Y-62849838D01*
X186584521Y-51435500D02*
X175919679Y-51435500D01*
X186542100Y-62849838D02*
X186792100Y-62416825D01*
X173385630Y-57907244D02*
X174284898Y-52807244D01*
X166827100Y-49335500D02*
X195677100Y-49335500D01*
X165767100Y-60895500D02*
X165767100Y-50395500D01*
X195677100Y-61955500D02*
G75*
G03*
X196737100Y-60895500I-1J1060001D01*
G01*
X196737100Y-50395500D02*
G75*
G03*
X195677100Y-49335500I-1060001J-1D01*
G01*
X187483789Y-59855500D02*
G75*
G03*
X189118570Y-57907244I1J1659999D01*
G01*
X188219301Y-52807244D02*
G75*
G03*
X186584521Y-51435500I-1634781J-288256D01*
G01*
X173385619Y-57907242D02*
G75*
G03*
X175020411Y-59855500I1634781J-288258D01*
G01*
X175919679Y-51435499D02*
G75*
G03*
X174284898Y-52807244I1J-1660001D01*
G01*
X165767100Y-60895500D02*
G75*
G03*
X166827100Y-61955500I1060000J0D01*
G01*
X166827100Y-49335500D02*
G75*
G03*
X165767100Y-50395500I0J-1060000D01*
G01*
%TO.C,Dimmer_and_Audio_Output1*%
X126446900Y-135399200D02*
X126446900Y-124899200D01*
X127506900Y-123839200D02*
X156356900Y-123839200D01*
X134065430Y-128087456D02*
X134894167Y-132787456D01*
X135700211Y-126139200D02*
X148163589Y-126139200D01*
X136528948Y-134159200D02*
X147334852Y-134159200D01*
X147221900Y-122944862D02*
X147721900Y-122944862D01*
X147471900Y-123377875D02*
X147221900Y-122944862D01*
X147721900Y-122944862D02*
X147471900Y-123377875D01*
X149798370Y-128087456D02*
X148969633Y-132787456D01*
X156356900Y-136459200D02*
X127506900Y-136459200D01*
X157416900Y-124899200D02*
X157416900Y-135399200D01*
X127506900Y-123839200D02*
G75*
G03*
X126446900Y-124899200I1J-1060001D01*
G01*
X126446900Y-135399200D02*
G75*
G03*
X127506900Y-136459200I1060001J1D01*
G01*
X135700211Y-126139200D02*
G75*
G03*
X134065430Y-128087456I-1J-1659999D01*
G01*
X134894166Y-132787456D02*
G75*
G03*
X136528948Y-134159200I1634782J288257D01*
G01*
X149798371Y-128087456D02*
G75*
G03*
X148163589Y-126139200I-1634781J288256D01*
G01*
X147334852Y-134159199D02*
G75*
G03*
X148969632Y-132787456I1J1659998D01*
G01*
X157416900Y-124899200D02*
G75*
G03*
X156356900Y-123839200I-1060000J0D01*
G01*
X156356900Y-136459200D02*
G75*
G03*
X157416900Y-135399200I0J1060000D01*
G01*
%TO.C,Serial_4_ELT1*%
X126446900Y-60999100D02*
X126446900Y-50499100D01*
X127506900Y-49439100D02*
X156356900Y-49439100D01*
X134065430Y-53687356D02*
X134894167Y-58387356D01*
X135700211Y-51739100D02*
X148163589Y-51739100D01*
X136528948Y-59759100D02*
X147334852Y-59759100D01*
X147221900Y-48544762D02*
X147721900Y-48544762D01*
X147471900Y-48977775D02*
X147221900Y-48544762D01*
X147721900Y-48544762D02*
X147471900Y-48977775D01*
X149798370Y-53687356D02*
X148969633Y-58387356D01*
X156356900Y-62059100D02*
X127506900Y-62059100D01*
X157416900Y-50499100D02*
X157416900Y-60999100D01*
X127506900Y-49439100D02*
G75*
G03*
X126446900Y-50499100I1J-1060001D01*
G01*
X126446900Y-60999100D02*
G75*
G03*
X127506900Y-62059100I1060001J1D01*
G01*
X135700211Y-51739100D02*
G75*
G03*
X134065430Y-53687356I-1J-1659999D01*
G01*
X134894166Y-58387356D02*
G75*
G03*
X136528948Y-59759100I1634782J288257D01*
G01*
X149798371Y-53687356D02*
G75*
G03*
X148163589Y-51739100I-1634781J288256D01*
G01*
X147334852Y-59759099D02*
G75*
G03*
X148969632Y-58387356I1J1659998D01*
G01*
X157416900Y-50499100D02*
G75*
G03*
X156356900Y-49439100I-1060000J0D01*
G01*
X156356900Y-62059100D02*
G75*
G03*
X157416900Y-60999100I0J1060000D01*
G01*
%TO.C,Main_2_MFD1*%
X216851700Y-118404100D02*
X206351700Y-118404100D01*
X205291700Y-117344100D02*
X205291700Y-49944100D01*
X209339956Y-110760570D02*
X214439956Y-109861302D01*
X207391700Y-109125789D02*
X207391700Y-58162411D01*
X204397362Y-108824100D02*
X204397362Y-108324100D01*
X204830375Y-108574100D02*
X204397362Y-108824100D01*
X204397362Y-108324100D02*
X204830375Y-108574100D01*
X215811700Y-108226521D02*
X215811700Y-59061679D01*
X209339956Y-56527630D02*
X214439956Y-57426898D01*
X217911700Y-49944100D02*
X217911700Y-117344100D01*
X206351700Y-48884100D02*
X216851700Y-48884100D01*
X205291700Y-117344100D02*
G75*
G03*
X206351700Y-118404100I1060001J1D01*
G01*
X216851700Y-118404100D02*
G75*
G03*
X217911700Y-117344100I-1J1060001D01*
G01*
X207391700Y-109125789D02*
G75*
G03*
X209339956Y-110760570I1659999J-1D01*
G01*
X214439956Y-109861301D02*
G75*
G03*
X215811700Y-108226521I-288256J1634781D01*
G01*
X209339958Y-56527619D02*
G75*
G03*
X207391700Y-58162411I-288258J-1634781D01*
G01*
X215811720Y-59061679D02*
G75*
G03*
X214439956Y-57426899I-1660020J-21D01*
G01*
X206351700Y-48884100D02*
G75*
G03*
X205291700Y-49944100I0J-1060000D01*
G01*
X217911700Y-49944100D02*
G75*
G03*
X216851700Y-48884100I-1060000J0D01*
G01*
%TO.C,SkyView_2*%
X165747100Y-98386800D02*
X165747100Y-87886800D01*
X166807100Y-86826800D02*
X195657100Y-86826800D01*
X173365630Y-90875056D02*
X174264898Y-95975056D01*
X175000411Y-88926800D02*
X187463789Y-88926800D01*
X175442100Y-85932462D02*
X175942100Y-85932462D01*
X175692100Y-86365475D02*
X175442100Y-85932462D01*
X175899679Y-97346800D02*
X186564521Y-97346800D01*
X175942100Y-85932462D02*
X175692100Y-86365475D01*
X189098570Y-90875056D02*
X188199302Y-95975056D01*
X195657100Y-99446800D02*
X166807100Y-99446800D01*
X196717100Y-87886800D02*
X196717100Y-98386800D01*
X166807100Y-86826800D02*
G75*
G03*
X165747100Y-87886800I1J-1060001D01*
G01*
X165747100Y-98386800D02*
G75*
G03*
X166807100Y-99446800I1060001J1D01*
G01*
X175000411Y-88926800D02*
G75*
G03*
X173365630Y-90875056I-1J-1659999D01*
G01*
X174264899Y-95975056D02*
G75*
G03*
X175899679Y-97346800I1634781J288256D01*
G01*
X189098581Y-90875058D02*
G75*
G03*
X187463789Y-88926800I-1634781J288258D01*
G01*
X186564521Y-97346801D02*
G75*
G03*
X188199302Y-95975056I-1J1660001D01*
G01*
X196717100Y-87886800D02*
G75*
G03*
X195657100Y-86826800I-1060000J0D01*
G01*
X195657100Y-99446800D02*
G75*
G03*
X196717100Y-98386800I0J1060000D01*
G01*
%TO.C,Main_1_PFD1*%
X117271700Y-118404100D02*
X106771700Y-118404100D01*
X105711700Y-117344100D02*
X105711700Y-49944100D01*
X109759956Y-110760570D02*
X114859956Y-109861302D01*
X107811700Y-109125789D02*
X107811700Y-58162411D01*
X104817362Y-108824100D02*
X104817362Y-108324100D01*
X105250375Y-108574100D02*
X104817362Y-108824100D01*
X104817362Y-108324100D02*
X105250375Y-108574100D01*
X116231700Y-108226521D02*
X116231700Y-59061679D01*
X109759956Y-56527630D02*
X114859956Y-57426898D01*
X118331700Y-49944100D02*
X118331700Y-117344100D01*
X106771700Y-48884100D02*
X117271700Y-48884100D01*
X105711700Y-117344100D02*
G75*
G03*
X106771700Y-118404100I1060001J1D01*
G01*
X117271700Y-118404100D02*
G75*
G03*
X118331700Y-117344100I-1J1060001D01*
G01*
X107811700Y-109125789D02*
G75*
G03*
X109759956Y-110760570I1659999J-1D01*
G01*
X114859956Y-109861301D02*
G75*
G03*
X116231700Y-108226521I-288256J1634781D01*
G01*
X109759958Y-56527619D02*
G75*
G03*
X107811700Y-58162411I-288258J-1634781D01*
G01*
X116231720Y-59061679D02*
G75*
G03*
X114859956Y-57426899I-1660020J-21D01*
G01*
X106771700Y-48884100D02*
G75*
G03*
X105711700Y-49944100I0J-1060000D01*
G01*
X118331700Y-49944100D02*
G75*
G03*
X117271700Y-48884100I-1060000J0D01*
G01*
%TO.C,Serial_1_ADSB1*%
X126446900Y-116799200D02*
X126446900Y-106299200D01*
X127506900Y-105239200D02*
X156356900Y-105239200D01*
X134065430Y-109487456D02*
X134894167Y-114187456D01*
X135700211Y-107539200D02*
X148163589Y-107539200D01*
X136528948Y-115559200D02*
X147334852Y-115559200D01*
X147221900Y-104344862D02*
X147721900Y-104344862D01*
X147471900Y-104777875D02*
X147221900Y-104344862D01*
X147721900Y-104344862D02*
X147471900Y-104777875D01*
X149798370Y-109487456D02*
X148969633Y-114187456D01*
X156356900Y-117859200D02*
X127506900Y-117859200D01*
X157416900Y-106299200D02*
X157416900Y-116799200D01*
X127506900Y-105239200D02*
G75*
G03*
X126446900Y-106299200I1J-1060001D01*
G01*
X126446900Y-116799200D02*
G75*
G03*
X127506900Y-117859200I1060001J1D01*
G01*
X135700211Y-107539200D02*
G75*
G03*
X134065430Y-109487456I-1J-1659999D01*
G01*
X134894166Y-114187456D02*
G75*
G03*
X136528948Y-115559200I1634782J288257D01*
G01*
X149798371Y-109487456D02*
G75*
G03*
X148163589Y-107539200I-1634781J288256D01*
G01*
X147334852Y-115559199D02*
G75*
G03*
X148969632Y-114187456I1J1659998D01*
G01*
X157416900Y-106299200D02*
G75*
G03*
X156356900Y-105239200I-1060000J0D01*
G01*
X156356900Y-117859200D02*
G75*
G03*
X157416900Y-116799200I0J1060000D01*
G01*
%TO.C,SkyView_3*%
X165747100Y-116902800D02*
X165747100Y-106402800D01*
X166807100Y-105342800D02*
X195657100Y-105342800D01*
X173365630Y-109391056D02*
X174264898Y-114491056D01*
X175000411Y-107442800D02*
X187463789Y-107442800D01*
X175442100Y-104448462D02*
X175942100Y-104448462D01*
X175692100Y-104881475D02*
X175442100Y-104448462D01*
X175899679Y-115862800D02*
X186564521Y-115862800D01*
X175942100Y-104448462D02*
X175692100Y-104881475D01*
X189098570Y-109391056D02*
X188199302Y-114491056D01*
X195657100Y-117962800D02*
X166807100Y-117962800D01*
X196717100Y-106402800D02*
X196717100Y-116902800D01*
X166807100Y-105342800D02*
G75*
G03*
X165747100Y-106402800I1J-1060001D01*
G01*
X165747100Y-116902800D02*
G75*
G03*
X166807100Y-117962800I1060001J1D01*
G01*
X175000411Y-107442800D02*
G75*
G03*
X173365630Y-109391056I-1J-1659999D01*
G01*
X174264899Y-114491056D02*
G75*
G03*
X175899679Y-115862800I1634781J288256D01*
G01*
X189098581Y-109391058D02*
G75*
G03*
X187463789Y-107442800I-1634781J288258D01*
G01*
X186564521Y-115862801D02*
G75*
G03*
X188199302Y-114491056I-1J1660001D01*
G01*
X196717100Y-106402800D02*
G75*
G03*
X195657100Y-105342800I-1060000J0D01*
G01*
X195657100Y-117962800D02*
G75*
G03*
X196717100Y-116902800I0J1060000D01*
G01*
%TO.C,SV-Net_AP_Pitch_1*%
X196737100Y-31879500D02*
X196737100Y-42379500D01*
X195677100Y-43439500D02*
X166827100Y-43439500D01*
X189118570Y-39391244D02*
X188219302Y-34291244D01*
X187483789Y-41339500D02*
X175020411Y-41339500D01*
X187042100Y-44333838D02*
X186542100Y-44333838D01*
X186792100Y-43900825D02*
X187042100Y-44333838D01*
X186584521Y-32919500D02*
X175919679Y-32919500D01*
X186542100Y-44333838D02*
X186792100Y-43900825D01*
X173385630Y-39391244D02*
X174284898Y-34291244D01*
X166827100Y-30819500D02*
X195677100Y-30819500D01*
X165767100Y-42379500D02*
X165767100Y-31879500D01*
X195677100Y-43439500D02*
G75*
G03*
X196737100Y-42379500I-1J1060001D01*
G01*
X196737100Y-31879500D02*
G75*
G03*
X195677100Y-30819500I-1060001J-1D01*
G01*
X187483789Y-41339500D02*
G75*
G03*
X189118570Y-39391244I1J1659999D01*
G01*
X188219301Y-34291244D02*
G75*
G03*
X186584521Y-32919500I-1634781J-288256D01*
G01*
X173385619Y-39391242D02*
G75*
G03*
X175020411Y-41339500I1634781J-288258D01*
G01*
X175919679Y-32919499D02*
G75*
G03*
X174284898Y-34291244I1J-1660001D01*
G01*
X165767100Y-42379500D02*
G75*
G03*
X166827100Y-43439500I1060000J0D01*
G01*
X166827100Y-30819500D02*
G75*
G03*
X165767100Y-31879500I0J-1060000D01*
G01*
%TO.C,power_input_1*%
X165747100Y-135418800D02*
X165747100Y-124918800D01*
X166807100Y-123858800D02*
X195657100Y-123858800D01*
X173365630Y-127907056D02*
X174264898Y-133007056D01*
X175000411Y-125958800D02*
X187463789Y-125958800D01*
X175442100Y-122964462D02*
X175942100Y-122964462D01*
X175692100Y-123397475D02*
X175442100Y-122964462D01*
X175899679Y-134378800D02*
X186564521Y-134378800D01*
X175942100Y-122964462D02*
X175692100Y-123397475D01*
X189098570Y-127907056D02*
X188199302Y-133007056D01*
X195657100Y-136478800D02*
X166807100Y-136478800D01*
X196717100Y-124918800D02*
X196717100Y-135418800D01*
X166807100Y-123858800D02*
G75*
G03*
X165747100Y-124918800I1J-1060001D01*
G01*
X165747100Y-135418800D02*
G75*
G03*
X166807100Y-136478800I1060001J1D01*
G01*
X175000411Y-125958800D02*
G75*
G03*
X173365630Y-127907056I-1J-1659999D01*
G01*
X174264899Y-133007056D02*
G75*
G03*
X175899679Y-134378800I1634781J288256D01*
G01*
X189098581Y-127907058D02*
G75*
G03*
X187463789Y-125958800I-1634781J288258D01*
G01*
X186564521Y-134378801D02*
G75*
G03*
X188199302Y-133007056I-1J1660001D01*
G01*
X196717100Y-124918800D02*
G75*
G03*
X195657100Y-123858800I-1060000J0D01*
G01*
X195657100Y-136478800D02*
G75*
G03*
X196717100Y-135418800I0J1060000D01*
G01*
%TD*%
M02*
